<?xml version="1.0" encoding="utf-8" standalone="no"?>
<!DOCTYPE svg PUBLIC "-//W3C//DTD SVG 1.1//EN"
  "http://www.w3.org/Graphics/SVG/1.1/DTD/svg11.dtd">
<svg xmlns:xlink="http://www.w3.org/1999/xlink" width="573.732187pt" height="344.758242pt" viewBox="0 0 573.732187 344.758242" xmlns="http://www.w3.org/2000/svg" version="1.1">
 <metadata>
  <rdf:RDF xmlns:dc="http://purl.org/dc/elements/1.1/" xmlns:cc="http://creativecommons.org/ns#" xmlns:rdf="http://www.w3.org/1999/02/22-rdf-syntax-ns#">
   <cc:Work>
    <dc:type rdf:resource="http://purl.org/dc/dcmitype/StillImage"/>
    <dc:date>2025-05-08T15:37:25.625159</dc:date>
    <dc:format>image/svg+xml</dc:format>
    <dc:creator>
     <cc:Agent>
      <dc:title>Matplotlib v3.5.0, https://matplotlib.org/</dc:title>
     </cc:Agent>
    </dc:creator>
   </cc:Work>
  </rdf:RDF>
 </metadata>
 <defs>
  <style type="text/css">*{stroke-linejoin: round; stroke-linecap: butt}</style>
 </defs>
 <g id="figure_1">
  <g id="patch_1">
   <path d="M 0 344.758242 
L 573.732187 344.758242 
L 573.732187 0 
L 0 0 
z
" style="fill: #ffffff"/>
  </g>
  <g id="axes_1">
   <g id="patch_2">
    <path d="M 74.858906 290.668711 
L 353.858906 290.668711 
L 353.858906 13.468711 
L 74.858906 13.468711 
z
" style="fill: #ffffff"/>
   </g>
   <g id="matplotlib.axis_1">
    <g id="xtick_1">
     <g id="line2d_1">
      <defs>
       <path id="mb3afb20047" d="M 0 0 
L 0 6 
" style="stroke: #262626; stroke-width: 3"/>
      </defs>
      <g>
       <use xlink:href="#mb3afb20047" x="74.858906" y="290.668711" style="fill: #262626; stroke: #262626; stroke-width: 3"/>
      </g>
     </g>
     <g id="text_1">
      <!-- $\mathdefault{10^{0}}$ -->
      <g style="fill: #262626" transform="translate(60.338906 312.706133)">
       <text>
        <tspan style="font: 16.5px 'DejaVu Sans'" x="0 10.497803" y="-0.10312500000000213">10</tspan>
        <tspan style="font: 11.55px 'DejaVu Sans'" x="21.153652" y="-6.425000000000001">0</tspan>
       </text>
      </g>
     </g>
    </g>
    <g id="xtick_2">
     <g id="line2d_2">
      <g>
       <use xlink:href="#mb3afb20047" x="154.573192" y="290.668711" style="fill: #262626; stroke: #262626; stroke-width: 3"/>
      </g>
     </g>
     <g id="text_2">
      <!-- $\mathdefault{10^{2}}$ -->
      <g style="fill: #262626" transform="translate(140.053192 312.706133)">
       <text>
        <tspan style="font: 16.5px 'DejaVu Sans'" x="0 10.497803" y="-0.10312500000000213">10</tspan>
        <tspan style="font: 11.55px 'DejaVu Sans'" x="21.153652" y="-6.425000000000001">2</tspan>
       </text>
      </g>
     </g>
    </g>
    <g id="xtick_3">
     <g id="line2d_3">
      <g>
       <use xlink:href="#mb3afb20047" x="234.287478" y="290.668711" style="fill: #262626; stroke: #262626; stroke-width: 3"/>
      </g>
     </g>
     <g id="text_3">
      <!-- $\mathdefault{10^{4}}$ -->
      <g style="fill: #262626" transform="translate(219.767478 312.706133)">
       <text>
        <tspan style="font: 16.5px 'DejaVu Sans'" x="0 10.497803" y="-0.2562500000000014">10</tspan>
        <tspan style="font: 11.55px 'DejaVu Sans'" x="21.153652" y="-6.578125">4</tspan>
       </text>
      </g>
     </g>
    </g>
    <g id="xtick_4">
     <g id="line2d_4">
      <g>
       <use xlink:href="#mb3afb20047" x="314.001763" y="290.668711" style="fill: #262626; stroke: #262626; stroke-width: 3"/>
      </g>
     </g>
     <g id="text_4">
      <!-- $\mathdefault{10^{6}}$ -->
      <g style="fill: #262626" transform="translate(299.481763 312.706133)">
       <text>
        <tspan style="font: 16.5px 'DejaVu Sans'" x="0 10.497803" y="-0.10312500000000213">10</tspan>
        <tspan style="font: 11.55px 'DejaVu Sans'" x="21.153652" y="-6.425000000000001">6</tspan>
       </text>
      </g>
     </g>
    </g>
    <g id="text_5">
     <text style="fill: #262626; font: 18px 'sans-serif'; text-anchor: middle" x="214.358906" y="333.814805" transform="rotate(-0, 214.358906, 333.814805)">log[RFP]</text>
    </g>
   </g>
   <g id="matplotlib.axis_2">
    <g id="ytick_1">
     <g id="line2d_5">
      <defs>
       <path id="m7caaf31801" d="M 0 0 
L -6 0 
" style="stroke: #262626; stroke-width: 3"/>
      </defs>
      <g>
       <use xlink:href="#m7caaf31801" x="74.858906" y="290.668711" style="fill: #262626; stroke: #262626; stroke-width: 3"/>
      </g>
     </g>
     <g id="text_6">
      <text style="fill: #262626; font: 16.5px 'sans-serif'; text-anchor: end" x="65.358906" y="296.937422" transform="rotate(-0, 65.358906, 296.937422)">0.00</text>
     </g>
    </g>
    <g id="ytick_2">
     <g id="line2d_6">
      <g>
       <use xlink:href="#m7caaf31801" x="74.858906" y="251.068711" style="fill: #262626; stroke: #262626; stroke-width: 3"/>
      </g>
     </g>
     <g id="text_7">
      <text style="fill: #262626; font: 16.5px 'sans-serif'; text-anchor: end" x="65.358906" y="257.337422" transform="rotate(-0, 65.358906, 257.337422)">0.25</text>
     </g>
    </g>
    <g id="ytick_3">
     <g id="line2d_7">
      <g>
       <use xlink:href="#m7caaf31801" x="74.858906" y="211.468711" style="fill: #262626; stroke: #262626; stroke-width: 3"/>
      </g>
     </g>
     <g id="text_8">
      <text style="fill: #262626; font: 16.5px 'sans-serif'; text-anchor: end" x="65.358906" y="217.737422" transform="rotate(-0, 65.358906, 217.737422)">0.50</text>
     </g>
    </g>
    <g id="ytick_4">
     <g id="line2d_8">
      <g>
       <use xlink:href="#m7caaf31801" x="74.858906" y="171.868711" style="fill: #262626; stroke: #262626; stroke-width: 3"/>
      </g>
     </g>
     <g id="text_9">
      <text style="fill: #262626; font: 16.5px 'sans-serif'; text-anchor: end" x="65.358906" y="178.137422" transform="rotate(-0, 65.358906, 178.137422)">0.75</text>
     </g>
    </g>
    <g id="ytick_5">
     <g id="line2d_9">
      <g>
       <use xlink:href="#m7caaf31801" x="74.858906" y="132.268711" style="fill: #262626; stroke: #262626; stroke-width: 3"/>
      </g>
     </g>
     <g id="text_10">
      <text style="fill: #262626; font: 16.5px 'sans-serif'; text-anchor: end" x="65.358906" y="138.537422" transform="rotate(-0, 65.358906, 138.537422)">1.00</text>
     </g>
    </g>
    <g id="ytick_6">
     <g id="line2d_10">
      <g>
       <use xlink:href="#m7caaf31801" x="74.858906" y="92.668711" style="fill: #262626; stroke: #262626; stroke-width: 3"/>
      </g>
     </g>
     <g id="text_11">
      <text style="fill: #262626; font: 16.5px 'sans-serif'; text-anchor: end" x="65.358906" y="98.937422" transform="rotate(-0, 65.358906, 98.937422)">1.25</text>
     </g>
    </g>
    <g id="ytick_7">
     <g id="line2d_11">
      <g>
       <use xlink:href="#m7caaf31801" x="74.858906" y="53.068711" style="fill: #262626; stroke: #262626; stroke-width: 3"/>
      </g>
     </g>
     <g id="text_12">
      <text style="fill: #262626; font: 16.5px 'sans-serif'; text-anchor: end" x="65.358906" y="59.337422" transform="rotate(-0, 65.358906, 59.337422)">1.50</text>
     </g>
    </g>
    <g id="ytick_8">
     <g id="line2d_12">
      <g>
       <use xlink:href="#m7caaf31801" x="74.858906" y="13.468711" style="fill: #262626; stroke: #262626; stroke-width: 3"/>
      </g>
     </g>
     <g id="text_13">
      <text style="fill: #262626; font: 16.5px 'sans-serif'; text-anchor: end" x="65.358906" y="19.737422" transform="rotate(-0, 65.358906, 19.737422)">1.75</text>
     </g>
    </g>
    <g id="text_14">
     <text style="fill: #262626; font: 18px 'sans-serif'; text-anchor: middle" x="20.877187" y="152.068711" transform="rotate(-90, 20.877187, 152.068711)">Density</text>
    </g>
   </g>
   <g id="PolyCollection_1">
    <defs>
     <path id="m3c4febc523" d="M -44.712522 -54.136412 
L -44.712522 -54.089531 
L -42.781701 -54.089531 
L -40.85088 -54.089531 
L -38.920059 -54.089531 
L -36.989238 -54.089531 
L -35.058417 -54.089531 
L -33.127595 -54.089531 
L -31.196774 -54.089531 
L -29.265953 -54.089531 
L -27.335132 -54.089531 
L -25.404311 -54.089531 
L -23.47349 -54.089531 
L -21.542669 -54.089531 
L -19.611848 -54.089531 
L -17.681026 -54.089531 
L -15.750205 -54.089531 
L -13.819384 -54.089531 
L -11.888563 -54.089531 
L -9.957742 -54.089531 
L -8.026921 -54.089531 
L -6.0961 -54.089531 
L -4.165278 -54.089531 
L -2.234457 -54.089531 
L -0.303636 -54.089531 
L 1.627185 -54.089531 
L 3.558006 -54.089531 
L 5.488827 -54.089531 
L 7.419648 -54.089531 
L 9.35047 -54.089531 
L 11.281291 -54.089531 
L 13.212112 -54.089531 
L 15.142933 -54.089531 
L 17.073754 -54.089531 
L 19.004575 -54.089531 
L 20.935396 -54.089531 
L 22.866218 -54.089531 
L 24.797039 -54.089531 
L 26.72786 -54.089531 
L 28.658681 -54.089531 
L 30.589502 -54.089531 
L 32.520323 -54.089531 
L 34.451144 -54.089531 
L 36.381966 -54.089531 
L 38.312787 -54.089531 
L 40.243608 -54.089531 
L 42.174429 -54.089531 
L 44.10525 -54.089531 
L 46.036071 -54.089531 
L 47.966892 -54.089531 
L 49.897713 -54.089531 
L 51.828535 -54.089531 
L 53.759356 -54.089531 
L 55.690177 -54.089531 
L 57.620998 -54.089531 
L 59.551819 -54.089531 
L 61.48264 -54.089531 
L 63.413461 -54.089531 
L 65.344283 -54.089531 
L 67.275104 -54.089531 
L 69.205925 -54.089531 
L 71.136746 -54.089531 
L 73.067567 -54.089531 
L 74.998388 -54.089531 
L 76.929209 -54.089531 
L 78.860031 -54.089531 
L 80.790852 -54.089531 
L 82.721673 -54.089531 
L 84.652494 -54.089531 
L 86.583315 -54.089531 
L 88.514136 -54.089531 
L 90.444957 -54.089531 
L 92.375779 -54.089531 
L 94.3066 -54.089531 
L 96.237421 -54.089531 
L 98.168242 -54.089531 
L 100.099063 -54.089531 
L 102.029884 -54.089531 
L 103.960705 -54.089531 
L 105.891527 -54.089531 
L 107.822348 -54.089531 
L 109.753169 -54.089531 
L 111.68399 -54.089531 
L 113.614811 -54.089531 
L 115.545632 -54.089531 
L 117.476453 -54.089531 
L 119.407274 -54.089531 
L 121.338096 -54.089531 
L 123.268917 -54.089531 
L 125.199738 -54.089531 
L 127.130559 -54.089531 
L 129.06138 -54.089531 
L 130.992201 -54.089531 
L 132.923022 -54.089531 
L 134.853844 -54.089531 
L 136.784665 -54.089531 
L 138.715486 -54.089531 
L 140.646307 -54.089531 
L 142.577128 -54.089531 
L 144.507949 -54.089531 
L 146.43877 -54.089531 
L 148.369592 -54.089531 
L 150.300413 -54.089531 
L 152.231234 -54.089531 
L 154.162055 -54.089531 
L 156.092876 -54.089531 
L 158.023697 -54.089531 
L 159.954518 -54.089531 
L 161.88534 -54.089531 
L 163.816161 -54.089531 
L 165.746982 -54.089531 
L 167.677803 -54.089531 
L 169.608624 -54.089531 
L 171.539445 -54.089531 
L 173.470266 -54.089531 
L 175.401088 -54.089531 
L 177.331909 -54.089531 
L 179.26273 -54.089531 
L 181.193551 -54.089531 
L 183.124372 -54.089531 
L 185.055193 -54.089531 
L 186.986014 -54.089531 
L 188.916835 -54.089531 
L 190.847657 -54.089531 
L 192.778478 -54.089531 
L 194.709299 -54.089531 
L 196.64012 -54.089531 
L 198.570941 -54.089531 
L 200.501762 -54.089531 
L 202.432583 -54.089531 
L 204.363405 -54.089531 
L 206.294226 -54.089531 
L 208.225047 -54.089531 
L 210.155868 -54.089531 
L 212.086689 -54.089531 
L 214.01751 -54.089531 
L 215.948331 -54.089531 
L 217.879153 -54.089531 
L 219.809974 -54.089531 
L 221.740795 -54.089531 
L 223.671616 -54.089531 
L 225.602437 -54.089531 
L 227.533258 -54.089531 
L 229.464079 -54.089531 
L 231.394901 -54.089531 
L 233.325722 -54.089531 
L 235.256543 -54.089531 
L 237.187364 -54.089531 
L 239.118185 -54.089531 
L 241.049006 -54.089531 
L 242.979827 -54.089531 
L 244.910649 -54.089531 
L 246.84147 -54.089531 
L 248.772291 -54.089531 
L 250.703112 -54.089531 
L 252.633933 -54.089531 
L 254.564754 -54.089531 
L 256.495575 -54.089531 
L 258.426396 -54.089531 
L 260.357218 -54.089531 
L 262.288039 -54.089531 
L 264.21886 -54.089531 
L 266.149681 -54.089531 
L 268.080502 -54.089531 
L 270.011323 -54.089531 
L 271.942144 -54.089531 
L 273.872966 -54.089531 
L 275.803787 -54.089531 
L 277.734608 -54.089531 
L 279.665429 -54.089531 
L 281.59625 -54.089531 
L 283.527071 -54.089531 
L 285.457892 -54.089531 
L 287.388714 -54.089531 
L 289.319535 -54.089531 
L 291.250356 -54.089531 
L 293.181177 -54.089531 
L 295.111998 -54.089531 
L 297.042819 -54.089531 
L 298.97364 -54.089531 
L 300.904462 -54.089531 
L 302.835283 -54.089531 
L 304.766104 -54.089531 
L 306.696925 -54.089531 
L 308.627746 -54.089531 
L 310.558567 -54.089531 
L 312.489388 -54.089531 
L 314.42021 -54.089531 
L 316.351031 -54.089531 
L 318.281852 -54.089531 
L 320.212673 -54.089531 
L 322.143494 -54.089531 
L 324.074315 -54.089531 
L 326.005136 -54.089531 
L 327.935957 -54.089531 
L 329.866779 -54.089531 
L 331.7976 -54.089531 
L 333.728421 -54.089531 
L 335.659242 -54.089531 
L 337.590063 -54.089531 
L 339.520884 -54.089531 
L 339.520884 -54.311253 
L 339.520884 -54.311253 
L 337.590063 -54.427819 
L 335.659242 -54.62064 
L 333.728421 -54.984461 
L 331.7976 -55.620341 
L 329.866779 -56.601893 
L 327.935957 -58.01257 
L 326.005136 -60.05234 
L 324.074315 -63.17909 
L 322.143494 -68.29331 
L 320.212673 -76.936734 
L 318.281852 -91.304049 
L 316.351031 -113.835684 
L 314.42021 -146.364004 
L 312.489388 -188.963768 
L 310.558567 -238.836922 
L 308.627746 -289.899779 
L 306.696925 -333.794908 
L 304.766104 -362.248158 
L 302.835283 -369.586011 
L 300.904462 -354.232136 
L 298.97364 -319.036361 
L 297.042819 -270.680591 
L 295.111998 -218.042794 
L 293.181177 -169.668227 
L 291.250356 -131.339483 
L 289.319535 -104.924684 
L 287.388714 -88.918765 
L 285.457892 -80.111934 
L 283.527071 -75.321023 
L 281.59625 -72.369631 
L 279.665429 -70.199778 
L 277.734608 -68.489643 
L 275.803787 -67.201344 
L 273.872966 -66.27933 
L 271.942144 -65.530037 
L 270.011323 -64.685709 
L 268.080502 -63.588148 
L 266.149681 -62.289703 
L 264.21886 -60.9795 
L 262.288039 -59.856115 
L 260.357218 -59.037521 
L 258.426396 -58.513733 
L 256.495575 -58.173124 
L 254.564754 -57.892587 
L 252.633933 -57.603215 
L 250.703112 -57.287473 
L 248.772291 -56.947467 
L 246.84147 -56.594979 
L 244.910649 -56.267244 
L 242.979827 -56.018549 
L 241.049006 -55.866191 
L 239.118185 -55.763267 
L 237.187364 -55.659468 
L 235.256543 -55.57699 
L 233.325722 -55.587479 
L 231.394901 -55.716996 
L 229.464079 -55.914846 
L 227.533258 -56.125092 
L 225.602437 -56.350517 
L 223.671616 -56.618828 
L 221.740795 -56.909158 
L 219.809974 -57.154537 
L 217.879153 -57.314661 
L 215.948331 -57.403744 
L 214.01751 -57.44616 
L 212.086689 -57.45171 
L 210.155868 -57.439694 
L 208.225047 -57.44738 
L 206.294226 -57.500083 
L 204.363405 -57.581374 
L 202.432583 -57.628587 
L 200.501762 -57.560076 
L 198.570941 -57.335583 
L 196.64012 -57.006281 
L 194.709299 -56.687565 
L 192.778478 -56.474169 
L 190.847657 -56.394361 
L 188.916835 -56.421021 
L 186.986014 -56.475954 
L 185.055193 -56.448272 
L 183.124372 -56.281381 
L 181.193551 -56.039129 
L 179.26273 -55.845749 
L 177.331909 -55.774109 
L 175.401088 -55.80929 
L 173.470266 -55.89395 
L 171.539445 -55.986042 
L 169.608624 -56.078489 
L 167.677803 -56.17331 
L 165.746982 -56.246058 
L 163.816161 -56.258491 
L 161.88534 -56.21905 
L 159.954518 -56.198117 
L 158.023697 -56.246435 
L 156.092876 -56.316759 
L 154.162055 -56.302795 
L 152.231234 -56.148005 
L 150.300413 -55.891944 
L 148.369592 -55.620774 
L 146.43877 -55.397808 
L 144.507949 -55.237788 
L 142.577128 -55.122282 
L 140.646307 -55.028528 
L 138.715486 -54.949875 
L 136.784665 -54.888847 
L 134.853844 -54.831646 
L 132.923022 -54.749117 
L 130.992201 -54.633457 
L 129.06138 -54.515395 
L 127.130559 -54.432485 
L 125.199738 -54.391843 
L 123.268917 -54.371488 
L 121.338096 -54.350173 
L 119.407274 -54.32637 
L 117.476453 -54.307378 
L 115.545632 -54.290683 
L 113.614811 -54.266293 
L 111.68399 -54.231665 
L 109.753169 -54.194013 
L 107.822348 -54.161967 
L 105.891527 -54.142538 
L 103.960705 -54.141211 
L 102.029884 -54.157959 
L 100.099063 -54.184268 
L 98.168242 -54.20581 
L 96.237421 -54.208781 
L 94.3066 -54.188479 
L 92.375779 -54.154292 
L 90.444957 -54.12234 
L 88.514136 -54.102244 
L 86.583315 -54.093308 
L 84.652494 -54.090626 
L 82.721673 -54.090951 
L 80.790852 -54.094212 
L 78.860031 -54.102285 
L 76.929209 -54.115732 
L 74.998388 -54.129967 
L 73.067567 -54.13641 
L 71.136746 -54.130357 
L 69.205925 -54.11624 
L 67.275104 -54.102657 
L 65.344283 -54.094377 
L 63.413461 -54.090875 
L 61.48264 -54.089811 
L 59.551819 -54.089575 
L 57.620998 -54.089536 
L 55.690177 -54.089532 
L 53.759356 -54.089531 
L 51.828535 -54.089531 
L 49.897713 -54.089531 
L 47.966892 -54.089531 
L 46.036071 -54.089531 
L 44.10525 -54.089531 
L 42.174429 -54.089531 
L 40.243608 -54.089531 
L 38.312787 -54.089531 
L 36.381966 -54.089531 
L 34.451144 -54.089531 
L 32.520323 -54.089531 
L 30.589502 -54.089531 
L 28.658681 -54.089531 
L 26.72786 -54.089531 
L 24.797039 -54.089531 
L 22.866218 -54.089531 
L 20.935396 -54.089531 
L 19.004575 -54.089531 
L 17.073754 -54.089531 
L 15.142933 -54.089531 
L 13.212112 -54.089531 
L 11.281291 -54.089531 
L 9.35047 -54.089531 
L 7.419648 -54.089531 
L 5.488827 -54.089531 
L 3.558006 -54.089531 
L 1.627185 -54.089531 
L -0.303636 -54.089531 
L -2.234457 -54.089531 
L -4.165278 -54.089531 
L -6.0961 -54.089531 
L -8.026921 -54.089531 
L -9.957742 -54.089531 
L -11.888563 -54.089531 
L -13.819384 -54.089531 
L -15.750205 -54.089531 
L -17.681026 -54.089531 
L -19.611848 -54.089531 
L -21.542669 -54.089531 
L -23.47349 -54.089531 
L -25.404311 -54.089531 
L -27.335132 -54.089532 
L -29.265953 -54.089536 
L -31.196774 -54.089574 
L -33.127595 -54.089803 
L -35.058417 -54.090843 
L -36.989238 -54.094285 
L -38.920059 -54.102469 
L -40.85088 -54.115985 
L -42.781701 -54.130163 
L -44.712522 -54.136412 
z
" style="stroke: #8c2981; stroke-width: 3"/>
    </defs>
    <g clip-path="url(#p178be9d29c)">
     <use xlink:href="#m3c4febc523" x="0" y="344.758242" style="fill: #8c2981; fill-opacity: 0.2; stroke: #8c2981; stroke-width: 3"/>
    </g>
   </g>
   <g id="PolyCollection_2">
    <defs>
     <path id="mb1f04cd32e" d="M 58.998153 -54.141267 
L 58.998153 -54.089531 
L 60.261442 -54.089531 
L 61.52473 -54.089531 
L 62.788018 -54.089531 
L 64.051307 -54.089531 
L 65.314595 -54.089531 
L 66.577883 -54.089531 
L 67.841172 -54.089531 
L 69.10446 -54.089531 
L 70.367749 -54.089531 
L 71.631037 -54.089531 
L 72.894325 -54.089531 
L 74.157614 -54.089531 
L 75.420902 -54.089531 
L 76.68419 -54.089531 
L 77.947479 -54.089531 
L 79.210767 -54.089531 
L 80.474055 -54.089531 
L 81.737344 -54.089531 
L 83.000632 -54.089531 
L 84.26392 -54.089531 
L 85.527209 -54.089531 
L 86.790497 -54.089531 
L 88.053785 -54.089531 
L 89.317074 -54.089531 
L 90.580362 -54.089531 
L 91.84365 -54.089531 
L 93.106939 -54.089531 
L 94.370227 -54.089531 
L 95.633515 -54.089531 
L 96.896804 -54.089531 
L 98.160092 -54.089531 
L 99.42338 -54.089531 
L 100.686669 -54.089531 
L 101.949957 -54.089531 
L 103.213245 -54.089531 
L 104.476534 -54.089531 
L 105.739822 -54.089531 
L 107.00311 -54.089531 
L 108.266399 -54.089531 
L 109.529687 -54.089531 
L 110.792975 -54.089531 
L 112.056264 -54.089531 
L 113.319552 -54.089531 
L 114.58284 -54.089531 
L 115.846129 -54.089531 
L 117.109417 -54.089531 
L 118.372705 -54.089531 
L 119.635994 -54.089531 
L 120.899282 -54.089531 
L 122.16257 -54.089531 
L 123.425859 -54.089531 
L 124.689147 -54.089531 
L 125.952435 -54.089531 
L 127.215724 -54.089531 
L 128.479012 -54.089531 
L 129.742301 -54.089531 
L 131.005589 -54.089531 
L 132.268877 -54.089531 
L 133.532166 -54.089531 
L 134.795454 -54.089531 
L 136.058742 -54.089531 
L 137.322031 -54.089531 
L 138.585319 -54.089531 
L 139.848607 -54.089531 
L 141.111896 -54.089531 
L 142.375184 -54.089531 
L 143.638472 -54.089531 
L 144.901761 -54.089531 
L 146.165049 -54.089531 
L 147.428337 -54.089531 
L 148.691626 -54.089531 
L 149.954914 -54.089531 
L 151.218202 -54.089531 
L 152.481491 -54.089531 
L 153.744779 -54.089531 
L 155.008067 -54.089531 
L 156.271356 -54.089531 
L 157.534644 -54.089531 
L 158.797932 -54.089531 
L 160.061221 -54.089531 
L 161.324509 -54.089531 
L 162.587797 -54.089531 
L 163.851086 -54.089531 
L 165.114374 -54.089531 
L 166.377662 -54.089531 
L 167.640951 -54.089531 
L 168.904239 -54.089531 
L 170.167527 -54.089531 
L 171.430816 -54.089531 
L 172.694104 -54.089531 
L 173.957392 -54.089531 
L 175.220681 -54.089531 
L 176.483969 -54.089531 
L 177.747257 -54.089531 
L 179.010546 -54.089531 
L 180.273834 -54.089531 
L 181.537122 -54.089531 
L 182.800411 -54.089531 
L 184.063699 -54.089531 
L 185.326987 -54.089531 
L 186.590276 -54.089531 
L 187.853564 -54.089531 
L 189.116853 -54.089531 
L 190.380141 -54.089531 
L 191.643429 -54.089531 
L 192.906718 -54.089531 
L 194.170006 -54.089531 
L 195.433294 -54.089531 
L 196.696583 -54.089531 
L 197.959871 -54.089531 
L 199.223159 -54.089531 
L 200.486448 -54.089531 
L 201.749736 -54.089531 
L 203.013024 -54.089531 
L 204.276313 -54.089531 
L 205.539601 -54.089531 
L 206.802889 -54.089531 
L 208.066178 -54.089531 
L 209.329466 -54.089531 
L 210.592754 -54.089531 
L 211.856043 -54.089531 
L 213.119331 -54.089531 
L 214.382619 -54.089531 
L 215.645908 -54.089531 
L 216.909196 -54.089531 
L 218.172484 -54.089531 
L 219.435773 -54.089531 
L 220.699061 -54.089531 
L 221.962349 -54.089531 
L 223.225638 -54.089531 
L 224.488926 -54.089531 
L 225.752214 -54.089531 
L 227.015503 -54.089531 
L 228.278791 -54.089531 
L 229.542079 -54.089531 
L 230.805368 -54.089531 
L 232.068656 -54.089531 
L 233.331944 -54.089531 
L 234.595233 -54.089531 
L 235.858521 -54.089531 
L 237.121809 -54.089531 
L 238.385098 -54.089531 
L 239.648386 -54.089531 
L 240.911674 -54.089531 
L 242.174963 -54.089531 
L 243.438251 -54.089531 
L 244.701539 -54.089531 
L 245.964828 -54.089531 
L 247.228116 -54.089531 
L 248.491405 -54.089531 
L 249.754693 -54.089531 
L 251.017981 -54.089531 
L 252.28127 -54.089531 
L 253.544558 -54.089531 
L 254.807846 -54.089531 
L 256.071135 -54.089531 
L 257.334423 -54.089531 
L 258.597711 -54.089531 
L 259.861 -54.089531 
L 261.124288 -54.089531 
L 262.387576 -54.089531 
L 263.650865 -54.089531 
L 264.914153 -54.089531 
L 266.177441 -54.089531 
L 267.44073 -54.089531 
L 268.704018 -54.089531 
L 269.967306 -54.089531 
L 271.230595 -54.089531 
L 272.493883 -54.089531 
L 273.757171 -54.089531 
L 275.02046 -54.089531 
L 276.283748 -54.089531 
L 277.547036 -54.089531 
L 278.810325 -54.089531 
L 280.073613 -54.089531 
L 281.336901 -54.089531 
L 282.60019 -54.089531 
L 283.863478 -54.089531 
L 285.126766 -54.089531 
L 286.390055 -54.089531 
L 287.653343 -54.089531 
L 288.916631 -54.089531 
L 290.17992 -54.089531 
L 291.443208 -54.089531 
L 292.706496 -54.089531 
L 293.969785 -54.089531 
L 295.233073 -54.089531 
L 296.496361 -54.089531 
L 297.75965 -54.089531 
L 299.022938 -54.089531 
L 300.286226 -54.089531 
L 301.549515 -54.089531 
L 302.812803 -54.089531 
L 304.076091 -54.089531 
L 305.33938 -54.089531 
L 306.602668 -54.089531 
L 307.865957 -54.089531 
L 309.129245 -54.089531 
L 310.392533 -54.089531 
L 310.392533 -54.16553 
L 310.392533 -54.16553 
L 309.129245 -54.182646 
L 307.865957 -54.201162 
L 306.602668 -54.220195 
L 305.33938 -54.236047 
L 304.076091 -54.243904 
L 302.812803 -54.241426 
L 301.549515 -54.231217 
L 300.286226 -54.220256 
L 299.022938 -54.217085 
L 297.75965 -54.229075 
L 296.496361 -54.260978 
L 295.233073 -54.314091 
L 293.969785 -54.385113 
L 292.706496 -54.465618 
L 291.443208 -54.544453 
L 290.17992 -54.613661 
L 288.916631 -54.674497 
L 287.653343 -54.737787 
L 286.390055 -54.815934 
L 285.126766 -54.911354 
L 283.863478 -55.011704 
L 282.60019 -55.099133 
L 281.336901 -55.168773 
L 280.073613 -55.241361 
L 278.810325 -55.35774 
L 277.547036 -55.558058 
L 276.283748 -55.861078 
L 275.02046 -56.257087 
L 273.757171 -56.715363 
L 272.493883 -57.197057 
L 271.230595 -57.66469 
L 269.967306 -58.087282 
L 268.704018 -58.446103 
L 267.44073 -58.743176 
L 266.177441 -59.005965 
L 264.914153 -59.279273 
L 263.650865 -59.605477 
L 262.387576 -60.006547 
L 261.124288 -60.480738 
L 259.861 -61.012802 
L 258.597711 -61.584451 
L 257.334423 -62.174781 
L 256.071135 -62.754974 
L 254.807846 -63.28989 
L 253.544558 -63.750301 
L 252.28127 -64.124885 
L 251.017981 -64.420912 
L 249.754693 -64.656991 
L 248.491405 -64.858869 
L 247.228116 -65.0588 
L 245.964828 -65.287087 
L 244.701539 -65.551663 
L 243.438251 -65.821636 
L 242.174963 -66.037105 
L 240.911674 -66.147516 
L 239.648386 -66.151701 
L 238.385098 -66.105 
L 237.121809 -66.084633 
L 235.858521 -66.141157 
L 234.595233 -66.274579 
L 233.331944 -66.448643 
L 232.068656 -66.624215 
L 230.805368 -66.783386 
L 229.542079 -66.930839 
L 228.278791 -67.079042 
L 227.015503 -67.234429 
L 225.752214 -67.39945 
L 224.488926 -67.592029 
L 223.225638 -67.867348 
L 221.962349 -68.321225 
L 220.699061 -69.068289 
L 219.435773 -70.210331 
L 218.172484 -71.816289 
L 216.909196 -73.920099 
L 215.645908 -76.528427 
L 214.382619 -79.633959 
L 213.119331 -83.236392 
L 211.856043 -87.363772 
L 210.592754 -92.074804 
L 209.329466 -97.432737 
L 208.066178 -103.467313 
L 206.802889 -110.154221 
L 205.539601 -117.429055 
L 204.276313 -125.225629 
L 203.013024 -133.503078 
L 201.749736 -142.224641 
L 200.486448 -151.291464 
L 199.223159 -160.491602 
L 197.959871 -169.530499 
L 196.696583 -178.140147 
L 195.433294 -186.187333 
L 194.170006 -193.69705 
L 192.906718 -200.771136 
L 191.643429 -207.449241 
L 190.380141 -213.58606 
L 189.116853 -218.808214 
L 187.853564 -222.581321 
L 186.590276 -224.370412 
L 185.326987 -223.828797 
L 184.063699 -220.92964 
L 182.800411 -215.978436 
L 181.537122 -209.496502 
L 180.273834 -202.020245 
L 179.010546 -193.909898 
L 177.747257 -185.278753 
L 176.483969 -176.090157 
L 175.220681 -166.342131 
L 173.957392 -156.18956 
L 172.694104 -145.926743 
L 171.430816 -135.887635 
L 170.167527 -126.365519 
L 168.904239 -117.583659 
L 167.640951 -109.681729 
L 166.377662 -102.701088 
L 165.114374 -96.596909 
L 163.851086 -91.289381 
L 162.587797 -86.713021 
L 161.324509 -82.820175 
L 160.061221 -79.550878 
L 158.797932 -76.816685 
L 157.534644 -74.517477 
L 156.271356 -72.565344 
L 155.008067 -70.886642 
L 153.744779 -69.405992 
L 152.481491 -68.03904 
L 151.218202 -66.710923 
L 149.954914 -65.388887 
L 148.691626 -64.099023 
L 147.428337 -62.906628 
L 146.165049 -61.87042 
L 144.901761 -61.005112 
L 143.638472 -60.280446 
L 142.375184 -59.652796 
L 141.111896 -59.098794 
L 139.848607 -58.623765 
L 138.585319 -58.244124 
L 137.322031 -57.963948 
L 136.058742 -57.764166 
L 134.795454 -57.607392 
L 133.532166 -57.451098 
L 132.268877 -57.261754 
L 131.005589 -57.024826 
L 129.742301 -56.746376 
L 128.479012 -56.445649 
L 127.215724 -56.144634 
L 125.952435 -55.862308 
L 124.689147 -55.614912 
L 123.425859 -55.416771 
L 122.16257 -55.276865 
L 120.899282 -55.19288 
L 119.635994 -55.148967 
L 118.372705 -55.121363 
L 117.109417 -55.089373 
L 115.846129 -55.043916 
L 114.58284 -54.987549 
L 113.319552 -54.927592 
L 112.056264 -54.869571 
L 110.792975 -54.815811 
L 109.529687 -54.767349 
L 108.266399 -54.72471 
L 107.00311 -54.686637 
L 105.739822 -54.649626 
L 104.476534 -54.610121 
L 103.213245 -54.567212 
L 101.949957 -54.522789 
L 100.686669 -54.479332 
L 99.42338 -54.438336 
L 98.160092 -54.400912 
L 96.896804 -54.369037 
L 95.633515 -54.345551 
L 94.370227 -54.333139 
L 93.106939 -54.333458 
L 91.84365 -54.346331 
L 90.580362 -54.368233 
L 89.317074 -54.391124 
L 88.053785 -54.404069 
L 86.790497 -54.398284 
L 85.527209 -54.372464 
L 84.26392 -54.333944 
L 83.000632 -54.294395 
L 81.737344 -54.263284 
L 80.474055 -54.243833 
L 79.210767 -54.233557 
L 77.947479 -54.227697 
L 76.68419 -54.222371 
L 75.420902 -54.215649 
L 74.157614 -54.206898 
L 72.894325 -54.195754 
L 71.631037 -54.18179 
L 70.367749 -54.165065 
L 69.10446 -54.146877 
L 67.841172 -54.129827 
L 66.577883 -54.116977 
L 65.314595 -54.110676 
L 64.051307 -54.111705 
L 62.788018 -54.118878 
L 61.52473 -54.129054 
L 60.261442 -54.137849 
L 58.998153 -54.141267 
z
" style="stroke: #22587a; stroke-width: 3"/>
    </defs>
    <g clip-path="url(#p178be9d29c)">
     <use xlink:href="#mb1f04cd32e" x="0" y="344.758242" style="fill: #22587a; fill-opacity: 0.2; stroke: #22587a; stroke-width: 3"/>
    </g>
   </g>
   <g id="PolyCollection_3">
    <defs>
     <path id="ma9aa40cfee" d="M 58.998153 -54.127778 
L 58.998153 -54.089531 
L 60.343308 -54.089531 
L 61.688462 -54.089531 
L 63.033617 -54.089531 
L 64.378771 -54.089531 
L 65.723926 -54.089531 
L 67.06908 -54.089531 
L 68.414235 -54.089531 
L 69.759389 -54.089531 
L 71.104544 -54.089531 
L 72.449698 -54.089531 
L 73.794853 -54.089531 
L 75.140007 -54.089531 
L 76.485161 -54.089531 
L 77.830316 -54.089531 
L 79.17547 -54.089531 
L 80.520625 -54.089531 
L 81.865779 -54.089531 
L 83.210934 -54.089531 
L 84.556088 -54.089531 
L 85.901243 -54.089531 
L 87.246397 -54.089531 
L 88.591552 -54.089531 
L 89.936706 -54.089531 
L 91.281861 -54.089531 
L 92.627015 -54.089531 
L 93.972169 -54.089531 
L 95.317324 -54.089531 
L 96.662478 -54.089531 
L 98.007633 -54.089531 
L 99.352787 -54.089531 
L 100.697942 -54.089531 
L 102.043096 -54.089531 
L 103.388251 -54.089531 
L 104.733405 -54.089531 
L 106.07856 -54.089531 
L 107.423714 -54.089531 
L 108.768868 -54.089531 
L 110.114023 -54.089531 
L 111.459177 -54.089531 
L 112.804332 -54.089531 
L 114.149486 -54.089531 
L 115.494641 -54.089531 
L 116.839795 -54.089531 
L 118.18495 -54.089531 
L 119.530104 -54.089531 
L 120.875259 -54.089531 
L 122.220413 -54.089531 
L 123.565568 -54.089531 
L 124.910722 -54.089531 
L 126.255876 -54.089531 
L 127.601031 -54.089531 
L 128.946185 -54.089531 
L 130.29134 -54.089531 
L 131.636494 -54.089531 
L 132.981649 -54.089531 
L 134.326803 -54.089531 
L 135.671958 -54.089531 
L 137.017112 -54.089531 
L 138.362267 -54.089531 
L 139.707421 -54.089531 
L 141.052576 -54.089531 
L 142.39773 -54.089531 
L 143.742884 -54.089531 
L 145.088039 -54.089531 
L 146.433193 -54.089531 
L 147.778348 -54.089531 
L 149.123502 -54.089531 
L 150.468657 -54.089531 
L 151.813811 -54.089531 
L 153.158966 -54.089531 
L 154.50412 -54.089531 
L 155.849275 -54.089531 
L 157.194429 -54.089531 
L 158.539584 -54.089531 
L 159.884738 -54.089531 
L 161.229892 -54.089531 
L 162.575047 -54.089531 
L 163.920201 -54.089531 
L 165.265356 -54.089531 
L 166.61051 -54.089531 
L 167.955665 -54.089531 
L 169.300819 -54.089531 
L 170.645974 -54.089531 
L 171.991128 -54.089531 
L 173.336283 -54.089531 
L 174.681437 -54.089531 
L 176.026592 -54.089531 
L 177.371746 -54.089531 
L 178.7169 -54.089531 
L 180.062055 -54.089531 
L 181.407209 -54.089531 
L 182.752364 -54.089531 
L 184.097518 -54.089531 
L 185.442673 -54.089531 
L 186.787827 -54.089531 
L 188.132982 -54.089531 
L 189.478136 -54.089531 
L 190.823291 -54.089531 
L 192.168445 -54.089531 
L 193.5136 -54.089531 
L 194.858754 -54.089531 
L 196.203908 -54.089531 
L 197.549063 -54.089531 
L 198.894217 -54.089531 
L 200.239372 -54.089531 
L 201.584526 -54.089531 
L 202.929681 -54.089531 
L 204.274835 -54.089531 
L 205.61999 -54.089531 
L 206.965144 -54.089531 
L 208.310299 -54.089531 
L 209.655453 -54.089531 
L 211.000608 -54.089531 
L 212.345762 -54.089531 
L 213.690916 -54.089531 
L 215.036071 -54.089531 
L 216.381225 -54.089531 
L 217.72638 -54.089531 
L 219.071534 -54.089531 
L 220.416689 -54.089531 
L 221.761843 -54.089531 
L 223.106998 -54.089531 
L 224.452152 -54.089531 
L 225.797307 -54.089531 
L 227.142461 -54.089531 
L 228.487616 -54.089531 
L 229.83277 -54.089531 
L 231.177924 -54.089531 
L 232.523079 -54.089531 
L 233.868233 -54.089531 
L 235.213388 -54.089531 
L 236.558542 -54.089531 
L 237.903697 -54.089531 
L 239.248851 -54.089531 
L 240.594006 -54.089531 
L 241.93916 -54.089531 
L 243.284315 -54.089531 
L 244.629469 -54.089531 
L 245.974624 -54.089531 
L 247.319778 -54.089531 
L 248.664932 -54.089531 
L 250.010087 -54.089531 
L 251.355241 -54.089531 
L 252.700396 -54.089531 
L 254.04555 -54.089531 
L 255.390705 -54.089531 
L 256.735859 -54.089531 
L 258.081014 -54.089531 
L 259.426168 -54.089531 
L 260.771323 -54.089531 
L 262.116477 -54.089531 
L 263.461632 -54.089531 
L 264.806786 -54.089531 
L 266.15194 -54.089531 
L 267.497095 -54.089531 
L 268.842249 -54.089531 
L 270.187404 -54.089531 
L 271.532558 -54.089531 
L 272.877713 -54.089531 
L 274.222867 -54.089531 
L 275.568022 -54.089531 
L 276.913176 -54.089531 
L 278.258331 -54.089531 
L 279.603485 -54.089531 
L 280.948639 -54.089531 
L 282.293794 -54.089531 
L 283.638948 -54.089531 
L 284.984103 -54.089531 
L 286.329257 -54.089531 
L 287.674412 -54.089531 
L 289.019566 -54.089531 
L 290.364721 -54.089531 
L 291.709875 -54.089531 
L 293.05503 -54.089531 
L 294.400184 -54.089531 
L 295.745339 -54.089531 
L 297.090493 -54.089531 
L 298.435647 -54.089531 
L 299.780802 -54.089531 
L 301.125956 -54.089531 
L 302.471111 -54.089531 
L 303.816265 -54.089531 
L 305.16142 -54.089531 
L 306.506574 -54.089531 
L 307.851729 -54.089531 
L 309.196883 -54.089531 
L 310.542038 -54.089531 
L 311.887192 -54.089531 
L 313.232347 -54.089531 
L 314.577501 -54.089531 
L 315.922655 -54.089531 
L 317.26781 -54.089531 
L 318.612964 -54.089531 
L 319.958119 -54.089531 
L 321.303273 -54.089531 
L 322.648428 -54.089531 
L 323.993582 -54.089531 
L 325.338737 -54.089531 
L 326.683891 -54.089531 
L 326.683891 -54.286658 
L 326.683891 -54.286658 
L 325.338737 -54.342675 
L 323.993582 -54.406528 
L 322.648428 -54.478196 
L 321.303273 -54.557337 
L 319.958119 -54.643541 
L 318.612964 -54.73687 
L 317.26781 -54.838308 
L 315.922655 -54.949758 
L 314.577501 -55.073636 
L 313.232347 -55.212432 
L 311.887192 -55.36844 
L 310.542038 -55.543491 
L 309.196883 -55.738294 
L 307.851729 -55.951433 
L 306.506574 -56.178746 
L 305.16142 -56.414059 
L 303.816265 -56.651757 
L 302.471111 -56.890694 
L 301.125956 -57.138039 
L 299.780802 -57.411377 
L 298.435647 -57.737887 
L 297.090493 -58.150709 
L 295.745339 -58.683995 
L 294.400184 -59.369037 
L 293.05503 -60.23326 
L 291.709875 -61.302235 
L 290.364721 -62.603006 
L 289.019566 -64.166476 
L 287.674412 -66.02756 
L 286.329257 -68.22341 
L 284.984103 -70.791103 
L 283.638948 -73.765907 
L 282.293794 -77.180019 
L 280.948639 -81.060328 
L 279.603485 -85.42316 
L 278.258331 -90.264859 
L 276.913176 -95.549574 
L 275.568022 -101.198469 
L 274.222867 -107.085873 
L 272.877713 -113.045919 
L 271.532558 -118.888956 
L 270.187404 -124.422952 
L 268.842249 -129.473635 
L 267.497095 -133.898372 
L 266.15194 -137.591459 
L 264.806786 -140.481491 
L 263.461632 -142.524395 
L 262.116477 -143.697635 
L 260.771323 -144.000281 
L 259.426168 -143.459372 
L 258.081014 -142.137886 
L 256.735859 -140.13748 
L 255.390705 -137.592077 
L 254.04555 -134.65361 
L 252.700396 -131.474469 
L 251.355241 -128.190588 
L 250.010087 -124.906996 
L 248.664932 -121.687416 
L 247.319778 -118.551234 
L 245.974624 -115.481651 
L 244.629469 -112.445344 
L 243.284315 -109.417812 
L 241.93916 -106.4044 
L 240.594006 -103.448433 
L 239.248851 -100.624352 
L 237.903697 -98.020799 
L 236.558542 -95.721945 
L 235.213388 -93.793957 
L 233.868233 -92.279496 
L 232.523079 -91.199753 
L 231.177924 -90.561903 
L 229.83277 -90.369463 
L 228.487616 -90.632326 
L 227.142461 -91.372312 
L 225.797307 -92.62051 
L 224.452152 -94.405731 
L 223.106998 -96.738388 
L 221.761843 -99.597697 
L 220.416689 -102.929091 
L 219.071534 -106.653068 
L 217.72638 -110.680009 
L 216.381225 -114.922347 
L 215.036071 -119.297182 
L 213.690916 -123.717087 
L 212.345762 -128.071755 
L 211.000608 -132.207451 
L 209.655453 -135.914812 
L 208.310299 -138.936489 
L 206.965144 -141.001028 
L 205.61999 -141.877741 
L 204.274835 -141.43397 
L 202.929681 -139.670177 
L 201.584526 -136.715485 
L 200.239372 -132.784675 
L 198.894217 -128.116925 
L 197.549063 -122.924933 
L 196.203908 -117.375054 
L 194.858754 -111.599734 
L 193.5136 -105.72532 
L 192.168445 -99.89253 
L 190.823291 -94.255867 
L 189.478136 -88.96409 
L 188.132982 -84.135324 
L 186.787827 -79.840946 
L 185.442673 -76.104269 
L 184.097518 -72.91075 
L 182.752364 -70.222127 
L 181.407209 -67.988388 
L 180.062055 -66.155525 
L 178.7169 -64.669846 
L 177.371746 -63.48005 
L 176.026592 -62.537607 
L 174.681437 -61.795738 
L 173.336283 -61.207972 
L 171.991128 -60.72792 
L 170.645974 -60.311513 
L 169.300819 -59.921478 
L 167.955665 -59.532223 
L 166.61051 -59.132681 
L 165.265356 -58.725449 
L 163.920201 -58.322192 
L 162.575047 -57.937028 
L 161.229892 -57.580522 
L 159.884738 -57.256664 
L 158.539584 -56.963709 
L 157.194429 -56.697788 
L 155.849275 -56.456791 
L 154.50412 -56.242124 
L 153.158966 -56.057455 
L 151.813811 -55.905486 
L 150.468657 -55.78497 
L 149.123502 -55.689819 
L 147.778348 -55.610776 
L 146.433193 -55.538529 
L 145.088039 -55.466479 
L 143.742884 -55.3918 
L 142.39773 -55.314651 
L 141.052576 -55.236472 
L 139.707421 -55.158614 
L 138.362267 -55.08203 
L 137.017112 -55.007763 
L 135.671958 -54.937413 
L 134.326803 -54.872908 
L 132.981649 -54.815563 
L 131.636494 -54.765104 
L 130.29134 -54.719383 
L 128.946185 -54.675115 
L 127.601031 -54.629273 
L 126.255876 -54.580429 
L 124.910722 -54.529345 
L 123.565568 -54.478553 
L 122.220413 -54.431185 
L 120.875259 -54.389664 
L 119.530104 -54.354904 
L 118.18495 -54.326308 
L 116.839795 -54.302429 
L 115.494641 -54.281802 
L 114.149486 -54.263489 
L 112.804332 -54.247152 
L 111.459177 -54.232788 
L 110.114023 -54.220407 
L 108.768868 -54.209833 
L 107.423714 -54.200655 
L 106.07856 -54.192256 
L 104.733405 -54.183908 
L 103.388251 -54.174927 
L 102.043096 -54.164892 
L 100.697942 -54.153856 
L 99.352787 -54.142455 
L 98.007633 -54.131798 
L 96.662478 -54.123179 
L 95.317324 -54.117666 
L 93.972169 -54.115729 
L 92.627015 -54.117022 
L 91.281861 -54.120416 
L 89.936706 -54.124297 
L 88.591552 -54.127061 
L 87.246397 -54.127673 
L 85.901243 -54.126038 
L 84.556088 -54.123051 
L 83.210934 -54.12028 
L 81.865779 -54.119389 
L 80.520625 -54.121555 
L 79.17547 -54.127038 
L 77.830316 -54.135063 
L 76.485161 -54.144009 
L 75.140007 -54.151851 
L 73.794853 -54.15673 
L 72.449698 -54.157492 
L 71.104544 -54.154025 
L 69.759389 -54.147301 
L 68.414235 -54.139085 
L 67.06908 -54.131411 
L 65.723926 -54.125956 
L 64.378771 -54.123539 
L 63.033617 -54.123893 
L 61.688462 -54.125807 
L 60.343308 -54.127607 
L 58.998153 -54.127778 
z
" style="stroke: #de4968; stroke-width: 3"/>
    </defs>
    <g clip-path="url(#p178be9d29c)">
     <use xlink:href="#ma9aa40cfee" x="0" y="344.758242" style="fill: #de4968; fill-opacity: 0.2; stroke: #de4968; stroke-width: 3"/>
    </g>
   </g>
   <g id="PolyCollection_4">
    <defs>
     <path id="m9acc3015b8" d="M -44.712522 -54.33329 
L -44.712522 -54.089531 
L -42.896435 -54.089531 
L -41.080348 -54.089531 
L -39.26426 -54.089531 
L -37.448173 -54.089531 
L -35.632085 -54.089531 
L -33.815998 -54.089531 
L -31.99991 -54.089531 
L -30.183823 -54.089531 
L -28.367736 -54.089531 
L -26.551648 -54.089531 
L -24.735561 -54.089531 
L -22.919473 -54.089531 
L -21.103386 -54.089531 
L -19.287299 -54.089531 
L -17.471211 -54.089531 
L -15.655124 -54.089531 
L -13.839036 -54.089531 
L -12.022949 -54.089531 
L -10.206862 -54.089531 
L -8.390774 -54.089531 
L -6.574687 -54.089531 
L -4.758599 -54.089531 
L -2.942512 -54.089531 
L -1.126425 -54.089531 
L 0.689663 -54.089531 
L 2.50575 -54.089531 
L 4.321838 -54.089531 
L 6.137925 -54.089531 
L 7.954012 -54.089531 
L 9.7701 -54.089531 
L 11.586187 -54.089531 
L 13.402275 -54.089531 
L 15.218362 -54.089531 
L 17.03445 -54.089531 
L 18.850537 -54.089531 
L 20.666624 -54.089531 
L 22.482712 -54.089531 
L 24.298799 -54.089531 
L 26.114887 -54.089531 
L 27.930974 -54.089531 
L 29.747061 -54.089531 
L 31.563149 -54.089531 
L 33.379236 -54.089531 
L 35.195324 -54.089531 
L 37.011411 -54.089531 
L 38.827498 -54.089531 
L 40.643586 -54.089531 
L 42.459673 -54.089531 
L 44.275761 -54.089531 
L 46.091848 -54.089531 
L 47.907935 -54.089531 
L 49.724023 -54.089531 
L 51.54011 -54.089531 
L 53.356198 -54.089531 
L 55.172285 -54.089531 
L 56.988372 -54.089531 
L 58.80446 -54.089531 
L 60.620547 -54.089531 
L 62.436635 -54.089531 
L 64.252722 -54.089531 
L 66.06881 -54.089531 
L 67.884897 -54.089531 
L 69.700984 -54.089531 
L 71.517072 -54.089531 
L 73.333159 -54.089531 
L 75.149247 -54.089531 
L 76.965334 -54.089531 
L 78.781421 -54.089531 
L 80.597509 -54.089531 
L 82.413596 -54.089531 
L 84.229684 -54.089531 
L 86.045771 -54.089531 
L 87.861858 -54.089531 
L 89.677946 -54.089531 
L 91.494033 -54.089531 
L 93.310121 -54.089531 
L 95.126208 -54.089531 
L 96.942295 -54.089531 
L 98.758383 -54.089531 
L 100.57447 -54.089531 
L 102.390558 -54.089531 
L 104.206645 -54.089531 
L 106.022732 -54.089531 
L 107.83882 -54.089531 
L 109.654907 -54.089531 
L 111.470995 -54.089531 
L 113.287082 -54.089531 
L 115.103169 -54.089531 
L 116.919257 -54.089531 
L 118.735344 -54.089531 
L 120.551432 -54.089531 
L 122.367519 -54.089531 
L 124.183607 -54.089531 
L 125.999694 -54.089531 
L 127.815781 -54.089531 
L 129.631869 -54.089531 
L 131.447956 -54.089531 
L 133.264044 -54.089531 
L 135.080131 -54.089531 
L 136.896218 -54.089531 
L 138.712306 -54.089531 
L 140.528393 -54.089531 
L 142.344481 -54.089531 
L 144.160568 -54.089531 
L 145.976655 -54.089531 
L 147.792743 -54.089531 
L 149.60883 -54.089531 
L 151.424918 -54.089531 
L 153.241005 -54.089531 
L 155.057092 -54.089531 
L 156.87318 -54.089531 
L 158.689267 -54.089531 
L 160.505355 -54.089531 
L 162.321442 -54.089531 
L 164.137529 -54.089531 
L 165.953617 -54.089531 
L 167.769704 -54.089531 
L 169.585792 -54.089531 
L 171.401879 -54.089531 
L 173.217967 -54.089531 
L 175.034054 -54.089531 
L 176.850141 -54.089531 
L 178.666229 -54.089531 
L 180.482316 -54.089531 
L 182.298404 -54.089531 
L 184.114491 -54.089531 
L 185.930578 -54.089531 
L 187.746666 -54.089531 
L 189.562753 -54.089531 
L 191.378841 -54.089531 
L 193.194928 -54.089531 
L 195.011015 -54.089531 
L 196.827103 -54.089531 
L 198.64319 -54.089531 
L 200.459278 -54.089531 
L 202.275365 -54.089531 
L 204.091452 -54.089531 
L 205.90754 -54.089531 
L 207.723627 -54.089531 
L 209.539715 -54.089531 
L 211.355802 -54.089531 
L 213.171889 -54.089531 
L 214.987977 -54.089531 
L 216.804064 -54.089531 
L 218.620152 -54.089531 
L 220.436239 -54.089531 
L 222.252327 -54.089531 
L 224.068414 -54.089531 
L 225.884501 -54.089531 
L 227.700589 -54.089531 
L 229.516676 -54.089531 
L 231.332764 -54.089531 
L 233.148851 -54.089531 
L 234.964938 -54.089531 
L 236.781026 -54.089531 
L 238.597113 -54.089531 
L 240.413201 -54.089531 
L 242.229288 -54.089531 
L 244.045375 -54.089531 
L 245.861463 -54.089531 
L 247.67755 -54.089531 
L 249.493638 -54.089531 
L 251.309725 -54.089531 
L 253.125812 -54.089531 
L 254.9419 -54.089531 
L 256.757987 -54.089531 
L 258.574075 -54.089531 
L 260.390162 -54.089531 
L 262.206249 -54.089531 
L 264.022337 -54.089531 
L 265.838424 -54.089531 
L 267.654512 -54.089531 
L 269.470599 -54.089531 
L 271.286687 -54.089531 
L 273.102774 -54.089531 
L 274.918861 -54.089531 
L 276.734949 -54.089531 
L 278.551036 -54.089531 
L 280.367124 -54.089531 
L 282.183211 -54.089531 
L 283.999298 -54.089531 
L 285.815386 -54.089531 
L 287.631473 -54.089531 
L 289.447561 -54.089531 
L 291.263648 -54.089531 
L 293.079735 -54.089531 
L 294.895823 -54.089531 
L 296.71191 -54.089531 
L 298.527998 -54.089531 
L 300.344085 -54.089531 
L 302.160172 -54.089531 
L 303.97626 -54.089531 
L 305.792347 -54.089531 
L 307.608435 -54.089531 
L 309.424522 -54.089531 
L 311.240609 -54.089531 
L 313.056697 -54.089531 
L 314.872784 -54.089531 
L 316.688872 -54.089531 
L 316.688872 -54.170918 
L 316.688872 -54.170918 
L 314.872784 -54.157981 
L 313.056697 -54.134234 
L 311.240609 -54.12962 
L 309.424522 -54.161506 
L 307.608435 -54.216867 
L 305.792347 -54.252869 
L 303.97626 -54.239302 
L 302.160172 -54.19963 
L 300.344085 -54.177361 
L 298.527998 -54.176707 
L 296.71191 -54.169555 
L 294.895823 -54.144103 
L 293.079735 -54.11551 
L 291.263648 -54.098052 
L 289.447561 -54.091452 
L 287.631473 -54.089829 
L 285.815386 -54.089563 
L 283.999298 -54.089534 
L 282.183211 -54.089531 
L 280.367124 -54.089531 
L 278.551036 -54.089531 
L 276.734949 -54.089531 
L 274.918861 -54.089531 
L 273.102774 -54.089531 
L 271.286687 -54.089531 
L 269.470599 -54.089531 
L 267.654512 -54.089531 
L 265.838424 -54.089531 
L 264.022337 -54.089531 
L 262.206249 -54.089531 
L 260.390162 -54.089531 
L 258.574075 -54.089531 
L 256.757987 -54.089531 
L 254.9419 -54.089531 
L 253.125812 -54.089531 
L 251.309725 -54.089531 
L 249.493638 -54.089531 
L 247.67755 -54.089531 
L 245.861463 -54.089531 
L 244.045375 -54.089531 
L 242.229288 -54.089531 
L 240.413201 -54.089531 
L 238.597113 -54.089531 
L 236.781026 -54.089531 
L 234.964938 -54.089531 
L 233.148851 -54.089531 
L 231.332764 -54.089531 
L 229.516676 -54.089531 
L 227.700589 -54.089531 
L 225.884501 -54.089531 
L 224.068414 -54.089532 
L 222.252327 -54.089544 
L 220.436239 -54.089668 
L 218.620152 -54.090547 
L 216.804064 -54.094715 
L 214.987977 -54.1078 
L 213.171889 -54.134391 
L 211.355802 -54.168158 
L 209.539715 -54.193471 
L 207.723627 -54.203164 
L 205.90754 -54.200519 
L 204.091452 -54.187032 
L 202.275365 -54.171849 
L 200.459278 -54.177453 
L 198.64319 -54.21384 
L 196.827103 -54.271172 
L 195.011015 -54.362766 
L 193.194928 -54.550999 
L 191.378841 -54.884403 
L 189.562753 -55.337128 
L 187.746666 -55.907215 
L 185.930578 -56.780216 
L 184.114491 -58.377779 
L 182.298404 -61.415303 
L 180.482316 -67.018744 
L 178.666229 -76.466596 
L 176.850141 -90.482141 
L 175.034054 -108.929273 
L 173.217967 -131.029937 
L 171.401879 -155.13202 
L 169.585792 -178.678502 
L 167.769704 -199.544162 
L 165.953617 -217.019357 
L 164.137529 -230.850634 
L 162.321442 -240.048038 
L 160.505355 -243.222895 
L 158.689267 -240.102409 
L 156.87318 -232.299523 
L 155.057092 -222.017046 
L 153.241005 -210.586127 
L 151.424918 -198.640763 
L 149.60883 -186.63493 
L 147.792743 -174.760369 
L 145.976655 -163.021405 
L 144.160568 -151.611234 
L 142.344481 -140.978338 
L 140.528393 -131.542192 
L 138.712306 -123.53497 
L 136.896218 -116.959998 
L 135.080131 -111.471468 
L 133.264044 -106.504314 
L 131.447956 -101.692817 
L 129.631869 -97.097854 
L 127.815781 -93.02765 
L 125.999694 -89.543599 
L 124.183607 -86.172243 
L 122.367519 -82.47994 
L 120.551432 -78.831548 
L 118.735344 -75.92102 
L 116.919257 -73.710995 
L 115.103169 -71.614552 
L 113.287082 -69.490163 
L 111.470995 -67.709889 
L 109.654907 -66.457007 
L 107.83882 -65.48851 
L 106.022732 -64.481604 
L 104.206645 -63.365074 
L 102.390558 -62.295098 
L 100.57447 -61.442066 
L 98.758383 -60.853625 
L 96.942295 -60.384473 
L 95.126208 -59.785717 
L 93.310121 -59.010457 
L 91.494033 -58.314457 
L 89.677946 -57.9108 
L 87.861858 -57.721259 
L 86.045771 -57.57788 
L 84.229684 -57.389764 
L 82.413596 -57.071572 
L 80.597509 -56.612516 
L 78.781421 -56.174356 
L 76.965334 -55.910537 
L 75.149247 -55.806151 
L 73.333159 -55.75633 
L 71.517072 -55.642374 
L 69.700984 -55.378721 
L 67.884897 -55.025196 
L 66.06881 -54.763624 
L 64.252722 -54.687226 
L 62.436635 -54.71013 
L 60.620547 -54.711322 
L 58.80446 -54.662707 
L 56.988372 -54.603157 
L 55.172285 -54.556859 
L 53.356198 -54.510705 
L 51.54011 -54.4832 
L 49.724023 -54.525097 
L 47.907935 -54.593765 
L 46.091848 -54.564356 
L 44.275761 -54.415272 
L 42.459673 -54.267695 
L 40.643586 -54.244376 
L 38.827498 -54.382762 
L 37.011411 -54.60762 
L 35.195324 -54.738342 
L 33.379236 -54.649041 
L 31.563149 -54.420968 
L 29.747061 -54.224368 
L 27.930974 -54.127203 
L 26.114887 -54.09676 
L 24.298799 -54.090484 
L 22.482712 -54.089617 
L 20.666624 -54.089537 
L 18.850537 -54.089531 
L 17.03445 -54.089531 
L 15.218362 -54.089531 
L 13.402275 -54.089531 
L 11.586187 -54.089531 
L 9.7701 -54.089531 
L 7.954012 -54.089531 
L 6.137925 -54.089531 
L 4.321838 -54.089531 
L 2.50575 -54.089531 
L 0.689663 -54.089531 
L -1.126425 -54.089531 
L -2.942512 -54.089531 
L -4.758599 -54.089531 
L -6.574687 -54.089531 
L -8.390774 -54.089531 
L -10.206862 -54.089531 
L -12.022949 -54.089531 
L -13.839036 -54.089531 
L -15.655124 -54.089531 
L -17.471211 -54.089531 
L -19.287299 -54.089531 
L -21.103386 -54.089531 
L -22.919473 -54.089531 
L -24.735561 -54.089531 
L -26.551648 -54.089531 
L -28.367736 -54.089531 
L -30.183823 -54.089533 
L -31.99991 -54.089556 
L -33.815998 -54.089813 
L -35.632085 -54.091755 
L -37.448173 -54.101593 
L -39.26426 -54.134466 
L -41.080348 -54.204498 
L -42.896435 -54.291537 
L -44.712522 -54.33329 
z
" style="stroke: #38a3a6; stroke-width: 3"/>
    </defs>
    <g clip-path="url(#p178be9d29c)">
     <use xlink:href="#m9acc3015b8" x="0" y="344.758242" style="fill: #38a3a6; fill-opacity: 0.2; stroke: #38a3a6; stroke-width: 3"/>
    </g>
   </g>
   <g id="line2d_13">
    <path d="M 145.586082 290.668711 
L 145.586082 13.468711 
" clip-path="url(#p178be9d29c)" style="fill: none; stroke: #000000; stroke-width: 2; stroke-linecap: round"/>
   </g>
   <g id="line2d_14">
    <path d="M 187.407512 290.668711 
L 187.407512 13.468711 
" clip-path="url(#p178be9d29c)" style="fill: none; stroke: #000000; stroke-width: 2; stroke-linecap: round"/>
   </g>
   <g id="line2d_15">
    <path d="M 236.940546 290.668711 
L 236.940546 13.468711 
" clip-path="url(#p178be9d29c)" style="fill: none; stroke: #000000; stroke-width: 2; stroke-linecap: round"/>
   </g>
   <g id="line2d_16">
    <path d="M 302.353676 290.668711 
L 302.353676 13.468711 
" clip-path="url(#p178be9d29c)" style="fill: none; stroke: #000000; stroke-width: 2; stroke-linecap: round"/>
   </g>
   <g id="patch_3">
    <path d="M 74.858906 290.668711 
L 74.858906 13.468711 
" style="fill: none; stroke: #262626; stroke-width: 3; stroke-linejoin: miter; stroke-linecap: square"/>
   </g>
   <g id="patch_4">
    <path d="M 74.858906 290.668711 
L 353.858906 290.668711 
" style="fill: none; stroke: #262626; stroke-width: 3; stroke-linejoin: miter; stroke-linecap: square"/>
   </g>
   <g id="legend_1">
    <g id="patch_5">
     <path d="M 315.185625 120.29332 
L 348.185625 120.29332 
L 348.185625 108.74332 
L 315.185625 108.74332 
z
" style="fill: #38a3a6; stroke: #ffffff; stroke-linejoin: miter"/>
    </g>
    <g id="text_15">
     <text style="fill: #262626; font: 16.5px 'sans-serif'; text-anchor: start" x="361.385625" y="120.29332" transform="rotate(-0, 361.385625, 120.29332)">AraC S170 WT LOV light</text>
    </g>
    <g id="patch_6">
     <path d="M 315.185625 144.512227 
L 348.185625 144.512227 
L 348.185625 132.962227 
L 315.185625 132.962227 
z
" style="fill: #de4968; stroke: #ffffff; stroke-linejoin: miter"/>
    </g>
    <g id="text_16">
     <text style="fill: #262626; font: 16.5px 'sans-serif'; text-anchor: start" x="361.385625" y="144.512227" transform="rotate(-0, 361.385625, 144.512227)">AraC S170 WT LOV dark</text>
    </g>
    <g id="patch_7">
     <path d="M 315.185625 168.731133 
L 348.185625 168.731133 
L 348.185625 157.181133 
L 315.185625 157.181133 
z
" style="fill: #22587a; stroke: #ffffff; stroke-linejoin: miter"/>
    </g>
    <g id="text_17">
     <text style="fill: #262626; font: 16.5px 'sans-serif'; text-anchor: start" x="361.385625" y="168.731133" transform="rotate(-0, 361.385625, 168.731133)">AraC S170 R2 LOV light</text>
    </g>
    <g id="patch_8">
     <path d="M 315.185625 192.950039 
L 348.185625 192.950039 
L 348.185625 181.400039 
L 315.185625 181.400039 
z
" style="fill: #8c2981; stroke: #ffffff; stroke-linejoin: miter"/>
    </g>
    <g id="text_18">
     <text style="fill: #262626; font: 16.5px 'sans-serif'; text-anchor: start" x="361.385625" y="192.950039" transform="rotate(-0, 361.385625, 192.950039)">AraC S170 R2 LOV dark</text>
    </g>
   </g>
  </g>
 </g>
 <defs>
  <clipPath id="p178be9d29c">
   <rect x="74.858906" y="13.468711" width="279" height="277.2"/>
  </clipPath>
 </defs>
</svg>
