<?xml version="1.0" encoding="utf-8" standalone="no"?>
<!DOCTYPE svg PUBLIC "-//W3C//DTD SVG 1.1//EN"
  "http://www.w3.org/Graphics/SVG/1.1/DTD/svg11.dtd">
<svg xmlns:xlink="http://www.w3.org/1999/xlink" width="571.517578pt" height="344.758242pt" viewBox="0 0 571.517578 344.758242" xmlns="http://www.w3.org/2000/svg" version="1.1">
 <metadata>
  <rdf:RDF xmlns:dc="http://purl.org/dc/elements/1.1/" xmlns:cc="http://creativecommons.org/ns#" xmlns:rdf="http://www.w3.org/1999/02/22-rdf-syntax-ns#">
   <cc:Work>
    <dc:type rdf:resource="http://purl.org/dc/dcmitype/StillImage"/>
    <dc:date>2025-05-08T15:37:25.899550</dc:date>
    <dc:format>image/svg+xml</dc:format>
    <dc:creator>
     <cc:Agent>
      <dc:title>Matplotlib v3.5.0, https://matplotlib.org/</dc:title>
     </cc:Agent>
    </dc:creator>
   </cc:Work>
  </rdf:RDF>
 </metadata>
 <defs>
  <style type="text/css">*{stroke-linejoin: round; stroke-linecap: butt}</style>
 </defs>
 <g id="figure_1">
  <g id="patch_1">
   <path d="M 0 344.758242 
L 571.517578 344.758242 
L 571.517578 0 
L 0 0 
z
" style="fill: #ffffff"/>
  </g>
  <g id="axes_1">
   <g id="patch_2">
    <path d="M 74.858906 290.668711 
L 353.858906 290.668711 
L 353.858906 13.468711 
L 74.858906 13.468711 
z
" style="fill: #ffffff"/>
   </g>
   <g id="matplotlib.axis_1">
    <g id="xtick_1">
     <g id="line2d_1">
      <defs>
       <path id="mfd6759ebb3" d="M 0 0 
L 0 6 
" style="stroke: #262626; stroke-width: 3"/>
      </defs>
      <g>
       <use xlink:href="#mfd6759ebb3" x="74.858906" y="290.668711" style="fill: #262626; stroke: #262626; stroke-width: 3"/>
      </g>
     </g>
     <g id="text_1">
      <!-- $\mathdefault{10^{0}}$ -->
      <g style="fill: #262626" transform="translate(60.338906 312.706133)">
       <text>
        <tspan style="font: 16.5px 'DejaVu Sans'" x="0 10.497803" y="-0.10312500000000213">10</tspan>
        <tspan style="font: 11.55px 'DejaVu Sans'" x="21.153652" y="-6.425000000000001">0</tspan>
       </text>
      </g>
     </g>
    </g>
    <g id="xtick_2">
     <g id="line2d_2">
      <g>
       <use xlink:href="#mfd6759ebb3" x="154.573192" y="290.668711" style="fill: #262626; stroke: #262626; stroke-width: 3"/>
      </g>
     </g>
     <g id="text_2">
      <!-- $\mathdefault{10^{2}}$ -->
      <g style="fill: #262626" transform="translate(140.053192 312.706133)">
       <text>
        <tspan style="font: 16.5px 'DejaVu Sans'" x="0 10.497803" y="-0.10312500000000213">10</tspan>
        <tspan style="font: 11.55px 'DejaVu Sans'" x="21.153652" y="-6.425000000000001">2</tspan>
       </text>
      </g>
     </g>
    </g>
    <g id="xtick_3">
     <g id="line2d_3">
      <g>
       <use xlink:href="#mfd6759ebb3" x="234.287478" y="290.668711" style="fill: #262626; stroke: #262626; stroke-width: 3"/>
      </g>
     </g>
     <g id="text_3">
      <!-- $\mathdefault{10^{4}}$ -->
      <g style="fill: #262626" transform="translate(219.767478 312.706133)">
       <text>
        <tspan style="font: 16.5px 'DejaVu Sans'" x="0 10.497803" y="-0.2562500000000014">10</tspan>
        <tspan style="font: 11.55px 'DejaVu Sans'" x="21.153652" y="-6.578125">4</tspan>
       </text>
      </g>
     </g>
    </g>
    <g id="xtick_4">
     <g id="line2d_4">
      <g>
       <use xlink:href="#mfd6759ebb3" x="314.001763" y="290.668711" style="fill: #262626; stroke: #262626; stroke-width: 3"/>
      </g>
     </g>
     <g id="text_4">
      <!-- $\mathdefault{10^{6}}$ -->
      <g style="fill: #262626" transform="translate(299.481763 312.706133)">
       <text>
        <tspan style="font: 16.5px 'DejaVu Sans'" x="0 10.497803" y="-0.10312500000000213">10</tspan>
        <tspan style="font: 11.55px 'DejaVu Sans'" x="21.153652" y="-6.425000000000001">6</tspan>
       </text>
      </g>
     </g>
    </g>
    <g id="text_5">
     <text style="fill: #262626; font: 18px 'sans-serif'; text-anchor: middle" x="214.358906" y="333.814805" transform="rotate(-0, 214.358906, 333.814805)">log[RFP]</text>
    </g>
   </g>
   <g id="matplotlib.axis_2">
    <g id="ytick_1">
     <g id="line2d_5">
      <defs>
       <path id="m56c9aa219c" d="M 0 0 
L -6 0 
" style="stroke: #262626; stroke-width: 3"/>
      </defs>
      <g>
       <use xlink:href="#m56c9aa219c" x="74.858906" y="290.668711" style="fill: #262626; stroke: #262626; stroke-width: 3"/>
      </g>
     </g>
     <g id="text_6">
      <text style="fill: #262626; font: 16.5px 'sans-serif'; text-anchor: end" x="65.358906" y="296.937422" transform="rotate(-0, 65.358906, 296.937422)">0.00</text>
     </g>
    </g>
    <g id="ytick_2">
     <g id="line2d_6">
      <g>
       <use xlink:href="#m56c9aa219c" x="74.858906" y="251.068711" style="fill: #262626; stroke: #262626; stroke-width: 3"/>
      </g>
     </g>
     <g id="text_7">
      <text style="fill: #262626; font: 16.5px 'sans-serif'; text-anchor: end" x="65.358906" y="257.337422" transform="rotate(-0, 65.358906, 257.337422)">0.25</text>
     </g>
    </g>
    <g id="ytick_3">
     <g id="line2d_7">
      <g>
       <use xlink:href="#m56c9aa219c" x="74.858906" y="211.468711" style="fill: #262626; stroke: #262626; stroke-width: 3"/>
      </g>
     </g>
     <g id="text_8">
      <text style="fill: #262626; font: 16.5px 'sans-serif'; text-anchor: end" x="65.358906" y="217.737422" transform="rotate(-0, 65.358906, 217.737422)">0.50</text>
     </g>
    </g>
    <g id="ytick_4">
     <g id="line2d_8">
      <g>
       <use xlink:href="#m56c9aa219c" x="74.858906" y="171.868711" style="fill: #262626; stroke: #262626; stroke-width: 3"/>
      </g>
     </g>
     <g id="text_9">
      <text style="fill: #262626; font: 16.5px 'sans-serif'; text-anchor: end" x="65.358906" y="178.137422" transform="rotate(-0, 65.358906, 178.137422)">0.75</text>
     </g>
    </g>
    <g id="ytick_5">
     <g id="line2d_9">
      <g>
       <use xlink:href="#m56c9aa219c" x="74.858906" y="132.268711" style="fill: #262626; stroke: #262626; stroke-width: 3"/>
      </g>
     </g>
     <g id="text_10">
      <text style="fill: #262626; font: 16.5px 'sans-serif'; text-anchor: end" x="65.358906" y="138.537422" transform="rotate(-0, 65.358906, 138.537422)">1.00</text>
     </g>
    </g>
    <g id="ytick_6">
     <g id="line2d_10">
      <g>
       <use xlink:href="#m56c9aa219c" x="74.858906" y="92.668711" style="fill: #262626; stroke: #262626; stroke-width: 3"/>
      </g>
     </g>
     <g id="text_11">
      <text style="fill: #262626; font: 16.5px 'sans-serif'; text-anchor: end" x="65.358906" y="98.937422" transform="rotate(-0, 65.358906, 98.937422)">1.25</text>
     </g>
    </g>
    <g id="ytick_7">
     <g id="line2d_11">
      <g>
       <use xlink:href="#m56c9aa219c" x="74.858906" y="53.068711" style="fill: #262626; stroke: #262626; stroke-width: 3"/>
      </g>
     </g>
     <g id="text_12">
      <text style="fill: #262626; font: 16.5px 'sans-serif'; text-anchor: end" x="65.358906" y="59.337422" transform="rotate(-0, 65.358906, 59.337422)">1.50</text>
     </g>
    </g>
    <g id="ytick_8">
     <g id="line2d_12">
      <g>
       <use xlink:href="#m56c9aa219c" x="74.858906" y="13.468711" style="fill: #262626; stroke: #262626; stroke-width: 3"/>
      </g>
     </g>
     <g id="text_13">
      <text style="fill: #262626; font: 16.5px 'sans-serif'; text-anchor: end" x="65.358906" y="19.737422" transform="rotate(-0, 65.358906, 19.737422)">1.75</text>
     </g>
    </g>
    <g id="text_14">
     <text style="fill: #262626; font: 18px 'sans-serif'; text-anchor: middle" x="20.877187" y="152.068711" transform="rotate(-90, 20.877187, 152.068711)">Density</text>
    </g>
   </g>
   <g id="PolyCollection_1">
    <defs>
     <path id="m2c1f7df4d1" d="M -44.712522 -54.33261 
L -44.712522 -54.089531 
L -43.172684 -54.089531 
L -41.632845 -54.089531 
L -40.093006 -54.089531 
L -38.553167 -54.089531 
L -37.013329 -54.089531 
L -35.47349 -54.089531 
L -33.933651 -54.089531 
L -32.393812 -54.089531 
L -30.853974 -54.089531 
L -29.314135 -54.089531 
L -27.774296 -54.089531 
L -26.234457 -54.089531 
L -24.694619 -54.089531 
L -23.15478 -54.089531 
L -21.614941 -54.089531 
L -20.075102 -54.089531 
L -18.535264 -54.089531 
L -16.995425 -54.089531 
L -15.455586 -54.089531 
L -13.915748 -54.089531 
L -12.375909 -54.089531 
L -10.83607 -54.089531 
L -9.296231 -54.089531 
L -7.756393 -54.089531 
L -6.216554 -54.089531 
L -4.676715 -54.089531 
L -3.136876 -54.089531 
L -1.597038 -54.089531 
L -0.057199 -54.089531 
L 1.48264 -54.089531 
L 3.022479 -54.089531 
L 4.562317 -54.089531 
L 6.102156 -54.089531 
L 7.641995 -54.089531 
L 9.181834 -54.089531 
L 10.721672 -54.089531 
L 12.261511 -54.089531 
L 13.80135 -54.089531 
L 15.341189 -54.089531 
L 16.881027 -54.089531 
L 18.420866 -54.089531 
L 19.960705 -54.089531 
L 21.500544 -54.089531 
L 23.040382 -54.089531 
L 24.580221 -54.089531 
L 26.12006 -54.089531 
L 27.659899 -54.089531 
L 29.199737 -54.089531 
L 30.739576 -54.089531 
L 32.279415 -54.089531 
L 33.819253 -54.089531 
L 35.359092 -54.089531 
L 36.898931 -54.089531 
L 38.43877 -54.089531 
L 39.978608 -54.089531 
L 41.518447 -54.089531 
L 43.058286 -54.089531 
L 44.598125 -54.089531 
L 46.137963 -54.089531 
L 47.677802 -54.089531 
L 49.217641 -54.089531 
L 50.75748 -54.089531 
L 52.297318 -54.089531 
L 53.837157 -54.089531 
L 55.376996 -54.089531 
L 56.916835 -54.089531 
L 58.456673 -54.089531 
L 59.996512 -54.089531 
L 61.536351 -54.089531 
L 63.07619 -54.089531 
L 64.616028 -54.089531 
L 66.155867 -54.089531 
L 67.695706 -54.089531 
L 69.235545 -54.089531 
L 70.775383 -54.089531 
L 72.315222 -54.089531 
L 73.855061 -54.089531 
L 75.394899 -54.089531 
L 76.934738 -54.089531 
L 78.474577 -54.089531 
L 80.014416 -54.089531 
L 81.554254 -54.089531 
L 83.094093 -54.089531 
L 84.633932 -54.089531 
L 86.173771 -54.089531 
L 87.713609 -54.089531 
L 89.253448 -54.089531 
L 90.793287 -54.089531 
L 92.333126 -54.089531 
L 93.872964 -54.089531 
L 95.412803 -54.089531 
L 96.952642 -54.089531 
L 98.492481 -54.089531 
L 100.032319 -54.089531 
L 101.572158 -54.089531 
L 103.111997 -54.089531 
L 104.651836 -54.089531 
L 106.191674 -54.089531 
L 107.731513 -54.089531 
L 109.271352 -54.089531 
L 110.811191 -54.089531 
L 112.351029 -54.089531 
L 113.890868 -54.089531 
L 115.430707 -54.089531 
L 116.970545 -54.089531 
L 118.510384 -54.089531 
L 120.050223 -54.089531 
L 121.590062 -54.089531 
L 123.1299 -54.089531 
L 124.669739 -54.089531 
L 126.209578 -54.089531 
L 127.749417 -54.089531 
L 129.289255 -54.089531 
L 130.829094 -54.089531 
L 132.368933 -54.089531 
L 133.908772 -54.089531 
L 135.44861 -54.089531 
L 136.988449 -54.089531 
L 138.528288 -54.089531 
L 140.068127 -54.089531 
L 141.607965 -54.089531 
L 143.147804 -54.089531 
L 144.687643 -54.089531 
L 146.227482 -54.089531 
L 147.76732 -54.089531 
L 149.307159 -54.089531 
L 150.846998 -54.089531 
L 152.386837 -54.089531 
L 153.926675 -54.089531 
L 155.466514 -54.089531 
L 157.006353 -54.089531 
L 158.546191 -54.089531 
L 160.08603 -54.089531 
L 161.625869 -54.089531 
L 163.165708 -54.089531 
L 164.705546 -54.089531 
L 166.245385 -54.089531 
L 167.785224 -54.089531 
L 169.325063 -54.089531 
L 170.864901 -54.089531 
L 172.40474 -54.089531 
L 173.944579 -54.089531 
L 175.484418 -54.089531 
L 177.024256 -54.089531 
L 178.564095 -54.089531 
L 180.103934 -54.089531 
L 181.643773 -54.089531 
L 183.183611 -54.089531 
L 184.72345 -54.089531 
L 186.263289 -54.089531 
L 187.803128 -54.089531 
L 189.342966 -54.089531 
L 190.882805 -54.089531 
L 192.422644 -54.089531 
L 193.962483 -54.089531 
L 195.502321 -54.089531 
L 197.04216 -54.089531 
L 198.581999 -54.089531 
L 200.121837 -54.089531 
L 201.661676 -54.089531 
L 203.201515 -54.089531 
L 204.741354 -54.089531 
L 206.281192 -54.089531 
L 207.821031 -54.089531 
L 209.36087 -54.089531 
L 210.900709 -54.089531 
L 212.440547 -54.089531 
L 213.980386 -54.089531 
L 215.520225 -54.089531 
L 217.060064 -54.089531 
L 218.599902 -54.089531 
L 220.139741 -54.089531 
L 221.67958 -54.089531 
L 223.219419 -54.089531 
L 224.759257 -54.089531 
L 226.299096 -54.089531 
L 227.838935 -54.089531 
L 229.378774 -54.089531 
L 230.918612 -54.089531 
L 232.458451 -54.089531 
L 233.99829 -54.089531 
L 235.538129 -54.089531 
L 237.077967 -54.089531 
L 238.617806 -54.089531 
L 240.157645 -54.089531 
L 241.697483 -54.089531 
L 243.237322 -54.089531 
L 244.777161 -54.089531 
L 246.317 -54.089531 
L 247.856838 -54.089531 
L 249.396677 -54.089531 
L 250.936516 -54.089531 
L 252.476355 -54.089531 
L 254.016193 -54.089531 
L 255.556032 -54.089531 
L 257.095871 -54.089531 
L 258.63571 -54.089531 
L 260.175548 -54.089531 
L 261.715387 -54.089531 
L 261.715387 -54.170557 
L 261.715387 -54.170557 
L 260.175548 -54.160128 
L 258.63571 -54.136226 
L 257.095871 -54.112978 
L 255.556032 -54.09847 
L 254.016193 -54.092128 
L 252.476355 -54.090183 
L 250.936516 -54.090137 
L 249.396677 -54.09191 
L 247.856838 -54.097858 
L 246.317 -54.11176 
L 244.777161 -54.134586 
L 243.237322 -54.158858 
L 241.697483 -54.170512 
L 240.157645 -54.161342 
L 238.617806 -54.137872 
L 237.077967 -54.114235 
L 235.538129 -54.099115 
L 233.99829 -54.092354 
L 232.458451 -54.090164 
L 230.918612 -54.089657 
L 229.378774 -54.089686 
L 227.838935 -54.090329 
L 226.299096 -54.09296 
L 224.759257 -54.100754 
L 223.219419 -54.117554 
L 221.67958 -54.143307 
L 220.139741 -54.170313 
L 218.599902 -54.188432 
L 217.060064 -54.195327 
L 215.520225 -54.195521 
L 213.980386 -54.189303 
L 212.440547 -54.172088 
L 210.900709 -54.145483 
L 209.36087 -54.119539 
L 207.821031 -54.103258 
L 206.281192 -54.099638 
L 204.741354 -54.110071 
L 203.201515 -54.138411 
L 201.661676 -54.189129 
L 200.121837 -54.263973 
L 198.581999 -54.361249 
L 197.04216 -54.475446 
L 195.502321 -54.598177 
L 193.962483 -54.725989 
L 192.422644 -54.875262 
L 190.882805 -55.10595 
L 189.342966 -55.550293 
L 187.803128 -56.419129 
L 186.263289 -57.977001 
L 184.72345 -60.526621 
L 183.183611 -64.429861 
L 181.643773 -70.126545 
L 180.103934 -78.072155 
L 178.564095 -88.560066 
L 177.024256 -101.543019 
L 175.484418 -116.641737 
L 173.944579 -133.328785 
L 172.40474 -151.079894 
L 170.864901 -169.406252 
L 169.325063 -187.780825 
L 167.785224 -205.385496 
L 166.245385 -220.836907 
L 164.705546 -232.421666 
L 163.165708 -238.947963 
L 161.625869 -240.433019 
L 160.08603 -237.930733 
L 158.546191 -232.718299 
L 157.006353 -225.541036 
L 155.466514 -216.580891 
L 153.926675 -206.224847 
L 152.386837 -195.573467 
L 150.846998 -185.792783 
L 149.307159 -177.167281 
L 147.76732 -169.140474 
L 146.227482 -161.119478 
L 144.687643 -152.97122 
L 143.147804 -144.862792 
L 141.607965 -136.95741 
L 140.068127 -129.385003 
L 138.528288 -122.329229 
L 136.988449 -115.986174 
L 135.44861 -110.45348 
L 133.908772 -105.659464 
L 132.368933 -101.3776 
L 130.829094 -97.373352 
L 129.289255 -93.556184 
L 127.749417 -89.954149 
L 126.209578 -86.61604 
L 124.669739 -83.61985 
L 123.1299 -81.082114 
L 121.590062 -79.016714 
L 120.050223 -77.226199 
L 118.510384 -75.470027 
L 116.970545 -73.694138 
L 115.430707 -71.970331 
L 113.890868 -70.311647 
L 112.351029 -68.696336 
L 110.811191 -67.179191 
L 109.271352 -65.843822 
L 107.731513 -64.695121 
L 106.191674 -63.678295 
L 104.651836 -62.763599 
L 103.111997 -61.961418 
L 101.572158 -61.282993 
L 100.032319 -60.707035 
L 98.492481 -60.161221 
L 96.952642 -59.5482 
L 95.412803 -58.826164 
L 93.872964 -58.055843 
L 92.333126 -57.35253 
L 90.793287 -56.814899 
L 89.253448 -56.508088 
L 87.713609 -56.470499 
L 86.173771 -56.687461 
L 84.633932 -57.054491 
L 83.094093 -57.395887 
L 81.554254 -57.538159 
L 80.014416 -57.383714 
L 78.474577 -56.959174 
L 76.934738 -56.410585 
L 75.394899 -55.912729 
L 73.855061 -55.557101 
L 72.315222 -55.3274 
L 70.775383 -55.161846 
L 69.235545 -55.019615 
L 67.695706 -54.899768 
L 66.155867 -54.818122 
L 64.616028 -54.778827 
L 63.07619 -54.769349 
L 61.536351 -54.772655 
L 59.996512 -54.777189 
L 58.456673 -54.783039 
L 56.916835 -54.798148 
L 55.376996 -54.810595 
L 53.837157 -54.782208 
L 52.297318 -54.708393 
L 50.75748 -54.652869 
L 49.217641 -54.665917 
L 47.677802 -54.696879 
L 46.137963 -54.648377 
L 44.598125 -54.499976 
L 43.058286 -54.327466 
L 41.518447 -54.21603 
L 39.978608 -54.198709 
L 38.43877 -54.260692 
L 36.898931 -54.353979 
L 35.359092 -54.411456 
L 33.819253 -54.388365 
L 32.279415 -54.300228 
L 30.739576 -54.202312 
L 29.199737 -54.13536 
L 27.659899 -54.103669 
L 26.12006 -54.092842 
L 24.580221 -54.09012 
L 23.040382 -54.089611 
L 21.500544 -54.089539 
L 19.960705 -54.089532 
L 18.420866 -54.089531 
L 16.881027 -54.089531 
L 15.341189 -54.089531 
L 13.80135 -54.089531 
L 12.261511 -54.089531 
L 10.721672 -54.089531 
L 9.181834 -54.089531 
L 7.641995 -54.089531 
L 6.102156 -54.089531 
L 4.562317 -54.089531 
L 3.022479 -54.089531 
L 1.48264 -54.089531 
L -0.057199 -54.089531 
L -1.597038 -54.089531 
L -3.136876 -54.089531 
L -4.676715 -54.089531 
L -6.216554 -54.089531 
L -7.756393 -54.089531 
L -9.296231 -54.089531 
L -10.83607 -54.089531 
L -12.375909 -54.089531 
L -13.915748 -54.089531 
L -15.455586 -54.089531 
L -16.995425 -54.089531 
L -18.535264 -54.089531 
L -20.075102 -54.089531 
L -21.614941 -54.089531 
L -23.15478 -54.089531 
L -24.694619 -54.089531 
L -26.234457 -54.089531 
L -27.774296 -54.089531 
L -29.314135 -54.089532 
L -30.853974 -54.089535 
L -32.393812 -54.089567 
L -33.933651 -54.089815 
L -35.47349 -54.091236 
L -37.013329 -54.09729 
L -38.553167 -54.116344 
L -40.093006 -54.159871 
L -41.632845 -54.229617 
L -43.172684 -54.301323 
L -44.712522 -54.33261 
z
" style="stroke: #de4968; stroke-width: 3"/>
    </defs>
    <g clip-path="url(#pcb4677d04a)">
     <use xlink:href="#m2c1f7df4d1" x="0" y="344.758242" style="fill: #de4968; fill-opacity: 0.2; stroke: #de4968; stroke-width: 3"/>
    </g>
   </g>
   <g id="PolyCollection_2">
    <defs>
     <path id="mc58d4ff48e" d="M -44.712522 -54.45558 
L -44.712522 -54.089531 
L -42.945825 -54.089531 
L -41.179128 -54.089531 
L -39.412431 -54.089531 
L -37.645734 -54.089531 
L -35.879037 -54.089531 
L -34.11234 -54.089531 
L -32.345643 -54.089531 
L -30.578946 -54.089531 
L -28.812249 -54.089531 
L -27.045552 -54.089531 
L -25.278855 -54.089531 
L -23.512158 -54.089531 
L -21.745461 -54.089531 
L -19.978764 -54.089531 
L -18.212067 -54.089531 
L -16.44537 -54.089531 
L -14.678673 -54.089531 
L -12.911976 -54.089531 
L -11.145279 -54.089531 
L -9.378582 -54.089531 
L -7.611885 -54.089531 
L -5.845188 -54.089531 
L -4.078491 -54.089531 
L -2.311794 -54.089531 
L -0.545096 -54.089531 
L 1.221601 -54.089531 
L 2.988298 -54.089531 
L 4.754995 -54.089531 
L 6.521692 -54.089531 
L 8.288389 -54.089531 
L 10.055086 -54.089531 
L 11.821783 -54.089531 
L 13.58848 -54.089531 
L 15.355177 -54.089531 
L 17.121874 -54.089531 
L 18.888571 -54.089531 
L 20.655268 -54.089531 
L 22.421965 -54.089531 
L 24.188662 -54.089531 
L 25.955359 -54.089531 
L 27.722056 -54.089531 
L 29.488753 -54.089531 
L 31.25545 -54.089531 
L 33.022147 -54.089531 
L 34.788844 -54.089531 
L 36.555541 -54.089531 
L 38.322238 -54.089531 
L 40.088935 -54.089531 
L 41.855632 -54.089531 
L 43.622329 -54.089531 
L 45.389026 -54.089531 
L 47.155723 -54.089531 
L 48.92242 -54.089531 
L 50.689118 -54.089531 
L 52.455815 -54.089531 
L 54.222512 -54.089531 
L 55.989209 -54.089531 
L 57.755906 -54.089531 
L 59.522603 -54.089531 
L 61.2893 -54.089531 
L 63.055997 -54.089531 
L 64.822694 -54.089531 
L 66.589391 -54.089531 
L 68.356088 -54.089531 
L 70.122785 -54.089531 
L 71.889482 -54.089531 
L 73.656179 -54.089531 
L 75.422876 -54.089531 
L 77.189573 -54.089531 
L 78.95627 -54.089531 
L 80.722967 -54.089531 
L 82.489664 -54.089531 
L 84.256361 -54.089531 
L 86.023058 -54.089531 
L 87.789755 -54.089531 
L 89.556452 -54.089531 
L 91.323149 -54.089531 
L 93.089846 -54.089531 
L 94.856543 -54.089531 
L 96.62324 -54.089531 
L 98.389937 -54.089531 
L 100.156634 -54.089531 
L 101.923332 -54.089531 
L 103.690029 -54.089531 
L 105.456726 -54.089531 
L 107.223423 -54.089531 
L 108.99012 -54.089531 
L 110.756817 -54.089531 
L 112.523514 -54.089531 
L 114.290211 -54.089531 
L 116.056908 -54.089531 
L 117.823605 -54.089531 
L 119.590302 -54.089531 
L 121.356999 -54.089531 
L 123.123696 -54.089531 
L 124.890393 -54.089531 
L 126.65709 -54.089531 
L 128.423787 -54.089531 
L 130.190484 -54.089531 
L 131.957181 -54.089531 
L 133.723878 -54.089531 
L 135.490575 -54.089531 
L 137.257272 -54.089531 
L 139.023969 -54.089531 
L 140.790666 -54.089531 
L 142.557363 -54.089531 
L 144.32406 -54.089531 
L 146.090757 -54.089531 
L 147.857454 -54.089531 
L 149.624151 -54.089531 
L 151.390848 -54.089531 
L 153.157546 -54.089531 
L 154.924243 -54.089531 
L 156.69094 -54.089531 
L 158.457637 -54.089531 
L 160.224334 -54.089531 
L 161.991031 -54.089531 
L 163.757728 -54.089531 
L 165.524425 -54.089531 
L 167.291122 -54.089531 
L 169.057819 -54.089531 
L 170.824516 -54.089531 
L 172.591213 -54.089531 
L 174.35791 -54.089531 
L 176.124607 -54.089531 
L 177.891304 -54.089531 
L 179.658001 -54.089531 
L 181.424698 -54.089531 
L 183.191395 -54.089531 
L 184.958092 -54.089531 
L 186.724789 -54.089531 
L 188.491486 -54.089531 
L 190.258183 -54.089531 
L 192.02488 -54.089531 
L 193.791577 -54.089531 
L 195.558274 -54.089531 
L 197.324971 -54.089531 
L 199.091668 -54.089531 
L 200.858365 -54.089531 
L 202.625062 -54.089531 
L 204.391759 -54.089531 
L 206.158457 -54.089531 
L 207.925154 -54.089531 
L 209.691851 -54.089531 
L 211.458548 -54.089531 
L 213.225245 -54.089531 
L 214.991942 -54.089531 
L 216.758639 -54.089531 
L 218.525336 -54.089531 
L 220.292033 -54.089531 
L 222.05873 -54.089531 
L 223.825427 -54.089531 
L 225.592124 -54.089531 
L 227.358821 -54.089531 
L 229.125518 -54.089531 
L 230.892215 -54.089531 
L 232.658912 -54.089531 
L 234.425609 -54.089531 
L 236.192306 -54.089531 
L 237.959003 -54.089531 
L 239.7257 -54.089531 
L 241.492397 -54.089531 
L 243.259094 -54.089531 
L 245.025791 -54.089531 
L 246.792488 -54.089531 
L 248.559185 -54.089531 
L 250.325882 -54.089531 
L 252.092579 -54.089531 
L 253.859276 -54.089531 
L 255.625973 -54.089531 
L 257.392671 -54.089531 
L 259.159368 -54.089531 
L 260.926065 -54.089531 
L 262.692762 -54.089531 
L 264.459459 -54.089531 
L 266.226156 -54.089531 
L 267.992853 -54.089531 
L 269.75955 -54.089531 
L 271.526247 -54.089531 
L 273.292944 -54.089531 
L 275.059641 -54.089531 
L 276.826338 -54.089531 
L 278.593035 -54.089531 
L 280.359732 -54.089531 
L 282.126429 -54.089531 
L 283.893126 -54.089531 
L 285.659823 -54.089531 
L 287.42652 -54.089531 
L 289.193217 -54.089531 
L 290.959914 -54.089531 
L 292.726611 -54.089531 
L 294.493308 -54.089531 
L 296.260005 -54.089531 
L 298.026702 -54.089531 
L 299.793399 -54.089531 
L 301.560096 -54.089531 
L 303.326793 -54.089531 
L 305.09349 -54.089531 
L 306.860187 -54.089531 
L 306.860187 -54.181043 
L 306.860187 -54.181043 
L 305.09349 -54.168149 
L 303.326793 -54.139379 
L 301.560096 -54.112858 
L 299.793399 -54.097587 
L 298.026702 -54.091585 
L 296.260005 -54.089918 
L 294.493308 -54.089585 
L 292.726611 -54.089537 
L 290.959914 -54.089532 
L 289.193217 -54.089531 
L 287.42652 -54.089531 
L 285.659823 -54.089531 
L 283.893126 -54.089531 
L 282.126429 -54.089531 
L 280.359732 -54.089531 
L 278.593035 -54.089531 
L 276.826338 -54.089531 
L 275.059641 -54.089531 
L 273.292944 -54.089531 
L 271.526247 -54.089531 
L 269.75955 -54.089531 
L 267.992853 -54.089531 
L 266.226156 -54.089531 
L 264.459459 -54.089531 
L 262.692762 -54.089531 
L 260.926065 -54.089531 
L 259.159368 -54.089531 
L 257.392671 -54.089531 
L 255.625973 -54.089531 
L 253.859276 -54.089531 
L 252.092579 -54.089531 
L 250.325882 -54.089531 
L 248.559185 -54.089531 
L 246.792488 -54.089531 
L 245.025791 -54.089531 
L 243.259094 -54.089531 
L 241.492397 -54.089531 
L 239.7257 -54.089531 
L 237.959003 -54.089531 
L 236.192306 -54.089531 
L 234.425609 -54.089531 
L 232.658912 -54.089531 
L 230.892215 -54.089531 
L 229.125518 -54.089531 
L 227.358821 -54.089531 
L 225.592124 -54.089531 
L 223.825427 -54.089531 
L 222.05873 -54.089531 
L 220.292033 -54.089531 
L 218.525336 -54.089531 
L 216.758639 -54.089531 
L 214.991942 -54.089531 
L 213.225245 -54.089531 
L 211.458548 -54.089531 
L 209.691851 -54.089531 
L 207.925154 -54.089533 
L 206.158457 -54.089554 
L 204.391759 -54.089713 
L 202.625062 -54.090622 
L 200.858365 -54.094372 
L 199.091668 -54.105442 
L 197.324971 -54.128468 
L 195.558274 -54.161677 
L 193.791577 -54.195545 
L 192.02488 -54.227495 
L 190.258183 -54.278186 
L 188.491486 -54.388025 
L 186.724789 -54.616293 
L 184.958092 -55.085737 
L 183.191395 -56.064235 
L 181.424698 -58.007167 
L 179.658001 -61.474662 
L 177.891304 -66.987443 
L 176.124607 -75.02694 
L 174.35791 -86.072534 
L 172.591213 -100.266621 
L 170.824516 -116.969396 
L 169.057819 -135.051044 
L 167.291122 -153.717594 
L 165.524425 -172.653764 
L 163.757728 -191.273805 
L 161.991031 -208.096948 
L 160.224334 -220.918301 
L 158.457637 -227.804245 
L 156.69094 -228.46828 
L 154.924243 -224.628068 
L 153.157546 -218.489417 
L 151.390848 -211.132749 
L 149.624151 -202.798464 
L 147.857454 -193.919982 
L 146.090757 -184.994295 
L 144.32406 -176.081604 
L 142.557363 -167.17713 
L 140.790666 -158.517381 
L 139.023969 -150.140953 
L 137.257272 -141.81728 
L 135.490575 -133.62237 
L 133.723878 -126.051275 
L 131.957181 -119.52801 
L 130.190484 -114.05511 
L 128.423787 -109.183633 
L 126.65709 -104.277545 
L 124.890393 -99.050911 
L 123.123696 -93.85563 
L 121.356999 -89.304701 
L 119.590302 -85.643332 
L 117.823605 -82.593559 
L 116.056908 -79.817992 
L 114.290211 -77.342166 
L 112.523514 -75.364774 
L 110.756817 -73.861025 
L 108.99012 -72.595187 
L 107.223423 -71.346211 
L 105.456726 -69.963115 
L 103.690029 -68.398708 
L 101.923332 -66.801379 
L 100.156634 -65.39372 
L 98.389937 -64.230827 
L 96.62324 -63.218745 
L 94.856543 -62.292828 
L 93.089846 -61.446048 
L 91.323149 -60.670403 
L 89.556452 -59.954653 
L 87.789755 -59.303932 
L 86.023058 -58.746885 
L 84.256361 -58.313335 
L 82.489664 -57.98076 
L 80.722967 -57.657545 
L 78.95627 -57.252565 
L 77.189573 -56.777583 
L 75.422876 -56.34796 
L 73.656179 -56.053489 
L 71.889482 -55.870445 
L 70.122785 -55.717203 
L 68.356088 -55.553964 
L 66.589391 -55.412687 
L 64.822694 -55.330481 
L 63.055997 -55.273227 
L 61.2893 -55.175129 
L 59.522603 -55.037496 
L 57.755906 -54.924923 
L 55.989209 -54.871026 
L 54.222512 -54.84285 
L 52.455815 -54.819997 
L 50.689118 -54.847702 
L 48.92242 -54.93547 
L 47.155723 -54.968425 
L 45.389026 -54.832537 
L 43.622329 -54.577445 
L 41.855632 -54.363704 
L 40.088935 -54.300068 
L 38.322238 -54.378218 
L 36.555541 -54.500456 
L 34.788844 -54.546665 
L 33.022147 -54.467715 
L 31.25545 -54.320666 
L 29.488753 -54.193802 
L 27.722056 -54.124249 
L 25.955359 -54.098063 
L 24.188662 -54.091079 
L 22.421965 -54.089738 
L 20.655268 -54.089552 
L 18.888571 -54.089533 
L 17.121874 -54.089531 
L 15.355177 -54.089531 
L 13.58848 -54.089531 
L 11.821783 -54.089531 
L 10.055086 -54.089531 
L 8.288389 -54.089531 
L 6.521692 -54.089531 
L 4.754995 -54.089531 
L 2.988298 -54.089531 
L 1.221601 -54.089531 
L -0.545096 -54.089531 
L -2.311794 -54.089531 
L -4.078491 -54.089531 
L -5.845188 -54.089531 
L -7.611885 -54.089531 
L -9.378582 -54.089531 
L -11.145279 -54.089531 
L -12.911976 -54.089531 
L -14.678673 -54.089531 
L -16.44537 -54.089531 
L -18.212067 -54.089531 
L -19.978764 -54.089531 
L -21.745461 -54.089531 
L -23.512158 -54.089531 
L -25.278855 -54.089531 
L -27.045552 -54.089531 
L -28.812249 -54.089533 
L -30.578946 -54.089553 
L -32.345643 -54.089746 
L -34.11234 -54.091077 
L -35.879037 -54.097745 
L -37.645734 -54.121756 
L -39.412431 -54.182837 
L -41.179128 -54.288921 
L -42.945825 -54.404002 
L -44.712522 -54.45558 
z
" style="stroke: #38a3a6; stroke-width: 3"/>
    </defs>
    <g clip-path="url(#pcb4677d04a)">
     <use xlink:href="#mc58d4ff48e" x="0" y="344.758242" style="fill: #38a3a6; fill-opacity: 0.2; stroke: #38a3a6; stroke-width: 3"/>
    </g>
   </g>
   <g id="line2d_13">
    <path d="M 146.76675 290.668711 
L 146.76675 13.468711 
" clip-path="url(#pcb4677d04a)" style="fill: none; stroke: #000000; stroke-width: 2; stroke-linecap: round"/>
   </g>
   <g id="line2d_14">
    <path d="M 125.826371 290.668711 
L 125.826371 13.468711 
" clip-path="url(#pcb4677d04a)" style="fill: none; stroke: #000000; stroke-width: 2; stroke-linecap: round"/>
   </g>
   <g id="patch_3">
    <path d="M 74.858906 290.668711 
L 74.858906 13.468711 
" style="fill: none; stroke: #262626; stroke-width: 3; stroke-linejoin: miter; stroke-linecap: square"/>
   </g>
   <g id="patch_4">
    <path d="M 74.858906 290.668711 
L 353.858906 290.668711 
" style="fill: none; stroke: #262626; stroke-width: 3; stroke-linejoin: miter; stroke-linecap: square"/>
   </g>
   <g id="legend_1">
    <g id="patch_5">
     <path d="M 317.400234 144.512227 
L 350.400234 144.512227 
L 350.400234 132.962227 
L 317.400234 132.962227 
z
" style="fill: #38a3a6; stroke: #ffffff; stroke-linejoin: miter"/>
    </g>
    <g id="text_15">
     <text style="fill: #262626; font: 16.5px 'sans-serif'; text-anchor: start" x="363.600234" y="144.512227" transform="rotate(-0, 363.600234, 144.512227)">AraC S170 R2 LOV light</text>
    </g>
    <g id="patch_6">
     <path d="M 317.400234 168.731133 
L 350.400234 168.731133 
L 350.400234 157.181133 
L 317.400234 157.181133 
z
" style="fill: #de4968; stroke: #ffffff; stroke-linejoin: miter"/>
    </g>
    <g id="text_16">
     <text style="fill: #262626; font: 16.5px 'sans-serif'; text-anchor: start" x="363.600234" y="168.731133" transform="rotate(-0, 363.600234, 168.731133)">AraC S170 R2 LOV dark</text>
    </g>
   </g>
  </g>
 </g>
 <defs>
  <clipPath id="pcb4677d04a">
   <rect x="74.858906" y="13.468711" width="279" height="277.2"/>
  </clipPath>
 </defs>
</svg>
