<?xml version="1.0" encoding="utf-8" standalone="no"?>
<!DOCTYPE svg PUBLIC "-//W3C//DTD SVG 1.1//EN"
  "http://www.w3.org/Graphics/SVG/1.1/DTD/svg11.dtd">
<svg xmlns:xlink="http://www.w3.org/1999/xlink" width="543.523008pt" height="338.489531pt" viewBox="0 0 543.523008 338.489531" xmlns="http://www.w3.org/2000/svg" version="1.1">
 <metadata>
  <rdf:RDF xmlns:dc="http://purl.org/dc/elements/1.1/" xmlns:cc="http://creativecommons.org/ns#" xmlns:rdf="http://www.w3.org/1999/02/22-rdf-syntax-ns#">
   <cc:Work>
    <dc:type rdf:resource="http://purl.org/dc/dcmitype/StillImage"/>
    <dc:date>2025-04-29T17:55:24.370306</dc:date>
    <dc:format>image/svg+xml</dc:format>
    <dc:creator>
     <cc:Agent>
      <dc:title>Matplotlib v3.5.0, https://matplotlib.org/</dc:title>
     </cc:Agent>
    </dc:creator>
   </cc:Work>
  </rdf:RDF>
 </metadata>
 <defs>
  <style type="text/css">*{stroke-linejoin: round; stroke-linecap: butt}</style>
 </defs>
 <g id="figure_1">
  <g id="patch_1">
   <path d="M 0 338.489531 
L 543.523008 338.489531 
L 543.523008 0 
L 0 0 
z
" style="fill: #ffffff"/>
  </g>
  <g id="axes_1">
   <g id="patch_2">
    <path d="M 64.360781 284.4 
L 343.360781 284.4 
L 343.360781 7.2 
L 64.360781 7.2 
z
" style="fill: #ffffff"/>
   </g>
   <g id="matplotlib.axis_1">
    <g id="xtick_1">
     <g id="line2d_1">
      <defs>
       <path id="m49c25b933b" d="M 0 0 
L 0 6 
" style="stroke: #262626; stroke-width: 3"/>
      </defs>
      <g>
       <use xlink:href="#m49c25b933b" x="64.360781" y="284.4" style="fill: #262626; stroke: #262626; stroke-width: 3"/>
      </g>
     </g>
     <g id="text_1">
      <!-- $\mathdefault{10^{0}}$ -->
      <g style="fill: #262626" transform="translate(49.840781 306.437422)">
       <text>
        <tspan style="font: 16.5px 'DejaVu Sans'" x="0 10.497803" y="-0.10312500000000213">10</tspan>
        <tspan style="font: 11.55px 'DejaVu Sans'" x="21.153652" y="-6.425000000000001">0</tspan>
       </text>
      </g>
     </g>
    </g>
    <g id="xtick_2">
     <g id="line2d_2">
      <g>
       <use xlink:href="#m49c25b933b" x="146.085992" y="284.4" style="fill: #262626; stroke: #262626; stroke-width: 3"/>
      </g>
     </g>
     <g id="text_2">
      <!-- $\mathdefault{10^{2}}$ -->
      <g style="fill: #262626" transform="translate(131.565992 306.437422)">
       <text>
        <tspan style="font: 16.5px 'DejaVu Sans'" x="0 10.497803" y="-0.10312500000000213">10</tspan>
        <tspan style="font: 11.55px 'DejaVu Sans'" x="21.153652" y="-6.425000000000001">2</tspan>
       </text>
      </g>
     </g>
    </g>
    <g id="xtick_3">
     <g id="line2d_3">
      <g>
       <use xlink:href="#m49c25b933b" x="227.811202" y="284.4" style="fill: #262626; stroke: #262626; stroke-width: 3"/>
      </g>
     </g>
     <g id="text_3">
      <!-- $\mathdefault{10^{4}}$ -->
      <g style="fill: #262626" transform="translate(213.291202 306.437422)">
       <text>
        <tspan style="font: 16.5px 'DejaVu Sans'" x="0 10.497803" y="-0.2562500000000014">10</tspan>
        <tspan style="font: 11.55px 'DejaVu Sans'" x="21.153652" y="-6.578125">4</tspan>
       </text>
      </g>
     </g>
    </g>
    <g id="xtick_4">
     <g id="line2d_4">
      <g>
       <use xlink:href="#m49c25b933b" x="309.536412" y="284.4" style="fill: #262626; stroke: #262626; stroke-width: 3"/>
      </g>
     </g>
     <g id="text_4">
      <!-- $\mathdefault{10^{6}}$ -->
      <g style="fill: #262626" transform="translate(295.016412 306.437422)">
       <text>
        <tspan style="font: 16.5px 'DejaVu Sans'" x="0 10.497803" y="-0.10312500000000213">10</tspan>
        <tspan style="font: 11.55px 'DejaVu Sans'" x="21.153652" y="-6.425000000000001">6</tspan>
       </text>
      </g>
     </g>
    </g>
    <g id="text_5">
     <text style="fill: #262626; font: 18px 'sans-serif'; text-anchor: middle" x="203.860781" y="327.546094" transform="rotate(-0, 203.860781, 327.546094)">log[RFP]</text>
    </g>
   </g>
   <g id="matplotlib.axis_2">
    <g id="ytick_1">
     <g id="line2d_5">
      <defs>
       <path id="mbd4da740c9" d="M 0 0 
L -6 0 
" style="stroke: #262626; stroke-width: 3"/>
      </defs>
      <g>
       <use xlink:href="#mbd4da740c9" x="64.360781" y="284.4" style="fill: #262626; stroke: #262626; stroke-width: 3"/>
      </g>
     </g>
     <g id="text_6">
      <text style="fill: #262626; font: 16.5px 'sans-serif'; text-anchor: end" x="54.860781" y="290.668711" transform="rotate(-0, 54.860781, 290.668711)">0.0</text>
     </g>
    </g>
    <g id="ytick_2">
     <g id="line2d_6">
      <g>
       <use xlink:href="#mbd4da740c9" x="64.360781" y="222.210504" style="fill: #262626; stroke: #262626; stroke-width: 3"/>
      </g>
     </g>
     <g id="text_7">
      <text style="fill: #262626; font: 16.5px 'sans-serif'; text-anchor: end" x="54.860781" y="228.479215" transform="rotate(-0, 54.860781, 228.479215)">0.5</text>
     </g>
    </g>
    <g id="ytick_3">
     <g id="line2d_7">
      <g>
       <use xlink:href="#mbd4da740c9" x="64.360781" y="160.021009" style="fill: #262626; stroke: #262626; stroke-width: 3"/>
      </g>
     </g>
     <g id="text_8">
      <text style="fill: #262626; font: 16.5px 'sans-serif'; text-anchor: end" x="54.860781" y="166.28972" transform="rotate(-0, 54.860781, 166.28972)">1.0</text>
     </g>
    </g>
    <g id="ytick_4">
     <g id="line2d_8">
      <g>
       <use xlink:href="#mbd4da740c9" x="64.360781" y="97.831513" style="fill: #262626; stroke: #262626; stroke-width: 3"/>
      </g>
     </g>
     <g id="text_9">
      <text style="fill: #262626; font: 16.5px 'sans-serif'; text-anchor: end" x="54.860781" y="104.100224" transform="rotate(-0, 54.860781, 104.100224)">1.5</text>
     </g>
    </g>
    <g id="ytick_5">
     <g id="line2d_9">
      <g>
       <use xlink:href="#mbd4da740c9" x="64.360781" y="35.642017" style="fill: #262626; stroke: #262626; stroke-width: 3"/>
      </g>
     </g>
     <g id="text_10">
      <text style="fill: #262626; font: 16.5px 'sans-serif'; text-anchor: end" x="54.860781" y="41.910728" transform="rotate(-0, 54.860781, 41.910728)">2.0</text>
     </g>
    </g>
    <g id="text_11">
     <text style="fill: #262626; font: 18px 'sans-serif'; text-anchor: middle" x="20.877188" y="145.8" transform="rotate(-90, 20.877188, 145.8)">Density</text>
    </g>
   </g>
   <g id="PolyCollection_1">
    <defs>
     <path id="m19de2d1d2f" d="M 60.400786 -54.128251 
L 60.400786 -54.089531 
L 61.822695 -54.089531 
L 63.244605 -54.089531 
L 64.666514 -54.089531 
L 66.088424 -54.089531 
L 67.510334 -54.089531 
L 68.932243 -54.089531 
L 70.354153 -54.089531 
L 71.776062 -54.089531 
L 73.197972 -54.089531 
L 74.619881 -54.089531 
L 76.041791 -54.089531 
L 77.4637 -54.089531 
L 78.88561 -54.089531 
L 80.307519 -54.089531 
L 81.729429 -54.089531 
L 83.151338 -54.089531 
L 84.573248 -54.089531 
L 85.995157 -54.089531 
L 87.417067 -54.089531 
L 88.838976 -54.089531 
L 90.260886 -54.089531 
L 91.682795 -54.089531 
L 93.104705 -54.089531 
L 94.526615 -54.089531 
L 95.948524 -54.089531 
L 97.370434 -54.089531 
L 98.792343 -54.089531 
L 100.214253 -54.089531 
L 101.636162 -54.089531 
L 103.058072 -54.089531 
L 104.479981 -54.089531 
L 105.901891 -54.089531 
L 107.3238 -54.089531 
L 108.74571 -54.089531 
L 110.167619 -54.089531 
L 111.589529 -54.089531 
L 113.011438 -54.089531 
L 114.433348 -54.089531 
L 115.855257 -54.089531 
L 117.277167 -54.089531 
L 118.699076 -54.089531 
L 120.120986 -54.089531 
L 121.542895 -54.089531 
L 122.964805 -54.089531 
L 124.386715 -54.089531 
L 125.808624 -54.089531 
L 127.230534 -54.089531 
L 128.652443 -54.089531 
L 130.074353 -54.089531 
L 131.496262 -54.089531 
L 132.918172 -54.089531 
L 134.340081 -54.089531 
L 135.761991 -54.089531 
L 137.1839 -54.089531 
L 138.60581 -54.089531 
L 140.027719 -54.089531 
L 141.449629 -54.089531 
L 142.871538 -54.089531 
L 144.293448 -54.089531 
L 145.715357 -54.089531 
L 147.137267 -54.089531 
L 148.559176 -54.089531 
L 149.981086 -54.089531 
L 151.402995 -54.089531 
L 152.824905 -54.089531 
L 154.246815 -54.089531 
L 155.668724 -54.089531 
L 157.090634 -54.089531 
L 158.512543 -54.089531 
L 159.934453 -54.089531 
L 161.356362 -54.089531 
L 162.778272 -54.089531 
L 164.200181 -54.089531 
L 165.622091 -54.089531 
L 167.044 -54.089531 
L 168.46591 -54.089531 
L 169.887819 -54.089531 
L 171.309729 -54.089531 
L 172.731638 -54.089531 
L 174.153548 -54.089531 
L 175.575457 -54.089531 
L 176.997367 -54.089531 
L 178.419276 -54.089531 
L 179.841186 -54.089531 
L 181.263095 -54.089531 
L 182.685005 -54.089531 
L 184.106915 -54.089531 
L 185.528824 -54.089531 
L 186.950734 -54.089531 
L 188.372643 -54.089531 
L 189.794553 -54.089531 
L 191.216462 -54.089531 
L 192.638372 -54.089531 
L 194.060281 -54.089531 
L 195.482191 -54.089531 
L 196.9041 -54.089531 
L 198.32601 -54.089531 
L 199.747919 -54.089531 
L 201.169829 -54.089531 
L 202.591738 -54.089531 
L 204.013648 -54.089531 
L 205.435557 -54.089531 
L 206.857467 -54.089531 
L 208.279376 -54.089531 
L 209.701286 -54.089531 
L 211.123195 -54.089531 
L 212.545105 -54.089531 
L 213.967015 -54.089531 
L 215.388924 -54.089531 
L 216.810834 -54.089531 
L 218.232743 -54.089531 
L 219.654653 -54.089531 
L 221.076562 -54.089531 
L 222.498472 -54.089531 
L 223.920381 -54.089531 
L 225.342291 -54.089531 
L 226.7642 -54.089531 
L 228.18611 -54.089531 
L 229.608019 -54.089531 
L 231.029929 -54.089531 
L 232.451838 -54.089531 
L 233.873748 -54.089531 
L 235.295657 -54.089531 
L 236.717567 -54.089531 
L 238.139476 -54.089531 
L 239.561386 -54.089531 
L 240.983296 -54.089531 
L 242.405205 -54.089531 
L 243.827115 -54.089531 
L 245.249024 -54.089531 
L 246.670934 -54.089531 
L 248.092843 -54.089531 
L 249.514753 -54.089531 
L 250.936662 -54.089531 
L 252.358572 -54.089531 
L 253.780481 -54.089531 
L 255.202391 -54.089531 
L 256.6243 -54.089531 
L 258.04621 -54.089531 
L 259.468119 -54.089531 
L 260.890029 -54.089531 
L 262.311938 -54.089531 
L 263.733848 -54.089531 
L 265.155757 -54.089531 
L 266.577667 -54.089531 
L 267.999576 -54.089531 
L 269.421486 -54.089531 
L 270.843396 -54.089531 
L 272.265305 -54.089531 
L 273.687215 -54.089531 
L 275.109124 -54.089531 
L 276.531034 -54.089531 
L 277.952943 -54.089531 
L 279.374853 -54.089531 
L 280.796762 -54.089531 
L 282.218672 -54.089531 
L 283.640581 -54.089531 
L 285.062491 -54.089531 
L 286.4844 -54.089531 
L 287.90631 -54.089531 
L 289.328219 -54.089531 
L 290.750129 -54.089531 
L 292.172038 -54.089531 
L 293.593948 -54.089531 
L 295.015857 -54.089531 
L 296.437767 -54.089531 
L 297.859676 -54.089531 
L 299.281586 -54.089531 
L 300.703496 -54.089531 
L 302.125405 -54.089531 
L 303.547315 -54.089531 
L 304.969224 -54.089531 
L 306.391134 -54.089531 
L 307.813043 -54.089531 
L 309.234953 -54.089531 
L 310.656862 -54.089531 
L 312.078772 -54.089531 
L 313.500681 -54.089531 
L 314.922591 -54.089531 
L 316.3445 -54.089531 
L 317.76641 -54.089531 
L 319.188319 -54.089531 
L 320.610229 -54.089531 
L 322.032138 -54.089531 
L 323.454048 -54.089531 
L 324.875957 -54.089531 
L 326.297867 -54.089531 
L 327.719776 -54.089531 
L 329.141686 -54.089531 
L 330.563596 -54.089531 
L 331.985505 -54.089531 
L 333.407415 -54.089531 
L 334.829324 -54.089531 
L 336.251234 -54.089531 
L 337.673143 -54.089531 
L 339.095053 -54.089531 
L 340.516962 -54.089531 
L 341.938872 -54.089531 
L 343.360781 -54.089531 
L 343.360781 -54.421057 
L 343.360781 -54.421057 
L 341.938872 -54.624944 
L 340.516962 -54.883031 
L 339.095053 -55.176016 
L 337.673143 -55.481755 
L 336.251234 -55.79092 
L 334.829324 -56.11809 
L 333.407415 -56.502608 
L 331.985505 -57.00244 
L 330.563596 -57.688793 
L 329.141686 -58.649391 
L 327.719776 -60.007285 
L 326.297867 -61.952548 
L 324.875957 -64.76367 
L 323.454048 -68.789162 
L 322.032138 -74.392145 
L 320.610229 -81.904906 
L 319.188319 -91.639116 
L 317.76641 -103.941082 
L 316.3445 -119.224592 
L 314.922591 -137.905378 
L 313.500681 -160.201549 
L 312.078772 -185.836185 
L 310.656862 -213.762982 
L 309.234953 -242.081341 
L 307.813043 -268.245502 
L 306.391134 -289.518049 
L 304.969224 -303.495378 
L 303.547315 -308.537251 
L 302.125405 -304.018566 
L 300.703496 -290.389325 
L 299.281586 -269.059626 
L 297.859676 -242.153026 
L 296.437767 -212.188394 
L 295.015857 -181.738086 
L 293.593948 -153.093287 
L 292.172038 -127.979458 
L 290.750129 -107.387525 
L 289.328219 -91.568467 
L 287.90631 -80.17353 
L 286.4844 -72.46665 
L 285.062491 -67.538908 
L 283.640581 -64.49368 
L 282.218672 -62.589421 
L 280.796762 -61.316793 
L 279.374853 -60.390806 
L 277.952943 -59.677426 
L 276.531034 -59.110758 
L 275.109124 -58.647226 
L 273.687215 -58.257067 
L 272.265305 -57.922608 
L 270.843396 -57.625943 
L 269.421486 -57.339764 
L 267.999576 -57.0391 
L 266.577667 -56.723985 
L 265.155757 -56.423804 
L 263.733848 -56.172926 
L 262.311938 -55.981511 
L 260.890029 -55.831547 
L 259.468119 -55.699244 
L 258.04621 -55.577069 
L 256.6243 -55.473669 
L 255.202391 -55.397429 
L 253.780481 -55.344708 
L 252.358572 -55.302859 
L 250.936662 -55.26027 
L 249.514753 -55.212274 
L 248.092843 -55.160389 
L 246.670934 -55.108518 
L 245.249024 -55.059427 
L 243.827115 -55.013141 
L 242.405205 -54.967686 
L 240.983296 -54.920984 
L 239.561386 -54.872435 
L 238.139476 -54.824427 
L 236.717567 -54.78394 
L 235.295657 -54.761814 
L 233.873748 -54.767226 
L 232.451838 -54.799541 
L 231.029929 -54.844007 
L 229.608019 -54.877181 
L 228.18611 -54.881644 
L 226.7642 -54.860653 
L 225.342291 -54.839642 
L 223.920381 -54.850572 
L 222.498472 -54.911092 
L 221.076562 -55.015761 
L 219.654653 -55.144123 
L 218.232743 -55.274577 
L 216.810834 -55.39118 
L 215.388924 -55.481552 
L 213.967015 -55.533411 
L 212.545105 -55.536684 
L 211.123195 -55.491112 
L 209.701286 -55.412395 
L 208.279376 -55.328643 
L 206.857467 -55.266017 
L 205.435557 -55.233608 
L 204.013648 -55.22099 
L 202.591738 -55.211328 
L 201.169829 -55.197415 
L 199.747919 -55.185128 
L 198.32601 -55.183036 
L 196.9041 -55.192069 
L 195.482191 -55.206843 
L 194.060281 -55.223944 
L 192.638372 -55.244056 
L 191.216462 -55.264936 
L 189.794553 -55.27613 
L 188.372643 -55.264547 
L 186.950734 -55.225732 
L 185.528824 -55.168476 
L 184.106915 -55.108547 
L 182.685005 -55.058784 
L 181.263095 -55.024414 
L 179.841186 -55.004844 
L 178.419276 -54.996791 
L 176.997367 -54.995009 
L 175.575457 -54.992657 
L 174.153548 -54.985793 
L 172.731638 -54.981241 
L 171.309729 -54.999276 
L 169.887819 -55.062988 
L 168.46591 -55.178779 
L 167.044 -55.325045 
L 165.622091 -55.462023 
L 164.200181 -55.556321 
L 162.778272 -55.599653 
L 161.356362 -55.608368 
L 159.934453 -55.608819 
L 158.512543 -55.622213 
L 157.090634 -55.656037 
L 155.668724 -55.702272 
L 154.246815 -55.743524 
L 152.824905 -55.766745 
L 151.402995 -55.774745 
L 149.981086 -55.782709 
L 148.559176 -55.801116 
L 147.137267 -55.822486 
L 145.715357 -55.825758 
L 144.293448 -55.793011 
L 142.871538 -55.722076 
L 141.449629 -55.626276 
L 140.027719 -55.525803 
L 138.60581 -55.438724 
L 137.1839 -55.374593 
L 135.761991 -55.330809 
L 134.340081 -55.293652 
L 132.918172 -55.245331 
L 131.496262 -55.17367 
L 130.074353 -55.078597 
L 128.652443 -54.972456 
L 127.230534 -54.874579 
L 125.808624 -54.801827 
L 124.386715 -54.758805 
L 122.964805 -54.734343 
L 121.542895 -54.708792 
L 120.120986 -54.667988 
L 118.699076 -54.612402 
L 117.277167 -54.553489 
L 115.855257 -54.50146 
L 114.433348 -54.456707 
L 113.011438 -54.412226 
L 111.589529 -54.362605 
L 110.167619 -54.309785 
L 108.74571 -54.261152 
L 107.3238 -54.223678 
L 105.901891 -54.200052 
L 104.479981 -54.188876 
L 103.058072 -54.186825 
L 101.636162 -54.190169 
L 100.214253 -54.195069 
L 98.792343 -54.197772 
L 97.370434 -54.19556 
L 95.948524 -54.188056 
L 94.526615 -54.177644 
L 93.104705 -54.168218 
L 91.682795 -54.162771 
L 90.260886 -54.16149 
L 88.838976 -54.161764 
L 87.417067 -54.159955 
L 85.995157 -54.153532 
L 84.573248 -54.14231 
L 83.151338 -54.128328 
L 81.729429 -54.114623 
L 80.307519 -54.103667 
L 78.88561 -54.096415 
L 77.4637 -54.092413 
L 76.041791 -54.090566 
L 74.619881 -54.089858 
L 73.197972 -54.089665 
L 71.776062 -54.089757 
L 70.354153 -54.090242 
L 68.932243 -54.091576 
L 67.510334 -54.094553 
L 66.088424 -54.100008 
L 64.666514 -54.108092 
L 63.244605 -54.117457 
L 61.822695 -54.125213 
L 60.400786 -54.128251 
z
" style="stroke: #8c2981; stroke-width: 3"/>
    </defs>
    <g clip-path="url(#pe0eda4a4e8)">
     <use xlink:href="#m19de2d1d2f" x="0" y="338.489531" style="fill: #8c2981; fill-opacity: 0.2; stroke: #8c2981; stroke-width: 3"/>
    </g>
   </g>
   <g id="PolyCollection_2">
    <defs>
     <path id="m8a6dbbf940" d="M 88.962521 -54.136028 
L 88.962521 -54.089531 
L 90.185717 -54.089531 
L 91.408913 -54.089531 
L 92.632109 -54.089531 
L 93.855304 -54.089531 
L 95.0785 -54.089531 
L 96.301696 -54.089531 
L 97.524892 -54.089531 
L 98.748088 -54.089531 
L 99.971284 -54.089531 
L 101.19448 -54.089531 
L 102.417676 -54.089531 
L 103.640872 -54.089531 
L 104.864067 -54.089531 
L 106.087263 -54.089531 
L 107.310459 -54.089531 
L 108.533655 -54.089531 
L 109.756851 -54.089531 
L 110.980047 -54.089531 
L 112.203243 -54.089531 
L 113.426439 -54.089531 
L 114.649635 -54.089531 
L 115.87283 -54.089531 
L 117.096026 -54.089531 
L 118.319222 -54.089531 
L 119.542418 -54.089531 
L 120.765614 -54.089531 
L 121.98881 -54.089531 
L 123.212006 -54.089531 
L 124.435202 -54.089531 
L 125.658397 -54.089531 
L 126.881593 -54.089531 
L 128.104789 -54.089531 
L 129.327985 -54.089531 
L 130.551181 -54.089531 
L 131.774377 -54.089531 
L 132.997573 -54.089531 
L 134.220769 -54.089531 
L 135.443965 -54.089531 
L 136.66716 -54.089531 
L 137.890356 -54.089531 
L 139.113552 -54.089531 
L 140.336748 -54.089531 
L 141.559944 -54.089531 
L 142.78314 -54.089531 
L 144.006336 -54.089531 
L 145.229532 -54.089531 
L 146.452728 -54.089531 
L 147.675923 -54.089531 
L 148.899119 -54.089531 
L 150.122315 -54.089531 
L 151.345511 -54.089531 
L 152.568707 -54.089531 
L 153.791903 -54.089531 
L 155.015099 -54.089531 
L 156.238295 -54.089531 
L 157.46149 -54.089531 
L 158.684686 -54.089531 
L 159.907882 -54.089531 
L 161.131078 -54.089531 
L 162.354274 -54.089531 
L 163.57747 -54.089531 
L 164.800666 -54.089531 
L 166.023862 -54.089531 
L 167.247058 -54.089531 
L 168.470253 -54.089531 
L 169.693449 -54.089531 
L 170.916645 -54.089531 
L 172.139841 -54.089531 
L 173.363037 -54.089531 
L 174.586233 -54.089531 
L 175.809429 -54.089531 
L 177.032625 -54.089531 
L 178.255821 -54.089531 
L 179.479016 -54.089531 
L 180.702212 -54.089531 
L 181.925408 -54.089531 
L 183.148604 -54.089531 
L 184.3718 -54.089531 
L 185.594996 -54.089531 
L 186.818192 -54.089531 
L 188.041388 -54.089531 
L 189.264583 -54.089531 
L 190.487779 -54.089531 
L 191.710975 -54.089531 
L 192.934171 -54.089531 
L 194.157367 -54.089531 
L 195.380563 -54.089531 
L 196.603759 -54.089531 
L 197.826955 -54.089531 
L 199.050151 -54.089531 
L 200.273346 -54.089531 
L 201.496542 -54.089531 
L 202.719738 -54.089531 
L 203.942934 -54.089531 
L 205.16613 -54.089531 
L 206.389326 -54.089531 
L 207.612522 -54.089531 
L 208.835718 -54.089531 
L 210.058913 -54.089531 
L 211.282109 -54.089531 
L 212.505305 -54.089531 
L 213.728501 -54.089531 
L 214.951697 -54.089531 
L 216.174893 -54.089531 
L 217.398089 -54.089531 
L 218.621285 -54.089531 
L 219.844481 -54.089531 
L 221.067676 -54.089531 
L 222.290872 -54.089531 
L 223.514068 -54.089531 
L 224.737264 -54.089531 
L 225.96046 -54.089531 
L 227.183656 -54.089531 
L 228.406852 -54.089531 
L 229.630048 -54.089531 
L 230.853244 -54.089531 
L 232.076439 -54.089531 
L 233.299635 -54.089531 
L 234.522831 -54.089531 
L 235.746027 -54.089531 
L 236.969223 -54.089531 
L 238.192419 -54.089531 
L 239.415615 -54.089531 
L 240.638811 -54.089531 
L 241.862006 -54.089531 
L 243.085202 -54.089531 
L 244.308398 -54.089531 
L 245.531594 -54.089531 
L 246.75479 -54.089531 
L 247.977986 -54.089531 
L 249.201182 -54.089531 
L 250.424378 -54.089531 
L 251.647574 -54.089531 
L 252.870769 -54.089531 
L 254.093965 -54.089531 
L 255.317161 -54.089531 
L 256.540357 -54.089531 
L 257.763553 -54.089531 
L 258.986749 -54.089531 
L 260.209945 -54.089531 
L 261.433141 -54.089531 
L 262.656337 -54.089531 
L 263.879532 -54.089531 
L 265.102728 -54.089531 
L 266.325924 -54.089531 
L 267.54912 -54.089531 
L 268.772316 -54.089531 
L 269.995512 -54.089531 
L 271.218708 -54.089531 
L 272.441904 -54.089531 
L 273.665099 -54.089531 
L 274.888295 -54.089531 
L 276.111491 -54.089531 
L 277.334687 -54.089531 
L 278.557883 -54.089531 
L 279.781079 -54.089531 
L 281.004275 -54.089531 
L 282.227471 -54.089531 
L 283.450667 -54.089531 
L 284.673862 -54.089531 
L 285.897058 -54.089531 
L 287.120254 -54.089531 
L 288.34345 -54.089531 
L 289.566646 -54.089531 
L 290.789842 -54.089531 
L 292.013038 -54.089531 
L 293.236234 -54.089531 
L 294.45943 -54.089531 
L 295.682625 -54.089531 
L 296.905821 -54.089531 
L 298.129017 -54.089531 
L 299.352213 -54.089531 
L 300.575409 -54.089531 
L 301.798605 -54.089531 
L 303.021801 -54.089531 
L 304.244997 -54.089531 
L 305.468192 -54.089531 
L 306.691388 -54.089531 
L 307.914584 -54.089531 
L 309.13778 -54.089531 
L 310.360976 -54.089531 
L 311.584172 -54.089531 
L 312.807368 -54.089531 
L 314.030564 -54.089531 
L 315.25376 -54.089531 
L 316.476955 -54.089531 
L 317.700151 -54.089531 
L 318.923347 -54.089531 
L 320.146543 -54.089531 
L 321.369739 -54.089531 
L 322.592935 -54.089531 
L 323.816131 -54.089531 
L 325.039327 -54.089531 
L 326.262522 -54.089531 
L 327.485718 -54.089531 
L 328.708914 -54.089531 
L 329.93211 -54.089531 
L 331.155306 -54.089531 
L 332.378502 -54.089531 
L 332.378502 -54.301011 
L 332.378502 -54.301011 
L 331.155306 -54.348414 
L 329.93211 -54.394927 
L 328.708914 -54.447569 
L 327.485718 -54.517136 
L 326.262522 -54.615471 
L 325.039327 -54.752698 
L 323.816131 -54.934396 
L 322.592935 -55.15973 
L 321.369739 -55.423155 
L 320.146543 -55.720842 
L 318.923347 -56.058901 
L 317.700151 -56.458225 
L 316.476955 -56.953364 
L 315.25376 -57.587635 
L 314.030564 -58.40979 
L 312.807368 -59.477888 
L 311.584172 -60.874516 
L 310.360976 -62.733174 
L 309.13778 -65.267456 
L 307.914584 -68.78749 
L 306.691388 -73.690987 
L 305.468192 -80.430495 
L 304.244997 -89.46995 
L 303.021801 -101.237146 
L 301.798605 -116.060022 
L 300.575409 -134.070446 
L 299.352213 -155.085897 
L 298.129017 -178.517146 
L 296.905821 -203.356741 
L 295.682625 -228.26215 
L 294.45943 -251.693893 
L 293.236234 -272.056282 
L 292.013038 -287.826089 
L 290.789842 -297.694798 
L 289.566646 -300.744503 
L 288.34345 -296.632496 
L 287.120254 -285.720336 
L 285.897058 -269.079275 
L 284.673862 -248.335104 
L 283.450667 -225.373284 
L 282.227471 -201.992219 
L 281.004275 -179.626781 
L 279.781079 -159.227698 
L 278.557883 -141.294264 
L 277.334687 -125.98712 
L 276.111491 -113.242369 
L 274.888295 -102.850835 
L 273.665099 -94.508728 
L 272.441904 -87.860756 
L 271.218708 -82.547748 
L 269.995512 -78.253249 
L 268.772316 -74.732422 
L 267.54912 -71.811738 
L 266.325924 -69.365922 
L 265.102728 -67.292658 
L 263.879532 -65.502217 
L 262.656337 -63.923107 
L 261.433141 -62.511749 
L 260.209945 -61.253819 
L 258.986749 -60.154146 
L 257.763553 -59.221288 
L 256.540357 -58.455469 
L 255.317161 -57.844142 
L 254.093965 -57.363684 
L 252.870769 -56.983775 
L 251.647574 -56.672853 
L 250.424378 -56.404638 
L 249.201182 -56.164343 
L 247.977986 -55.951316 
L 246.75479 -55.77543 
L 245.531594 -55.647791 
L 244.308398 -55.570047 
L 243.085202 -55.528594 
L 241.862006 -55.498339 
L 240.638811 -55.454826 
L 239.415615 -55.386712 
L 238.192419 -55.299444 
L 236.969223 -55.20807 
L 235.746027 -55.126094 
L 234.522831 -55.05908 
L 233.299635 -55.00559 
L 232.076439 -54.96179 
L 230.853244 -54.925428 
L 229.630048 -54.897519 
L 228.406852 -54.88183 
L 227.183656 -54.882594 
L 225.96046 -54.901676 
L 224.737264 -54.937036 
L 223.514068 -54.983555 
L 222.290872 -55.035495 
L 221.067676 -55.088993 
L 219.844481 -55.143203 
L 218.621285 -55.199396 
L 217.398089 -55.258681 
L 216.174893 -55.320458 
L 214.951697 -55.383397 
L 213.728501 -55.448101 
L 212.505305 -55.518656 
L 211.282109 -55.601456 
L 210.058913 -55.702406 
L 208.835718 -55.824588 
L 207.612522 -55.967407 
L 206.389326 -56.127139 
L 205.16613 -56.298266 
L 203.942934 -56.474593 
L 202.719738 -56.649272 
L 201.496542 -56.813925 
L 200.273346 -56.958193 
L 199.050151 -57.070858 
L 197.826955 -57.142259 
L 196.603759 -57.166551 
L 195.380563 -57.142382 
L 194.157367 -57.071749 
L 192.934171 -56.958249 
L 191.710975 -56.806945 
L 190.487779 -56.627362 
L 189.264583 -56.437631 
L 188.041388 -56.263906 
L 186.818192 -56.13071 
L 185.594996 -56.046441 
L 184.3718 -55.995952 
L 183.148604 -55.948632 
L 181.925408 -55.877601 
L 180.702212 -55.7762 
L 179.479016 -55.661077 
L 178.255821 -55.561924 
L 177.032625 -55.505911 
L 175.809429 -55.50538 
L 174.586233 -55.553629 
L 173.363037 -55.629417 
L 172.139841 -55.707302 
L 170.916645 -55.768505 
L 169.693449 -55.806711 
L 168.470253 -55.826283 
L 167.247058 -55.835463 
L 166.023862 -55.840399 
L 164.800666 -55.843998 
L 163.57747 -55.847979 
L 162.354274 -55.853303 
L 161.131078 -55.857425 
L 159.907882 -55.852317 
L 158.684686 -55.82757 
L 157.46149 -55.777188 
L 156.238295 -55.704166 
L 155.015099 -55.619186 
L 153.791903 -55.535666 
L 152.568707 -55.465633 
L 151.345511 -55.417909 
L 150.122315 -55.396874 
L 148.899119 -55.400732 
L 147.675923 -55.420728 
L 146.452728 -55.443127 
L 145.229532 -55.453489 
L 144.006336 -55.441102 
L 142.78314 -55.401886 
L 141.559944 -55.339327 
L 140.336748 -55.26333 
L 139.113552 -55.186819 
L 137.890356 -55.120856 
L 136.66716 -55.070789 
L 135.443965 -55.035938 
L 134.220769 -55.012508 
L 132.997573 -54.996345 
L 131.774377 -54.982974 
L 130.551181 -54.966349 
L 129.327985 -54.939739 
L 128.104789 -54.89912 
L 126.881593 -54.845646 
L 125.658397 -54.784318 
L 124.435202 -54.720331 
L 123.212006 -54.65691 
L 121.98881 -54.596243 
L 120.765614 -54.541324 
L 119.542418 -54.495826 
L 118.319222 -54.461819 
L 117.096026 -54.43795 
L 115.87283 -54.420213 
L 114.649635 -54.40454 
L 113.426439 -54.38855 
L 112.203243 -54.37127 
L 110.980047 -54.352147 
L 109.756851 -54.330978 
L 108.533655 -54.308551 
L 107.310459 -54.286631 
L 106.087263 -54.26683 
L 104.864067 -54.249384 
L 103.640872 -54.233057 
L 102.417676 -54.216341 
L 101.19448 -54.198922 
L 99.971284 -54.182147 
L 98.748088 -54.16805 
L 97.524892 -54.157803 
L 96.301696 -54.151013 
L 95.0785 -54.146434 
L 93.855304 -54.143183 
L 92.632109 -54.141108 
L 91.408913 -54.140033 
L 90.185717 -54.138909 
L 88.962521 -54.136028 
z
" style="stroke: #22587a; stroke-width: 3"/>
    </defs>
    <g clip-path="url(#pe0eda4a4e8)">
     <use xlink:href="#m8a6dbbf940" x="0" y="338.489531" style="fill: #22587a; fill-opacity: 0.2; stroke: #22587a; stroke-width: 3"/>
    </g>
   </g>
   <g id="PolyCollection_3">
    <defs>
     <path id="ma587509ffe" d="M 35.799045 -54.132234 
L 35.799045 -54.089531 
L 37.318127 -54.089531 
L 38.837209 -54.089531 
L 40.356292 -54.089531 
L 41.875374 -54.089531 
L 43.394456 -54.089531 
L 44.913539 -54.089531 
L 46.432621 -54.089531 
L 47.951703 -54.089531 
L 49.470785 -54.089531 
L 50.989868 -54.089531 
L 52.50895 -54.089531 
L 54.028032 -54.089531 
L 55.547114 -54.089531 
L 57.066197 -54.089531 
L 58.585279 -54.089531 
L 60.104361 -54.089531 
L 61.623444 -54.089531 
L 63.142526 -54.089531 
L 64.661608 -54.089531 
L 66.18069 -54.089531 
L 67.699773 -54.089531 
L 69.218855 -54.089531 
L 70.737937 -54.089531 
L 72.257019 -54.089531 
L 73.776102 -54.089531 
L 75.295184 -54.089531 
L 76.814266 -54.089531 
L 78.333349 -54.089531 
L 79.852431 -54.089531 
L 81.371513 -54.089531 
L 82.890595 -54.089531 
L 84.409678 -54.089531 
L 85.92876 -54.089531 
L 87.447842 -54.089531 
L 88.966924 -54.089531 
L 90.486007 -54.089531 
L 92.005089 -54.089531 
L 93.524171 -54.089531 
L 95.043254 -54.089531 
L 96.562336 -54.089531 
L 98.081418 -54.089531 
L 99.6005 -54.089531 
L 101.119583 -54.089531 
L 102.638665 -54.089531 
L 104.157747 -54.089531 
L 105.676829 -54.089531 
L 107.195912 -54.089531 
L 108.714994 -54.089531 
L 110.234076 -54.089531 
L 111.753159 -54.089531 
L 113.272241 -54.089531 
L 114.791323 -54.089531 
L 116.310405 -54.089531 
L 117.829488 -54.089531 
L 119.34857 -54.089531 
L 120.867652 -54.089531 
L 122.386734 -54.089531 
L 123.905817 -54.089531 
L 125.424899 -54.089531 
L 126.943981 -54.089531 
L 128.463063 -54.089531 
L 129.982146 -54.089531 
L 131.501228 -54.089531 
L 133.02031 -54.089531 
L 134.539393 -54.089531 
L 136.058475 -54.089531 
L 137.577557 -54.089531 
L 139.096639 -54.089531 
L 140.615722 -54.089531 
L 142.134804 -54.089531 
L 143.653886 -54.089531 
L 145.172968 -54.089531 
L 146.692051 -54.089531 
L 148.211133 -54.089531 
L 149.730215 -54.089531 
L 151.249298 -54.089531 
L 152.76838 -54.089531 
L 154.287462 -54.089531 
L 155.806544 -54.089531 
L 157.325627 -54.089531 
L 158.844709 -54.089531 
L 160.363791 -54.089531 
L 161.882873 -54.089531 
L 163.401956 -54.089531 
L 164.921038 -54.089531 
L 166.44012 -54.089531 
L 167.959203 -54.089531 
L 169.478285 -54.089531 
L 170.997367 -54.089531 
L 172.516449 -54.089531 
L 174.035532 -54.089531 
L 175.554614 -54.089531 
L 177.073696 -54.089531 
L 178.592778 -54.089531 
L 180.111861 -54.089531 
L 181.630943 -54.089531 
L 183.150025 -54.089531 
L 184.669108 -54.089531 
L 186.18819 -54.089531 
L 187.707272 -54.089531 
L 189.226354 -54.089531 
L 190.745437 -54.089531 
L 192.264519 -54.089531 
L 193.783601 -54.089531 
L 195.302683 -54.089531 
L 196.821766 -54.089531 
L 198.340848 -54.089531 
L 199.85993 -54.089531 
L 201.379013 -54.089531 
L 202.898095 -54.089531 
L 204.417177 -54.089531 
L 205.936259 -54.089531 
L 207.455342 -54.089531 
L 208.974424 -54.089531 
L 210.493506 -54.089531 
L 212.012588 -54.089531 
L 213.531671 -54.089531 
L 215.050753 -54.089531 
L 216.569835 -54.089531 
L 218.088918 -54.089531 
L 219.608 -54.089531 
L 221.127082 -54.089531 
L 222.646164 -54.089531 
L 224.165247 -54.089531 
L 225.684329 -54.089531 
L 227.203411 -54.089531 
L 228.722493 -54.089531 
L 230.241576 -54.089531 
L 231.760658 -54.089531 
L 233.27974 -54.089531 
L 234.798823 -54.089531 
L 236.317905 -54.089531 
L 237.836987 -54.089531 
L 239.356069 -54.089531 
L 240.875152 -54.089531 
L 242.394234 -54.089531 
L 243.913316 -54.089531 
L 245.432398 -54.089531 
L 246.951481 -54.089531 
L 248.470563 -54.089531 
L 249.989645 -54.089531 
L 251.508728 -54.089531 
L 253.02781 -54.089531 
L 254.546892 -54.089531 
L 256.065974 -54.089531 
L 257.585057 -54.089531 
L 259.104139 -54.089531 
L 260.623221 -54.089531 
L 262.142303 -54.089531 
L 263.661386 -54.089531 
L 265.180468 -54.089531 
L 266.69955 -54.089531 
L 268.218633 -54.089531 
L 269.737715 -54.089531 
L 271.256797 -54.089531 
L 272.775879 -54.089531 
L 274.294962 -54.089531 
L 275.814044 -54.089531 
L 277.333126 -54.089531 
L 278.852208 -54.089531 
L 280.371291 -54.089531 
L 281.890373 -54.089531 
L 283.409455 -54.089531 
L 284.928538 -54.089531 
L 286.44762 -54.089531 
L 287.966702 -54.089531 
L 289.485784 -54.089531 
L 291.004867 -54.089531 
L 292.523949 -54.089531 
L 294.043031 -54.089531 
L 295.562113 -54.089531 
L 297.081196 -54.089531 
L 298.600278 -54.089531 
L 300.11936 -54.089531 
L 301.638443 -54.089531 
L 303.157525 -54.089531 
L 304.676607 -54.089531 
L 306.195689 -54.089531 
L 307.714772 -54.089531 
L 309.233854 -54.089531 
L 310.752936 -54.089531 
L 312.272018 -54.089531 
L 313.791101 -54.089531 
L 315.310183 -54.089531 
L 316.829265 -54.089531 
L 318.348348 -54.089531 
L 319.86743 -54.089531 
L 321.386512 -54.089531 
L 322.905594 -54.089531 
L 324.424677 -54.089531 
L 325.943759 -54.089531 
L 327.462841 -54.089531 
L 328.981923 -54.089531 
L 330.501006 -54.089531 
L 332.020088 -54.089531 
L 333.53917 -54.089531 
L 335.058253 -54.089531 
L 336.577335 -54.089531 
L 338.096417 -54.089531 
L 338.096417 -54.53311 
L 338.096417 -54.53311 
L 336.577335 -54.799114 
L 335.058253 -55.112759 
L 333.53917 -55.453537 
L 332.020088 -55.824842 
L 330.501006 -56.258281 
L 328.981923 -56.796207 
L 327.462841 -57.486267 
L 325.943759 -58.414734 
L 324.424677 -59.759107 
L 322.905594 -61.823048 
L 321.386512 -65.046508 
L 319.86743 -69.999336 
L 318.348348 -77.351571 
L 316.829265 -87.820997 
L 315.310183 -102.111523 
L 313.791101 -120.821019 
L 312.272018 -144.283815 
L 310.752936 -172.365191 
L 309.233854 -204.211418 
L 307.714772 -237.914445 
L 306.195689 -270.250261 
L 304.676607 -296.960402 
L 303.157525 -313.838458 
L 301.638443 -318.089531 
L 300.11936 -309.047672 
L 298.600278 -288.032732 
L 297.081196 -257.908354 
L 295.562113 -222.638099 
L 294.043031 -186.580506 
L 292.523949 -153.519688 
L 291.004867 -125.911196 
L 289.485784 -104.683728 
L 287.966702 -89.529403 
L 286.44762 -79.427866 
L 284.928538 -73.133983 
L 283.409455 -69.466777 
L 281.890373 -67.428678 
L 280.371291 -66.269484 
L 278.852208 -65.534713 
L 277.333126 -65.043724 
L 275.814044 -64.756215 
L 274.294962 -64.603257 
L 272.775879 -64.42569 
L 271.256797 -64.058463 
L 269.737715 -63.444022 
L 268.218633 -62.647139 
L 266.69955 -61.775558 
L 265.180468 -60.910443 
L 263.661386 -60.104822 
L 262.142303 -59.40487 
L 260.623221 -58.839228 
L 259.104139 -58.394812 
L 257.585057 -58.024246 
L 256.065974 -57.682235 
L 254.546892 -57.353683 
L 253.02781 -57.053596 
L 251.508728 -56.804593 
L 249.989645 -56.607665 
L 248.470563 -56.430252 
L 246.951481 -56.232801 
L 245.432398 -56.016808 
L 243.913316 -55.840204 
L 242.394234 -55.772892 
L 240.875152 -55.834318 
L 239.356069 -55.977243 
L 237.836987 -56.12983 
L 236.317905 -56.247627 
L 234.798823 -56.325396 
L 233.27974 -56.369797 
L 231.760658 -56.375746 
L 230.241576 -56.336614 
L 228.722493 -56.270851 
L 227.203411 -56.226258 
L 225.684329 -56.250386 
L 224.165247 -56.351024 
L 222.646164 -56.480562 
L 221.127082 -56.56349 
L 219.608 -56.552227 
L 218.088918 -56.463823 
L 216.569835 -56.362318 
L 215.050753 -56.306377 
L 213.531671 -56.312298 
L 212.012588 -56.354509 
L 210.493506 -56.387661 
L 208.974424 -56.371302 
L 207.455342 -56.290505 
L 205.936259 -56.165049 
L 204.417177 -56.039185 
L 202.898095 -55.956569 
L 201.379013 -55.932825 
L 199.85993 -55.940521 
L 198.340848 -55.925443 
L 196.821766 -55.851763 
L 195.302683 -55.733255 
L 193.783601 -55.613978 
L 192.264519 -55.521194 
L 190.745437 -55.444367 
L 189.226354 -55.356508 
L 187.707272 -55.245853 
L 186.18819 -55.126599 
L 184.669108 -55.027841 
L 183.150025 -54.976031 
L 181.630943 -54.983848 
L 180.111861 -55.049077 
L 178.592778 -55.156352 
L 177.073696 -55.274382 
L 175.554614 -55.357209 
L 174.035532 -55.365636 
L 172.516449 -55.299382 
L 170.997367 -55.201643 
L 169.478285 -55.120825 
L 167.959203 -55.071121 
L 166.44012 -55.038886 
L 164.921038 -55.019596 
L 163.401956 -55.03012 
L 161.882873 -55.080357 
L 160.363791 -55.146583 
L 158.844709 -55.185254 
L 157.325627 -55.172808 
L 155.806544 -55.12686 
L 154.287462 -55.086933 
L 152.76838 -55.075825 
L 151.249298 -55.080068 
L 149.730215 -55.06526 
L 148.211133 -55.007196 
L 146.692051 -54.90887 
L 145.172968 -54.792793 
L 143.653886 -54.683094 
L 142.134804 -54.595806 
L 140.615722 -54.538581 
L 139.096639 -54.510165 
L 137.577557 -54.498941 
L 136.058475 -54.488177 
L 134.539393 -54.466738 
L 133.02031 -54.434416 
L 131.501228 -54.397164 
L 129.982146 -54.359376 
L 128.463063 -54.322099 
L 126.943981 -54.287036 
L 125.424899 -54.258544 
L 123.905817 -54.240256 
L 122.386734 -54.232176 
L 120.867652 -54.232664 
L 119.34857 -54.240575 
L 117.829488 -54.252547 
L 116.310405 -54.260017 
L 114.791323 -54.25376 
L 113.272241 -54.233622 
L 111.753159 -54.211853 
L 110.234076 -54.204057 
L 108.714994 -54.215667 
L 107.195912 -54.236422 
L 105.676829 -54.247465 
L 104.157747 -54.23578 
L 102.638665 -54.204597 
L 101.119583 -54.170122 
L 99.6005 -54.147324 
L 98.081418 -54.1388 
L 96.562336 -54.136315 
L 95.043254 -54.130834 
L 93.524171 -54.120079 
L 92.005089 -54.107784 
L 90.486007 -54.09825 
L 88.966924 -54.09285 
L 87.447842 -54.090537 
L 85.92876 -54.089774 
L 84.409678 -54.089578 
L 82.890595 -54.089538 
L 81.371513 -54.089532 
L 79.852431 -54.089531 
L 78.333349 -54.089531 
L 76.814266 -54.089531 
L 75.295184 -54.089531 
L 73.776102 -54.089531 
L 72.257019 -54.089531 
L 70.737937 -54.089531 
L 69.218855 -54.089531 
L 67.699773 -54.089531 
L 66.18069 -54.089531 
L 64.661608 -54.089531 
L 63.142526 -54.089531 
L 61.623444 -54.089531 
L 60.104361 -54.089531 
L 58.585279 -54.089531 
L 57.066197 -54.089531 
L 55.547114 -54.089531 
L 54.028032 -54.089531 
L 52.50895 -54.089531 
L 50.989868 -54.089532 
L 49.470785 -54.089535 
L 47.951703 -54.08956 
L 46.432621 -54.089691 
L 44.913539 -54.090236 
L 43.394456 -54.092001 
L 41.875374 -54.096422 
L 40.356292 -54.104837 
L 38.837209 -54.116597 
L 37.318127 -54.127633 
L 35.799045 -54.132234 
z
" style="stroke: #de4968; stroke-width: 3"/>
    </defs>
    <g clip-path="url(#pe0eda4a4e8)">
     <use xlink:href="#ma587509ffe" x="0" y="338.489531" style="fill: #de4968; fill-opacity: 0.2; stroke: #de4968; stroke-width: 3"/>
    </g>
   </g>
   <g id="PolyCollection_4">
    <defs>
     <path id="m35a5d7380e" d="M -58.227034 -54.593976 
L -58.227034 -54.089531 
L -56.404359 -54.089531 
L -54.581684 -54.089531 
L -52.759009 -54.089531 
L -50.936334 -54.089531 
L -49.113659 -54.089531 
L -47.290985 -54.089531 
L -45.46831 -54.089531 
L -43.645635 -54.089531 
L -41.82296 -54.089531 
L -40.000285 -54.089531 
L -38.17761 -54.089531 
L -36.354935 -54.089531 
L -34.53226 -54.089531 
L -32.709585 -54.089531 
L -30.88691 -54.089531 
L -29.064235 -54.089531 
L -27.24156 -54.089531 
L -25.418885 -54.089531 
L -23.59621 -54.089531 
L -21.773535 -54.089531 
L -19.95086 -54.089531 
L -18.128186 -54.089531 
L -16.305511 -54.089531 
L -14.482836 -54.089531 
L -12.660161 -54.089531 
L -10.837486 -54.089531 
L -9.014811 -54.089531 
L -7.192136 -54.089531 
L -5.369461 -54.089531 
L -3.546786 -54.089531 
L -1.724111 -54.089531 
L 0.098564 -54.089531 
L 1.921239 -54.089531 
L 3.743914 -54.089531 
L 5.566589 -54.089531 
L 7.389264 -54.089531 
L 9.211939 -54.089531 
L 11.034613 -54.089531 
L 12.857288 -54.089531 
L 14.679963 -54.089531 
L 16.502638 -54.089531 
L 18.325313 -54.089531 
L 20.147988 -54.089531 
L 21.970663 -54.089531 
L 23.793338 -54.089531 
L 25.616013 -54.089531 
L 27.438688 -54.089531 
L 29.261363 -54.089531 
L 31.084038 -54.089531 
L 32.906713 -54.089531 
L 34.729388 -54.089531 
L 36.552063 -54.089531 
L 38.374738 -54.089531 
L 40.197412 -54.089531 
L 42.020087 -54.089531 
L 43.842762 -54.089531 
L 45.665437 -54.089531 
L 47.488112 -54.089531 
L 49.310787 -54.089531 
L 51.133462 -54.089531 
L 52.956137 -54.089531 
L 54.778812 -54.089531 
L 56.601487 -54.089531 
L 58.424162 -54.089531 
L 60.246837 -54.089531 
L 62.069512 -54.089531 
L 63.892187 -54.089531 
L 65.714862 -54.089531 
L 67.537537 -54.089531 
L 69.360211 -54.089531 
L 71.182886 -54.089531 
L 73.005561 -54.089531 
L 74.828236 -54.089531 
L 76.650911 -54.089531 
L 78.473586 -54.089531 
L 80.296261 -54.089531 
L 82.118936 -54.089531 
L 83.941611 -54.089531 
L 85.764286 -54.089531 
L 87.586961 -54.089531 
L 89.409636 -54.089531 
L 91.232311 -54.089531 
L 93.054986 -54.089531 
L 94.877661 -54.089531 
L 96.700336 -54.089531 
L 98.52301 -54.089531 
L 100.345685 -54.089531 
L 102.16836 -54.089531 
L 103.991035 -54.089531 
L 105.81371 -54.089531 
L 107.636385 -54.089531 
L 109.45906 -54.089531 
L 111.281735 -54.089531 
L 113.10441 -54.089531 
L 114.927085 -54.089531 
L 116.74976 -54.089531 
L 118.572435 -54.089531 
L 120.39511 -54.089531 
L 122.217785 -54.089531 
L 124.04046 -54.089531 
L 125.863135 -54.089531 
L 127.68581 -54.089531 
L 129.508484 -54.089531 
L 131.331159 -54.089531 
L 133.153834 -54.089531 
L 134.976509 -54.089531 
L 136.799184 -54.089531 
L 138.621859 -54.089531 
L 140.444534 -54.089531 
L 142.267209 -54.089531 
L 144.089884 -54.089531 
L 145.912559 -54.089531 
L 147.735234 -54.089531 
L 149.557909 -54.089531 
L 151.380584 -54.089531 
L 153.203259 -54.089531 
L 155.025934 -54.089531 
L 156.848609 -54.089531 
L 158.671283 -54.089531 
L 160.493958 -54.089531 
L 162.316633 -54.089531 
L 164.139308 -54.089531 
L 165.961983 -54.089531 
L 167.784658 -54.089531 
L 169.607333 -54.089531 
L 171.430008 -54.089531 
L 173.252683 -54.089531 
L 175.075358 -54.089531 
L 176.898033 -54.089531 
L 178.720708 -54.089531 
L 180.543383 -54.089531 
L 182.366058 -54.089531 
L 184.188733 -54.089531 
L 186.011408 -54.089531 
L 187.834082 -54.089531 
L 189.656757 -54.089531 
L 191.479432 -54.089531 
L 193.302107 -54.089531 
L 195.124782 -54.089531 
L 196.947457 -54.089531 
L 198.770132 -54.089531 
L 200.592807 -54.089531 
L 202.415482 -54.089531 
L 204.238157 -54.089531 
L 206.060832 -54.089531 
L 207.883507 -54.089531 
L 209.706182 -54.089531 
L 211.528857 -54.089531 
L 213.351532 -54.089531 
L 215.174207 -54.089531 
L 216.996881 -54.089531 
L 218.819556 -54.089531 
L 220.642231 -54.089531 
L 222.464906 -54.089531 
L 224.287581 -54.089531 
L 226.110256 -54.089531 
L 227.932931 -54.089531 
L 229.755606 -54.089531 
L 231.578281 -54.089531 
L 233.400956 -54.089531 
L 235.223631 -54.089531 
L 237.046306 -54.089531 
L 238.868981 -54.089531 
L 240.691656 -54.089531 
L 242.514331 -54.089531 
L 244.337006 -54.089531 
L 246.15968 -54.089531 
L 247.982355 -54.089531 
L 249.80503 -54.089531 
L 251.627705 -54.089531 
L 253.45038 -54.089531 
L 255.273055 -54.089531 
L 257.09573 -54.089531 
L 258.918405 -54.089531 
L 260.74108 -54.089531 
L 262.563755 -54.089531 
L 264.38643 -54.089531 
L 266.209105 -54.089531 
L 268.03178 -54.089531 
L 269.854455 -54.089531 
L 271.67713 -54.089531 
L 273.499805 -54.089531 
L 275.322479 -54.089531 
L 277.145154 -54.089531 
L 278.967829 -54.089531 
L 280.790504 -54.089531 
L 282.613179 -54.089531 
L 284.435854 -54.089531 
L 286.258529 -54.089531 
L 288.081204 -54.089531 
L 289.903879 -54.089531 
L 291.726554 -54.089531 
L 293.549229 -54.089531 
L 295.371904 -54.089531 
L 297.194579 -54.089531 
L 299.017254 -54.089531 
L 300.839929 -54.089531 
L 302.662604 -54.089531 
L 304.485279 -54.089531 
L 304.485279 -54.25948 
L 304.485279 -54.25948 
L 302.662604 -54.290007 
L 300.839929 -54.293081 
L 299.017254 -54.282629 
L 297.194579 -54.28301 
L 295.371904 -54.308821 
L 293.549229 -54.352567 
L 291.726554 -54.387997 
L 289.903879 -54.387659 
L 288.081204 -54.345753 
L 286.258529 -54.284454 
L 284.435854 -54.231667 
L 282.613179 -54.195594 
L 280.790504 -54.167064 
L 278.967829 -54.139373 
L 277.145154 -54.115565 
L 275.322479 -54.100195 
L 273.499805 -54.093044 
L 271.67713 -54.0912 
L 269.854455 -54.093307 
L 268.03178 -54.101451 
L 266.209105 -54.120087 
L 264.38643 -54.151645 
L 262.563755 -54.191251 
L 260.74108 -54.227041 
L 258.918405 -54.247999 
L 257.09573 -54.251336 
L 255.273055 -54.242762 
L 253.45038 -54.232968 
L 251.627705 -54.233287 
L 249.80503 -54.248089 
L 247.982355 -54.268987 
L 246.15968 -54.281174 
L 244.337006 -54.276789 
L 242.514331 -54.259244 
L 240.691656 -54.235389 
L 238.868981 -54.207634 
L 237.046306 -54.175699 
L 235.223631 -54.143018 
L 233.400956 -54.116536 
L 231.578281 -54.100443 
L 229.755606 -54.093715 
L 227.932931 -54.093812 
L 226.110256 -54.100579 
L 224.287581 -54.115636 
L 222.464906 -54.137264 
L 220.642231 -54.156323 
L 218.819556 -54.161006 
L 216.996881 -54.148022 
L 215.174207 -54.126135 
L 213.351532 -54.107049 
L 211.528857 -54.095942 
L 209.706182 -54.091325 
L 207.883507 -54.089915 
L 206.060832 -54.089594 
L 204.238157 -54.089539 
L 202.415482 -54.089532 
L 200.592807 -54.089531 
L 198.770132 -54.089531 
L 196.947457 -54.089531 
L 195.124782 -54.089531 
L 193.302107 -54.089531 
L 191.479432 -54.089532 
L 189.656757 -54.089536 
L 187.834082 -54.089577 
L 186.011408 -54.089865 
L 184.188733 -54.091478 
L 182.366058 -54.098925 
L 180.543383 -54.127799 
L 178.720708 -54.223049 
L 176.898033 -54.491152 
L 175.075358 -55.134742 
L 173.252683 -56.461973 
L 171.430008 -58.864682 
L 169.607333 -62.806536 
L 167.784658 -68.823287 
L 165.961983 -77.415537 
L 164.139308 -88.756937 
L 162.316633 -102.432713 
L 160.493958 -117.537139 
L 158.671283 -133.041209 
L 156.848609 -147.976446 
L 155.025934 -161.368291 
L 153.203259 -172.290477 
L 151.380584 -180.082809 
L 149.557909 -184.470214 
L 147.735234 -185.567715 
L 145.912559 -183.858287 
L 144.089884 -180.127981 
L 142.267209 -175.302519 
L 140.444534 -170.088512 
L 138.621859 -164.637414 
L 136.799184 -158.725395 
L 134.976509 -152.26973 
L 133.153834 -145.444472 
L 131.331159 -138.418753 
L 129.508484 -131.352878 
L 127.68581 -124.576127 
L 125.863135 -118.418354 
L 124.04046 -112.891104 
L 122.217785 -107.74914 
L 120.39511 -102.801052 
L 118.572435 -98.050171 
L 116.74976 -93.644169 
L 114.927085 -89.765384 
L 113.10441 -86.496831 
L 111.281735 -83.739672 
L 109.45906 -81.24149 
L 107.636385 -78.699913 
L 105.81371 -75.908637 
L 103.991035 -72.897039 
L 102.16836 -69.949178 
L 100.345685 -67.450179 
L 98.52301 -65.664233 
L 96.700336 -64.590962 
L 94.877661 -63.984859 
L 93.054986 -63.53667 
L 91.232311 -63.063136 
L 89.409636 -62.513499 
L 87.586961 -61.857248 
L 85.764286 -61.0745 
L 83.941611 -60.228254 
L 82.118936 -59.434617 
L 80.296261 -58.760316 
L 78.473586 -58.20443 
L 76.650911 -57.75257 
L 74.828236 -57.392857 
L 73.005561 -57.092371 
L 71.182886 -56.808021 
L 69.360211 -56.525137 
L 67.537537 -56.254856 
L 65.714862 -56.003972 
L 63.892187 -55.778145 
L 62.069512 -55.597553 
L 60.246837 -55.481563 
L 58.424162 -55.423512 
L 56.601487 -55.389266 
L 54.778812 -55.340315 
L 52.956137 -55.261553 
L 51.133462 -55.169801 
L 49.310787 -55.097923 
L 47.488112 -55.069842 
L 45.665437 -55.075839 
L 43.842762 -55.065534 
L 42.020087 -54.993842 
L 40.197412 -54.882271 
L 38.374738 -54.789669 
L 36.552063 -54.719834 
L 34.729388 -54.619444 
L 32.906713 -54.471386 
L 31.084038 -54.332783 
L 29.261363 -54.273981 
L 27.438688 -54.312091 
L 25.616013 -54.397844 
L 23.793338 -54.450083 
L 21.970663 -54.417681 
L 20.147988 -54.31859 
L 18.325313 -54.211862 
L 16.502638 -54.139496 
L 14.679963 -54.105138 
L 12.857288 -54.093259 
L 11.034613 -54.090212 
L 9.211939 -54.089626 
L 7.389264 -54.089541 
L 5.566589 -54.089532 
L 3.743914 -54.089531 
L 1.921239 -54.089531 
L 0.098564 -54.089531 
L -1.724111 -54.089531 
L -3.546786 -54.089531 
L -5.369461 -54.089531 
L -7.192136 -54.089531 
L -9.014811 -54.089531 
L -10.837486 -54.089531 
L -12.660161 -54.089531 
L -14.482836 -54.089531 
L -16.305511 -54.089531 
L -18.128186 -54.089531 
L -19.95086 -54.089531 
L -21.773535 -54.089531 
L -23.59621 -54.089531 
L -25.418885 -54.089531 
L -27.24156 -54.089531 
L -29.064235 -54.089531 
L -30.88691 -54.089531 
L -32.709585 -54.089531 
L -34.53226 -54.089531 
L -36.354935 -54.089531 
L -38.17761 -54.089531 
L -40.000285 -54.089532 
L -41.82296 -54.089541 
L -43.645635 -54.089626 
L -45.46831 -54.090237 
L -47.290985 -54.093567 
L -49.113659 -54.107177 
L -50.936334 -54.148532 
L -52.759009 -54.240396 
L -54.581684 -54.384533 
L -56.404359 -54.530661 
L -58.227034 -54.593976 
z
" style="stroke: #38a3a6; stroke-width: 3"/>
    </defs>
    <g clip-path="url(#pe0eda4a4e8)">
     <use xlink:href="#m35a5d7380e" x="0" y="338.489531" style="fill: #38a3a6; fill-opacity: 0.2; stroke: #38a3a6; stroke-width: 3"/>
    </g>
   </g>
   <g id="patch_3">
    <path d="M 64.360781 284.4 
L 64.360781 7.2 
" style="fill: none; stroke: #262626; stroke-width: 3; stroke-linejoin: miter; stroke-linecap: square"/>
   </g>
   <g id="patch_4">
    <path d="M 64.360781 284.4 
L 343.360781 284.4 
" style="fill: none; stroke: #262626; stroke-width: 3; stroke-linejoin: miter; stroke-linecap: square"/>
   </g>
   <g id="legend_1">
    <g id="patch_5">
     <path d="M 324.398555 114.024609 
L 357.398555 114.024609 
L 357.398555 102.474609 
L 324.398555 102.474609 
z
" style="fill: #38a3a6; stroke: #ffffff; stroke-linejoin: miter"/>
    </g>
    <g id="text_12">
     <text style="fill: #262626; font: 16.5px 'sans-serif'; text-anchor: start" x="370.598555" y="114.024609" transform="rotate(-0, 370.598555, 114.024609)">AraC WT</text>
    </g>
    <g id="patch_6">
     <path d="M 324.398555 138.243516 
L 357.398555 138.243516 
L 357.398555 126.693516 
L 324.398555 126.693516 
z
" style="fill: #de4968; stroke: #ffffff; stroke-linejoin: miter"/>
    </g>
    <g id="text_13">
     <text style="fill: #262626; font: 16.5px 'sans-serif'; text-anchor: start" x="370.598555" y="138.243516" transform="rotate(-0, 370.598555, 138.243516)">AraC R2</text>
    </g>
    <g id="patch_7">
     <path d="M 324.398555 162.462422 
L 357.398555 162.462422 
L 357.398555 150.912422 
L 324.398555 150.912422 
z
" style="fill: #22587a; stroke: #ffffff; stroke-linejoin: miter"/>
    </g>
    <g id="text_14">
     <text style="fill: #262626; font: 16.5px 'sans-serif'; text-anchor: start" x="370.598555" y="162.462422" transform="rotate(-0, 370.598555, 162.462422)">AraC WT Arabinose</text>
    </g>
    <g id="patch_8">
     <path d="M 324.398555 186.681328 
L 357.398555 186.681328 
L 357.398555 175.131328 
L 324.398555 175.131328 
z
" style="fill: #8c2981; stroke: #ffffff; stroke-linejoin: miter"/>
    </g>
    <g id="text_15">
     <text style="fill: #262626; font: 16.5px 'sans-serif'; text-anchor: start" x="370.598555" y="186.681328" transform="rotate(-0, 370.598555, 186.681328)">AraC R2 Arabinose</text>
    </g>
   </g>
  </g>
 </g>
 <defs>
  <clipPath id="pe0eda4a4e8">
   <rect x="64.360781" y="7.2" width="279" height="277.2"/>
  </clipPath>
 </defs>
</svg>
