<?xml version="1.0" encoding="utf-8" standalone="no"?>
<!DOCTYPE svg PUBLIC "-//W3C//DTD SVG 1.1//EN"
  "http://www.w3.org/Graphics/SVG/1.1/DTD/svg11.dtd">
<svg xmlns:xlink="http://www.w3.org/1999/xlink" width="589.606992pt" height="338.489531pt" viewBox="0 0 589.606992 338.489531" xmlns="http://www.w3.org/2000/svg" version="1.1">
 <metadata>
  <rdf:RDF xmlns:dc="http://purl.org/dc/elements/1.1/" xmlns:cc="http://creativecommons.org/ns#" xmlns:rdf="http://www.w3.org/1999/02/22-rdf-syntax-ns#">
   <cc:Work>
    <dc:type rdf:resource="http://purl.org/dc/dcmitype/StillImage"/>
    <dc:date>2025-04-29T17:55:25.410603</dc:date>
    <dc:format>image/svg+xml</dc:format>
    <dc:creator>
     <cc:Agent>
      <dc:title>Matplotlib v3.5.0, https://matplotlib.org/</dc:title>
     </cc:Agent>
    </dc:creator>
   </cc:Work>
  </rdf:RDF>
 </metadata>
 <defs>
  <style type="text/css">*{stroke-linejoin: round; stroke-linecap: butt}</style>
 </defs>
 <g id="figure_1">
  <g id="patch_1">
   <path d="M 0 338.489531 
L 589.606992 338.489531 
L 589.606992 0 
L 0 0 
z
" style="fill: #ffffff"/>
  </g>
  <g id="axes_1">
   <g id="patch_2">
    <path d="M 64.360781 284.4 
L 343.360781 284.4 
L 343.360781 7.2 
L 64.360781 7.2 
z
" style="fill: #ffffff"/>
   </g>
   <g id="matplotlib.axis_1">
    <g id="xtick_1">
     <g id="line2d_1">
      <defs>
       <path id="mcc4e463f78" d="M 0 0 
L 0 6 
" style="stroke: #262626; stroke-width: 3"/>
      </defs>
      <g>
       <use xlink:href="#mcc4e463f78" x="64.360781" y="284.4" style="fill: #262626; stroke: #262626; stroke-width: 3"/>
      </g>
     </g>
     <g id="text_1">
      <!-- $\mathdefault{10^{0}}$ -->
      <g style="fill: #262626" transform="translate(49.840781 306.437422)">
       <text>
        <tspan style="font: 16.5px 'DejaVu Sans'" x="0 10.497803" y="-0.10312500000000213">10</tspan>
        <tspan style="font: 11.55px 'DejaVu Sans'" x="21.153652" y="-6.425000000000001">0</tspan>
       </text>
      </g>
     </g>
    </g>
    <g id="xtick_2">
     <g id="line2d_2">
      <g>
       <use xlink:href="#mcc4e463f78" x="150.875886" y="284.4" style="fill: #262626; stroke: #262626; stroke-width: 3"/>
      </g>
     </g>
     <g id="text_2">
      <!-- $\mathdefault{10^{2}}$ -->
      <g style="fill: #262626" transform="translate(136.355886 306.437422)">
       <text>
        <tspan style="font: 16.5px 'DejaVu Sans'" x="0 10.497803" y="-0.10312500000000213">10</tspan>
        <tspan style="font: 11.55px 'DejaVu Sans'" x="21.153652" y="-6.425000000000001">2</tspan>
       </text>
      </g>
     </g>
    </g>
    <g id="xtick_3">
     <g id="line2d_3">
      <g>
       <use xlink:href="#mcc4e463f78" x="237.39099" y="284.4" style="fill: #262626; stroke: #262626; stroke-width: 3"/>
      </g>
     </g>
     <g id="text_3">
      <!-- $\mathdefault{10^{4}}$ -->
      <g style="fill: #262626" transform="translate(222.87099 306.437422)">
       <text>
        <tspan style="font: 16.5px 'DejaVu Sans'" x="0 10.497803" y="-0.2562500000000014">10</tspan>
        <tspan style="font: 11.55px 'DejaVu Sans'" x="21.153652" y="-6.578125">4</tspan>
       </text>
      </g>
     </g>
    </g>
    <g id="xtick_4">
     <g id="line2d_4">
      <g>
       <use xlink:href="#mcc4e463f78" x="323.906094" y="284.4" style="fill: #262626; stroke: #262626; stroke-width: 3"/>
      </g>
     </g>
     <g id="text_4">
      <!-- $\mathdefault{10^{6}}$ -->
      <g style="fill: #262626" transform="translate(309.386094 306.437422)">
       <text>
        <tspan style="font: 16.5px 'DejaVu Sans'" x="0 10.497803" y="-0.10312500000000213">10</tspan>
        <tspan style="font: 11.55px 'DejaVu Sans'" x="21.153652" y="-6.425000000000001">6</tspan>
       </text>
      </g>
     </g>
    </g>
    <g id="text_5">
     <text style="fill: #262626; font: 18px 'sans-serif'; text-anchor: middle" x="203.860781" y="327.546094" transform="rotate(-0, 203.860781, 327.546094)">log[RFP]</text>
    </g>
   </g>
   <g id="matplotlib.axis_2">
    <g id="ytick_1">
     <g id="line2d_5">
      <defs>
       <path id="m2895b9d23e" d="M 0 0 
L -6 0 
" style="stroke: #262626; stroke-width: 3"/>
      </defs>
      <g>
       <use xlink:href="#m2895b9d23e" x="64.360781" y="284.4" style="fill: #262626; stroke: #262626; stroke-width: 3"/>
      </g>
     </g>
     <g id="text_6">
      <text style="fill: #262626; font: 16.5px 'sans-serif'; text-anchor: end" x="54.860781" y="290.668711" transform="rotate(-0, 54.860781, 290.668711)">0.0</text>
     </g>
    </g>
    <g id="ytick_2">
     <g id="line2d_6">
      <g>
       <use xlink:href="#m2895b9d23e" x="64.360781" y="239.602632" style="fill: #262626; stroke: #262626; stroke-width: 3"/>
      </g>
     </g>
     <g id="text_7">
      <text style="fill: #262626; font: 16.5px 'sans-serif'; text-anchor: end" x="54.860781" y="245.871343" transform="rotate(-0, 54.860781, 245.871343)">0.2</text>
     </g>
    </g>
    <g id="ytick_3">
     <g id="line2d_7">
      <g>
       <use xlink:href="#m2895b9d23e" x="64.360781" y="194.805263" style="fill: #262626; stroke: #262626; stroke-width: 3"/>
      </g>
     </g>
     <g id="text_8">
      <text style="fill: #262626; font: 16.5px 'sans-serif'; text-anchor: end" x="54.860781" y="201.073974" transform="rotate(-0, 54.860781, 201.073974)">0.4</text>
     </g>
    </g>
    <g id="ytick_4">
     <g id="line2d_8">
      <g>
       <use xlink:href="#m2895b9d23e" x="64.360781" y="150.007895" style="fill: #262626; stroke: #262626; stroke-width: 3"/>
      </g>
     </g>
     <g id="text_9">
      <text style="fill: #262626; font: 16.5px 'sans-serif'; text-anchor: end" x="54.860781" y="156.276606" transform="rotate(-0, 54.860781, 156.276606)">0.6</text>
     </g>
    </g>
    <g id="ytick_5">
     <g id="line2d_9">
      <g>
       <use xlink:href="#m2895b9d23e" x="64.360781" y="105.210527" style="fill: #262626; stroke: #262626; stroke-width: 3"/>
      </g>
     </g>
     <g id="text_10">
      <text style="fill: #262626; font: 16.5px 'sans-serif'; text-anchor: end" x="54.860781" y="111.479237" transform="rotate(-0, 54.860781, 111.479237)">0.8</text>
     </g>
    </g>
    <g id="ytick_6">
     <g id="line2d_10">
      <g>
       <use xlink:href="#m2895b9d23e" x="64.360781" y="60.413158" style="fill: #262626; stroke: #262626; stroke-width: 3"/>
      </g>
     </g>
     <g id="text_11">
      <text style="fill: #262626; font: 16.5px 'sans-serif'; text-anchor: end" x="54.860781" y="66.681869" transform="rotate(-0, 54.860781, 66.681869)">1.0</text>
     </g>
    </g>
    <g id="ytick_7">
     <g id="line2d_11">
      <g>
       <use xlink:href="#m2895b9d23e" x="64.360781" y="15.61579" style="fill: #262626; stroke: #262626; stroke-width: 3"/>
      </g>
     </g>
     <g id="text_12">
      <text style="fill: #262626; font: 16.5px 'sans-serif'; text-anchor: end" x="54.860781" y="21.884501" transform="rotate(-0, 54.860781, 21.884501)">1.2</text>
     </g>
    </g>
    <g id="text_13">
     <text style="fill: #262626; font: 18px 'sans-serif'; text-anchor: middle" x="20.877188" y="145.8" transform="rotate(-90, 20.877188, 145.8)">Density</text>
    </g>
   </g>
   <g id="PolyCollection_1">
    <defs>
     <path id="m4c37c3dc1e" d="M 34.12505 -54.145505 
L 34.12505 -54.089531 
L 35.678999 -54.089531 
L 37.232947 -54.089531 
L 38.786895 -54.089531 
L 40.340844 -54.089531 
L 41.894792 -54.089531 
L 43.448741 -54.089531 
L 45.002689 -54.089531 
L 46.556637 -54.089531 
L 48.110586 -54.089531 
L 49.664534 -54.089531 
L 51.218482 -54.089531 
L 52.772431 -54.089531 
L 54.326379 -54.089531 
L 55.880328 -54.089531 
L 57.434276 -54.089531 
L 58.988224 -54.089531 
L 60.542173 -54.089531 
L 62.096121 -54.089531 
L 63.65007 -54.089531 
L 65.204018 -54.089531 
L 66.757966 -54.089531 
L 68.311915 -54.089531 
L 69.865863 -54.089531 
L 71.419812 -54.089531 
L 72.97376 -54.089531 
L 74.527708 -54.089531 
L 76.081657 -54.089531 
L 77.635605 -54.089531 
L 79.189554 -54.089531 
L 80.743502 -54.089531 
L 82.29745 -54.089531 
L 83.851399 -54.089531 
L 85.405347 -54.089531 
L 86.959296 -54.089531 
L 88.513244 -54.089531 
L 90.067192 -54.089531 
L 91.621141 -54.089531 
L 93.175089 -54.089531 
L 94.729038 -54.089531 
L 96.282986 -54.089531 
L 97.836934 -54.089531 
L 99.390883 -54.089531 
L 100.944831 -54.089531 
L 102.49878 -54.089531 
L 104.052728 -54.089531 
L 105.606676 -54.089531 
L 107.160625 -54.089531 
L 108.714573 -54.089531 
L 110.268522 -54.089531 
L 111.82247 -54.089531 
L 113.376418 -54.089531 
L 114.930367 -54.089531 
L 116.484315 -54.089531 
L 118.038264 -54.089531 
L 119.592212 -54.089531 
L 121.14616 -54.089531 
L 122.700109 -54.089531 
L 124.254057 -54.089531 
L 125.808006 -54.089531 
L 127.361954 -54.089531 
L 128.915902 -54.089531 
L 130.469851 -54.089531 
L 132.023799 -54.089531 
L 133.577748 -54.089531 
L 135.131696 -54.089531 
L 136.685644 -54.089531 
L 138.239593 -54.089531 
L 139.793541 -54.089531 
L 141.34749 -54.089531 
L 142.901438 -54.089531 
L 144.455386 -54.089531 
L 146.009335 -54.089531 
L 147.563283 -54.089531 
L 149.117232 -54.089531 
L 150.67118 -54.089531 
L 152.225128 -54.089531 
L 153.779077 -54.089531 
L 155.333025 -54.089531 
L 156.886974 -54.089531 
L 158.440922 -54.089531 
L 159.99487 -54.089531 
L 161.548819 -54.089531 
L 163.102767 -54.089531 
L 164.656716 -54.089531 
L 166.210664 -54.089531 
L 167.764612 -54.089531 
L 169.318561 -54.089531 
L 170.872509 -54.089531 
L 172.426458 -54.089531 
L 173.980406 -54.089531 
L 175.534354 -54.089531 
L 177.088303 -54.089531 
L 178.642251 -54.089531 
L 180.1962 -54.089531 
L 181.750148 -54.089531 
L 183.304096 -54.089531 
L 184.858045 -54.089531 
L 186.411993 -54.089531 
L 187.965941 -54.089531 
L 189.51989 -54.089531 
L 191.073838 -54.089531 
L 192.627787 -54.089531 
L 194.181735 -54.089531 
L 195.735683 -54.089531 
L 197.289632 -54.089531 
L 198.84358 -54.089531 
L 200.397529 -54.089531 
L 201.951477 -54.089531 
L 203.505425 -54.089531 
L 205.059374 -54.089531 
L 206.613322 -54.089531 
L 208.167271 -54.089531 
L 209.721219 -54.089531 
L 211.275167 -54.089531 
L 212.829116 -54.089531 
L 214.383064 -54.089531 
L 215.937013 -54.089531 
L 217.490961 -54.089531 
L 219.044909 -54.089531 
L 220.598858 -54.089531 
L 222.152806 -54.089531 
L 223.706755 -54.089531 
L 225.260703 -54.089531 
L 226.814651 -54.089531 
L 228.3686 -54.089531 
L 229.922548 -54.089531 
L 231.476497 -54.089531 
L 233.030445 -54.089531 
L 234.584393 -54.089531 
L 236.138342 -54.089531 
L 237.69229 -54.089531 
L 239.246239 -54.089531 
L 240.800187 -54.089531 
L 242.354135 -54.089531 
L 243.908084 -54.089531 
L 245.462032 -54.089531 
L 247.015981 -54.089531 
L 248.569929 -54.089531 
L 250.123877 -54.089531 
L 251.677826 -54.089531 
L 253.231774 -54.089531 
L 254.785723 -54.089531 
L 256.339671 -54.089531 
L 257.893619 -54.089531 
L 259.447568 -54.089531 
L 261.001516 -54.089531 
L 262.555465 -54.089531 
L 264.109413 -54.089531 
L 265.663361 -54.089531 
L 267.21731 -54.089531 
L 268.771258 -54.089531 
L 270.325207 -54.089531 
L 271.879155 -54.089531 
L 273.433103 -54.089531 
L 274.987052 -54.089531 
L 276.541 -54.089531 
L 278.094949 -54.089531 
L 279.648897 -54.089531 
L 281.202845 -54.089531 
L 282.756794 -54.089531 
L 284.310742 -54.089531 
L 285.864691 -54.089531 
L 287.418639 -54.089531 
L 288.972587 -54.089531 
L 290.526536 -54.089531 
L 292.080484 -54.089531 
L 293.634433 -54.089531 
L 295.188381 -54.089531 
L 296.742329 -54.089531 
L 298.296278 -54.089531 
L 299.850226 -54.089531 
L 301.404175 -54.089531 
L 302.958123 -54.089531 
L 304.512071 -54.089531 
L 306.06602 -54.089531 
L 307.619968 -54.089531 
L 309.173917 -54.089531 
L 310.727865 -54.089531 
L 312.281813 -54.089531 
L 313.835762 -54.089531 
L 315.38971 -54.089531 
L 316.943658 -54.089531 
L 318.497607 -54.089531 
L 320.051555 -54.089531 
L 321.605504 -54.089531 
L 323.159452 -54.089531 
L 324.7134 -54.089531 
L 326.267349 -54.089531 
L 327.821297 -54.089531 
L 329.375246 -54.089531 
L 330.929194 -54.089531 
L 332.483142 -54.089531 
L 334.037091 -54.089531 
L 335.591039 -54.089531 
L 337.144988 -54.089531 
L 338.698936 -54.089531 
L 340.252884 -54.089531 
L 341.806833 -54.089531 
L 343.360781 -54.089531 
L 343.360781 -55.260846 
L 343.360781 -55.260846 
L 341.806833 -55.754683 
L 340.252884 -56.449451 
L 338.698936 -57.423012 
L 337.144988 -58.777346 
L 335.591039 -60.641175 
L 334.037091 -63.170082 
L 332.483142 -66.542727 
L 330.929194 -70.951828 
L 329.375246 -76.589056 
L 327.821297 -83.623872 
L 326.267349 -92.177597 
L 324.7134 -102.295415 
L 323.159452 -113.920256 
L 321.605504 -126.873234 
L 320.051555 -140.845199 
L 318.497607 -155.402869 
L 316.943658 -170.011018 
L 315.38971 -184.06965 
L 313.835762 -196.962486 
L 312.281813 -208.110912 
L 310.727865 -217.026387 
L 309.173917 -223.354239 
L 307.619968 -226.903059 
L 306.06602 -227.656068 
L 304.512071 -225.763624 
L 302.958123 -221.518882 
L 301.404175 -215.320932 
L 299.850226 -207.631223 
L 298.296278 -198.92942 
L 296.742329 -189.674138 
L 295.188381 -180.272442 
L 293.634433 -171.060083 
L 292.080484 -162.292517 
L 290.526536 -154.145236 
L 288.972587 -146.721043 
L 287.418639 -140.061616 
L 285.864691 -134.160952 
L 284.310742 -128.978803 
L 282.756794 -124.452845 
L 281.202845 -120.508856 
L 279.648897 -117.068637 
L 278.094949 -114.055652 
L 276.541 -111.398644 
L 274.987052 -109.033583 
L 273.433103 -106.904446 
L 271.879155 -104.9633 
L 270.325207 -103.170054 
L 268.771258 -101.492098 
L 267.21731 -99.903803 
L 265.663361 -98.385796 
L 264.109413 -96.923886 
L 262.555465 -95.507677 
L 261.001516 -94.129039 
L 259.447568 -92.780765 
L 257.893619 -91.455724 
L 256.339671 -90.146756 
L 254.785723 -88.847305 
L 253.231774 -87.552609 
L 251.677826 -86.261054 
L 250.123877 -84.975282 
L 248.569929 -83.702675 
L 247.015981 -82.455026 
L 245.462032 -81.24741 
L 243.908084 -80.096456 
L 242.354135 -79.018363 
L 240.800187 -78.027043 
L 239.246239 -77.132731 
L 237.69229 -76.341281 
L 236.138342 -75.654239 
L 234.584393 -75.069594 
L 233.030445 -74.582983 
L 231.476497 -74.189088 
L 229.922548 -73.882905 
L 228.3686 -73.660703 
L 226.814651 -73.520548 
L 225.260703 -73.462413 
L 223.706755 -73.487904 
L 222.152806 -73.599708 
L 220.598858 -73.800794 
L 219.044909 -74.093432 
L 217.490961 -74.47809 
L 215.937013 -74.952363 
L 214.383064 -75.510141 
L 212.829116 -76.141265 
L 211.275167 -76.831874 
L 209.721219 -77.565505 
L 208.167271 -78.324827 
L 206.613322 -79.093702 
L 205.059374 -79.859154 
L 203.505425 -80.612804 
L 201.951477 -81.351431 
L 200.397529 -82.076452 
L 198.84358 -82.792344 
L 197.289632 -83.504199 
L 195.735683 -84.214819 
L 194.181735 -84.921927 
L 192.627787 -85.616094 
L 191.073838 -86.280006 
L 189.51989 -86.889382 
L 187.965941 -87.415547 
L 186.411993 -87.829154 
L 184.858045 -88.104208 
L 183.304096 -88.221387 
L 181.750148 -88.169823 
L 180.1962 -87.946982 
L 178.642251 -87.556853 
L 177.088303 -87.007236 
L 175.534354 -86.30711 
L 173.980406 -85.465005 
L 172.426458 -84.488853 
L 170.872509 -83.387213 
L 169.318561 -82.171258 
L 167.764612 -80.856633 
L 166.210664 -79.46438 
L 164.656716 -78.020425 
L 163.102767 -76.553674 
L 161.548819 -75.093168 
L 159.99487 -73.665055 
L 158.440922 -72.29013 
L 156.886974 -70.982483 
L 155.333025 -69.749429 
L 153.779077 -68.592561 
L 152.225128 -67.509467 
L 150.67118 -66.495622 
L 149.117232 -65.546005 
L 147.563283 -64.656164 
L 146.009335 -63.822716 
L 144.455386 -63.04336 
L 142.901438 -62.316639 
L 141.34749 -61.641645 
L 139.793541 -61.017774 
L 138.239593 -60.444576 
L 136.685644 -59.921603 
L 135.131696 -59.4482 
L 133.577748 -59.023164 
L 132.023799 -58.644314 
L 130.469851 -58.308097 
L 128.915902 -58.00939 
L 127.361954 -57.741655 
L 125.808006 -57.497485 
L 124.254057 -57.269486 
L 122.700109 -57.051284 
L 121.14616 -56.838427 
L 119.592212 -56.62892 
L 118.038264 -56.423267 
L 116.484315 -56.223993 
L 114.930367 -56.034766 
L 113.376418 -55.859345 
L 111.82247 -55.700597 
L 110.268522 -55.559817 
L 108.714573 -55.436465 
L 107.160625 -55.328364 
L 105.606676 -55.232267 
L 104.052728 -55.144616 
L 102.49878 -55.062308 
L 100.944831 -54.98327 
L 99.390883 -54.906732 
L 97.836934 -54.833165 
L 96.282986 -54.76392 
L 94.729038 -54.700707 
L 93.175089 -54.645051 
L 91.621141 -54.597857 
L 90.067192 -54.559181 
L 88.513244 -54.528221 
L 86.959296 -54.503503 
L 85.405347 -54.483179 
L 83.851399 -54.465351 
L 82.29745 -54.448346 
L 80.743502 -54.430894 
L 79.189554 -54.412195 
L 77.635605 -54.391897 
L 76.081657 -54.370014 
L 74.527708 -54.346816 
L 72.97376 -54.322733 
L 71.419812 -54.298266 
L 69.865863 -54.273928 
L 68.311915 -54.250208 
L 66.757966 -54.227545 
L 65.204018 -54.206323 
L 63.65007 -54.186871 
L 62.096121 -54.169465 
L 60.542173 -54.154339 
L 58.988224 -54.141681 
L 57.434276 -54.131635 
L 55.880328 -54.124283 
L 54.326379 -54.119631 
L 52.772431 -54.117589 
L 51.218482 -54.117954 
L 49.664534 -54.120398 
L 48.110586 -54.124474 
L 46.556637 -54.129639 
L 45.002689 -54.135281 
L 43.448741 -54.140773 
L 41.894792 -54.145519 
L 40.340844 -54.149015 
L 38.786895 -54.150884 
L 37.232947 -54.150915 
L 35.678999 -54.149076 
L 34.12505 -54.145505 
z
" style="stroke: #8c2981; stroke-width: 3"/>
    </defs>
    <g clip-path="url(#pe991e52222)">
     <use xlink:href="#m4c37c3dc1e" x="0" y="338.489531" style="fill: #8c2981; fill-opacity: 0.2; stroke: #8c2981; stroke-width: 3"/>
    </g>
   </g>
   <g id="PolyCollection_2">
    <defs>
     <path id="mf7b8edc91a" d="M -65.411875 -54.543375 
L -65.411875 -54.089531 
L -63.740665 -54.089531 
L -62.069455 -54.089531 
L -60.398245 -54.089531 
L -58.727035 -54.089531 
L -57.055825 -54.089531 
L -55.384615 -54.089531 
L -53.713405 -54.089531 
L -52.042195 -54.089531 
L -50.370985 -54.089531 
L -48.699775 -54.089531 
L -47.028565 -54.089531 
L -45.357355 -54.089531 
L -43.686146 -54.089531 
L -42.014936 -54.089531 
L -40.343726 -54.089531 
L -38.672516 -54.089531 
L -37.001306 -54.089531 
L -35.330096 -54.089531 
L -33.658886 -54.089531 
L -31.987676 -54.089531 
L -30.316466 -54.089531 
L -28.645256 -54.089531 
L -26.974046 -54.089531 
L -25.302836 -54.089531 
L -23.631626 -54.089531 
L -21.960416 -54.089531 
L -20.289206 -54.089531 
L -18.617996 -54.089531 
L -16.946786 -54.089531 
L -15.275576 -54.089531 
L -13.604366 -54.089531 
L -11.933156 -54.089531 
L -10.261946 -54.089531 
L -8.590736 -54.089531 
L -6.919526 -54.089531 
L -5.248316 -54.089531 
L -3.577106 -54.089531 
L -1.905896 -54.089531 
L -0.234686 -54.089531 
L 1.436524 -54.089531 
L 3.107734 -54.089531 
L 4.778944 -54.089531 
L 6.450154 -54.089531 
L 8.121364 -54.089531 
L 9.792574 -54.089531 
L 11.463784 -54.089531 
L 13.134994 -54.089531 
L 14.806204 -54.089531 
L 16.477413 -54.089531 
L 18.148623 -54.089531 
L 19.819833 -54.089531 
L 21.491043 -54.089531 
L 23.162253 -54.089531 
L 24.833463 -54.089531 
L 26.504673 -54.089531 
L 28.175883 -54.089531 
L 29.847093 -54.089531 
L 31.518303 -54.089531 
L 33.189513 -54.089531 
L 34.860723 -54.089531 
L 36.531933 -54.089531 
L 38.203143 -54.089531 
L 39.874353 -54.089531 
L 41.545563 -54.089531 
L 43.216773 -54.089531 
L 44.887983 -54.089531 
L 46.559193 -54.089531 
L 48.230403 -54.089531 
L 49.901613 -54.089531 
L 51.572823 -54.089531 
L 53.244033 -54.089531 
L 54.915243 -54.089531 
L 56.586453 -54.089531 
L 58.257663 -54.089531 
L 59.928873 -54.089531 
L 61.600083 -54.089531 
L 63.271293 -54.089531 
L 64.942503 -54.089531 
L 66.613713 -54.089531 
L 68.284923 -54.089531 
L 69.956133 -54.089531 
L 71.627343 -54.089531 
L 73.298553 -54.089531 
L 74.969763 -54.089531 
L 76.640972 -54.089531 
L 78.312182 -54.089531 
L 79.983392 -54.089531 
L 81.654602 -54.089531 
L 83.325812 -54.089531 
L 84.997022 -54.089531 
L 86.668232 -54.089531 
L 88.339442 -54.089531 
L 90.010652 -54.089531 
L 91.681862 -54.089531 
L 93.353072 -54.089531 
L 95.024282 -54.089531 
L 96.695492 -54.089531 
L 98.366702 -54.089531 
L 100.037912 -54.089531 
L 101.709122 -54.089531 
L 103.380332 -54.089531 
L 105.051542 -54.089531 
L 106.722752 -54.089531 
L 108.393962 -54.089531 
L 110.065172 -54.089531 
L 111.736382 -54.089531 
L 113.407592 -54.089531 
L 115.078802 -54.089531 
L 116.750012 -54.089531 
L 118.421222 -54.089531 
L 120.092432 -54.089531 
L 121.763642 -54.089531 
L 123.434852 -54.089531 
L 125.106062 -54.089531 
L 126.777272 -54.089531 
L 128.448482 -54.089531 
L 130.119692 -54.089531 
L 131.790902 -54.089531 
L 133.462112 -54.089531 
L 135.133322 -54.089531 
L 136.804532 -54.089531 
L 138.475741 -54.089531 
L 140.146951 -54.089531 
L 141.818161 -54.089531 
L 143.489371 -54.089531 
L 145.160581 -54.089531 
L 146.831791 -54.089531 
L 148.503001 -54.089531 
L 150.174211 -54.089531 
L 151.845421 -54.089531 
L 153.516631 -54.089531 
L 155.187841 -54.089531 
L 156.859051 -54.089531 
L 158.530261 -54.089531 
L 160.201471 -54.089531 
L 161.872681 -54.089531 
L 163.543891 -54.089531 
L 165.215101 -54.089531 
L 166.886311 -54.089531 
L 168.557521 -54.089531 
L 170.228731 -54.089531 
L 171.899941 -54.089531 
L 173.571151 -54.089531 
L 175.242361 -54.089531 
L 176.913571 -54.089531 
L 178.584781 -54.089531 
L 180.255991 -54.089531 
L 181.927201 -54.089531 
L 183.598411 -54.089531 
L 185.269621 -54.089531 
L 186.940831 -54.089531 
L 188.612041 -54.089531 
L 190.283251 -54.089531 
L 191.954461 -54.089531 
L 193.625671 -54.089531 
L 195.296881 -54.089531 
L 196.968091 -54.089531 
L 198.6393 -54.089531 
L 200.31051 -54.089531 
L 201.98172 -54.089531 
L 203.65293 -54.089531 
L 205.32414 -54.089531 
L 206.99535 -54.089531 
L 208.66656 -54.089531 
L 210.33777 -54.089531 
L 212.00898 -54.089531 
L 213.68019 -54.089531 
L 215.3514 -54.089531 
L 217.02261 -54.089531 
L 218.69382 -54.089531 
L 220.36503 -54.089531 
L 222.03624 -54.089531 
L 223.70745 -54.089531 
L 225.37866 -54.089531 
L 227.04987 -54.089531 
L 228.72108 -54.089531 
L 230.39229 -54.089531 
L 232.0635 -54.089531 
L 233.73471 -54.089531 
L 235.40592 -54.089531 
L 237.07713 -54.089531 
L 238.74834 -54.089531 
L 240.41955 -54.089531 
L 242.09076 -54.089531 
L 243.76197 -54.089531 
L 245.43318 -54.089531 
L 247.10439 -54.089531 
L 248.7756 -54.089531 
L 250.44681 -54.089531 
L 252.11802 -54.089531 
L 253.78923 -54.089531 
L 255.46044 -54.089531 
L 257.13165 -54.089531 
L 258.802859 -54.089531 
L 260.474069 -54.089531 
L 262.145279 -54.089531 
L 263.816489 -54.089531 
L 265.487699 -54.089531 
L 267.158909 -54.089531 
L 267.158909 -54.202992 
L 267.158909 -54.202992 
L 265.487699 -54.188599 
L 263.816489 -54.155479 
L 262.145279 -54.123 
L 260.474069 -54.102482 
L 258.802859 -54.093368 
L 257.13165 -54.090521 
L 255.46044 -54.090452 
L 253.78923 -54.093051 
L 252.11802 -54.101609 
L 250.44681 -54.121287 
L 248.7756 -54.153197 
L 247.10439 -54.186844 
L 245.43318 -54.20293 
L 243.76197 -54.190275 
L 242.09076 -54.157767 
L 240.41955 -54.124766 
L 238.74834 -54.103402 
L 237.07713 -54.093694 
L 235.40592 -54.090484 
L 233.73471 -54.089697 
L 232.0635 -54.089553 
L 230.39229 -54.089534 
L 228.72108 -54.089542 
L 227.04987 -54.089616 
L 225.37866 -54.090067 
L 223.70745 -54.092106 
L 222.03624 -54.098955 
L 220.36503 -54.11583 
L 218.69382 -54.145485 
L 217.02261 -54.180291 
L 215.3514 -54.201768 
L 213.68019 -54.195355 
L 212.00898 -54.165661 
L 210.33777 -54.131684 
L 208.66656 -54.109344 
L 206.99535 -54.104508 
L 205.32414 -54.120102 
L 203.65293 -54.162839 
L 201.98172 -54.241622 
L 200.31051 -54.36247 
L 198.6393 -54.524046 
L 196.968091 -54.710792 
L 195.296881 -54.88997 
L 193.625671 -55.032743 
L 191.954461 -55.162808 
L 190.283251 -55.398486 
L 188.612041 -55.946595 
L 186.940831 -57.061854 
L 185.269621 -59.045361 
L 183.598411 -62.31221 
L 181.927201 -67.450557 
L 180.255991 -75.176675 
L 178.584781 -86.178418 
L 176.913571 -100.895865 
L 175.242361 -119.285112 
L 173.571151 -140.700493 
L 171.899941 -164.12812 
L 170.228731 -188.74649 
L 168.557521 -214.263552 
L 166.886311 -240.430618 
L 165.215101 -266.03413 
L 163.543891 -288.60275 
L 161.872681 -305.4827 
L 160.201471 -315.250348 
L 158.530261 -318.089531 
L 156.859051 -315.225341 
L 155.187841 -308.219259 
L 153.516631 -298.302882 
L 151.845421 -286.075402 
L 150.174211 -272.08267 
L 148.503001 -257.433671 
L 146.831791 -243.289499 
L 145.160581 -229.980803 
L 143.489371 -217.149444 
L 141.818161 -204.591836 
L 140.146951 -192.521727 
L 138.475741 -181.120458 
L 136.804532 -170.315843 
L 135.133322 -160.062074 
L 133.462112 -150.502414 
L 131.790902 -141.809599 
L 130.119692 -134.042138 
L 128.448482 -127.105658 
L 126.777272 -120.787777 
L 125.106062 -114.935375 
L 123.434852 -109.580486 
L 121.763642 -104.814613 
L 120.092432 -100.628117 
L 118.421222 -96.927126 
L 116.750012 -93.604561 
L 115.078802 -90.521394 
L 113.407592 -87.506458 
L 111.736382 -84.509977 
L 110.065172 -81.698612 
L 108.393962 -79.241784 
L 106.722752 -77.074483 
L 105.051542 -75.022519 
L 103.380332 -73.066412 
L 101.709122 -71.320424 
L 100.037912 -69.826184 
L 98.366702 -68.520398 
L 96.695492 -67.351684 
L 95.024282 -66.296785 
L 93.353072 -65.299964 
L 91.681862 -64.282171 
L 90.010652 -63.187901 
L 88.339442 -62.011112 
L 86.668232 -60.817607 
L 84.997022 -59.736083 
L 83.325812 -58.88883 
L 81.654602 -58.328306 
L 79.983392 -58.042287 
L 78.312182 -57.994543 
L 76.640972 -58.135743 
L 74.969763 -58.377379 
L 73.298553 -58.582822 
L 71.627343 -58.606546 
L 69.956133 -58.356446 
L 68.284923 -57.848989 
L 66.613713 -57.212399 
L 64.942503 -56.603446 
L 63.271293 -56.11384 
L 61.600083 -55.762288 
L 59.928873 -55.533892 
L 58.257663 -55.393734 
L 56.586453 -55.291385 
L 54.915243 -55.186594 
L 53.244033 -55.073156 
L 51.572823 -54.97313 
L 49.901613 -54.908759 
L 48.230403 -54.882764 
L 46.559193 -54.887635 
L 44.887983 -54.917672 
L 43.216773 -54.949388 
L 41.545563 -54.941628 
L 39.874353 -54.904585 
L 38.203143 -54.924727 
L 36.531933 -55.044284 
L 34.860723 -55.152792 
L 33.189513 -55.088187 
L 31.518303 -54.830808 
L 29.847093 -54.523896 
L 28.175883 -54.322626 
L 26.504673 -54.287915 
L 24.833463 -54.39356 
L 23.162253 -54.554242 
L 21.491043 -54.653146 
L 19.819833 -54.61327 
L 18.148623 -54.460796 
L 16.477413 -54.290191 
L 14.806204 -54.172214 
L 13.134994 -54.115506 
L 11.463784 -54.095752 
L 9.792574 -54.090667 
L 8.121364 -54.089689 
L 6.450154 -54.089548 
L 4.778944 -54.089533 
L 3.107734 -54.089531 
L 1.436524 -54.089531 
L -0.234686 -54.089531 
L -1.905896 -54.089531 
L -3.577106 -54.089531 
L -5.248316 -54.089531 
L -6.919526 -54.089531 
L -8.590736 -54.089531 
L -10.261946 -54.089531 
L -11.933156 -54.089531 
L -13.604366 -54.089531 
L -15.275576 -54.089531 
L -16.946786 -54.089531 
L -18.617996 -54.089531 
L -20.289206 -54.089531 
L -21.960416 -54.089531 
L -23.631626 -54.089531 
L -25.302836 -54.089531 
L -26.974046 -54.089531 
L -28.645256 -54.089531 
L -30.316466 -54.089531 
L -31.987676 -54.089531 
L -33.658886 -54.089531 
L -35.330096 -54.089531 
L -37.001306 -54.089531 
L -38.672516 -54.089531 
L -40.343726 -54.089531 
L -42.014936 -54.089531 
L -43.686146 -54.089531 
L -45.357355 -54.089531 
L -47.028565 -54.089531 
L -48.699775 -54.089532 
L -50.370985 -54.089539 
L -52.042195 -54.089608 
L -53.713405 -54.09012 
L -55.384615 -54.092967 
L -57.055825 -54.10481 
L -58.727035 -54.141329 
L -60.398245 -54.223405 
L -62.069455 -54.353321 
L -63.740665 -54.485804 
L -65.411875 -54.543375 
z
" style="stroke: #de4968; stroke-width: 3"/>
    </defs>
    <g clip-path="url(#pe991e52222)">
     <use xlink:href="#mf7b8edc91a" x="0" y="338.489531" style="fill: #de4968; fill-opacity: 0.2; stroke: #de4968; stroke-width: 3"/>
    </g>
   </g>
   <g id="PolyCollection_3">
    <defs>
     <path id="m7b62a70d98" d="M -65.411875 -54.174588 
L -65.411875 -54.089531 
L -63.368014 -54.089531 
L -61.324152 -54.089531 
L -59.280291 -54.089531 
L -57.236429 -54.089531 
L -55.192568 -54.089531 
L -53.148706 -54.089531 
L -51.104845 -54.089531 
L -49.060984 -54.089531 
L -47.017122 -54.089531 
L -44.973261 -54.089531 
L -42.929399 -54.089531 
L -40.885538 -54.089531 
L -38.841676 -54.089531 
L -36.797815 -54.089531 
L -34.753953 -54.089531 
L -32.710092 -54.089531 
L -30.666231 -54.089531 
L -28.622369 -54.089531 
L -26.578508 -54.089531 
L -24.534646 -54.089531 
L -22.490785 -54.089531 
L -20.446923 -54.089531 
L -18.403062 -54.089531 
L -16.3592 -54.089531 
L -14.315339 -54.089531 
L -12.271478 -54.089531 
L -10.227616 -54.089531 
L -8.183755 -54.089531 
L -6.139893 -54.089531 
L -4.096032 -54.089531 
L -2.05217 -54.089531 
L -0.008309 -54.089531 
L 2.035553 -54.089531 
L 4.079414 -54.089531 
L 6.123275 -54.089531 
L 8.167137 -54.089531 
L 10.210998 -54.089531 
L 12.25486 -54.089531 
L 14.298721 -54.089531 
L 16.342583 -54.089531 
L 18.386444 -54.089531 
L 20.430306 -54.089531 
L 22.474167 -54.089531 
L 24.518028 -54.089531 
L 26.56189 -54.089531 
L 28.605751 -54.089531 
L 30.649613 -54.089531 
L 32.693474 -54.089531 
L 34.737336 -54.089531 
L 36.781197 -54.089531 
L 38.825059 -54.089531 
L 40.86892 -54.089531 
L 42.912781 -54.089531 
L 44.956643 -54.089531 
L 47.000504 -54.089531 
L 49.044366 -54.089531 
L 51.088227 -54.089531 
L 53.132089 -54.089531 
L 55.17595 -54.089531 
L 57.219812 -54.089531 
L 59.263673 -54.089531 
L 61.307535 -54.089531 
L 63.351396 -54.089531 
L 65.395257 -54.089531 
L 67.439119 -54.089531 
L 69.48298 -54.089531 
L 71.526842 -54.089531 
L 73.570703 -54.089531 
L 75.614565 -54.089531 
L 77.658426 -54.089531 
L 79.702288 -54.089531 
L 81.746149 -54.089531 
L 83.79001 -54.089531 
L 85.833872 -54.089531 
L 87.877733 -54.089531 
L 89.921595 -54.089531 
L 91.965456 -54.089531 
L 94.009318 -54.089531 
L 96.053179 -54.089531 
L 98.097041 -54.089531 
L 100.140902 -54.089531 
L 102.184763 -54.089531 
L 104.228625 -54.089531 
L 106.272486 -54.089531 
L 108.316348 -54.089531 
L 110.360209 -54.089531 
L 112.404071 -54.089531 
L 114.447932 -54.089531 
L 116.491794 -54.089531 
L 118.535655 -54.089531 
L 120.579516 -54.089531 
L 122.623378 -54.089531 
L 124.667239 -54.089531 
L 126.711101 -54.089531 
L 128.754962 -54.089531 
L 130.798824 -54.089531 
L 132.842685 -54.089531 
L 134.886547 -54.089531 
L 136.930408 -54.089531 
L 138.974269 -54.089531 
L 141.018131 -54.089531 
L 143.061992 -54.089531 
L 145.105854 -54.089531 
L 147.149715 -54.089531 
L 149.193577 -54.089531 
L 151.237438 -54.089531 
L 153.2813 -54.089531 
L 155.325161 -54.089531 
L 157.369022 -54.089531 
L 159.412884 -54.089531 
L 161.456745 -54.089531 
L 163.500607 -54.089531 
L 165.544468 -54.089531 
L 167.58833 -54.089531 
L 169.632191 -54.089531 
L 171.676053 -54.089531 
L 173.719914 -54.089531 
L 175.763776 -54.089531 
L 177.807637 -54.089531 
L 179.851498 -54.089531 
L 181.89536 -54.089531 
L 183.939221 -54.089531 
L 185.983083 -54.089531 
L 188.026944 -54.089531 
L 190.070806 -54.089531 
L 192.114667 -54.089531 
L 194.158529 -54.089531 
L 196.20239 -54.089531 
L 198.246251 -54.089531 
L 200.290113 -54.089531 
L 202.333974 -54.089531 
L 204.377836 -54.089531 
L 206.421697 -54.089531 
L 208.465559 -54.089531 
L 210.50942 -54.089531 
L 212.553282 -54.089531 
L 214.597143 -54.089531 
L 216.641004 -54.089531 
L 218.684866 -54.089531 
L 220.728727 -54.089531 
L 222.772589 -54.089531 
L 224.81645 -54.089531 
L 226.860312 -54.089531 
L 228.904173 -54.089531 
L 230.948035 -54.089531 
L 232.991896 -54.089531 
L 235.035757 -54.089531 
L 237.079619 -54.089531 
L 239.12348 -54.089531 
L 241.167342 -54.089531 
L 243.211203 -54.089531 
L 245.255065 -54.089531 
L 247.298926 -54.089531 
L 249.342788 -54.089531 
L 251.386649 -54.089531 
L 253.43051 -54.089531 
L 255.474372 -54.089531 
L 257.518233 -54.089531 
L 259.562095 -54.089531 
L 261.605956 -54.089531 
L 263.649818 -54.089531 
L 265.693679 -54.089531 
L 267.737541 -54.089531 
L 269.781402 -54.089531 
L 271.825263 -54.089531 
L 273.869125 -54.089531 
L 275.912986 -54.089531 
L 277.956848 -54.089531 
L 280.000709 -54.089531 
L 282.044571 -54.089531 
L 284.088432 -54.089531 
L 286.132294 -54.089531 
L 288.176155 -54.089531 
L 290.220016 -54.089531 
L 292.263878 -54.089531 
L 294.307739 -54.089531 
L 296.351601 -54.089531 
L 298.395462 -54.089531 
L 300.439324 -54.089531 
L 302.483185 -54.089531 
L 304.527047 -54.089531 
L 306.570908 -54.089531 
L 308.61477 -54.089531 
L 310.658631 -54.089531 
L 312.702492 -54.089531 
L 314.746354 -54.089531 
L 316.790215 -54.089531 
L 318.834077 -54.089531 
L 320.877938 -54.089531 
L 322.9218 -54.089531 
L 324.965661 -54.089531 
L 327.009523 -54.089531 
L 329.053384 -54.089531 
L 331.097245 -54.089531 
L 333.141107 -54.089531 
L 335.184968 -54.089531 
L 337.22883 -54.089531 
L 339.272691 -54.089531 
L 341.316553 -54.089531 
L 341.316553 -54.174597 
L 341.316553 -54.174597 
L 339.272691 -54.159443 
L 337.22883 -54.128976 
L 335.184968 -54.108617 
L 333.141107 -54.11069 
L 331.097245 -54.134156 
L 329.053384 -54.163979 
L 327.009523 -54.174564 
L 324.965661 -54.157307 
L 322.9218 -54.135725 
L 320.877938 -54.138743 
L 318.834077 -54.171311 
L 316.790215 -54.216931 
L 314.746354 -54.262585 
L 312.702492 -54.31029 
L 310.658631 -54.364185 
L 308.61477 -54.424031 
L 306.570908 -54.482154 
L 304.527047 -54.515343 
L 302.483185 -54.502479 
L 300.439324 -54.453181 
L 298.395462 -54.402396 
L 296.351601 -54.386512 
L 294.307739 -54.431498 
L 292.263878 -54.536532 
L 290.220016 -54.663036 
L 288.176155 -54.78373 
L 286.132294 -54.918673 
L 284.088432 -55.064371 
L 282.044571 -55.172374 
L 280.000709 -55.25745 
L 277.956848 -55.405694 
L 275.912986 -55.609893 
L 273.869125 -55.726496 
L 271.825263 -55.693671 
L 269.781402 -55.639315 
L 267.737541 -55.681372 
L 265.693679 -55.783328 
L 263.649818 -55.823869 
L 261.605956 -55.729171 
L 259.562095 -55.589696 
L 257.518233 -55.584584 
L 255.474372 -55.741746 
L 253.43051 -55.91134 
L 251.386649 -55.97786 
L 249.342788 -55.981881 
L 247.298926 -56.015509 
L 245.255065 -56.078955 
L 243.211203 -56.13022 
L 241.167342 -56.211634 
L 239.12348 -56.404391 
L 237.079619 -56.690966 
L 235.035757 -56.95977 
L 232.991896 -57.179888 
L 230.948035 -57.484611 
L 228.904173 -58.01543 
L 226.860312 -58.767593 
L 224.81645 -59.600775 
L 222.772589 -60.361227 
L 220.728727 -61.047107 
L 218.684866 -61.85118 
L 216.641004 -63.008616 
L 214.597143 -64.555735 
L 212.553282 -66.253878 
L 210.50942 -67.918159 
L 208.465559 -69.757684 
L 206.421697 -72.167194 
L 204.377836 -75.350152 
L 202.333974 -79.333528 
L 200.290113 -84.004794 
L 198.246251 -89.19664 
L 196.20239 -95.273829 
L 194.158529 -103.327227 
L 192.114667 -114.537006 
L 190.070806 -129.639249 
L 188.026944 -148.633327 
L 185.983083 -170.833168 
L 183.939221 -195.408441 
L 181.89536 -221.476063 
L 179.851498 -247.710106 
L 177.807637 -272.294347 
L 175.763776 -293.169691 
L 173.719914 -308.428137 
L 171.676053 -316.696063 
L 169.632191 -317.127864 
L 167.58833 -309.706985 
L 165.544468 -296.043638 
L 163.500607 -278.548375 
L 161.456745 -258.350021 
L 159.412884 -235.863381 
L 157.369022 -212.731825 
L 155.325161 -190.875001 
L 153.2813 -170.8652 
L 151.237438 -152.561111 
L 149.193577 -136.194015 
L 147.149715 -122.481018 
L 145.105854 -112.070516 
L 143.061992 -104.8602 
L 141.018131 -99.926017 
L 138.974269 -96.027501 
L 136.930408 -92.174064 
L 134.886547 -87.985125 
L 132.842685 -83.636782 
L 130.798824 -79.601956 
L 128.754962 -76.333197 
L 126.711101 -73.806378 
L 124.667239 -71.526915 
L 122.623378 -69.249575 
L 120.579516 -67.212943 
L 118.535655 -65.55456 
L 116.491794 -64.124019 
L 114.447932 -62.890302 
L 112.404071 -61.954717 
L 110.360209 -61.177549 
L 108.316348 -60.289304 
L 106.272486 -59.311539 
L 104.228625 -58.507749 
L 102.184763 -58.047761 
L 100.140902 -57.878313 
L 98.097041 -57.767129 
L 96.053179 -57.4747 
L 94.009318 -56.997426 
L 91.965456 -56.558005 
L 89.921595 -56.296865 
L 87.877733 -56.106597 
L 85.833872 -55.821116 
L 83.79001 -55.442365 
L 81.746149 -55.107941 
L 79.702288 -54.905524 
L 77.658426 -54.793003 
L 75.614565 -54.679667 
L 73.570703 -54.539213 
L 71.526842 -54.435456 
L 69.48298 -54.431886 
L 67.439119 -54.501107 
L 65.395257 -54.572824 
L 63.351396 -54.628328 
L 61.307535 -54.673136 
L 59.263673 -54.668929 
L 57.219812 -54.583593 
L 55.17595 -54.459645 
L 53.132089 -54.367076 
L 51.088227 -54.33391 
L 49.044366 -54.343976 
L 47.000504 -54.36927 
L 44.956643 -54.395686 
L 42.912781 -54.409042 
L 40.86892 -54.382315 
L 38.825059 -54.326471 
L 36.781197 -54.292107 
L 34.737336 -54.281841 
L 32.693474 -54.249395 
L 30.649613 -54.187512 
L 28.605751 -54.135814 
L 26.56189 -54.121688 
L 24.518028 -54.140693 
L 22.474167 -54.167631 
L 20.430306 -54.17281 
L 18.386444 -54.149526 
L 16.342583 -54.118651 
L 14.298721 -54.099052 
L 12.25486 -54.091628 
L 10.210998 -54.089842 
L 8.167137 -54.089562 
L 6.123275 -54.089533 
L 4.079414 -54.089531 
L 2.035553 -54.089531 
L -0.008309 -54.089531 
L -2.05217 -54.089531 
L -4.096032 -54.089531 
L -6.139893 -54.089531 
L -8.183755 -54.089531 
L -10.227616 -54.089531 
L -12.271478 -54.089531 
L -14.315339 -54.089531 
L -16.3592 -54.089531 
L -18.403062 -54.089531 
L -20.446923 -54.089531 
L -22.490785 -54.089531 
L -24.534646 -54.089531 
L -26.578508 -54.089531 
L -28.622369 -54.089531 
L -30.666231 -54.089531 
L -32.710092 -54.089531 
L -34.753953 -54.089531 
L -36.797815 -54.089531 
L -38.841676 -54.089531 
L -40.885538 -54.089531 
L -42.929399 -54.089531 
L -44.973261 -54.089531 
L -47.017122 -54.089531 
L -49.060984 -54.089532 
L -51.104845 -54.089537 
L -53.148706 -54.089601 
L -55.192568 -54.09014 
L -57.236429 -54.093136 
L -59.280291 -54.103901 
L -61.324152 -54.128122 
L -63.368014 -54.159339 
L -65.411875 -54.174588 
z
" style="stroke: #22587a; stroke-width: 3"/>
    </defs>
    <g clip-path="url(#pe991e52222)">
     <use xlink:href="#m7b62a70d98" x="0" y="338.489531" style="fill: #22587a; fill-opacity: 0.2; stroke: #22587a; stroke-width: 3"/>
    </g>
   </g>
   <g id="PolyCollection_4">
    <defs>
     <path id="m5963a0a296" d="M -65.411875 -54.608978 
L -65.411875 -54.089531 
L -63.494452 -54.089531 
L -61.57703 -54.089531 
L -59.659607 -54.089531 
L -57.742184 -54.089531 
L -55.824762 -54.089531 
L -53.907339 -54.089531 
L -51.989917 -54.089531 
L -50.072494 -54.089531 
L -48.155071 -54.089531 
L -46.237649 -54.089531 
L -44.320226 -54.089531 
L -42.402803 -54.089531 
L -40.485381 -54.089531 
L -38.567958 -54.089531 
L -36.650535 -54.089531 
L -34.733113 -54.089531 
L -32.81569 -54.089531 
L -30.898267 -54.089531 
L -28.980845 -54.089531 
L -27.063422 -54.089531 
L -25.145999 -54.089531 
L -23.228577 -54.089531 
L -21.311154 -54.089531 
L -19.393731 -54.089531 
L -17.476309 -54.089531 
L -15.558886 -54.089531 
L -13.641463 -54.089531 
L -11.724041 -54.089531 
L -9.806618 -54.089531 
L -7.889195 -54.089531 
L -5.971773 -54.089531 
L -4.05435 -54.089531 
L -2.136927 -54.089531 
L -0.219505 -54.089531 
L 1.697918 -54.089531 
L 3.615341 -54.089531 
L 5.532763 -54.089531 
L 7.450186 -54.089531 
L 9.367609 -54.089531 
L 11.285031 -54.089531 
L 13.202454 -54.089531 
L 15.119877 -54.089531 
L 17.037299 -54.089531 
L 18.954722 -54.089531 
L 20.872145 -54.089531 
L 22.789567 -54.089531 
L 24.70699 -54.089531 
L 26.624413 -54.089531 
L 28.541835 -54.089531 
L 30.459258 -54.089531 
L 32.376681 -54.089531 
L 34.294103 -54.089531 
L 36.211526 -54.089531 
L 38.128949 -54.089531 
L 40.046371 -54.089531 
L 41.963794 -54.089531 
L 43.881217 -54.089531 
L 45.798639 -54.089531 
L 47.716062 -54.089531 
L 49.633485 -54.089531 
L 51.550907 -54.089531 
L 53.46833 -54.089531 
L 55.385753 -54.089531 
L 57.303175 -54.089531 
L 59.220598 -54.089531 
L 61.138021 -54.089531 
L 63.055443 -54.089531 
L 64.972866 -54.089531 
L 66.890289 -54.089531 
L 68.807711 -54.089531 
L 70.725134 -54.089531 
L 72.642557 -54.089531 
L 74.559979 -54.089531 
L 76.477402 -54.089531 
L 78.394825 -54.089531 
L 80.312247 -54.089531 
L 82.22967 -54.089531 
L 84.147093 -54.089531 
L 86.064515 -54.089531 
L 87.981938 -54.089531 
L 89.899361 -54.089531 
L 91.816783 -54.089531 
L 93.734206 -54.089531 
L 95.651629 -54.089531 
L 97.569051 -54.089531 
L 99.486474 -54.089531 
L 101.403897 -54.089531 
L 103.321319 -54.089531 
L 105.238742 -54.089531 
L 107.156165 -54.089531 
L 109.073587 -54.089531 
L 110.99101 -54.089531 
L 112.908433 -54.089531 
L 114.825855 -54.089531 
L 116.743278 -54.089531 
L 118.660701 -54.089531 
L 120.578123 -54.089531 
L 122.495546 -54.089531 
L 124.412969 -54.089531 
L 126.330391 -54.089531 
L 128.247814 -54.089531 
L 130.165237 -54.089531 
L 132.082659 -54.089531 
L 134.000082 -54.089531 
L 135.917505 -54.089531 
L 137.834927 -54.089531 
L 139.75235 -54.089531 
L 141.669773 -54.089531 
L 143.587195 -54.089531 
L 145.504618 -54.089531 
L 147.422041 -54.089531 
L 149.339463 -54.089531 
L 151.256886 -54.089531 
L 153.174309 -54.089531 
L 155.091731 -54.089531 
L 157.009154 -54.089531 
L 158.926577 -54.089531 
L 160.843999 -54.089531 
L 162.761422 -54.089531 
L 164.678845 -54.089531 
L 166.596267 -54.089531 
L 168.51369 -54.089531 
L 170.431113 -54.089531 
L 172.348535 -54.089531 
L 174.265958 -54.089531 
L 176.183381 -54.089531 
L 178.100803 -54.089531 
L 180.018226 -54.089531 
L 181.935649 -54.089531 
L 183.853071 -54.089531 
L 185.770494 -54.089531 
L 187.687917 -54.089531 
L 189.605339 -54.089531 
L 191.522762 -54.089531 
L 193.440185 -54.089531 
L 195.357607 -54.089531 
L 197.27503 -54.089531 
L 199.192453 -54.089531 
L 201.109875 -54.089531 
L 203.027298 -54.089531 
L 204.944721 -54.089531 
L 206.862143 -54.089531 
L 208.779566 -54.089531 
L 210.696989 -54.089531 
L 212.614411 -54.089531 
L 214.531834 -54.089531 
L 216.449257 -54.089531 
L 218.366679 -54.089531 
L 220.284102 -54.089531 
L 222.201525 -54.089531 
L 224.118947 -54.089531 
L 226.03637 -54.089531 
L 227.953793 -54.089531 
L 229.871215 -54.089531 
L 231.788638 -54.089531 
L 233.706061 -54.089531 
L 235.623483 -54.089531 
L 237.540906 -54.089531 
L 239.458329 -54.089531 
L 241.375751 -54.089531 
L 243.293174 -54.089531 
L 245.210597 -54.089531 
L 247.128019 -54.089531 
L 249.045442 -54.089531 
L 250.962865 -54.089531 
L 252.880287 -54.089531 
L 254.79771 -54.089531 
L 256.715133 -54.089531 
L 258.632555 -54.089531 
L 260.549978 -54.089531 
L 262.4674 -54.089531 
L 264.384823 -54.089531 
L 266.302246 -54.089531 
L 268.219668 -54.089531 
L 270.137091 -54.089531 
L 272.054514 -54.089531 
L 273.971936 -54.089531 
L 275.889359 -54.089531 
L 277.806782 -54.089531 
L 279.724204 -54.089531 
L 281.641627 -54.089531 
L 283.55905 -54.089531 
L 285.476472 -54.089531 
L 287.393895 -54.089531 
L 289.311318 -54.089531 
L 291.22874 -54.089531 
L 293.146163 -54.089531 
L 295.063586 -54.089531 
L 296.981008 -54.089531 
L 298.898431 -54.089531 
L 300.815854 -54.089531 
L 302.733276 -54.089531 
L 304.650699 -54.089531 
L 306.568122 -54.089531 
L 308.485544 -54.089531 
L 310.402967 -54.089531 
L 312.32039 -54.089531 
L 314.237812 -54.089531 
L 316.155235 -54.089531 
L 316.155235 -54.219393 
L 316.155235 -54.219393 
L 314.237812 -54.201018 
L 312.32039 -54.160074 
L 310.402967 -54.122429 
L 308.485544 -54.100839 
L 306.568122 -54.092396 
L 304.650699 -54.090066 
L 302.733276 -54.089605 
L 300.815854 -54.089539 
L 298.898431 -54.089532 
L 296.981008 -54.089531 
L 295.063586 -54.089531 
L 293.146163 -54.089531 
L 291.22874 -54.089531 
L 289.311318 -54.089531 
L 287.393895 -54.089531 
L 285.476472 -54.089531 
L 283.55905 -54.089531 
L 281.641627 -54.089531 
L 279.724204 -54.089531 
L 277.806782 -54.089531 
L 275.889359 -54.089531 
L 273.971936 -54.089531 
L 272.054514 -54.089531 
L 270.137091 -54.089531 
L 268.219668 -54.089531 
L 266.302246 -54.089531 
L 264.384823 -54.089531 
L 262.4674 -54.089531 
L 260.549978 -54.089531 
L 258.632555 -54.089531 
L 256.715133 -54.089531 
L 254.79771 -54.089531 
L 252.880287 -54.089531 
L 250.962865 -54.089531 
L 249.045442 -54.089531 
L 247.128019 -54.089531 
L 245.210597 -54.089531 
L 243.293174 -54.089531 
L 241.375751 -54.089531 
L 239.458329 -54.089531 
L 237.540906 -54.089531 
L 235.623483 -54.089531 
L 233.706061 -54.089531 
L 231.788638 -54.089531 
L 229.871215 -54.089531 
L 227.953793 -54.089531 
L 226.03637 -54.089531 
L 224.118947 -54.089531 
L 222.201525 -54.089531 
L 220.284102 -54.089531 
L 218.366679 -54.089531 
L 216.449257 -54.089531 
L 214.531834 -54.089531 
L 212.614411 -54.089531 
L 210.696989 -54.089531 
L 208.779566 -54.089534 
L 206.862143 -54.089562 
L 204.944721 -54.089782 
L 203.027298 -54.091048 
L 201.109875 -54.096312 
L 199.192453 -54.111945 
L 197.27503 -54.144704 
L 195.357607 -54.192709 
L 193.440185 -54.24451 
L 191.522762 -54.301156 
L 189.605339 -54.396311 
L 187.687917 -54.580054 
L 185.770494 -54.912335 
L 183.853071 -55.551363 
L 181.935649 -56.901003 
L 180.018226 -59.637828 
L 178.100803 -64.512104 
L 176.183381 -72.150832 
L 174.265958 -83.201585 
L 172.348535 -98.499812 
L 170.431113 -118.503105 
L 168.51369 -142.40693 
L 166.596267 -168.385664 
L 164.678845 -194.892065 
L 162.761422 -221.250975 
L 160.843999 -246.851666 
L 158.926577 -270.041934 
L 157.009154 -288.037999 
L 155.091731 -298.351205 
L 153.174309 -300.695851 
L 151.256886 -297.125925 
L 149.339463 -289.917113 
L 147.422041 -279.950237 
L 145.504618 -267.576197 
L 143.587195 -253.930882 
L 141.669773 -240.353573 
L 139.75235 -227.265076 
L 137.834927 -214.552579 
L 135.917505 -202.342931 
L 134.000082 -190.65771 
L 132.082659 -179.103387 
L 130.165237 -167.524744 
L 128.247814 -156.428962 
L 126.330391 -146.527794 
L 124.412969 -138.121338 
L 122.495546 -130.853184 
L 120.578123 -124.021465 
L 118.660701 -117.243067 
L 116.743278 -110.720983 
L 114.825855 -104.876546 
L 112.908433 -99.818471 
L 110.99101 -95.156815 
L 109.073587 -90.49697 
L 107.156165 -86.090358 
L 105.238742 -82.597263 
L 103.321319 -80.250522 
L 101.403897 -78.633223 
L 99.486474 -77.134058 
L 97.569051 -75.325384 
L 95.651629 -73.131021 
L 93.734206 -70.876031 
L 91.816783 -68.982988 
L 89.899361 -67.54921 
L 87.981938 -66.396821 
L 86.064515 -65.400978 
L 84.147093 -64.540635 
L 82.22967 -63.765895 
L 80.312247 -62.973879 
L 78.394825 -62.081189 
L 76.477402 -61.122288 
L 74.559979 -60.259223 
L 72.642557 -59.616593 
L 70.725134 -59.122339 
L 68.807711 -58.587492 
L 66.890289 -57.942729 
L 64.972866 -57.312724 
L 63.055443 -56.844066 
L 61.138021 -56.548419 
L 59.220598 -56.333533 
L 57.303175 -56.12861 
L 55.385753 -55.948832 
L 53.46833 -55.833517 
L 51.550907 -55.75558 
L 49.633485 -55.64808 
L 47.716062 -55.498911 
L 45.798639 -55.360913 
L 43.881217 -55.272187 
L 41.963794 -55.215799 
L 40.046371 -55.199229 
L 38.128949 -55.300113 
L 36.211526 -55.505527 
L 34.294103 -55.595344 
L 32.376681 -55.371029 
L 30.459258 -54.92513 
L 28.541835 -54.534206 
L 26.624413 -54.374556 
L 24.70699 -54.428574 
L 22.789567 -54.558065 
L 20.872145 -54.608804 
L 18.954722 -54.518528 
L 17.037299 -54.351122 
L 15.119877 -54.207118 
L 13.202454 -54.128488 
L 11.285031 -54.099044 
L 9.367609 -54.091243 
L 7.450186 -54.089758 
L 5.532763 -54.089553 
L 3.615341 -54.089533 
L 1.697918 -54.089531 
L -0.219505 -54.089531 
L -2.136927 -54.089531 
L -4.05435 -54.089531 
L -5.971773 -54.089531 
L -7.889195 -54.089531 
L -9.806618 -54.089531 
L -11.724041 -54.089531 
L -13.641463 -54.089531 
L -15.558886 -54.089531 
L -17.476309 -54.089531 
L -19.393731 -54.089531 
L -21.311154 -54.089531 
L -23.228577 -54.089531 
L -25.145999 -54.089531 
L -27.063422 -54.089531 
L -28.980845 -54.089531 
L -30.898267 -54.089531 
L -32.81569 -54.089531 
L -34.733113 -54.089531 
L -36.650535 -54.089531 
L -38.567958 -54.089531 
L -40.485381 -54.089531 
L -42.402803 -54.089531 
L -44.320226 -54.089531 
L -46.237649 -54.089531 
L -48.155071 -54.089533 
L -50.072494 -54.089561 
L -51.989917 -54.089826 
L -53.907339 -54.091671 
L -55.824762 -54.100989 
L -57.742184 -54.134762 
L -59.659607 -54.221123 
L -61.57703 -54.371703 
L -63.494452 -54.535479 
L -65.411875 -54.608978 
z
" style="stroke: #38a3a6; stroke-width: 3"/>
    </defs>
    <g clip-path="url(#pe991e52222)">
     <use xlink:href="#m5963a0a296" x="0" y="338.489531" style="fill: #38a3a6; fill-opacity: 0.2; stroke: #38a3a6; stroke-width: 3"/>
    </g>
   </g>
   <g id="patch_3">
    <path d="M 64.360781 284.4 
L 64.360781 7.2 
" style="fill: none; stroke: #262626; stroke-width: 3; stroke-linejoin: miter; stroke-linecap: square"/>
   </g>
   <g id="patch_4">
    <path d="M 64.360781 284.4 
L 343.360781 284.4 
" style="fill: none; stroke: #262626; stroke-width: 3; stroke-linejoin: miter; stroke-linecap: square"/>
   </g>
   <g id="legend_1">
    <g id="patch_5">
     <path d="M 278.31457 114.024609 
L 311.31457 114.024609 
L 311.31457 102.474609 
L 278.31457 102.474609 
z
" style="fill: #38a3a6; stroke: #ffffff; stroke-linejoin: miter"/>
    </g>
    <g id="text_14">
     <text style="fill: #262626; font: 16.5px 'sans-serif'; text-anchor: start" x="324.51457" y="114.024609" transform="rotate(-0, 324.51457, 114.024609)">AraC S170 R2 LOV dark</text>
    </g>
    <g id="patch_6">
     <path d="M 278.31457 138.243516 
L 311.31457 138.243516 
L 311.31457 126.693516 
L 278.31457 126.693516 
z
" style="fill: #22587a; stroke: #ffffff; stroke-linejoin: miter"/>
    </g>
    <g id="text_15">
     <text style="fill: #262626; font: 16.5px 'sans-serif'; text-anchor: start" x="324.51457" y="138.243516" transform="rotate(-0, 324.51457, 138.243516)">AraC S170 R2 LOV light</text>
    </g>
    <g id="patch_7">
     <path d="M 278.31457 162.462422 
L 311.31457 162.462422 
L 311.31457 150.912422 
L 278.31457 150.912422 
z
" style="fill: #de4968; stroke: #ffffff; stroke-linejoin: miter"/>
    </g>
    <g id="text_16">
     <text style="fill: #262626; font: 16.5px 'sans-serif'; text-anchor: start" x="324.51457" y="162.462422" transform="rotate(-0, 324.51457, 162.462422)">AraC S170 R2 P1.1.3 LOV dark</text>
    </g>
    <g id="patch_8">
     <path d="M 278.31457 186.681328 
L 311.31457 186.681328 
L 311.31457 175.131328 
L 278.31457 175.131328 
z
" style="fill: #8c2981; stroke: #ffffff; stroke-linejoin: miter"/>
    </g>
    <g id="text_17">
     <text style="fill: #262626; font: 16.5px 'sans-serif'; text-anchor: start" x="324.51457" y="186.681328" transform="rotate(-0, 324.51457, 186.681328)">AraC S170 R2 P1.1.3 LOV light</text>
    </g>
   </g>
  </g>
 </g>
 <defs>
  <clipPath id="pe991e52222">
   <rect x="64.360781" y="7.2" width="279" height="277.2"/>
  </clipPath>
 </defs>
</svg>
