<?xml version="1.0" encoding="utf-8" standalone="no"?>
<!DOCTYPE svg PUBLIC "-//W3C//DTD SVG 1.1//EN"
  "http://www.w3.org/Graphics/SVG/1.1/DTD/svg11.dtd">
<svg xmlns:xlink="http://www.w3.org/1999/xlink" width="600.105117pt" height="343.745353pt" viewBox="0 0 600.105117 343.745353" xmlns="http://www.w3.org/2000/svg" version="1.1">
 <metadata>
  <rdf:RDF xmlns:dc="http://purl.org/dc/elements/1.1/" xmlns:cc="http://creativecommons.org/ns#" xmlns:rdf="http://www.w3.org/1999/02/22-rdf-syntax-ns#">
   <cc:Work>
    <dc:type rdf:resource="http://purl.org/dc/dcmitype/StillImage"/>
    <dc:date>2025-04-29T17:55:25.889054</dc:date>
    <dc:format>image/svg+xml</dc:format>
    <dc:creator>
     <cc:Agent>
      <dc:title>Matplotlib v3.5.0, https://matplotlib.org/</dc:title>
     </cc:Agent>
    </dc:creator>
   </cc:Work>
  </rdf:RDF>
 </metadata>
 <defs>
  <style type="text/css">*{stroke-linejoin: round; stroke-linecap: butt}</style>
 </defs>
 <g id="figure_1">
  <g id="patch_1">
   <path d="M 0 343.745353 
L 600.105117 343.745353 
L 600.105117 0 
L 0 0 
z
" style="fill: #ffffff"/>
  </g>
  <g id="axes_1">
   <g id="patch_2">
    <path d="M 74.858906 289.655822 
L 353.858906 289.655822 
L 353.858906 12.455822 
L 74.858906 12.455822 
z
" style="fill: #ffffff"/>
   </g>
   <g id="matplotlib.axis_1">
    <g id="xtick_1">
     <g id="line2d_1">
      <defs>
       <path id="m6b1195178e" d="M 0 0 
L 0 6 
" style="stroke: #262626; stroke-width: 3"/>
      </defs>
      <g>
       <use xlink:href="#m6b1195178e" x="74.858906" y="289.655822" style="fill: #262626; stroke: #262626; stroke-width: 3"/>
      </g>
     </g>
     <g id="text_1">
      <!-- $\mathdefault{10^{0}}$ -->
      <g style="fill: #262626" transform="translate(60.338906 311.693244)">
       <text>
        <tspan style="font: 16.5px 'DejaVu Sans'" x="0 10.497803" y="-0.10312500000000213">10</tspan>
        <tspan style="font: 11.55px 'DejaVu Sans'" x="21.153652" y="-6.425000000000001">0</tspan>
       </text>
      </g>
     </g>
    </g>
    <g id="xtick_2">
     <g id="line2d_2">
      <g>
       <use xlink:href="#m6b1195178e" x="159.091149" y="289.655822" style="fill: #262626; stroke: #262626; stroke-width: 3"/>
      </g>
     </g>
     <g id="text_2">
      <!-- $\mathdefault{10^{2}}$ -->
      <g style="fill: #262626" transform="translate(144.571149 311.693244)">
       <text>
        <tspan style="font: 16.5px 'DejaVu Sans'" x="0 10.497803" y="-0.10312500000000213">10</tspan>
        <tspan style="font: 11.55px 'DejaVu Sans'" x="21.153652" y="-6.425000000000001">2</tspan>
       </text>
      </g>
     </g>
    </g>
    <g id="xtick_3">
     <g id="line2d_3">
      <g>
       <use xlink:href="#m6b1195178e" x="243.323393" y="289.655822" style="fill: #262626; stroke: #262626; stroke-width: 3"/>
      </g>
     </g>
     <g id="text_3">
      <!-- $\mathdefault{10^{4}}$ -->
      <g style="fill: #262626" transform="translate(228.803393 311.693244)">
       <text>
        <tspan style="font: 16.5px 'DejaVu Sans'" x="0 10.497803" y="-0.2562500000000014">10</tspan>
        <tspan style="font: 11.55px 'DejaVu Sans'" x="21.153652" y="-6.578125">4</tspan>
       </text>
      </g>
     </g>
    </g>
    <g id="xtick_4">
     <g id="line2d_4">
      <g>
       <use xlink:href="#m6b1195178e" x="327.555636" y="289.655822" style="fill: #262626; stroke: #262626; stroke-width: 3"/>
      </g>
     </g>
     <g id="text_4">
      <!-- $\mathdefault{10^{6}}$ -->
      <g style="fill: #262626" transform="translate(313.035636 311.693244)">
       <text>
        <tspan style="font: 16.5px 'DejaVu Sans'" x="0 10.497803" y="-0.10312500000000213">10</tspan>
        <tspan style="font: 11.55px 'DejaVu Sans'" x="21.153652" y="-6.425000000000001">6</tspan>
       </text>
      </g>
     </g>
    </g>
    <g id="text_5">
     <text style="fill: #262626; font: 18px 'sans-serif'; text-anchor: middle" x="214.358906" y="332.801916" transform="rotate(-0, 214.358906, 332.801916)">log[RFP]</text>
    </g>
   </g>
   <g id="matplotlib.axis_2">
    <g id="ytick_1">
     <g id="line2d_5">
      <defs>
       <path id="m50861f8a50" d="M 0 0 
L -6 0 
" style="stroke: #262626; stroke-width: 3"/>
      </defs>
      <g>
       <use xlink:href="#m50861f8a50" x="74.858906" y="289.655822" style="fill: #262626; stroke: #262626; stroke-width: 3"/>
      </g>
     </g>
     <g id="text_6">
      <text style="fill: #262626; font: 16.5px 'sans-serif'; text-anchor: end" x="65.358906" y="295.924533" transform="rotate(-0, 65.358906, 295.924533)">0.00</text>
     </g>
    </g>
    <g id="ytick_2">
     <g id="line2d_6">
      <g>
       <use xlink:href="#m50861f8a50" x="74.858906" y="250.20052" style="fill: #262626; stroke: #262626; stroke-width: 3"/>
      </g>
     </g>
     <g id="text_7">
      <text style="fill: #262626; font: 16.5px 'sans-serif'; text-anchor: end" x="65.358906" y="256.469231" transform="rotate(-0, 65.358906, 256.469231)">0.25</text>
     </g>
    </g>
    <g id="ytick_3">
     <g id="line2d_7">
      <g>
       <use xlink:href="#m50861f8a50" x="74.858906" y="210.745219" style="fill: #262626; stroke: #262626; stroke-width: 3"/>
      </g>
     </g>
     <g id="text_8">
      <text style="fill: #262626; font: 16.5px 'sans-serif'; text-anchor: end" x="65.358906" y="217.01393" transform="rotate(-0, 65.358906, 217.01393)">0.50</text>
     </g>
    </g>
    <g id="ytick_4">
     <g id="line2d_8">
      <g>
       <use xlink:href="#m50861f8a50" x="74.858906" y="171.289917" style="fill: #262626; stroke: #262626; stroke-width: 3"/>
      </g>
     </g>
     <g id="text_9">
      <text style="fill: #262626; font: 16.5px 'sans-serif'; text-anchor: end" x="65.358906" y="177.558628" transform="rotate(-0, 65.358906, 177.558628)">0.75</text>
     </g>
    </g>
    <g id="ytick_5">
     <g id="line2d_9">
      <g>
       <use xlink:href="#m50861f8a50" x="74.858906" y="131.834616" style="fill: #262626; stroke: #262626; stroke-width: 3"/>
      </g>
     </g>
     <g id="text_10">
      <text style="fill: #262626; font: 16.5px 'sans-serif'; text-anchor: end" x="65.358906" y="138.103327" transform="rotate(-0, 65.358906, 138.103327)">1.00</text>
     </g>
    </g>
    <g id="ytick_6">
     <g id="line2d_10">
      <g>
       <use xlink:href="#m50861f8a50" x="74.858906" y="92.379314" style="fill: #262626; stroke: #262626; stroke-width: 3"/>
      </g>
     </g>
     <g id="text_11">
      <text style="fill: #262626; font: 16.5px 'sans-serif'; text-anchor: end" x="65.358906" y="98.648025" transform="rotate(-0, 65.358906, 98.648025)">1.25</text>
     </g>
    </g>
    <g id="ytick_7">
     <g id="line2d_11">
      <g>
       <use xlink:href="#m50861f8a50" x="74.858906" y="52.924012" style="fill: #262626; stroke: #262626; stroke-width: 3"/>
      </g>
     </g>
     <g id="text_12">
      <text style="fill: #262626; font: 16.5px 'sans-serif'; text-anchor: end" x="65.358906" y="59.192723" transform="rotate(-0, 65.358906, 59.192723)">1.50</text>
     </g>
    </g>
    <g id="ytick_8">
     <g id="line2d_12">
      <g>
       <use xlink:href="#m50861f8a50" x="74.858906" y="13.468711" style="fill: #262626; stroke: #262626; stroke-width: 3"/>
      </g>
     </g>
     <g id="text_13">
      <text style="fill: #262626; font: 16.5px 'sans-serif'; text-anchor: end" x="65.358906" y="19.737422" transform="rotate(-0, 65.358906, 19.737422)">1.75</text>
     </g>
    </g>
    <g id="text_14">
     <text style="fill: #262626; font: 18px 'sans-serif'; text-anchor: middle" x="20.877187" y="151.055822" transform="rotate(-90, 20.877187, 151.055822)">Density</text>
    </g>
   </g>
   <g id="PolyCollection_1">
    <defs>
     <path id="m52023ecd74" d="M -51.489458 -54.127543 
L -51.489458 -54.089531 
L -49.452532 -54.089531 
L -47.415606 -54.089531 
L -45.378679 -54.089531 
L -43.341753 -54.089531 
L -41.304826 -54.089531 
L -39.2679 -54.089531 
L -37.230973 -54.089531 
L -35.194047 -54.089531 
L -33.15712 -54.089531 
L -31.120194 -54.089531 
L -29.083267 -54.089531 
L -27.046341 -54.089531 
L -25.009415 -54.089531 
L -22.972488 -54.089531 
L -20.935562 -54.089531 
L -18.898635 -54.089531 
L -16.861709 -54.089531 
L -14.824782 -54.089531 
L -12.787856 -54.089531 
L -10.750929 -54.089531 
L -8.714003 -54.089531 
L -6.677076 -54.089531 
L -4.64015 -54.089531 
L -2.603224 -54.089531 
L -0.566297 -54.089531 
L 1.470629 -54.089531 
L 3.507556 -54.089531 
L 5.544482 -54.089531 
L 7.581409 -54.089531 
L 9.618335 -54.089531 
L 11.655262 -54.089531 
L 13.692188 -54.089531 
L 15.729115 -54.089531 
L 17.766041 -54.089531 
L 19.802967 -54.089531 
L 21.839894 -54.089531 
L 23.87682 -54.089531 
L 25.913747 -54.089531 
L 27.950673 -54.089531 
L 29.9876 -54.089531 
L 32.024526 -54.089531 
L 34.061453 -54.089531 
L 36.098379 -54.089531 
L 38.135306 -54.089531 
L 40.172232 -54.089531 
L 42.209159 -54.089531 
L 44.246085 -54.089531 
L 46.283011 -54.089531 
L 48.319938 -54.089531 
L 50.356864 -54.089531 
L 52.393791 -54.089531 
L 54.430717 -54.089531 
L 56.467644 -54.089531 
L 58.50457 -54.089531 
L 60.541497 -54.089531 
L 62.578423 -54.089531 
L 64.61535 -54.089531 
L 66.652276 -54.089531 
L 68.689202 -54.089531 
L 70.726129 -54.089531 
L 72.763055 -54.089531 
L 74.799982 -54.089531 
L 76.836908 -54.089531 
L 78.873835 -54.089531 
L 80.910761 -54.089531 
L 82.947688 -54.089531 
L 84.984614 -54.089531 
L 87.021541 -54.089531 
L 89.058467 -54.089531 
L 91.095393 -54.089531 
L 93.13232 -54.089531 
L 95.169246 -54.089531 
L 97.206173 -54.089531 
L 99.243099 -54.089531 
L 101.280026 -54.089531 
L 103.316952 -54.089531 
L 105.353879 -54.089531 
L 107.390805 -54.089531 
L 109.427732 -54.089531 
L 111.464658 -54.089531 
L 113.501584 -54.089531 
L 115.538511 -54.089531 
L 117.575437 -54.089531 
L 119.612364 -54.089531 
L 121.64929 -54.089531 
L 123.686217 -54.089531 
L 125.723143 -54.089531 
L 127.76007 -54.089531 
L 129.796996 -54.089531 
L 131.833923 -54.089531 
L 133.870849 -54.089531 
L 135.907775 -54.089531 
L 137.944702 -54.089531 
L 139.981628 -54.089531 
L 142.018555 -54.089531 
L 144.055481 -54.089531 
L 146.092408 -54.089531 
L 148.129334 -54.089531 
L 150.166261 -54.089531 
L 152.203187 -54.089531 
L 154.240114 -54.089531 
L 156.27704 -54.089531 
L 158.313966 -54.089531 
L 160.350893 -54.089531 
L 162.387819 -54.089531 
L 164.424746 -54.089531 
L 166.461672 -54.089531 
L 168.498599 -54.089531 
L 170.535525 -54.089531 
L 172.572452 -54.089531 
L 174.609378 -54.089531 
L 176.646305 -54.089531 
L 178.683231 -54.089531 
L 180.720158 -54.089531 
L 182.757084 -54.089531 
L 184.79401 -54.089531 
L 186.830937 -54.089531 
L 188.867863 -54.089531 
L 190.90479 -54.089531 
L 192.941716 -54.089531 
L 194.978643 -54.089531 
L 197.015569 -54.089531 
L 199.052496 -54.089531 
L 201.089422 -54.089531 
L 203.126349 -54.089531 
L 205.163275 -54.089531 
L 207.200201 -54.089531 
L 209.237128 -54.089531 
L 211.274054 -54.089531 
L 213.310981 -54.089531 
L 215.347907 -54.089531 
L 217.384834 -54.089531 
L 219.42176 -54.089531 
L 221.458687 -54.089531 
L 223.495613 -54.089531 
L 225.53254 -54.089531 
L 227.569466 -54.089531 
L 229.606392 -54.089531 
L 231.643319 -54.089531 
L 233.680245 -54.089531 
L 235.717172 -54.089531 
L 237.754098 -54.089531 
L 239.791025 -54.089531 
L 241.827951 -54.089531 
L 243.864878 -54.089531 
L 245.901804 -54.089531 
L 247.938731 -54.089531 
L 249.975657 -54.089531 
L 252.012583 -54.089531 
L 254.04951 -54.089531 
L 256.086436 -54.089531 
L 258.123363 -54.089531 
L 260.160289 -54.089531 
L 262.197216 -54.089531 
L 264.234142 -54.089531 
L 266.271069 -54.089531 
L 268.307995 -54.089531 
L 270.344922 -54.089531 
L 272.381848 -54.089531 
L 274.418774 -54.089531 
L 276.455701 -54.089531 
L 278.492627 -54.089531 
L 280.529554 -54.089531 
L 282.56648 -54.089531 
L 284.603407 -54.089531 
L 286.640333 -54.089531 
L 288.67726 -54.089531 
L 290.714186 -54.089531 
L 292.751113 -54.089531 
L 294.788039 -54.089531 
L 296.824965 -54.089531 
L 298.861892 -54.089531 
L 300.898818 -54.089531 
L 302.935745 -54.089531 
L 304.972671 -54.089531 
L 307.009598 -54.089531 
L 309.046524 -54.089531 
L 311.083451 -54.089531 
L 313.120377 -54.089531 
L 315.157304 -54.089531 
L 317.19423 -54.089531 
L 319.231157 -54.089531 
L 321.268083 -54.089531 
L 323.305009 -54.089531 
L 325.341936 -54.089531 
L 327.378862 -54.089531 
L 329.415789 -54.089531 
L 331.452715 -54.089531 
L 333.489642 -54.089531 
L 335.526568 -54.089531 
L 337.563495 -54.089531 
L 339.600421 -54.089531 
L 341.637348 -54.089531 
L 343.674274 -54.089531 
L 345.7112 -54.089531 
L 347.748127 -54.089531 
L 349.785053 -54.089531 
L 351.82198 -54.089531 
L 353.858906 -54.089531 
L 353.858906 -55.150198 
L 353.858906 -55.150198 
L 351.82198 -55.804293 
L 349.785053 -56.708732 
L 347.748127 -57.952577 
L 345.7112 -59.700772 
L 343.674274 -62.246025 
L 341.637348 -66.083614 
L 339.600421 -72.001196 
L 337.563495 -81.127827 
L 335.526568 -94.839765 
L 333.489642 -114.442878 
L 331.452715 -140.667059 
L 329.415789 -173.133816 
L 327.378862 -209.979939 
L 325.341936 -247.757519 
L 323.305009 -281.720701 
L 321.268083 -306.636671 
L 319.231157 -318.089531 
L 317.19423 -313.851333 
L 315.157304 -294.670596 
L 313.120377 -264.078654 
L 311.083451 -227.312075 
L 309.046524 -189.815601 
L 307.009598 -155.912823 
L 304.972671 -128.109323 
L 302.935745 -107.134014 
L 300.898818 -92.448912 
L 298.861892 -82.857196 
L 296.824965 -76.991044 
L 294.788039 -73.613998 
L 292.751113 -71.739044 
L 290.714186 -70.623198 
L 288.67726 -69.743538 
L 286.640333 -68.806915 
L 284.603407 -67.74577 
L 282.56648 -66.642329 
L 280.529554 -65.607634 
L 278.492627 -64.696024 
L 276.455701 -63.898752 
L 274.418774 -63.188856 
L 272.381848 -62.55644 
L 270.344922 -62.003258 
L 268.307995 -61.521405 
L 266.271069 -61.093537 
L 264.234142 -60.709315 
L 262.197216 -60.365531 
L 260.160289 -60.048118 
L 258.123363 -59.72958 
L 256.086436 -59.396529 
L 254.04951 -59.075781 
L 252.012583 -58.820547 
L 249.975657 -58.663263 
L 247.938731 -58.584666 
L 245.901804 -58.536386 
L 243.864878 -58.497277 
L 241.827951 -58.506577 
L 239.791025 -58.640667 
L 237.754098 -58.953694 
L 235.717172 -59.430226 
L 233.680245 -59.984604 
L 231.643319 -60.505128 
L 229.606392 -60.908189 
L 227.569466 -61.163705 
L 225.53254 -61.282185 
L 223.495613 -61.28466 
L 221.458687 -61.182123 
L 219.42176 -60.97618 
L 217.384834 -60.673864 
L 215.347907 -60.298357 
L 213.310981 -59.884418 
L 211.274054 -59.465778 
L 209.237128 -59.067058 
L 207.200201 -58.701552 
L 205.163275 -58.371341 
L 203.126349 -58.071935 
L 201.089422 -57.801249 
L 199.052496 -57.562422 
L 197.015569 -57.355392 
L 194.978643 -57.171637 
L 192.941716 -57.006137 
L 190.90479 -56.873119 
L 188.867863 -56.800011 
L 186.830937 -56.80146 
L 184.79401 -56.862935 
L 182.757084 -56.950837 
L 180.720158 -57.034817 
L 178.683231 -57.10081 
L 176.646305 -57.149592 
L 174.609378 -57.187402 
L 172.572452 -57.216099 
L 170.535525 -57.230029 
L 168.498599 -57.221854 
L 166.461672 -57.188063 
L 164.424746 -57.12445 
L 162.387819 -57.018721 
L 160.350893 -56.85474 
L 158.313966 -56.627074 
L 156.27704 -56.35149 
L 154.240114 -56.063558 
L 152.203187 -55.807053 
L 150.166261 -55.615584 
L 148.129334 -55.494237 
L 146.092408 -55.414456 
L 144.055481 -55.33151 
L 142.018555 -55.214705 
L 139.981628 -55.065172 
L 137.944702 -54.907299 
L 135.907775 -54.767031 
L 133.870849 -54.65922 
L 131.833923 -54.589282 
L 129.796996 -54.558032 
L 127.76007 -54.5612 
L 125.723143 -54.586199 
L 123.686217 -54.612426 
L 121.64929 -54.617312 
L 119.612364 -54.585697 
L 117.575437 -54.517371 
L 115.538511 -54.427202 
L 113.501584 -54.336721 
L 111.464658 -54.263286 
L 109.427732 -54.214464 
L 107.390805 -54.189053 
L 105.353879 -54.180385 
L 103.316952 -54.178964 
L 101.280026 -54.175636 
L 99.243099 -54.165913 
L 97.206173 -54.152112 
L 95.169246 -54.140302 
L 93.13232 -54.13445 
L 91.095393 -54.13337 
L 89.058467 -54.133006 
L 87.021541 -54.131029 
L 84.984614 -54.12885 
L 82.947688 -54.129402 
L 80.910761 -54.133684 
L 78.873835 -54.139976 
L 76.836908 -54.146057 
L 74.799982 -54.151227 
L 72.763055 -54.155782 
L 70.726129 -54.159161 
L 68.689202 -54.159377 
L 66.652276 -54.154354 
L 64.61535 -54.143716 
L 62.578423 -54.129467 
L 60.541497 -54.115052 
L 58.50457 -54.103488 
L 56.467644 -54.096 
L 54.430717 -54.092055 
L 52.393791 -54.090356 
L 50.356864 -54.089756 
L 48.319938 -54.089582 
L 46.283011 -54.089541 
L 44.246085 -54.089533 
L 42.209159 -54.089531 
L 40.172232 -54.089531 
L 38.135306 -54.089531 
L 36.098379 -54.089531 
L 34.061453 -54.089531 
L 32.024526 -54.089531 
L 29.9876 -54.089531 
L 27.950673 -54.089531 
L 25.913747 -54.089531 
L 23.87682 -54.089531 
L 21.839894 -54.089531 
L 19.802967 -54.089531 
L 17.766041 -54.089531 
L 15.729115 -54.089531 
L 13.692188 -54.089531 
L 11.655262 -54.089531 
L 9.618335 -54.089531 
L 7.581409 -54.089531 
L 5.544482 -54.089531 
L 3.507556 -54.089531 
L 1.470629 -54.089531 
L -0.566297 -54.089531 
L -2.603224 -54.089531 
L -4.64015 -54.089531 
L -6.677076 -54.089531 
L -8.714003 -54.089531 
L -10.750929 -54.089531 
L -12.787856 -54.089531 
L -14.824782 -54.089531 
L -16.861709 -54.089531 
L -18.898635 -54.089531 
L -20.935562 -54.089531 
L -22.972488 -54.089531 
L -25.009415 -54.089531 
L -27.046341 -54.089531 
L -29.083267 -54.089532 
L -31.120194 -54.089535 
L -33.15712 -54.089552 
L -35.194047 -54.089631 
L -37.230973 -54.089932 
L -39.2679 -54.090873 
L -41.304826 -54.093258 
L -43.341753 -54.09813 
L -45.378679 -54.106006 
L -47.415606 -54.115746 
L -49.452532 -54.124171 
L -51.489458 -54.127543 
z
" style="stroke: #8c2981; stroke-width: 3"/>
    </defs>
    <g clip-path="url(#p315b546001)">
     <use xlink:href="#m52023ecd74" x="0" y="343.745353" style="fill: #8c2981; fill-opacity: 0.2; stroke: #8c2981; stroke-width: 3"/>
    </g>
   </g>
   <g id="PolyCollection_2">
    <defs>
     <path id="m2ed9deb5da" d="M -51.489458 -54.40931 
L -51.489458 -54.089531 
L -49.862346 -54.089531 
L -48.235234 -54.089531 
L -46.608122 -54.089531 
L -44.98101 -54.089531 
L -43.353898 -54.089531 
L -41.726786 -54.089531 
L -40.099674 -54.089531 
L -38.472562 -54.089531 
L -36.84545 -54.089531 
L -35.218338 -54.089531 
L -33.591226 -54.089531 
L -31.964114 -54.089531 
L -30.337002 -54.089531 
L -28.70989 -54.089531 
L -27.082778 -54.089531 
L -25.455666 -54.089531 
L -23.828554 -54.089531 
L -22.201442 -54.089531 
L -20.57433 -54.089531 
L -18.947218 -54.089531 
L -17.320106 -54.089531 
L -15.692994 -54.089531 
L -14.065882 -54.089531 
L -12.43877 -54.089531 
L -10.811658 -54.089531 
L -9.184546 -54.089531 
L -7.557434 -54.089531 
L -5.930322 -54.089531 
L -4.30321 -54.089531 
L -2.676098 -54.089531 
L -1.048986 -54.089531 
L 0.578126 -54.089531 
L 2.205238 -54.089531 
L 3.83235 -54.089531 
L 5.459462 -54.089531 
L 7.086574 -54.089531 
L 8.713686 -54.089531 
L 10.340798 -54.089531 
L 11.96791 -54.089531 
L 13.595022 -54.089531 
L 15.222134 -54.089531 
L 16.849246 -54.089531 
L 18.476358 -54.089531 
L 20.10347 -54.089531 
L 21.730582 -54.089531 
L 23.357694 -54.089531 
L 24.984806 -54.089531 
L 26.611918 -54.089531 
L 28.23903 -54.089531 
L 29.866142 -54.089531 
L 31.493254 -54.089531 
L 33.120366 -54.089531 
L 34.747478 -54.089531 
L 36.37459 -54.089531 
L 38.001702 -54.089531 
L 39.628814 -54.089531 
L 41.255926 -54.089531 
L 42.883038 -54.089531 
L 44.51015 -54.089531 
L 46.137262 -54.089531 
L 47.764374 -54.089531 
L 49.391486 -54.089531 
L 51.018598 -54.089531 
L 52.64571 -54.089531 
L 54.272822 -54.089531 
L 55.899934 -54.089531 
L 57.527046 -54.089531 
L 59.154158 -54.089531 
L 60.78127 -54.089531 
L 62.408382 -54.089531 
L 64.035494 -54.089531 
L 65.662606 -54.089531 
L 67.289718 -54.089531 
L 68.91683 -54.089531 
L 70.543942 -54.089531 
L 72.171054 -54.089531 
L 73.798166 -54.089531 
L 75.425278 -54.089531 
L 77.05239 -54.089531 
L 78.679502 -54.089531 
L 80.306614 -54.089531 
L 81.933726 -54.089531 
L 83.560838 -54.089531 
L 85.18795 -54.089531 
L 86.815062 -54.089531 
L 88.442174 -54.089531 
L 90.069286 -54.089531 
L 91.696398 -54.089531 
L 93.32351 -54.089531 
L 94.950622 -54.089531 
L 96.577734 -54.089531 
L 98.204846 -54.089531 
L 99.831958 -54.089531 
L 101.45907 -54.089531 
L 103.086182 -54.089531 
L 104.713294 -54.089531 
L 106.340406 -54.089531 
L 107.967518 -54.089531 
L 109.59463 -54.089531 
L 111.221742 -54.089531 
L 112.848854 -54.089531 
L 114.475966 -54.089531 
L 116.103078 -54.089531 
L 117.73019 -54.089531 
L 119.357302 -54.089531 
L 120.984414 -54.089531 
L 122.611526 -54.089531 
L 124.238638 -54.089531 
L 125.86575 -54.089531 
L 127.492862 -54.089531 
L 129.119974 -54.089531 
L 130.747086 -54.089531 
L 132.374198 -54.089531 
L 134.00131 -54.089531 
L 135.628422 -54.089531 
L 137.255534 -54.089531 
L 138.882646 -54.089531 
L 140.509758 -54.089531 
L 142.13687 -54.089531 
L 143.763982 -54.089531 
L 145.391094 -54.089531 
L 147.018206 -54.089531 
L 148.645318 -54.089531 
L 150.27243 -54.089531 
L 151.899542 -54.089531 
L 153.526654 -54.089531 
L 155.153766 -54.089531 
L 156.780878 -54.089531 
L 158.40799 -54.089531 
L 160.035102 -54.089531 
L 161.662214 -54.089531 
L 163.289326 -54.089531 
L 164.916438 -54.089531 
L 166.54355 -54.089531 
L 168.170662 -54.089531 
L 169.797774 -54.089531 
L 171.424886 -54.089531 
L 173.051998 -54.089531 
L 174.67911 -54.089531 
L 176.306222 -54.089531 
L 177.933334 -54.089531 
L 179.560446 -54.089531 
L 181.187558 -54.089531 
L 182.81467 -54.089531 
L 184.441782 -54.089531 
L 186.068894 -54.089531 
L 187.696006 -54.089531 
L 189.323118 -54.089531 
L 190.95023 -54.089531 
L 192.577342 -54.089531 
L 194.204454 -54.089531 
L 195.831566 -54.089531 
L 197.458678 -54.089531 
L 199.08579 -54.089531 
L 200.712902 -54.089531 
L 202.340014 -54.089531 
L 203.967126 -54.089531 
L 205.594238 -54.089531 
L 207.22135 -54.089531 
L 208.848462 -54.089531 
L 210.475574 -54.089531 
L 212.102686 -54.089531 
L 213.729798 -54.089531 
L 215.35691 -54.089531 
L 216.984022 -54.089531 
L 218.611134 -54.089531 
L 220.238246 -54.089531 
L 221.865358 -54.089531 
L 223.49247 -54.089531 
L 225.119582 -54.089531 
L 226.746694 -54.089531 
L 228.373806 -54.089531 
L 230.000918 -54.089531 
L 231.62803 -54.089531 
L 233.255142 -54.089531 
L 234.882254 -54.089531 
L 236.509366 -54.089531 
L 238.136478 -54.089531 
L 239.76359 -54.089531 
L 241.390702 -54.089531 
L 243.017814 -54.089531 
L 244.644926 -54.089531 
L 246.272038 -54.089531 
L 247.89915 -54.089531 
L 249.526262 -54.089531 
L 251.153374 -54.089531 
L 252.780486 -54.089531 
L 254.407598 -54.089531 
L 256.03471 -54.089531 
L 257.661822 -54.089531 
L 259.288934 -54.089531 
L 260.916046 -54.089531 
L 262.543158 -54.089531 
L 264.17027 -54.089531 
L 265.797382 -54.089531 
L 267.424494 -54.089531 
L 269.051606 -54.089531 
L 270.678718 -54.089531 
L 272.30583 -54.089531 
L 272.30583 -54.169476 
L 272.30583 -54.169476 
L 270.678718 -54.159335 
L 269.051606 -54.135998 
L 267.424494 -54.113113 
L 265.797382 -54.098657 
L 264.17027 -54.092234 
L 262.543158 -54.090228 
L 260.916046 -54.09018 
L 259.288934 -54.092011 
L 257.661822 -54.098041 
L 256.03471 -54.111906 
L 254.407598 -54.13439 
L 252.780486 -54.158098 
L 251.153374 -54.169432 
L 249.526262 -54.160516 
L 247.89915 -54.13761 
L 246.272038 -54.114358 
L 244.644926 -54.099305 
L 243.017814 -54.092465 
L 241.390702 -54.090202 
L 239.76359 -54.089648 
L 238.136478 -54.089547 
L 236.509366 -54.089533 
L 234.882254 -54.089539 
L 233.255142 -54.089591 
L 231.62803 -54.089909 
L 230.000918 -54.091345 
L 228.373806 -54.096171 
L 226.746694 -54.108062 
L 225.119582 -54.128956 
L 223.49247 -54.153481 
L 221.865358 -54.168614 
L 220.238246 -54.164095 
L 218.611134 -54.143172 
L 216.984022 -54.119232 
L 215.35691 -54.103491 
L 213.729798 -54.100084 
L 212.102686 -54.111071 
L 210.475574 -54.141184 
L 208.848462 -54.196694 
L 207.22135 -54.281844 
L 205.594238 -54.39569 
L 203.967126 -54.527272 
L 202.340014 -54.653521 
L 200.712902 -54.754118 
L 199.08579 -54.845762 
L 197.458678 -55.011821 
L 195.831566 -55.398019 
L 194.204454 -56.183831 
L 192.577342 -57.58141 
L 190.95023 -59.883234 
L 189.323118 -63.503715 
L 187.696006 -68.94754 
L 186.068894 -76.699372 
L 184.441782 -87.06929 
L 182.81467 -100.02636 
L 181.187558 -115.115645 
L 179.560446 -131.622759 
L 177.933334 -148.968871 
L 176.306222 -166.948202 
L 174.67911 -185.385525 
L 173.051998 -203.425769 
L 171.424886 -219.327626 
L 169.797774 -231.221245 
L 168.170662 -238.103533 
L 166.54355 -240.104023 
L 164.916438 -238.085913 
L 163.289326 -233.149425 
L 161.662214 -226.162342 
L 160.035102 -217.546856 
L 158.40799 -207.687572 
L 156.780878 -197.365882 
L 155.153766 -187.399894 
L 153.526654 -178.022582 
L 151.899542 -168.981602 
L 150.27243 -160.133508 
L 148.645318 -151.628904 
L 147.018206 -143.595566 
L 145.391094 -135.982631 
L 143.763982 -128.757822 
L 142.13687 -122.022082 
L 140.509758 -115.897121 
L 138.882646 -110.424166 
L 137.255534 -105.53672 
L 135.628422 -101.085138 
L 134.00131 -96.961534 
L 132.374198 -93.188477 
L 130.747086 -89.830442 
L 129.119974 -86.880635 
L 127.492862 -84.272915 
L 125.86575 -81.931835 
L 124.238638 -79.759434 
L 122.611526 -77.635109 
L 120.984414 -75.523788 
L 119.357302 -73.542899 
L 117.73019 -71.811817 
L 116.103078 -70.284736 
L 114.475966 -68.838922 
L 112.848854 -67.460648 
L 111.221742 -66.230425 
L 109.59463 -65.177582 
L 107.967518 -64.257525 
L 106.340406 -63.434049 
L 104.713294 -62.690767 
L 103.086182 -61.988406 
L 101.45907 -61.271269 
L 99.831958 -60.500246 
L 98.204846 -59.671079 
L 96.577734 -58.830136 
L 94.950622 -58.068093 
L 93.32351 -57.471119 
L 91.696398 -57.076174 
L 90.069286 -56.874644 
L 88.442174 -56.841004 
L 86.815062 -56.940493 
L 85.18795 -57.11075 
L 83.560838 -57.255506 
L 81.933726 -57.272221 
L 80.306614 -57.096001 
L 78.679502 -56.738447 
L 77.05239 -56.289905 
L 75.425278 -55.860837 
L 73.798166 -55.51586 
L 72.171054 -55.268156 
L 70.543942 -55.107228 
L 68.91683 -55.008473 
L 67.289718 -54.936358 
L 65.662606 -54.862522 
L 64.035494 -54.782593 
L 62.408382 -54.712115 
L 60.78127 -54.66676 
L 59.154158 -54.648443 
L 57.527046 -54.651876 
L 55.899934 -54.673039 
L 54.272822 -54.695387 
L 52.64571 -54.689919 
L 51.018598 -54.663818 
L 49.391486 -54.67801 
L 47.764374 -54.762251 
L 46.137262 -54.838705 
L 44.51015 -54.793184 
L 42.883038 -54.611835 
L 41.255926 -54.395585 
L 39.628814 -54.25377 
L 38.001702 -54.229312 
L 36.37459 -54.30375 
L 34.747478 -54.416967 
L 33.120366 -54.486655 
L 31.493254 -54.458558 
L 29.866142 -54.351124 
L 28.23903 -54.230916 
L 26.611918 -54.147789 
L 24.984806 -54.107833 
L 23.357694 -54.093914 
L 21.730582 -54.090332 
L 20.10347 -54.089643 
L 18.476358 -54.089543 
L 16.849246 -54.089532 
L 15.222134 -54.089531 
L 13.595022 -54.089531 
L 11.96791 -54.089531 
L 10.340798 -54.089531 
L 8.713686 -54.089531 
L 7.086574 -54.089531 
L 5.459462 -54.089531 
L 3.83235 -54.089531 
L 2.205238 -54.089531 
L 0.578126 -54.089531 
L -1.048986 -54.089531 
L -2.676098 -54.089531 
L -4.30321 -54.089531 
L -5.930322 -54.089531 
L -7.557434 -54.089531 
L -9.184546 -54.089531 
L -10.811658 -54.089531 
L -12.43877 -54.089531 
L -14.065882 -54.089531 
L -15.692994 -54.089531 
L -17.320106 -54.089531 
L -18.947218 -54.089531 
L -20.57433 -54.089531 
L -22.201442 -54.089531 
L -23.828554 -54.089531 
L -25.455666 -54.089531 
L -27.082778 -54.089531 
L -28.70989 -54.089531 
L -30.337002 -54.089531 
L -31.964114 -54.089531 
L -33.591226 -54.089531 
L -35.218338 -54.089532 
L -36.84545 -54.089537 
L -38.472562 -54.089586 
L -40.099674 -54.089946 
L -41.726786 -54.091952 
L -43.353898 -54.100297 
L -44.98101 -54.126028 
L -46.608122 -54.183859 
L -48.235234 -54.275397 
L -49.862346 -54.368745 
L -51.489458 -54.40931 
z
" style="stroke: #de4968; stroke-width: 3"/>
    </defs>
    <g clip-path="url(#p315b546001)">
     <use xlink:href="#m2ed9deb5da" x="0" y="343.745353" style="fill: #de4968; fill-opacity: 0.2; stroke: #de4968; stroke-width: 3"/>
    </g>
   </g>
   <g id="PolyCollection_3">
    <defs>
     <path id="m3f8f320875" d="M 32.742789 -54.198411 
L 32.742789 -54.089531 
L 34.269141 -54.089531 
L 35.795494 -54.089531 
L 37.321846 -54.089531 
L 38.848199 -54.089531 
L 40.374551 -54.089531 
L 41.900903 -54.089531 
L 43.427256 -54.089531 
L 44.953608 -54.089531 
L 46.479961 -54.089531 
L 48.006313 -54.089531 
L 49.532665 -54.089531 
L 51.059018 -54.089531 
L 52.58537 -54.089531 
L 54.111723 -54.089531 
L 55.638075 -54.089531 
L 57.164427 -54.089531 
L 58.69078 -54.089531 
L 60.217132 -54.089531 
L 61.743484 -54.089531 
L 63.269837 -54.089531 
L 64.796189 -54.089531 
L 66.322542 -54.089531 
L 67.848894 -54.089531 
L 69.375246 -54.089531 
L 70.901599 -54.089531 
L 72.427951 -54.089531 
L 73.954304 -54.089531 
L 75.480656 -54.089531 
L 77.007008 -54.089531 
L 78.533361 -54.089531 
L 80.059713 -54.089531 
L 81.586066 -54.089531 
L 83.112418 -54.089531 
L 84.63877 -54.089531 
L 86.165123 -54.089531 
L 87.691475 -54.089531 
L 89.217828 -54.089531 
L 90.74418 -54.089531 
L 92.270532 -54.089531 
L 93.796885 -54.089531 
L 95.323237 -54.089531 
L 96.849589 -54.089531 
L 98.375942 -54.089531 
L 99.902294 -54.089531 
L 101.428647 -54.089531 
L 102.954999 -54.089531 
L 104.481351 -54.089531 
L 106.007704 -54.089531 
L 107.534056 -54.089531 
L 109.060409 -54.089531 
L 110.586761 -54.089531 
L 112.113113 -54.089531 
L 113.639466 -54.089531 
L 115.165818 -54.089531 
L 116.692171 -54.089531 
L 118.218523 -54.089531 
L 119.744875 -54.089531 
L 121.271228 -54.089531 
L 122.79758 -54.089531 
L 124.323933 -54.089531 
L 125.850285 -54.089531 
L 127.376637 -54.089531 
L 128.90299 -54.089531 
L 130.429342 -54.089531 
L 131.955694 -54.089531 
L 133.482047 -54.089531 
L 135.008399 -54.089531 
L 136.534752 -54.089531 
L 138.061104 -54.089531 
L 139.587456 -54.089531 
L 141.113809 -54.089531 
L 142.640161 -54.089531 
L 144.166514 -54.089531 
L 145.692866 -54.089531 
L 147.219218 -54.089531 
L 148.745571 -54.089531 
L 150.271923 -54.089531 
L 151.798276 -54.089531 
L 153.324628 -54.089531 
L 154.85098 -54.089531 
L 156.377333 -54.089531 
L 157.903685 -54.089531 
L 159.430038 -54.089531 
L 160.95639 -54.089531 
L 162.482742 -54.089531 
L 164.009095 -54.089531 
L 165.535447 -54.089531 
L 167.061799 -54.089531 
L 168.588152 -54.089531 
L 170.114504 -54.089531 
L 171.640857 -54.089531 
L 173.167209 -54.089531 
L 174.693561 -54.089531 
L 176.219914 -54.089531 
L 177.746266 -54.089531 
L 179.272619 -54.089531 
L 180.798971 -54.089531 
L 182.325323 -54.089531 
L 183.851676 -54.089531 
L 185.378028 -54.089531 
L 186.904381 -54.089531 
L 188.430733 -54.089531 
L 189.957085 -54.089531 
L 191.483438 -54.089531 
L 193.00979 -54.089531 
L 194.536143 -54.089531 
L 196.062495 -54.089531 
L 197.588847 -54.089531 
L 199.1152 -54.089531 
L 200.641552 -54.089531 
L 202.167904 -54.089531 
L 203.694257 -54.089531 
L 205.220609 -54.089531 
L 206.746962 -54.089531 
L 208.273314 -54.089531 
L 209.799666 -54.089531 
L 211.326019 -54.089531 
L 212.852371 -54.089531 
L 214.378724 -54.089531 
L 215.905076 -54.089531 
L 217.431428 -54.089531 
L 218.957781 -54.089531 
L 220.484133 -54.089531 
L 222.010486 -54.089531 
L 223.536838 -54.089531 
L 225.06319 -54.089531 
L 226.589543 -54.089531 
L 228.115895 -54.089531 
L 229.642248 -54.089531 
L 231.1686 -54.089531 
L 232.694952 -54.089531 
L 234.221305 -54.089531 
L 235.747657 -54.089531 
L 237.274009 -54.089531 
L 238.800362 -54.089531 
L 240.326714 -54.089531 
L 241.853067 -54.089531 
L 243.379419 -54.089531 
L 244.905771 -54.089531 
L 246.432124 -54.089531 
L 247.958476 -54.089531 
L 249.484829 -54.089531 
L 251.011181 -54.089531 
L 252.537533 -54.089531 
L 254.063886 -54.089531 
L 255.590238 -54.089531 
L 257.116591 -54.089531 
L 258.642943 -54.089531 
L 260.169295 -54.089531 
L 261.695648 -54.089531 
L 263.222 -54.089531 
L 264.748353 -54.089531 
L 266.274705 -54.089531 
L 267.801057 -54.089531 
L 269.32741 -54.089531 
L 270.853762 -54.089531 
L 272.380114 -54.089531 
L 273.906467 -54.089531 
L 275.432819 -54.089531 
L 276.959172 -54.089531 
L 278.485524 -54.089531 
L 280.011876 -54.089531 
L 281.538229 -54.089531 
L 283.064581 -54.089531 
L 284.590934 -54.089531 
L 286.117286 -54.089531 
L 287.643638 -54.089531 
L 289.169991 -54.089531 
L 290.696343 -54.089531 
L 292.222696 -54.089531 
L 293.749048 -54.089531 
L 295.2754 -54.089531 
L 296.801753 -54.089531 
L 298.328105 -54.089531 
L 299.854458 -54.089531 
L 301.38081 -54.089531 
L 302.907162 -54.089531 
L 304.433515 -54.089531 
L 305.959867 -54.089531 
L 307.486219 -54.089531 
L 309.012572 -54.089531 
L 310.538924 -54.089531 
L 312.065277 -54.089531 
L 313.591629 -54.089531 
L 315.117981 -54.089531 
L 316.644334 -54.089531 
L 318.170686 -54.089531 
L 319.697039 -54.089531 
L 321.223391 -54.089531 
L 322.749743 -54.089531 
L 324.276096 -54.089531 
L 325.802448 -54.089531 
L 327.328801 -54.089531 
L 328.855153 -54.089531 
L 330.381505 -54.089531 
L 331.907858 -54.089531 
L 333.43421 -54.089531 
L 334.960563 -54.089531 
L 336.486915 -54.089531 
L 336.486915 -54.153686 
L 336.486915 -54.153686 
L 334.960563 -54.161567 
L 333.43421 -54.170627 
L 331.907858 -54.185594 
L 330.381505 -54.206145 
L 328.855153 -54.229079 
L 327.328801 -54.25506 
L 325.802448 -54.290176 
L 324.276096 -54.338591 
L 322.749743 -54.394945 
L 321.223391 -54.446625 
L 319.697039 -54.483544 
L 318.170686 -54.503737 
L 316.644334 -54.510481 
L 315.117981 -54.50857 
L 313.591629 -54.505556 
L 312.065277 -54.513626 
L 310.538924 -54.546865 
L 309.012572 -54.615995 
L 307.486219 -54.725024 
L 305.959867 -54.869287 
L 304.433515 -55.032102 
L 302.907162 -55.182759 
L 301.38081 -55.284544 
L 299.854458 -55.315234 
L 298.328105 -55.285665 
L 296.801753 -55.237074 
L 295.2754 -55.216282 
L 293.749048 -55.248098 
L 292.222696 -55.324405 
L 290.696343 -55.415282 
L 289.169991 -55.494024 
L 287.643638 -55.559128 
L 286.117286 -55.636303 
L 284.590934 -55.759109 
L 283.064581 -55.946698 
L 281.538229 -56.19469 
L 280.011876 -56.474466 
L 278.485524 -56.734323 
L 276.959172 -56.914786 
L 275.432819 -56.984281 
L 273.906467 -56.968479 
L 272.380114 -56.942965 
L 270.853762 -56.994762 
L 269.32741 -57.179881 
L 267.801057 -57.494506 
L 266.274705 -57.869518 
L 264.748353 -58.197709 
L 263.222 -58.387207 
L 261.695648 -58.409937 
L 260.169295 -58.312348 
L 258.642943 -58.183123 
L 257.116591 -58.102569 
L 255.590238 -58.108891 
L 254.063886 -58.202055 
L 252.537533 -58.371176 
L 251.011181 -58.608222 
L 249.484829 -58.89507 
L 247.958476 -59.193701 
L 246.432124 -59.466305 
L 244.905771 -59.707314 
L 243.379419 -59.94923 
L 241.853067 -60.23433 
L 240.326714 -60.580081 
L 238.800362 -60.96421 
L 237.274009 -61.334279 
L 235.747657 -61.64138 
L 234.221305 -61.889053 
L 232.694952 -62.158371 
L 231.1686 -62.570204 
L 229.642248 -63.207364 
L 228.115895 -64.068496 
L 226.589543 -65.090221 
L 225.06319 -66.203417 
L 223.536838 -67.375021 
L 222.010486 -68.624578 
L 220.484133 -70.026735 
L 218.957781 -71.702209 
L 217.431428 -73.792336 
L 215.905076 -76.41611 
L 214.378724 -79.62704 
L 212.852371 -83.419993 
L 211.326019 -87.822085 
L 209.799666 -92.995908 
L 208.273314 -99.214868 
L 206.746962 -106.682888 
L 205.220609 -115.365059 
L 203.694257 -125.023577 
L 202.167904 -135.437139 
L 200.641552 -146.547616 
L 199.1152 -158.342069 
L 197.588847 -170.626185 
L 196.062495 -183.014361 
L 194.536143 -195.15105 
L 193.00979 -206.814077 
L 191.483438 -217.697835 
L 189.957085 -227.12611 
L 188.430733 -234.065054 
L 186.904381 -237.485371 
L 185.378028 -236.805754 
L 183.851676 -232.142316 
L 182.325323 -224.255628 
L 180.798971 -214.237413 
L 179.272619 -203.117891 
L 177.746266 -191.625899 
L 176.219914 -180.17235 
L 174.693561 -168.949009 
L 173.167209 -158.056735 
L 171.640857 -147.625149 
L 170.114504 -137.839221 
L 168.588152 -128.850296 
L 167.061799 -120.698376 
L 165.535447 -113.336152 
L 164.009095 -106.689374 
L 162.482742 -100.677972 
L 160.95639 -95.213391 
L 159.430038 -90.209725 
L 157.903685 -85.612922 
L 156.377333 -81.428266 
L 154.85098 -77.719037 
L 153.324628 -74.561415 
L 151.798276 -71.972595 
L 150.271923 -69.86395 
L 148.745571 -68.072958 
L 147.219218 -66.46489 
L 145.692866 -65.013716 
L 144.166514 -63.775709 
L 142.640161 -62.779669 
L 141.113809 -61.953856 
L 139.587456 -61.171086 
L 138.061104 -60.360389 
L 136.534752 -59.564058 
L 135.008399 -58.887007 
L 133.482047 -58.39725 
L 131.955694 -58.069702 
L 130.429342 -57.810035 
L 128.90299 -57.524643 
L 127.376637 -57.177009 
L 125.850285 -56.795048 
L 124.323933 -56.435914 
L 122.79758 -56.141797 
L 121.271228 -55.918934 
L 119.744875 -55.748152 
L 118.218523 -55.60936 
L 116.692171 -55.496043 
L 115.165818 -55.409596 
L 113.639466 -55.342884 
L 112.113113 -55.273616 
L 110.586761 -55.17911 
L 109.060409 -55.058898 
L 107.534056 -54.939761 
L 106.007704 -54.855642 
L 104.481351 -54.820217 
L 102.954999 -54.815472 
L 101.428647 -54.805109 
L 99.902294 -54.761103 
L 98.375942 -54.681346 
L 96.849589 -54.586332 
L 95.323237 -54.502845 
L 93.796885 -54.449784 
L 92.270532 -54.432517 
L 90.74418 -54.443429 
L 89.217828 -54.465593 
L 87.691475 -54.478463 
L 86.165123 -54.465352 
L 84.63877 -54.421102 
L 83.112418 -54.355012 
L 81.586066 -54.28451 
L 80.059713 -54.223644 
L 78.533361 -54.17699 
L 77.007008 -54.142847 
L 75.480656 -54.118838 
L 73.954304 -54.103511 
L 72.427951 -54.095157 
L 70.901599 -54.091409 
L 69.375246 -54.090047 
L 67.848894 -54.089649 
L 66.322542 -54.08957 
L 64.796189 -54.089633 
L 63.269837 -54.089976 
L 61.743484 -54.09117 
L 60.217132 -54.094443 
L 58.69078 -54.101517 
L 57.164427 -54.113341 
L 55.638075 -54.12803 
L 54.111723 -54.140202 
L 52.58537 -54.143819 
L 51.059018 -54.136875 
L 49.532665 -54.123139 
L 48.006313 -54.108955 
L 46.479961 -54.098691 
L 44.953608 -54.093179 
L 43.427256 -54.091324 
L 41.900903 -54.092488 
L 40.374551 -54.0979 
L 38.848199 -54.110526 
L 37.321846 -54.132659 
L 35.795494 -54.161673 
L 34.269141 -54.187764 
L 32.742789 -54.198411 
z
" style="stroke: #22587a; stroke-width: 3"/>
    </defs>
    <g clip-path="url(#p315b546001)">
     <use xlink:href="#m3f8f320875" x="0" y="343.745353" style="fill: #22587a; fill-opacity: 0.2; stroke: #22587a; stroke-width: 3"/>
    </g>
   </g>
   <g id="PolyCollection_4">
    <defs>
     <path id="mb96a1f3ec4" d="M -51.489458 -54.455534 
L -51.489458 -54.089531 
L -49.622631 -54.089531 
L -47.755803 -54.089531 
L -45.888975 -54.089531 
L -44.022147 -54.089531 
L -42.155319 -54.089531 
L -40.288491 -54.089531 
L -38.421663 -54.089531 
L -36.554835 -54.089531 
L -34.688007 -54.089531 
L -32.821179 -54.089531 
L -30.954351 -54.089531 
L -29.087523 -54.089531 
L -27.220696 -54.089531 
L -25.353868 -54.089531 
L -23.48704 -54.089531 
L -21.620212 -54.089531 
L -19.753384 -54.089531 
L -17.886556 -54.089531 
L -16.019728 -54.089531 
L -14.1529 -54.089531 
L -12.286072 -54.089531 
L -10.419244 -54.089531 
L -8.552416 -54.089531 
L -6.685588 -54.089531 
L -4.81876 -54.089531 
L -2.951933 -54.089531 
L -1.085105 -54.089531 
L 0.781723 -54.089531 
L 2.648551 -54.089531 
L 4.515379 -54.089531 
L 6.382207 -54.089531 
L 8.249035 -54.089531 
L 10.115863 -54.089531 
L 11.982691 -54.089531 
L 13.849519 -54.089531 
L 15.716347 -54.089531 
L 17.583175 -54.089531 
L 19.450002 -54.089531 
L 21.31683 -54.089531 
L 23.183658 -54.089531 
L 25.050486 -54.089531 
L 26.917314 -54.089531 
L 28.784142 -54.089531 
L 30.65097 -54.089531 
L 32.517798 -54.089531 
L 34.384626 -54.089531 
L 36.251454 -54.089531 
L 38.118282 -54.089531 
L 39.98511 -54.089531 
L 41.851938 -54.089531 
L 43.718765 -54.089531 
L 45.585593 -54.089531 
L 47.452421 -54.089531 
L 49.319249 -54.089531 
L 51.186077 -54.089531 
L 53.052905 -54.089531 
L 54.919733 -54.089531 
L 56.786561 -54.089531 
L 58.653389 -54.089531 
L 60.520217 -54.089531 
L 62.387045 -54.089531 
L 64.253873 -54.089531 
L 66.1207 -54.089531 
L 67.987528 -54.089531 
L 69.854356 -54.089531 
L 71.721184 -54.089531 
L 73.588012 -54.089531 
L 75.45484 -54.089531 
L 77.321668 -54.089531 
L 79.188496 -54.089531 
L 81.055324 -54.089531 
L 82.922152 -54.089531 
L 84.78898 -54.089531 
L 86.655808 -54.089531 
L 88.522635 -54.089531 
L 90.389463 -54.089531 
L 92.256291 -54.089531 
L 94.123119 -54.089531 
L 95.989947 -54.089531 
L 97.856775 -54.089531 
L 99.723603 -54.089531 
L 101.590431 -54.089531 
L 103.457259 -54.089531 
L 105.324087 -54.089531 
L 107.190915 -54.089531 
L 109.057743 -54.089531 
L 110.924571 -54.089531 
L 112.791398 -54.089531 
L 114.658226 -54.089531 
L 116.525054 -54.089531 
L 118.391882 -54.089531 
L 120.25871 -54.089531 
L 122.125538 -54.089531 
L 123.992366 -54.089531 
L 125.859194 -54.089531 
L 127.726022 -54.089531 
L 129.59285 -54.089531 
L 131.459678 -54.089531 
L 133.326506 -54.089531 
L 135.193333 -54.089531 
L 137.060161 -54.089531 
L 138.926989 -54.089531 
L 140.793817 -54.089531 
L 142.660645 -54.089531 
L 144.527473 -54.089531 
L 146.394301 -54.089531 
L 148.261129 -54.089531 
L 150.127957 -54.089531 
L 151.994785 -54.089531 
L 153.861613 -54.089531 
L 155.728441 -54.089531 
L 157.595268 -54.089531 
L 159.462096 -54.089531 
L 161.328924 -54.089531 
L 163.195752 -54.089531 
L 165.06258 -54.089531 
L 166.929408 -54.089531 
L 168.796236 -54.089531 
L 170.663064 -54.089531 
L 172.529892 -54.089531 
L 174.39672 -54.089531 
L 176.263548 -54.089531 
L 178.130376 -54.089531 
L 179.997204 -54.089531 
L 181.864031 -54.089531 
L 183.730859 -54.089531 
L 185.597687 -54.089531 
L 187.464515 -54.089531 
L 189.331343 -54.089531 
L 191.198171 -54.089531 
L 193.064999 -54.089531 
L 194.931827 -54.089531 
L 196.798655 -54.089531 
L 198.665483 -54.089531 
L 200.532311 -54.089531 
L 202.399139 -54.089531 
L 204.265966 -54.089531 
L 206.132794 -54.089531 
L 207.999622 -54.089531 
L 209.86645 -54.089531 
L 211.733278 -54.089531 
L 213.600106 -54.089531 
L 215.466934 -54.089531 
L 217.333762 -54.089531 
L 219.20059 -54.089531 
L 221.067418 -54.089531 
L 222.934246 -54.089531 
L 224.801074 -54.089531 
L 226.667902 -54.089531 
L 228.534729 -54.089531 
L 230.401557 -54.089531 
L 232.268385 -54.089531 
L 234.135213 -54.089531 
L 236.002041 -54.089531 
L 237.868869 -54.089531 
L 239.735697 -54.089531 
L 241.602525 -54.089531 
L 243.469353 -54.089531 
L 245.336181 -54.089531 
L 247.203009 -54.089531 
L 249.069837 -54.089531 
L 250.936664 -54.089531 
L 252.803492 -54.089531 
L 254.67032 -54.089531 
L 256.537148 -54.089531 
L 258.403976 -54.089531 
L 260.270804 -54.089531 
L 262.137632 -54.089531 
L 264.00446 -54.089531 
L 265.871288 -54.089531 
L 267.738116 -54.089531 
L 269.604944 -54.089531 
L 271.471772 -54.089531 
L 273.338599 -54.089531 
L 275.205427 -54.089531 
L 277.072255 -54.089531 
L 278.939083 -54.089531 
L 280.805911 -54.089531 
L 282.672739 -54.089531 
L 284.539567 -54.089531 
L 286.406395 -54.089531 
L 288.273223 -54.089531 
L 290.140051 -54.089531 
L 292.006879 -54.089531 
L 293.873707 -54.089531 
L 295.740535 -54.089531 
L 297.607362 -54.089531 
L 299.47419 -54.089531 
L 301.341018 -54.089531 
L 303.207846 -54.089531 
L 305.074674 -54.089531 
L 306.941502 -54.089531 
L 308.80833 -54.089531 
L 310.675158 -54.089531 
L 312.541986 -54.089531 
L 314.408814 -54.089531 
L 316.275642 -54.089531 
L 318.14247 -54.089531 
L 320.009297 -54.089531 
L 320.009297 -54.181032 
L 320.009297 -54.181032 
L 318.14247 -54.168085 
L 316.275642 -54.139236 
L 314.408814 -54.112711 
L 312.541986 -54.097499 
L 310.675158 -54.09155 
L 308.80833 -54.089908 
L 306.941502 -54.089583 
L 305.074674 -54.089537 
L 303.207846 -54.089532 
L 301.341018 -54.089531 
L 299.47419 -54.089531 
L 297.607362 -54.089531 
L 295.740535 -54.089531 
L 293.873707 -54.089531 
L 292.006879 -54.089531 
L 290.140051 -54.089531 
L 288.273223 -54.089531 
L 286.406395 -54.089531 
L 284.539567 -54.089531 
L 282.672739 -54.089531 
L 280.805911 -54.089531 
L 278.939083 -54.089531 
L 277.072255 -54.089531 
L 275.205427 -54.089531 
L 273.338599 -54.089531 
L 271.471772 -54.089531 
L 269.604944 -54.089531 
L 267.738116 -54.089531 
L 265.871288 -54.089531 
L 264.00446 -54.089531 
L 262.137632 -54.089531 
L 260.270804 -54.089531 
L 258.403976 -54.089531 
L 256.537148 -54.089531 
L 254.67032 -54.089531 
L 252.803492 -54.089531 
L 250.936664 -54.089531 
L 249.069837 -54.089531 
L 247.203009 -54.089531 
L 245.336181 -54.089531 
L 243.469353 -54.089531 
L 241.602525 -54.089531 
L 239.735697 -54.089531 
L 237.868869 -54.089531 
L 236.002041 -54.089531 
L 234.135213 -54.089531 
L 232.268385 -54.089531 
L 230.401557 -54.089531 
L 228.534729 -54.089531 
L 226.667902 -54.089531 
L 224.801074 -54.089531 
L 222.934246 -54.089531 
L 221.067418 -54.089531 
L 219.20059 -54.089531 
L 217.333762 -54.089531 
L 215.466934 -54.089533 
L 213.600106 -54.089553 
L 211.733278 -54.089708 
L 209.86645 -54.0906 
L 207.999622 -54.094309 
L 206.132794 -54.105324 
L 204.265966 -54.128406 
L 202.399139 -54.16223 
L 200.532311 -54.198729 
L 198.665483 -54.238642 
L 196.798655 -54.305688 
L 194.931827 -54.435154 
L 193.064999 -54.669279 
L 191.198171 -55.119538 
L 189.331343 -56.070495 
L 187.464515 -57.998863 
L 185.597687 -61.43328 
L 183.730859 -66.81553 
L 181.864031 -74.601895 
L 179.997204 -85.38103 
L 178.130376 -99.475357 
L 176.263548 -116.318001 
L 174.39672 -134.622626 
L 172.529892 -153.299045 
L 170.663064 -171.871542 
L 168.796236 -189.909798 
L 166.929408 -206.249669 
L 165.06258 -218.929702 
L 163.195752 -226.196391 
L 161.328924 -227.848429 
L 159.462096 -225.333058 
L 157.595268 -220.253727 
L 155.728441 -213.231063 
L 153.861613 -204.51231 
L 151.994785 -194.897816 
L 150.127957 -185.331239 
L 148.261129 -176.10908 
L 146.394301 -167.15185 
L 144.527473 -158.548928 
L 142.660645 -150.315517 
L 140.793817 -142.174337 
L 138.926989 -134.016022 
L 137.060161 -126.19793 
L 135.193333 -119.221563 
L 133.326506 -113.298371 
L 131.459678 -108.177227 
L 129.59285 -103.363596 
L 127.726022 -98.587534 
L 125.859194 -93.992071 
L 123.992366 -89.874079 
L 122.125538 -86.310158 
L 120.25871 -83.025554 
L 118.391882 -79.742225 
L 116.525054 -76.637325 
L 114.658226 -74.176089 
L 112.791398 -72.522574 
L 110.924571 -71.383025 
L 109.057743 -70.326713 
L 107.190915 -69.05232 
L 105.324087 -67.506171 
L 103.457259 -65.917305 
L 101.590431 -64.583466 
L 99.723603 -63.573226 
L 97.856775 -62.761252 
L 95.989947 -62.05958 
L 94.123119 -61.453382 
L 92.256291 -60.9075 
L 90.389463 -60.349446 
L 88.522635 -59.720456 
L 86.655808 -59.044814 
L 84.78898 -58.436698 
L 82.922152 -57.983901 
L 81.055324 -57.635649 
L 79.188496 -57.258796 
L 77.321668 -56.804496 
L 75.45484 -56.360594 
L 73.588012 -56.030377 
L 71.721184 -55.822064 
L 69.854356 -55.670656 
L 67.987528 -55.526267 
L 66.1207 -55.399596 
L 64.253873 -55.318344 
L 62.387045 -55.26343 
L 60.520217 -55.187685 
L 58.653389 -55.082581 
L 56.786561 -54.985348 
L 54.919733 -54.922831 
L 53.052905 -54.8831 
L 51.186077 -54.871424 
L 49.319249 -54.942508 
L 47.452421 -55.087242 
L 45.585593 -55.150528 
L 43.718765 -54.992475 
L 41.851938 -54.678295 
L 39.98511 -54.40285 
L 38.118282 -54.29036 
L 36.251454 -54.328421 
L 34.384626 -54.41966 
L 32.517798 -54.455411 
L 30.65097 -54.391803 
L 28.784142 -54.273848 
L 26.917314 -54.172383 
L 25.050486 -54.11698 
L 23.183658 -54.096234 
L 21.31683 -54.090738 
L 19.450002 -54.089691 
L 17.583175 -54.089547 
L 15.716347 -54.089532 
L 13.849519 -54.089531 
L 11.982691 -54.089531 
L 10.115863 -54.089531 
L 8.249035 -54.089531 
L 6.382207 -54.089531 
L 4.515379 -54.089531 
L 2.648551 -54.089531 
L 0.781723 -54.089531 
L -1.085105 -54.089531 
L -2.951933 -54.089531 
L -4.81876 -54.089531 
L -6.685588 -54.089531 
L -8.552416 -54.089531 
L -10.419244 -54.089531 
L -12.286072 -54.089531 
L -14.1529 -54.089531 
L -16.019728 -54.089531 
L -17.886556 -54.089531 
L -19.753384 -54.089531 
L -21.620212 -54.089531 
L -23.48704 -54.089531 
L -25.353868 -54.089531 
L -27.220696 -54.089531 
L -29.087523 -54.089531 
L -30.954351 -54.089531 
L -32.821179 -54.089531 
L -34.688007 -54.089533 
L -36.554835 -54.089552 
L -38.421663 -54.089739 
L -40.288491 -54.091039 
L -42.155319 -54.097605 
L -44.022147 -54.121401 
L -45.888975 -54.182251 
L -47.755803 -54.288349 
L -49.622631 -54.403746 
L -51.489458 -54.455534 
z
" style="stroke: #38a3a6; stroke-width: 3"/>
    </defs>
    <g clip-path="url(#p315b546001)">
     <use xlink:href="#mb96a1f3ec4" x="0" y="343.745353" style="fill: #38a3a6; fill-opacity: 0.2; stroke: #38a3a6; stroke-width: 3"/>
    </g>
   </g>
   <g id="patch_3">
    <path d="M 74.858906 289.655822 
L 74.858906 12.455822 
" style="fill: none; stroke: #262626; stroke-width: 3; stroke-linejoin: miter; stroke-linecap: square"/>
   </g>
   <g id="patch_4">
    <path d="M 74.858906 289.655822 
L 353.858906 289.655822 
" style="fill: none; stroke: #262626; stroke-width: 3; stroke-linejoin: miter; stroke-linecap: square"/>
   </g>
   <g id="legend_1">
    <g id="patch_5">
     <path d="M 288.812695 119.280431 
L 321.812695 119.280431 
L 321.812695 107.730431 
L 288.812695 107.730431 
z
" style="fill: #38a3a6; stroke: #ffffff; stroke-linejoin: miter"/>
    </g>
    <g id="text_15">
     <text style="fill: #262626; font: 16.5px 'sans-serif'; text-anchor: start" x="335.012695" y="119.280431" transform="rotate(-0, 335.012695, 119.280431)">AraC S170 R2 LOV dark</text>
    </g>
    <g id="patch_6">
     <path d="M 288.812695 143.499337 
L 321.812695 143.499337 
L 321.812695 131.949337 
L 288.812695 131.949337 
z
" style="fill: #22587a; stroke: #ffffff; stroke-linejoin: miter"/>
    </g>
    <g id="text_16">
     <text style="fill: #262626; font: 16.5px 'sans-serif'; text-anchor: start" x="335.012695" y="143.499337" transform="rotate(-0, 335.012695, 143.499337)">AraC S170 R2 LOV light</text>
    </g>
    <g id="patch_7">
     <path d="M 288.812695 167.718244 
L 321.812695 167.718244 
L 321.812695 156.168244 
L 288.812695 156.168244 
z
" style="fill: #de4968; stroke: #ffffff; stroke-linejoin: miter"/>
    </g>
    <g id="text_17">
     <text style="fill: #262626; font: 16.5px 'sans-serif'; text-anchor: start" x="335.012695" y="167.718244" transform="rotate(-0, 335.012695, 167.718244)">AraC S170 R2 P2.1.3 LOV dark</text>
    </g>
    <g id="patch_8">
     <path d="M 288.812695 191.93715 
L 321.812695 191.93715 
L 321.812695 180.38715 
L 288.812695 180.38715 
z
" style="fill: #8c2981; stroke: #ffffff; stroke-linejoin: miter"/>
    </g>
    <g id="text_18">
     <text style="fill: #262626; font: 16.5px 'sans-serif'; text-anchor: start" x="335.012695" y="191.93715" transform="rotate(-0, 335.012695, 191.93715)">AraC S170 R2 P2.1.3 LOV light</text>
    </g>
   </g>
  </g>
 </g>
 <defs>
  <clipPath id="p315b546001">
   <rect x="74.858906" y="12.455822" width="279" height="277.2"/>
  </clipPath>
 </defs>
</svg>
