<?xml version="1.0" encoding="utf-8" standalone="no"?>
<!DOCTYPE svg PUBLIC "-//W3C//DTD SVG 1.1//EN"
  "http://www.w3.org/Graphics/SVG/1.1/DTD/svg11.dtd">
<svg xmlns:xlink="http://www.w3.org/1999/xlink" width="563.234062pt" height="338.489531pt" viewBox="0 0 563.234062 338.489531" xmlns="http://www.w3.org/2000/svg" version="1.1">
 <metadata>
  <rdf:RDF xmlns:dc="http://purl.org/dc/elements/1.1/" xmlns:cc="http://creativecommons.org/ns#" xmlns:rdf="http://www.w3.org/1999/02/22-rdf-syntax-ns#">
   <cc:Work>
    <dc:type rdf:resource="http://purl.org/dc/dcmitype/StillImage"/>
    <dc:date>2025-04-29T17:55:25.050747</dc:date>
    <dc:format>image/svg+xml</dc:format>
    <dc:creator>
     <cc:Agent>
      <dc:title>Matplotlib v3.5.0, https://matplotlib.org/</dc:title>
     </cc:Agent>
    </dc:creator>
   </cc:Work>
  </rdf:RDF>
 </metadata>
 <defs>
  <style type="text/css">*{stroke-linejoin: round; stroke-linecap: butt}</style>
 </defs>
 <g id="figure_1">
  <g id="patch_1">
   <path d="M 0 338.489531 
L 563.234062 338.489531 
L 563.234062 0 
L 0 0 
z
" style="fill: #ffffff"/>
  </g>
  <g id="axes_1">
   <g id="patch_2">
    <path d="M 64.360781 284.4 
L 343.360781 284.4 
L 343.360781 7.2 
L 64.360781 7.2 
z
" style="fill: #ffffff"/>
   </g>
   <g id="matplotlib.axis_1">
    <g id="xtick_1">
     <g id="line2d_1">
      <defs>
       <path id="m17f8f66e2c" d="M 0 0 
L 0 6 
" style="stroke: #262626; stroke-width: 3"/>
      </defs>
      <g>
       <use xlink:href="#m17f8f66e2c" x="64.360781" y="284.4" style="fill: #262626; stroke: #262626; stroke-width: 3"/>
      </g>
     </g>
     <g id="text_1">
      <!-- $\mathdefault{10^{0}}$ -->
      <g style="fill: #262626" transform="translate(49.840781 306.437422)">
       <text>
        <tspan style="font: 16.5px 'DejaVu Sans'" x="0 10.497803" y="-0.10312500000000213">10</tspan>
        <tspan style="font: 11.55px 'DejaVu Sans'" x="21.153652" y="-6.425000000000001">0</tspan>
       </text>
      </g>
     </g>
    </g>
    <g id="xtick_2">
     <g id="line2d_2">
      <g>
       <use xlink:href="#m17f8f66e2c" x="146.976118" y="284.4" style="fill: #262626; stroke: #262626; stroke-width: 3"/>
      </g>
     </g>
     <g id="text_2">
      <!-- $\mathdefault{10^{2}}$ -->
      <g style="fill: #262626" transform="translate(132.456118 306.437422)">
       <text>
        <tspan style="font: 16.5px 'DejaVu Sans'" x="0 10.497803" y="-0.10312500000000213">10</tspan>
        <tspan style="font: 11.55px 'DejaVu Sans'" x="21.153652" y="-6.425000000000001">2</tspan>
       </text>
      </g>
     </g>
    </g>
    <g id="xtick_3">
     <g id="line2d_3">
      <g>
       <use xlink:href="#m17f8f66e2c" x="229.591454" y="284.4" style="fill: #262626; stroke: #262626; stroke-width: 3"/>
      </g>
     </g>
     <g id="text_3">
      <!-- $\mathdefault{10^{4}}$ -->
      <g style="fill: #262626" transform="translate(215.071454 306.437422)">
       <text>
        <tspan style="font: 16.5px 'DejaVu Sans'" x="0 10.497803" y="-0.2562500000000014">10</tspan>
        <tspan style="font: 11.55px 'DejaVu Sans'" x="21.153652" y="-6.578125">4</tspan>
       </text>
      </g>
     </g>
    </g>
    <g id="xtick_4">
     <g id="line2d_4">
      <g>
       <use xlink:href="#m17f8f66e2c" x="312.20679" y="284.4" style="fill: #262626; stroke: #262626; stroke-width: 3"/>
      </g>
     </g>
     <g id="text_4">
      <!-- $\mathdefault{10^{6}}$ -->
      <g style="fill: #262626" transform="translate(297.68679 306.437422)">
       <text>
        <tspan style="font: 16.5px 'DejaVu Sans'" x="0 10.497803" y="-0.10312500000000213">10</tspan>
        <tspan style="font: 11.55px 'DejaVu Sans'" x="21.153652" y="-6.425000000000001">6</tspan>
       </text>
      </g>
     </g>
    </g>
    <g id="text_5">
     <text style="fill: #262626; font: 18px 'sans-serif'; text-anchor: middle" x="203.860781" y="327.546094" transform="rotate(-0, 203.860781, 327.546094)">log[RFP]</text>
    </g>
   </g>
   <g id="matplotlib.axis_2">
    <g id="ytick_1">
     <g id="line2d_5">
      <defs>
       <path id="m01eb30e793" d="M 0 0 
L -6 0 
" style="stroke: #262626; stroke-width: 3"/>
      </defs>
      <g>
       <use xlink:href="#m01eb30e793" x="64.360781" y="284.4" style="fill: #262626; stroke: #262626; stroke-width: 3"/>
      </g>
     </g>
     <g id="text_6">
      <text style="fill: #262626; font: 16.5px 'sans-serif'; text-anchor: end" x="54.860781" y="290.668711" transform="rotate(-0, 54.860781, 290.668711)">0.0</text>
     </g>
    </g>
    <g id="ytick_2">
     <g id="line2d_6">
      <g>
       <use xlink:href="#m01eb30e793" x="64.360781" y="218.603079" style="fill: #262626; stroke: #262626; stroke-width: 3"/>
      </g>
     </g>
     <g id="text_7">
      <text style="fill: #262626; font: 16.5px 'sans-serif'; text-anchor: end" x="54.860781" y="224.87179" transform="rotate(-0, 54.860781, 224.87179)">0.5</text>
     </g>
    </g>
    <g id="ytick_3">
     <g id="line2d_7">
      <g>
       <use xlink:href="#m01eb30e793" x="64.360781" y="152.806158" style="fill: #262626; stroke: #262626; stroke-width: 3"/>
      </g>
     </g>
     <g id="text_8">
      <text style="fill: #262626; font: 16.5px 'sans-serif'; text-anchor: end" x="54.860781" y="159.074869" transform="rotate(-0, 54.860781, 159.074869)">1.0</text>
     </g>
    </g>
    <g id="ytick_4">
     <g id="line2d_8">
      <g>
       <use xlink:href="#m01eb30e793" x="64.360781" y="87.009237" style="fill: #262626; stroke: #262626; stroke-width: 3"/>
      </g>
     </g>
     <g id="text_9">
      <text style="fill: #262626; font: 16.5px 'sans-serif'; text-anchor: end" x="54.860781" y="93.277948" transform="rotate(-0, 54.860781, 93.277948)">1.5</text>
     </g>
    </g>
    <g id="ytick_5">
     <g id="line2d_9">
      <g>
       <use xlink:href="#m01eb30e793" x="64.360781" y="21.212316" style="fill: #262626; stroke: #262626; stroke-width: 3"/>
      </g>
     </g>
     <g id="text_10">
      <text style="fill: #262626; font: 16.5px 'sans-serif'; text-anchor: end" x="54.860781" y="27.481027" transform="rotate(-0, 54.860781, 27.481027)">2.0</text>
     </g>
    </g>
    <g id="text_11">
     <text style="fill: #262626; font: 18px 'sans-serif'; text-anchor: middle" x="20.877188" y="145.8" transform="rotate(-90, 20.877188, 145.8)">Density</text>
    </g>
   </g>
   <g id="PolyCollection_1">
    <defs>
     <path id="m24ae037748" d="M -59.562223 -54.128621 
L -59.562223 -54.089531 
L -57.537484 -54.089531 
L -55.512746 -54.089531 
L -53.488007 -54.089531 
L -51.463268 -54.089531 
L -49.43853 -54.089531 
L -47.413791 -54.089531 
L -45.389052 -54.089531 
L -43.364313 -54.089531 
L -41.339575 -54.089531 
L -39.314836 -54.089531 
L -37.290097 -54.089531 
L -35.265359 -54.089531 
L -33.24062 -54.089531 
L -31.215881 -54.089531 
L -29.191142 -54.089531 
L -27.166404 -54.089531 
L -25.141665 -54.089531 
L -23.116926 -54.089531 
L -21.092188 -54.089531 
L -19.067449 -54.089531 
L -17.04271 -54.089531 
L -15.017971 -54.089531 
L -12.993233 -54.089531 
L -10.968494 -54.089531 
L -8.943755 -54.089531 
L -6.919017 -54.089531 
L -4.894278 -54.089531 
L -2.869539 -54.089531 
L -0.8448 -54.089531 
L 1.179938 -54.089531 
L 3.204677 -54.089531 
L 5.229416 -54.089531 
L 7.254154 -54.089531 
L 9.278893 -54.089531 
L 11.303632 -54.089531 
L 13.328371 -54.089531 
L 15.353109 -54.089531 
L 17.377848 -54.089531 
L 19.402587 -54.089531 
L 21.427325 -54.089531 
L 23.452064 -54.089531 
L 25.476803 -54.089531 
L 27.501542 -54.089531 
L 29.52628 -54.089531 
L 31.551019 -54.089531 
L 33.575758 -54.089531 
L 35.600496 -54.089531 
L 37.625235 -54.089531 
L 39.649974 -54.089531 
L 41.674713 -54.089531 
L 43.699451 -54.089531 
L 45.72419 -54.089531 
L 47.748929 -54.089531 
L 49.773667 -54.089531 
L 51.798406 -54.089531 
L 53.823145 -54.089531 
L 55.847884 -54.089531 
L 57.872622 -54.089531 
L 59.897361 -54.089531 
L 61.9221 -54.089531 
L 63.946838 -54.089531 
L 65.971577 -54.089531 
L 67.996316 -54.089531 
L 70.021055 -54.089531 
L 72.045793 -54.089531 
L 74.070532 -54.089531 
L 76.095271 -54.089531 
L 78.12001 -54.089531 
L 80.144748 -54.089531 
L 82.169487 -54.089531 
L 84.194226 -54.089531 
L 86.218964 -54.089531 
L 88.243703 -54.089531 
L 90.268442 -54.089531 
L 92.293181 -54.089531 
L 94.317919 -54.089531 
L 96.342658 -54.089531 
L 98.367397 -54.089531 
L 100.392135 -54.089531 
L 102.416874 -54.089531 
L 104.441613 -54.089531 
L 106.466352 -54.089531 
L 108.49109 -54.089531 
L 110.515829 -54.089531 
L 112.540568 -54.089531 
L 114.565306 -54.089531 
L 116.590045 -54.089531 
L 118.614784 -54.089531 
L 120.639523 -54.089531 
L 122.664261 -54.089531 
L 124.689 -54.089531 
L 126.713739 -54.089531 
L 128.738477 -54.089531 
L 130.763216 -54.089531 
L 132.787955 -54.089531 
L 134.812694 -54.089531 
L 136.837432 -54.089531 
L 138.862171 -54.089531 
L 140.88691 -54.089531 
L 142.911648 -54.089531 
L 144.936387 -54.089531 
L 146.961126 -54.089531 
L 148.985865 -54.089531 
L 151.010603 -54.089531 
L 153.035342 -54.089531 
L 155.060081 -54.089531 
L 157.084819 -54.089531 
L 159.109558 -54.089531 
L 161.134297 -54.089531 
L 163.159036 -54.089531 
L 165.183774 -54.089531 
L 167.208513 -54.089531 
L 169.233252 -54.089531 
L 171.25799 -54.089531 
L 173.282729 -54.089531 
L 175.307468 -54.089531 
L 177.332207 -54.089531 
L 179.356945 -54.089531 
L 181.381684 -54.089531 
L 183.406423 -54.089531 
L 185.431161 -54.089531 
L 187.4559 -54.089531 
L 189.480639 -54.089531 
L 191.505378 -54.089531 
L 193.530116 -54.089531 
L 195.554855 -54.089531 
L 197.579594 -54.089531 
L 199.604332 -54.089531 
L 201.629071 -54.089531 
L 203.65381 -54.089531 
L 205.678549 -54.089531 
L 207.703287 -54.089531 
L 209.728026 -54.089531 
L 211.752765 -54.089531 
L 213.777503 -54.089531 
L 215.802242 -54.089531 
L 217.826981 -54.089531 
L 219.85172 -54.089531 
L 221.876458 -54.089531 
L 223.901197 -54.089531 
L 225.925936 -54.089531 
L 227.950674 -54.089531 
L 229.975413 -54.089531 
L 232.000152 -54.089531 
L 234.024891 -54.089531 
L 236.049629 -54.089531 
L 238.074368 -54.089531 
L 240.099107 -54.089531 
L 242.123845 -54.089531 
L 244.148584 -54.089531 
L 246.173323 -54.089531 
L 248.198062 -54.089531 
L 250.2228 -54.089531 
L 252.247539 -54.089531 
L 254.272278 -54.089531 
L 256.297016 -54.089531 
L 258.321755 -54.089531 
L 260.346494 -54.089531 
L 262.371233 -54.089531 
L 264.395971 -54.089531 
L 266.42071 -54.089531 
L 268.445449 -54.089531 
L 270.470187 -54.089531 
L 272.494926 -54.089531 
L 274.519665 -54.089531 
L 276.544404 -54.089531 
L 278.569142 -54.089531 
L 280.593881 -54.089531 
L 282.61862 -54.089531 
L 284.643358 -54.089531 
L 286.668097 -54.089531 
L 288.692836 -54.089531 
L 290.717575 -54.089531 
L 292.742313 -54.089531 
L 294.767052 -54.089531 
L 296.791791 -54.089531 
L 298.81653 -54.089531 
L 300.841268 -54.089531 
L 302.866007 -54.089531 
L 304.890746 -54.089531 
L 306.915484 -54.089531 
L 308.940223 -54.089531 
L 310.964962 -54.089531 
L 312.989701 -54.089531 
L 315.014439 -54.089531 
L 317.039178 -54.089531 
L 319.063917 -54.089531 
L 321.088655 -54.089531 
L 323.113394 -54.089531 
L 325.138133 -54.089531 
L 327.162872 -54.089531 
L 329.18761 -54.089531 
L 331.212349 -54.089531 
L 333.237088 -54.089531 
L 335.261826 -54.089531 
L 337.286565 -54.089531 
L 339.311304 -54.089531 
L 341.336043 -54.089531 
L 343.360781 -54.089531 
L 343.360781 -54.192979 
L 343.360781 -54.192979 
L 341.336043 -54.267674 
L 339.311304 -54.367601 
L 337.286565 -54.477574 
L 335.261826 -54.603417 
L 333.237088 -54.813441 
L 331.212349 -55.218841 
L 329.18761 -55.906213 
L 327.162872 -56.92751 
L 325.138133 -58.401021 
L 323.113394 -60.657979 
L 321.088655 -64.373994 
L 319.063917 -70.705468 
L 317.039178 -81.374013 
L 315.014439 -98.482681 
L 312.989701 -123.885597 
L 310.964962 -158.135669 
L 308.940223 -199.351897 
L 306.915484 -242.734977 
L 304.890746 -281.399761 
L 302.866007 -308.298572 
L 300.841268 -318.089531 
L 298.81653 -308.283593 
L 296.791791 -280.128334 
L 294.767052 -239.081189 
L 292.742313 -193.540166 
L 290.717575 -151.744233 
L 288.692836 -118.915073 
L 286.668097 -96.432944 
L 284.643358 -82.832567 
L 282.61862 -75.39249 
L 280.593881 -71.45039 
L 278.569142 -69.131379 
L 276.544404 -67.483643 
L 274.519665 -66.199631 
L 272.494926 -65.212192 
L 270.470187 -64.427339 
L 268.445449 -63.677483 
L 266.42071 -62.814638 
L 264.395971 -61.800968 
L 262.371233 -60.705024 
L 260.346494 -59.644984 
L 258.321755 -58.742913 
L 256.297016 -58.074499 
L 254.272278 -57.625885 
L 252.247539 -57.31707 
L 250.2228 -57.070722 
L 248.198062 -56.845497 
L 246.173323 -56.621083 
L 244.148584 -56.386788 
L 242.123845 -56.15151 
L 240.099107 -55.941242 
L 238.074368 -55.773286 
L 236.049629 -55.639642 
L 234.024891 -55.519091 
L 232.000152 -55.407795 
L 229.975413 -55.338199 
L 227.950674 -55.352112 
L 225.925936 -55.44951 
L 223.901197 -55.585255 
L 221.876458 -55.725273 
L 219.85172 -55.884908 
L 217.826981 -56.098806 
L 215.802242 -56.36826 
L 213.777503 -56.654784 
L 211.752765 -56.913763 
L 209.728026 -57.112296 
L 207.703287 -57.228853 
L 205.678549 -57.27181 
L 203.65381 -57.293738 
L 201.629071 -57.349863 
L 199.604332 -57.430009 
L 197.579594 -57.452245 
L 195.554855 -57.336297 
L 193.530116 -57.074727 
L 191.505378 -56.735937 
L 189.480639 -56.413353 
L 187.4559 -56.170092 
L 185.431161 -56.026396 
L 183.406423 -55.984293 
L 181.381684 -56.017585 
L 179.356945 -56.036805 
L 177.332207 -55.943055 
L 175.307468 -55.742008 
L 173.282729 -55.546079 
L 171.25799 -55.450709 
L 169.233252 -55.448533 
L 167.208513 -55.47105 
L 165.183774 -55.482793 
L 163.159036 -55.511715 
L 161.134297 -55.592802 
L 159.109558 -55.704428 
L 157.084819 -55.779755 
L 155.060081 -55.780245 
L 153.035342 -55.734776 
L 151.010603 -55.695552 
L 148.985865 -55.676422 
L 146.961126 -55.646764 
L 144.936387 -55.569615 
L 142.911648 -55.435388 
L 140.88691 -55.268107 
L 138.862171 -55.108215 
L 136.837432 -54.986343 
L 134.812694 -54.90415 
L 132.787955 -54.839596 
L 130.763216 -54.777145 
L 128.738477 -54.722716 
L 126.713739 -54.677195 
L 124.689 -54.6186 
L 122.664261 -54.532922 
L 120.639523 -54.439578 
L 118.614784 -54.36702 
L 116.590045 -54.322338 
L 114.565306 -54.29537 
L 112.540568 -54.278232 
L 110.515829 -54.272183 
L 108.49109 -54.277736 
L 106.466352 -54.283663 
L 104.441613 -54.273348 
L 102.416874 -54.242653 
L 100.392135 -54.204908 
L 98.367397 -54.178841 
L 96.342658 -54.176051 
L 94.317919 -54.195092 
L 92.293181 -54.222177 
L 90.268442 -54.240987 
L 88.243703 -54.243749 
L 86.218964 -54.231722 
L 84.194226 -54.209103 
L 82.169487 -54.180296 
L 80.144748 -54.150189 
L 78.12001 -54.123953 
L 76.095271 -54.105509 
L 74.070532 -54.09565 
L 72.045793 -54.092602 
L 70.021055 -54.094896 
L 67.996316 -54.102605 
L 65.971577 -54.114679 
L 63.946838 -54.125672 
L 61.9221 -54.1282 
L 59.897361 -54.120328 
L 57.872622 -54.107788 
L 55.847884 -54.097587 
L 53.823145 -54.092177 
L 51.798406 -54.090178 
L 49.773667 -54.089649 
L 47.748929 -54.089547 
L 45.72419 -54.089533 
L 43.699451 -54.089531 
L 41.674713 -54.089531 
L 39.649974 -54.089531 
L 37.625235 -54.089531 
L 35.600496 -54.089531 
L 33.575758 -54.089531 
L 31.551019 -54.089531 
L 29.52628 -54.089531 
L 27.501542 -54.089531 
L 25.476803 -54.089531 
L 23.452064 -54.089531 
L 21.427325 -54.089531 
L 19.402587 -54.089531 
L 17.377848 -54.089531 
L 15.353109 -54.089531 
L 13.328371 -54.089531 
L 11.303632 -54.089531 
L 9.278893 -54.089531 
L 7.254154 -54.089531 
L 5.229416 -54.089531 
L 3.204677 -54.089531 
L 1.179938 -54.089531 
L -0.8448 -54.089531 
L -2.869539 -54.089531 
L -4.894278 -54.089531 
L -6.919017 -54.089531 
L -8.943755 -54.089531 
L -10.968494 -54.089531 
L -12.993233 -54.089531 
L -15.017971 -54.089531 
L -17.04271 -54.089531 
L -19.067449 -54.089531 
L -21.092188 -54.089531 
L -23.116926 -54.089531 
L -25.141665 -54.089531 
L -27.166404 -54.089531 
L -29.191142 -54.089531 
L -31.215881 -54.089531 
L -33.24062 -54.089531 
L -35.265359 -54.089531 
L -37.290097 -54.089531 
L -39.314836 -54.089531 
L -41.339575 -54.089532 
L -43.364313 -54.089534 
L -45.389052 -54.089559 
L -47.413791 -54.089724 
L -49.43853 -54.090507 
L -51.463268 -54.093215 
L -53.488007 -54.099884 
L -55.512746 -54.111189 
L -57.537484 -54.123256 
L -59.562223 -54.128621 
z
" style="stroke: #8c2981; stroke-width: 3"/>
    </defs>
    <g clip-path="url(#p7ce672a585)">
     <use xlink:href="#m24ae037748" x="0" y="338.489531" style="fill: #8c2981; fill-opacity: 0.2; stroke: #8c2981; stroke-width: 3"/>
    </g>
   </g>
   <g id="PolyCollection_2">
    <defs>
     <path id="mc1794bebb2" d="M 47.922806 -54.132342 
L 47.922806 -54.089531 
L 49.23207 -54.089531 
L 50.541333 -54.089531 
L 51.850596 -54.089531 
L 53.15986 -54.089531 
L 54.469123 -54.089531 
L 55.778386 -54.089531 
L 57.08765 -54.089531 
L 58.396913 -54.089531 
L 59.706176 -54.089531 
L 61.01544 -54.089531 
L 62.324703 -54.089531 
L 63.633966 -54.089531 
L 64.94323 -54.089531 
L 66.252493 -54.089531 
L 67.561756 -54.089531 
L 68.87102 -54.089531 
L 70.180283 -54.089531 
L 71.489546 -54.089531 
L 72.79881 -54.089531 
L 74.108073 -54.089531 
L 75.417336 -54.089531 
L 76.7266 -54.089531 
L 78.035863 -54.089531 
L 79.345126 -54.089531 
L 80.65439 -54.089531 
L 81.963653 -54.089531 
L 83.272916 -54.089531 
L 84.58218 -54.089531 
L 85.891443 -54.089531 
L 87.200706 -54.089531 
L 88.50997 -54.089531 
L 89.819233 -54.089531 
L 91.128496 -54.089531 
L 92.43776 -54.089531 
L 93.747023 -54.089531 
L 95.056286 -54.089531 
L 96.36555 -54.089531 
L 97.674813 -54.089531 
L 98.984076 -54.089531 
L 100.29334 -54.089531 
L 101.602603 -54.089531 
L 102.911866 -54.089531 
L 104.221129 -54.089531 
L 105.530393 -54.089531 
L 106.839656 -54.089531 
L 108.148919 -54.089531 
L 109.458183 -54.089531 
L 110.767446 -54.089531 
L 112.076709 -54.089531 
L 113.385973 -54.089531 
L 114.695236 -54.089531 
L 116.004499 -54.089531 
L 117.313763 -54.089531 
L 118.623026 -54.089531 
L 119.932289 -54.089531 
L 121.241553 -54.089531 
L 122.550816 -54.089531 
L 123.860079 -54.089531 
L 125.169343 -54.089531 
L 126.478606 -54.089531 
L 127.787869 -54.089531 
L 129.097133 -54.089531 
L 130.406396 -54.089531 
L 131.715659 -54.089531 
L 133.024923 -54.089531 
L 134.334186 -54.089531 
L 135.643449 -54.089531 
L 136.952713 -54.089531 
L 138.261976 -54.089531 
L 139.571239 -54.089531 
L 140.880503 -54.089531 
L 142.189766 -54.089531 
L 143.499029 -54.089531 
L 144.808293 -54.089531 
L 146.117556 -54.089531 
L 147.426819 -54.089531 
L 148.736083 -54.089531 
L 150.045346 -54.089531 
L 151.354609 -54.089531 
L 152.663873 -54.089531 
L 153.973136 -54.089531 
L 155.282399 -54.089531 
L 156.591663 -54.089531 
L 157.900926 -54.089531 
L 159.210189 -54.089531 
L 160.519453 -54.089531 
L 161.828716 -54.089531 
L 163.137979 -54.089531 
L 164.447243 -54.089531 
L 165.756506 -54.089531 
L 167.065769 -54.089531 
L 168.375033 -54.089531 
L 169.684296 -54.089531 
L 170.993559 -54.089531 
L 172.302823 -54.089531 
L 173.612086 -54.089531 
L 174.921349 -54.089531 
L 176.230613 -54.089531 
L 177.539876 -54.089531 
L 178.849139 -54.089531 
L 180.158403 -54.089531 
L 181.467666 -54.089531 
L 182.776929 -54.089531 
L 184.086193 -54.089531 
L 185.395456 -54.089531 
L 186.704719 -54.089531 
L 188.013983 -54.089531 
L 189.323246 -54.089531 
L 190.632509 -54.089531 
L 191.941773 -54.089531 
L 193.251036 -54.089531 
L 194.560299 -54.089531 
L 195.869562 -54.089531 
L 197.178826 -54.089531 
L 198.488089 -54.089531 
L 199.797352 -54.089531 
L 201.106616 -54.089531 
L 202.415879 -54.089531 
L 203.725142 -54.089531 
L 205.034406 -54.089531 
L 206.343669 -54.089531 
L 207.652932 -54.089531 
L 208.962196 -54.089531 
L 210.271459 -54.089531 
L 211.580722 -54.089531 
L 212.889986 -54.089531 
L 214.199249 -54.089531 
L 215.508512 -54.089531 
L 216.817776 -54.089531 
L 218.127039 -54.089531 
L 219.436302 -54.089531 
L 220.745566 -54.089531 
L 222.054829 -54.089531 
L 223.364092 -54.089531 
L 224.673356 -54.089531 
L 225.982619 -54.089531 
L 227.291882 -54.089531 
L 228.601146 -54.089531 
L 229.910409 -54.089531 
L 231.219672 -54.089531 
L 232.528936 -54.089531 
L 233.838199 -54.089531 
L 235.147462 -54.089531 
L 236.456726 -54.089531 
L 237.765989 -54.089531 
L 239.075252 -54.089531 
L 240.384516 -54.089531 
L 241.693779 -54.089531 
L 243.003042 -54.089531 
L 244.312306 -54.089531 
L 245.621569 -54.089531 
L 246.930832 -54.089531 
L 248.240096 -54.089531 
L 249.549359 -54.089531 
L 250.858622 -54.089531 
L 252.167886 -54.089531 
L 253.477149 -54.089531 
L 254.786412 -54.089531 
L 256.095676 -54.089531 
L 257.404939 -54.089531 
L 258.714202 -54.089531 
L 260.023466 -54.089531 
L 261.332729 -54.089531 
L 262.641992 -54.089531 
L 263.951256 -54.089531 
L 265.260519 -54.089531 
L 266.569782 -54.089531 
L 267.879046 -54.089531 
L 269.188309 -54.089531 
L 270.497572 -54.089531 
L 271.806836 -54.089531 
L 273.116099 -54.089531 
L 274.425362 -54.089531 
L 275.734626 -54.089531 
L 277.043889 -54.089531 
L 278.353152 -54.089531 
L 279.662416 -54.089531 
L 280.971679 -54.089531 
L 282.280942 -54.089531 
L 283.590206 -54.089531 
L 284.899469 -54.089531 
L 286.208732 -54.089531 
L 287.517995 -54.089531 
L 288.827259 -54.089531 
L 290.136522 -54.089531 
L 291.445785 -54.089531 
L 292.755049 -54.089531 
L 294.064312 -54.089531 
L 295.373575 -54.089531 
L 296.682839 -54.089531 
L 297.992102 -54.089531 
L 299.301365 -54.089531 
L 300.610629 -54.089531 
L 301.919892 -54.089531 
L 303.229155 -54.089531 
L 304.538419 -54.089531 
L 305.847682 -54.089531 
L 307.156945 -54.089531 
L 308.466209 -54.089531 
L 308.466209 -54.15639 
L 308.466209 -54.15639 
L 307.156945 -54.174824 
L 305.847682 -54.196938 
L 304.538419 -54.22158 
L 303.229155 -54.243907 
L 301.919892 -54.257136 
L 300.610629 -54.256883 
L 299.301365 -54.244873 
L 297.992102 -54.228995 
L 296.682839 -54.219639 
L 295.373575 -54.225113 
L 294.064312 -54.249109 
L 292.755049 -54.290933 
L 291.445785 -54.346874 
L 290.136522 -54.411192 
L 288.827259 -54.477178 
L 287.517995 -54.539715 
L 286.208732 -54.59879 
L 284.899469 -54.660518 
L 283.590206 -54.732626 
L 282.280942 -54.816403 
L 280.971679 -54.90252 
L 279.662416 -54.977052 
L 278.353152 -55.035334 
L 277.043889 -55.09259 
L 275.734626 -55.181258 
L 274.425362 -55.335733 
L 273.116099 -55.575136 
L 271.806836 -55.894593 
L 270.497572 -56.267619 
L 269.188309 -56.655734 
L 267.879046 -57.020836 
L 266.569782 -57.337728 
L 265.260519 -57.604085 
L 263.951256 -57.843043 
L 262.641992 -58.094293 
L 261.332729 -58.396071 
L 260.023466 -58.768421 
L 258.714202 -59.208723 
L 257.404939 -59.700712 
L 256.095676 -60.226665 
L 254.786412 -60.771123 
L 253.477149 -61.314793 
L 252.167886 -61.828804 
L 250.858622 -62.279697 
L 249.549359 -62.6437 
L 248.240096 -62.917153 
L 246.930832 -63.112471 
L 245.621569 -63.244743 
L 244.312306 -63.325256 
L 243.003042 -63.369307 
L 241.693779 -63.405107 
L 240.384516 -63.464894 
L 239.075252 -63.559703 
L 237.765989 -63.663858 
L 236.456726 -63.732438 
L 235.147462 -63.742154 
L 233.838199 -63.717826 
L 232.528936 -63.717327 
L 231.219672 -63.788309 
L 229.910409 -63.935589 
L 228.601146 -64.123601 
L 227.291882 -64.305327 
L 225.982619 -64.451875 
L 224.673356 -64.563124 
L 223.364092 -64.657442 
L 222.054829 -64.755007 
L 220.745566 -64.874078 
L 219.436302 -65.045422 
L 218.127039 -65.327696 
L 216.817776 -65.801088 
L 215.508512 -66.538422 
L 214.199249 -67.579245 
L 212.889986 -68.931327 
L 211.580722 -70.595669 
L 210.271459 -72.590362 
L 208.962196 -74.958376 
L 207.652932 -77.764603 
L 206.343669 -81.088482 
L 205.034406 -85.006357 
L 203.725142 -89.560997 
L 202.415879 -94.736476 
L 201.106616 -100.465251 
L 199.797352 -106.671256 
L 198.488089 -113.316039 
L 197.178826 -120.401664 
L 195.869562 -127.913448 
L 194.560299 -135.739041 
L 193.251036 -143.631582 
L 191.941773 -151.260115 
L 190.632509 -158.326014 
L 189.323246 -164.674175 
L 188.013983 -170.331327 
L 186.704719 -175.450169 
L 185.395456 -180.188772 
L 184.086193 -184.583324 
L 182.776929 -188.473212 
L 181.467666 -191.513836 
L 180.158403 -193.273913 
L 178.849139 -193.379005 
L 177.539876 -191.647109 
L 176.230613 -188.162145 
L 174.921349 -183.241758 
L 173.612086 -177.294888 
L 172.302823 -170.639775 
L 170.993559 -163.406227 
L 169.684296 -155.595901 
L 168.375033 -147.241424 
L 167.065769 -138.522211 
L 165.756506 -129.751069 
L 164.447243 -121.271502 
L 163.137979 -113.363156 
L 161.828716 -106.204533 
L 160.519453 -99.874099 
L 159.210189 -94.362033 
L 157.900926 -89.593649 
L 156.591663 -85.469304 
L 155.282399 -81.901559 
L 153.973136 -78.825921 
L 152.663873 -76.189045 
L 151.354609 -73.937578 
L 150.045346 -72.017386 
L 148.736083 -70.372821 
L 147.426819 -68.939064 
L 146.117556 -67.637646 
L 144.808293 -66.388667 
L 143.499029 -65.1382 
L 142.189766 -63.883464 
L 140.880503 -62.675939 
L 139.571239 -61.594685 
L 138.261976 -60.702298 
L 136.952713 -60.010945 
L 135.643449 -59.481358 
L 134.334186 -59.052651 
L 133.024923 -58.676996 
L 131.715659 -58.333729 
L 130.406396 -58.020126 
L 129.097133 -57.735426 
L 127.787869 -57.473083 
L 126.478606 -57.222275 
L 125.169343 -56.972278 
L 123.860079 -56.716411 
L 122.550816 -56.45564 
L 121.241553 -56.199945 
L 119.932289 -55.964409 
L 118.623026 -55.761428 
L 117.313763 -55.595012 
L 116.004499 -55.461157 
L 114.695236 -55.352443 
L 113.385973 -55.262243 
L 112.076709 -55.185918 
L 110.767446 -55.119546 
L 109.458183 -55.058506 
L 108.148919 -54.997911 
L 106.839656 -54.934679 
L 105.530393 -54.869038 
L 104.221129 -54.803801 
L 102.911866 -54.742326 
L 101.602603 -54.687148 
L 100.29334 -54.639685 
L 98.984076 -54.599985 
L 97.674813 -54.566099 
L 96.36555 -54.53414 
L 95.056286 -54.500054 
L 93.747023 -54.462339 
L 92.43776 -54.423536 
L 91.128496 -54.388986 
L 89.819233 -54.363517 
L 88.50997 -54.348318 
L 87.200706 -54.339994 
L 85.891443 -54.332285 
L 84.58218 -54.319389 
L 83.272916 -54.299024 
L 81.963653 -54.273494 
L 80.65439 -54.248243 
L 79.345126 -54.228848 
L 78.035863 -54.218208 
L 76.7266 -54.215291 
L 75.417336 -54.21585 
L 74.108073 -54.214593 
L 72.79881 -54.207629 
L 71.489546 -54.193913 
L 70.180283 -54.175215 
L 68.87102 -54.155087 
L 67.561756 -54.137573 
L 66.252493 -54.125973 
L 64.94323 -54.12175 
L 63.633966 -54.123843 
L 62.324703 -54.128901 
L 61.01544 -54.13267 
L 59.706176 -54.13202 
L 58.396913 -54.12646 
L 57.08765 -54.118147 
L 55.778386 -54.110533 
L 54.469123 -54.106651 
L 53.15986 -54.107977 
L 51.850596 -54.114005 
L 50.541333 -54.122367 
L 49.23207 -54.129556 
L 47.922806 -54.132342 
z
" style="stroke: #de4968; stroke-width: 3"/>
    </defs>
    <g clip-path="url(#p7ce672a585)">
     <use xlink:href="#mc1794bebb2" x="0" y="338.489531" style="fill: #de4968; fill-opacity: 0.2; stroke: #de4968; stroke-width: 3"/>
    </g>
   </g>
   <g id="PolyCollection_3">
    <defs>
     <path id="m9d77d3f18c" d="M 35.487959 -54.151743 
L 35.487959 -54.089531 
L 36.955851 -54.089531 
L 38.423743 -54.089531 
L 39.891635 -54.089531 
L 41.359527 -54.089531 
L 42.827419 -54.089531 
L 44.295311 -54.089531 
L 45.763203 -54.089531 
L 47.231094 -54.089531 
L 48.698986 -54.089531 
L 50.166878 -54.089531 
L 51.63477 -54.089531 
L 53.102662 -54.089531 
L 54.570554 -54.089531 
L 56.038446 -54.089531 
L 57.506338 -54.089531 
L 58.97423 -54.089531 
L 60.442122 -54.089531 
L 61.910013 -54.089531 
L 63.377905 -54.089531 
L 64.845797 -54.089531 
L 66.313689 -54.089531 
L 67.781581 -54.089531 
L 69.249473 -54.089531 
L 70.717365 -54.089531 
L 72.185257 -54.089531 
L 73.653149 -54.089531 
L 75.121041 -54.089531 
L 76.588933 -54.089531 
L 78.056824 -54.089531 
L 79.524716 -54.089531 
L 80.992608 -54.089531 
L 82.4605 -54.089531 
L 83.928392 -54.089531 
L 85.396284 -54.089531 
L 86.864176 -54.089531 
L 88.332068 -54.089531 
L 89.79996 -54.089531 
L 91.267852 -54.089531 
L 92.735743 -54.089531 
L 94.203635 -54.089531 
L 95.671527 -54.089531 
L 97.139419 -54.089531 
L 98.607311 -54.089531 
L 100.075203 -54.089531 
L 101.543095 -54.089531 
L 103.010987 -54.089531 
L 104.478879 -54.089531 
L 105.946771 -54.089531 
L 107.414663 -54.089531 
L 108.882554 -54.089531 
L 110.350446 -54.089531 
L 111.818338 -54.089531 
L 113.28623 -54.089531 
L 114.754122 -54.089531 
L 116.222014 -54.089531 
L 117.689906 -54.089531 
L 119.157798 -54.089531 
L 120.62569 -54.089531 
L 122.093582 -54.089531 
L 123.561473 -54.089531 
L 125.029365 -54.089531 
L 126.497257 -54.089531 
L 127.965149 -54.089531 
L 129.433041 -54.089531 
L 130.900933 -54.089531 
L 132.368825 -54.089531 
L 133.836717 -54.089531 
L 135.304609 -54.089531 
L 136.772501 -54.089531 
L 138.240393 -54.089531 
L 139.708284 -54.089531 
L 141.176176 -54.089531 
L 142.644068 -54.089531 
L 144.11196 -54.089531 
L 145.579852 -54.089531 
L 147.047744 -54.089531 
L 148.515636 -54.089531 
L 149.983528 -54.089531 
L 151.45142 -54.089531 
L 152.919312 -54.089531 
L 154.387203 -54.089531 
L 155.855095 -54.089531 
L 157.322987 -54.089531 
L 158.790879 -54.089531 
L 160.258771 -54.089531 
L 161.726663 -54.089531 
L 163.194555 -54.089531 
L 164.662447 -54.089531 
L 166.130339 -54.089531 
L 167.598231 -54.089531 
L 169.066123 -54.089531 
L 170.534014 -54.089531 
L 172.001906 -54.089531 
L 173.469798 -54.089531 
L 174.93769 -54.089531 
L 176.405582 -54.089531 
L 177.873474 -54.089531 
L 179.341366 -54.089531 
L 180.809258 -54.089531 
L 182.27715 -54.089531 
L 183.745042 -54.089531 
L 185.212933 -54.089531 
L 186.680825 -54.089531 
L 188.148717 -54.089531 
L 189.616609 -54.089531 
L 191.084501 -54.089531 
L 192.552393 -54.089531 
L 194.020285 -54.089531 
L 195.488177 -54.089531 
L 196.956069 -54.089531 
L 198.423961 -54.089531 
L 199.891853 -54.089531 
L 201.359744 -54.089531 
L 202.827636 -54.089531 
L 204.295528 -54.089531 
L 205.76342 -54.089531 
L 207.231312 -54.089531 
L 208.699204 -54.089531 
L 210.167096 -54.089531 
L 211.634988 -54.089531 
L 213.10288 -54.089531 
L 214.570772 -54.089531 
L 216.038663 -54.089531 
L 217.506555 -54.089531 
L 218.974447 -54.089531 
L 220.442339 -54.089531 
L 221.910231 -54.089531 
L 223.378123 -54.089531 
L 224.846015 -54.089531 
L 226.313907 -54.089531 
L 227.781799 -54.089531 
L 229.249691 -54.089531 
L 230.717583 -54.089531 
L 232.185474 -54.089531 
L 233.653366 -54.089531 
L 235.121258 -54.089531 
L 236.58915 -54.089531 
L 238.057042 -54.089531 
L 239.524934 -54.089531 
L 240.992826 -54.089531 
L 242.460718 -54.089531 
L 243.92861 -54.089531 
L 245.396502 -54.089531 
L 246.864393 -54.089531 
L 248.332285 -54.089531 
L 249.800177 -54.089531 
L 251.268069 -54.089531 
L 252.735961 -54.089531 
L 254.203853 -54.089531 
L 255.671745 -54.089531 
L 257.139637 -54.089531 
L 258.607529 -54.089531 
L 260.075421 -54.089531 
L 261.543313 -54.089531 
L 263.011204 -54.089531 
L 264.479096 -54.089531 
L 265.946988 -54.089531 
L 267.41488 -54.089531 
L 268.882772 -54.089531 
L 270.350664 -54.089531 
L 271.818556 -54.089531 
L 273.286448 -54.089531 
L 274.75434 -54.089531 
L 276.222232 -54.089531 
L 277.690123 -54.089531 
L 279.158015 -54.089531 
L 280.625907 -54.089531 
L 282.093799 -54.089531 
L 283.561691 -54.089531 
L 285.029583 -54.089531 
L 286.497475 -54.089531 
L 287.965367 -54.089531 
L 289.433259 -54.089531 
L 290.901151 -54.089531 
L 292.369043 -54.089531 
L 293.836934 -54.089531 
L 295.304826 -54.089531 
L 296.772718 -54.089531 
L 298.24061 -54.089531 
L 299.708502 -54.089531 
L 301.176394 -54.089531 
L 302.644286 -54.089531 
L 304.112178 -54.089531 
L 305.58007 -54.089531 
L 307.047962 -54.089531 
L 308.515853 -54.089531 
L 309.983745 -54.089531 
L 311.451637 -54.089531 
L 312.919529 -54.089531 
L 314.387421 -54.089531 
L 315.855313 -54.089531 
L 317.323205 -54.089531 
L 318.791097 -54.089531 
L 320.258989 -54.089531 
L 321.726881 -54.089531 
L 323.194773 -54.089531 
L 324.662664 -54.089531 
L 326.130556 -54.089531 
L 327.598448 -54.089531 
L 327.598448 -54.220136 
L 327.598448 -54.220136 
L 326.130556 -54.255392 
L 324.662664 -54.294827 
L 323.194773 -54.340329 
L 321.726881 -54.394526 
L 320.258989 -54.459929 
L 318.791097 -54.538206 
L 317.323205 -54.629916 
L 315.855313 -54.734637 
L 314.387421 -54.851227 
L 312.919529 -54.978026 
L 311.451637 -55.113059 
L 309.983745 -55.254364 
L 308.515853 -55.400441 
L 307.047962 -55.550677 
L 305.58007 -55.705619 
L 304.112178 -55.867127 
L 302.644286 -56.038532 
L 301.176394 -56.225044 
L 299.708502 -56.434587 
L 298.24061 -56.679011 
L 296.772718 -56.975089 
L 295.304826 -57.344412 
L 293.836934 -57.811734 
L 292.369043 -58.402482 
L 290.901151 -59.141002 
L 289.433259 -60.050798 
L 287.965367 -61.156584 
L 286.497475 -62.486638 
L 285.029583 -64.0739 
L 283.561691 -65.955266 
L 282.093799 -68.169577 
L 280.625907 -70.754914 
L 279.158015 -73.745189 
L 277.690123 -77.1655 
L 276.222232 -81.025785 
L 274.75434 -85.312929 
L 273.286448 -89.982315 
L 271.818556 -94.950861 
L 270.350664 -100.094432 
L 268.882772 -105.252649 
L 267.41488 -110.242735 
L 265.946988 -114.880992 
L 264.479096 -119.006665 
L 263.011204 -122.500246 
L 261.543313 -125.289458 
L 260.075421 -127.341767 
L 258.607529 -128.64962 
L 257.139637 -129.218254 
L 255.671745 -129.062903 
L 254.203853 -128.214994 
L 252.735961 -126.731014 
L 251.268069 -124.696975 
L 249.800177 -122.224628 
L 248.332285 -119.439519 
L 246.864393 -116.463693 
L 245.396502 -113.397727 
L 243.92861 -110.308117 
L 242.460718 -107.225657 
L 240.992826 -104.156875 
L 239.524934 -101.104703 
L 238.057042 -98.089738 
L 236.58915 -95.162657 
L 235.121258 -92.402347 
L 233.653366 -89.900838 
L 232.185474 -87.742097 
L 230.717583 -85.984375 
L 229.249691 -84.653898 
L 227.781799 -83.752045 
L 226.313907 -83.271452 
L 224.846015 -83.212397 
L 223.378123 -83.591385 
L 221.910231 -84.438409 
L 220.442339 -85.78485 
L 218.974447 -87.647646 
L 217.506555 -90.016002 
L 216.038663 -92.845276 
L 214.570772 -96.059671 
L 213.10288 -99.56211 
L 211.634988 -103.247074 
L 210.167096 -107.011065 
L 208.699204 -110.755888 
L 207.231312 -114.382138 
L 205.76342 -117.774435 
L 204.295528 -120.785799 
L 202.827636 -123.233294 
L 201.359744 -124.915471 
L 199.891853 -125.651841 
L 198.423961 -125.330056 
L 196.956069 -123.938124 
L 195.488177 -121.564525 
L 194.020285 -118.366213 
L 192.552393 -114.522161 
L 191.084501 -110.196266 
L 189.616609 -105.524862 
L 188.148717 -100.62741 
L 186.680825 -95.62585 
L 185.212933 -90.656115 
L 183.745042 -85.86365 
L 182.27715 -81.386118 
L 180.809258 -77.333143 
L 179.341366 -73.772453 
L 177.873474 -70.726608 
L 176.405582 -68.179167 
L 174.93769 -66.086284 
L 173.469798 -64.38947 
L 172.001906 -63.026429 
L 170.534014 -61.938238 
L 169.066123 -61.072425 
L 167.598231 -60.382652 
L 166.130339 -59.826827 
L 164.662447 -59.365916 
L 163.194555 -58.965088 
L 161.726663 -58.597002 
L 160.258771 -58.245263 
L 158.790879 -57.90546 
L 157.322987 -57.582378 
L 155.855095 -57.284223 
L 154.387203 -57.016551 
L 152.919312 -56.778803 
L 151.45142 -56.564843 
L 149.983528 -56.36661 
L 148.515636 -56.178406 
L 147.047744 -55.999334 
L 145.579852 -55.832764 
L 144.11196 -55.683487 
L 142.644068 -55.554428 
L 141.176176 -55.444764 
L 139.708284 -55.35035 
L 138.240393 -55.265896 
L 136.772501 -55.187399 
L 135.304609 -55.113365 
L 133.836717 -55.044331 
L 132.368825 -54.981357 
L 130.900933 -54.924671 
L 129.433041 -54.873228 
L 127.965149 -54.825148 
L 126.497257 -54.778432 
L 125.029365 -54.731485 
L 123.561473 -54.683298 
L 122.093582 -54.633438 
L 120.62569 -54.582049 
L 119.157798 -54.529929 
L 117.689906 -54.478599 
L 116.222014 -54.430173 
L 114.754122 -54.386815 
L 113.28623 -54.349874 
L 111.818338 -54.319154 
L 110.350446 -54.292902 
L 108.882554 -54.268738 
L 107.414663 -54.245034 
L 105.946771 -54.221868 
L 104.478879 -54.200903 
L 103.010987 -54.184308 
L 101.543095 -54.173454 
L 100.075203 -54.168171 
L 98.607311 -54.166842 
L 97.139419 -54.167092 
L 95.671527 -54.166597 
L 94.203635 -54.163691 
L 92.735743 -54.157674 
L 91.267852 -54.148867 
L 89.79996 -54.13845 
L 88.332068 -54.128114 
L 86.864176 -54.119581 
L 85.396284 -54.114125 
L 83.928392 -54.112208 
L 82.4605 -54.113352 
L 80.992608 -54.116281 
L 79.524716 -54.119341 
L 78.056824 -54.121074 
L 76.588933 -54.120759 
L 75.121041 -54.118694 
L 73.653149 -54.116071 
L 72.185257 -54.114494 
L 70.717365 -54.115337 
L 69.249473 -54.119203 
L 67.781581 -54.125666 
L 66.313689 -54.133366 
L 64.845797 -54.140415 
L 63.377905 -54.144979 
L 61.910013 -54.145864 
L 60.442122 -54.142901 
L 58.97423 -54.137008 
L 57.506338 -54.129889 
L 56.038446 -54.123471 
L 54.570554 -54.119258 
L 53.102662 -54.117846 
L 51.63477 -54.118778 
L 50.166878 -54.120833 
L 48.698986 -54.122647 
L 47.231094 -54.12341 
L 45.763203 -54.123309 
L 44.295311 -54.123459 
L 42.827419 -54.125317 
L 41.359527 -54.12982 
L 39.891635 -54.136679 
L 38.423743 -54.144239 
L 36.955851 -54.15002 
L 35.487959 -54.151743 
z
" style="stroke: #22587a; stroke-width: 3"/>
    </defs>
    <g clip-path="url(#p7ce672a585)">
     <use xlink:href="#m9d77d3f18c" x="0" y="338.489531" style="fill: #22587a; fill-opacity: 0.2; stroke: #22587a; stroke-width: 3"/>
    </g>
   </g>
   <g id="PolyCollection_4">
    <defs>
     <path id="mf379667ba9" d="M -59.562223 -54.356219 
L -59.562223 -54.089531 
L -57.737451 -54.089531 
L -55.912678 -54.089531 
L -54.087906 -54.089531 
L -52.263134 -54.089531 
L -50.438361 -54.089531 
L -48.613589 -54.089531 
L -46.788816 -54.089531 
L -44.964044 -54.089531 
L -43.139272 -54.089531 
L -41.314499 -54.089531 
L -39.489727 -54.089531 
L -37.664954 -54.089531 
L -35.840182 -54.089531 
L -34.01541 -54.089531 
L -32.190637 -54.089531 
L -30.365865 -54.089531 
L -28.541092 -54.089531 
L -26.71632 -54.089531 
L -24.891548 -54.089531 
L -23.066775 -54.089531 
L -21.242003 -54.089531 
L -19.41723 -54.089531 
L -17.592458 -54.089531 
L -15.767686 -54.089531 
L -13.942913 -54.089531 
L -12.118141 -54.089531 
L -10.293368 -54.089531 
L -8.468596 -54.089531 
L -6.643824 -54.089531 
L -4.819051 -54.089531 
L -2.994279 -54.089531 
L -1.169506 -54.089531 
L 0.655266 -54.089531 
L 2.480038 -54.089531 
L 4.304811 -54.089531 
L 6.129583 -54.089531 
L 7.954356 -54.089531 
L 9.779128 -54.089531 
L 11.6039 -54.089531 
L 13.428673 -54.089531 
L 15.253445 -54.089531 
L 17.078218 -54.089531 
L 18.90299 -54.089531 
L 20.727762 -54.089531 
L 22.552535 -54.089531 
L 24.377307 -54.089531 
L 26.20208 -54.089531 
L 28.026852 -54.089531 
L 29.851624 -54.089531 
L 31.676397 -54.089531 
L 33.501169 -54.089531 
L 35.325942 -54.089531 
L 37.150714 -54.089531 
L 38.975486 -54.089531 
L 40.800259 -54.089531 
L 42.625031 -54.089531 
L 44.449804 -54.089531 
L 46.274576 -54.089531 
L 48.099348 -54.089531 
L 49.924121 -54.089531 
L 51.748893 -54.089531 
L 53.573666 -54.089531 
L 55.398438 -54.089531 
L 57.22321 -54.089531 
L 59.047983 -54.089531 
L 60.872755 -54.089531 
L 62.697528 -54.089531 
L 64.5223 -54.089531 
L 66.347072 -54.089531 
L 68.171845 -54.089531 
L 69.996617 -54.089531 
L 71.82139 -54.089531 
L 73.646162 -54.089531 
L 75.470934 -54.089531 
L 77.295707 -54.089531 
L 79.120479 -54.089531 
L 80.945252 -54.089531 
L 82.770024 -54.089531 
L 84.594796 -54.089531 
L 86.419569 -54.089531 
L 88.244341 -54.089531 
L 90.069114 -54.089531 
L 91.893886 -54.089531 
L 93.718658 -54.089531 
L 95.543431 -54.089531 
L 97.368203 -54.089531 
L 99.192976 -54.089531 
L 101.017748 -54.089531 
L 102.84252 -54.089531 
L 104.667293 -54.089531 
L 106.492065 -54.089531 
L 108.316838 -54.089531 
L 110.14161 -54.089531 
L 111.966382 -54.089531 
L 113.791155 -54.089531 
L 115.615927 -54.089531 
L 117.4407 -54.089531 
L 119.265472 -54.089531 
L 121.090244 -54.089531 
L 122.915017 -54.089531 
L 124.739789 -54.089531 
L 126.564562 -54.089531 
L 128.389334 -54.089531 
L 130.214106 -54.089531 
L 132.038879 -54.089531 
L 133.863651 -54.089531 
L 135.688423 -54.089531 
L 137.513196 -54.089531 
L 139.337968 -54.089531 
L 141.162741 -54.089531 
L 142.987513 -54.089531 
L 144.812285 -54.089531 
L 146.637058 -54.089531 
L 148.46183 -54.089531 
L 150.286603 -54.089531 
L 152.111375 -54.089531 
L 153.936147 -54.089531 
L 155.76092 -54.089531 
L 157.585692 -54.089531 
L 159.410465 -54.089531 
L 161.235237 -54.089531 
L 163.060009 -54.089531 
L 164.884782 -54.089531 
L 166.709554 -54.089531 
L 168.534327 -54.089531 
L 170.359099 -54.089531 
L 172.183871 -54.089531 
L 174.008644 -54.089531 
L 175.833416 -54.089531 
L 177.658189 -54.089531 
L 179.482961 -54.089531 
L 181.307733 -54.089531 
L 183.132506 -54.089531 
L 184.957278 -54.089531 
L 186.782051 -54.089531 
L 188.606823 -54.089531 
L 190.431595 -54.089531 
L 192.256368 -54.089531 
L 194.08114 -54.089531 
L 195.905913 -54.089531 
L 197.730685 -54.089531 
L 199.555457 -54.089531 
L 201.38023 -54.089531 
L 203.205002 -54.089531 
L 205.029775 -54.089531 
L 206.854547 -54.089531 
L 208.679319 -54.089531 
L 210.504092 -54.089531 
L 212.328864 -54.089531 
L 214.153637 -54.089531 
L 215.978409 -54.089531 
L 217.803181 -54.089531 
L 219.627954 -54.089531 
L 221.452726 -54.089531 
L 223.277499 -54.089531 
L 225.102271 -54.089531 
L 226.927043 -54.089531 
L 228.751816 -54.089531 
L 230.576588 -54.089531 
L 232.401361 -54.089531 
L 234.226133 -54.089531 
L 236.050905 -54.089531 
L 237.875678 -54.089531 
L 239.70045 -54.089531 
L 241.525223 -54.089531 
L 243.349995 -54.089531 
L 245.174767 -54.089531 
L 246.99954 -54.089531 
L 248.824312 -54.089531 
L 250.649085 -54.089531 
L 252.473857 -54.089531 
L 254.298629 -54.089531 
L 256.123402 -54.089531 
L 257.948174 -54.089531 
L 259.772947 -54.089531 
L 261.597719 -54.089531 
L 263.422491 -54.089531 
L 265.247264 -54.089531 
L 267.072036 -54.089531 
L 268.896809 -54.089531 
L 270.721581 -54.089531 
L 272.546353 -54.089531 
L 274.371126 -54.089531 
L 276.195898 -54.089531 
L 278.020671 -54.089531 
L 279.845443 -54.089531 
L 281.670215 -54.089531 
L 283.494988 -54.089531 
L 285.31976 -54.089531 
L 287.144533 -54.089531 
L 288.969305 -54.089531 
L 290.794077 -54.089531 
L 292.61885 -54.089531 
L 294.443622 -54.089531 
L 296.268395 -54.089531 
L 298.093167 -54.089531 
L 299.917939 -54.089531 
L 301.742712 -54.089531 
L 303.567484 -54.089531 
L 303.567484 -54.224156 
L 303.567484 -54.224156 
L 301.742712 -54.211696 
L 299.917939 -54.180483 
L 298.093167 -54.162549 
L 296.268395 -54.161377 
L 294.443622 -54.156433 
L 292.61885 -54.137351 
L 290.794077 -54.114109 
L 288.969305 -54.09848 
L 287.144533 -54.091832 
L 285.31976 -54.089949 
L 283.494988 -54.089585 
L 281.670215 -54.089536 
L 279.845443 -54.089532 
L 278.020671 -54.089531 
L 276.195898 -54.089531 
L 274.371126 -54.089531 
L 272.546353 -54.089531 
L 270.721581 -54.089531 
L 268.896809 -54.089531 
L 267.072036 -54.089531 
L 265.247264 -54.089531 
L 263.422491 -54.089531 
L 261.597719 -54.089531 
L 259.772947 -54.089531 
L 257.948174 -54.089531 
L 256.123402 -54.089531 
L 254.298629 -54.089531 
L 252.473857 -54.089531 
L 250.649085 -54.089531 
L 248.824312 -54.089531 
L 246.99954 -54.089531 
L 245.174767 -54.089531 
L 243.349995 -54.089531 
L 241.525223 -54.089531 
L 239.70045 -54.089531 
L 237.875678 -54.089531 
L 236.050905 -54.089531 
L 234.226133 -54.089531 
L 232.401361 -54.089531 
L 230.576588 -54.089531 
L 228.751816 -54.089531 
L 226.927043 -54.089531 
L 225.102271 -54.089531 
L 223.277499 -54.089531 
L 221.452726 -54.089531 
L 219.627954 -54.089532 
L 217.803181 -54.089536 
L 215.978409 -54.089582 
L 214.153637 -54.089929 
L 212.328864 -54.091746 
L 210.504092 -54.098268 
L 208.679319 -54.114062 
L 206.854547 -54.139224 
L 205.029775 -54.164581 
L 203.205002 -54.179687 
L 201.38023 -54.183145 
L 199.555457 -54.176292 
L 197.730685 -54.157335 
L 195.905913 -54.130748 
L 194.08114 -54.108658 
L 192.256368 -54.100607 
L 190.431595 -54.116666 
L 188.606823 -54.184738 
L 186.782051 -54.354076 
L 184.957278 -54.663513 
L 183.132506 -55.107531 
L 181.307733 -55.676203 
L 179.482961 -56.46569 
L 177.658189 -57.768427 
L 175.833416 -60.132537 
L 174.008644 -64.384343 
L 172.183871 -71.435419 
L 170.359099 -81.904838 
L 168.534327 -95.976644 
L 166.709554 -113.415317 
L 164.884782 -133.19486 
L 163.060009 -153.251731 
L 161.235237 -171.350428 
L 159.410465 -186.279901 
L 157.585692 -197.776809 
L 155.76092 -205.576625 
L 153.936147 -209.181204 
L 152.111375 -208.491523 
L 150.286603 -204.173165 
L 148.46183 -197.196162 
L 146.637058 -188.358341 
L 144.812285 -178.461044 
L 142.987513 -168.462942 
L 141.162741 -159.074801 
L 139.337968 -150.364735 
L 137.513196 -141.929146 
L 135.688423 -133.434485 
L 133.863651 -124.979564 
L 132.038879 -117.077796 
L 130.214106 -110.402173 
L 128.389334 -105.297508 
L 126.564562 -101.41825 
L 124.739789 -98.051735 
L 122.915017 -94.657178 
L 121.090244 -91.021635 
L 119.265472 -87.318572 
L 117.4407 -83.953488 
L 115.615927 -81.00346 
L 113.791155 -78.155946 
L 111.966382 -75.365817 
L 110.14161 -72.962658 
L 108.316838 -71.007715 
L 106.492065 -69.19301 
L 104.667293 -67.439807 
L 102.84252 -66.027953 
L 101.017748 -65.094325 
L 99.192976 -64.390117 
L 97.368203 -63.549375 
L 95.543431 -62.434772 
L 93.718658 -61.217124 
L 91.893886 -60.198435 
L 90.069114 -59.580519 
L 88.244341 -59.302781 
L 86.419569 -59.074603 
L 84.594796 -58.65872 
L 82.770024 -58.112288 
L 80.945252 -57.658689 
L 79.120479 -57.384215 
L 77.295707 -57.201221 
L 75.470934 -57.032752 
L 73.646162 -56.844083 
L 71.82139 -56.567005 
L 69.996617 -56.191051 
L 68.171845 -55.853765 
L 66.347072 -55.692419 
L 64.5223 -55.682371 
L 62.697528 -55.685967 
L 60.872755 -55.578394 
L 59.047983 -55.321181 
L 57.22321 -54.995763 
L 55.398438 -54.750999 
L 53.573666 -54.657783 
L 51.748893 -54.645235 
L 49.924121 -54.616673 
L 48.099348 -54.567334 
L 46.274576 -54.548625 
L 44.449804 -54.565872 
L 42.625031 -54.557983 
L 40.800259 -54.492023 
L 38.975486 -54.422455 
L 37.150714 -54.397651 
L 35.325942 -54.378204 
L 33.501169 -54.31265 
L 31.676397 -54.225638 
L 29.851624 -54.187506 
L 28.026852 -54.249983 
L 26.20208 -54.40976 
L 24.377307 -54.576521 
L 22.552535 -54.615995 
L 20.727762 -54.491364 
L 18.90299 -54.305939 
L 17.078218 -54.171761 
L 15.253445 -54.111576 
L 13.428673 -54.093701 
L 11.6039 -54.090088 
L 9.779128 -54.089584 
L 7.954356 -54.089535 
L 6.129583 -54.089531 
L 4.304811 -54.089531 
L 2.480038 -54.089531 
L 0.655266 -54.089531 
L -1.169506 -54.089531 
L -2.994279 -54.089531 
L -4.819051 -54.089531 
L -6.643824 -54.089531 
L -8.468596 -54.089531 
L -10.293368 -54.089531 
L -12.118141 -54.089531 
L -13.942913 -54.089531 
L -15.767686 -54.089531 
L -17.592458 -54.089531 
L -19.41723 -54.089531 
L -21.242003 -54.089531 
L -23.066775 -54.089531 
L -24.891548 -54.089531 
L -26.71632 -54.089531 
L -28.541092 -54.089531 
L -30.365865 -54.089531 
L -32.190637 -54.089531 
L -34.01541 -54.089531 
L -35.840182 -54.089531 
L -37.664954 -54.089531 
L -39.489727 -54.089531 
L -41.314499 -54.089531 
L -43.139272 -54.089531 
L -44.964044 -54.089535 
L -46.788816 -54.089583 
L -48.613589 -54.090032 
L -50.438361 -54.09294 
L -52.263134 -54.105907 
L -54.087906 -54.14504 
L -55.912678 -54.222286 
L -57.737451 -54.31354 
L -59.562223 -54.356219 
z
" style="stroke: #38a3a6; stroke-width: 3"/>
    </defs>
    <g clip-path="url(#p7ce672a585)">
     <use xlink:href="#mf379667ba9" x="0" y="338.489531" style="fill: #38a3a6; fill-opacity: 0.2; stroke: #38a3a6; stroke-width: 3"/>
    </g>
   </g>
   <g id="patch_3">
    <path d="M 64.360781 284.4 
L 64.360781 7.2 
" style="fill: none; stroke: #262626; stroke-width: 3; stroke-linejoin: miter; stroke-linecap: square"/>
   </g>
   <g id="patch_4">
    <path d="M 64.360781 284.4 
L 343.360781 284.4 
" style="fill: none; stroke: #262626; stroke-width: 3; stroke-linejoin: miter; stroke-linecap: square"/>
   </g>
   <g id="legend_1">
    <g id="patch_5">
     <path d="M 304.6875 114.024609 
L 337.6875 114.024609 
L 337.6875 102.474609 
L 304.6875 102.474609 
z
" style="fill: #38a3a6; stroke: #ffffff; stroke-linejoin: miter"/>
    </g>
    <g id="text_12">
     <text style="fill: #262626; font: 16.5px 'sans-serif'; text-anchor: start" x="350.8875" y="114.024609" transform="rotate(-0, 350.8875, 114.024609)">AraC S170 WT LOV light</text>
    </g>
    <g id="patch_6">
     <path d="M 304.6875 138.243516 
L 337.6875 138.243516 
L 337.6875 126.693516 
L 304.6875 126.693516 
z
" style="fill: #22587a; stroke: #ffffff; stroke-linejoin: miter"/>
    </g>
    <g id="text_13">
     <text style="fill: #262626; font: 16.5px 'sans-serif'; text-anchor: start" x="350.8875" y="138.243516" transform="rotate(-0, 350.8875, 138.243516)">AraC S170 WT LOV dark</text>
    </g>
    <g id="patch_7">
     <path d="M 304.6875 162.462422 
L 337.6875 162.462422 
L 337.6875 150.912422 
L 304.6875 150.912422 
z
" style="fill: #de4968; stroke: #ffffff; stroke-linejoin: miter"/>
    </g>
    <g id="text_14">
     <text style="fill: #262626; font: 16.5px 'sans-serif'; text-anchor: start" x="350.8875" y="162.462422" transform="rotate(-0, 350.8875, 162.462422)">AraC S170 R2 LOV light</text>
    </g>
    <g id="patch_8">
     <path d="M 304.6875 186.681328 
L 337.6875 186.681328 
L 337.6875 175.131328 
L 304.6875 175.131328 
z
" style="fill: #8c2981; stroke: #ffffff; stroke-linejoin: miter"/>
    </g>
    <g id="text_15">
     <text style="fill: #262626; font: 16.5px 'sans-serif'; text-anchor: start" x="350.8875" y="186.681328" transform="rotate(-0, 350.8875, 186.681328)">AraC S170 R2 LOV dark</text>
    </g>
   </g>
  </g>
 </g>
 <defs>
  <clipPath id="p7ce672a585">
   <rect x="64.360781" y="7.2" width="279" height="277.2"/>
  </clipPath>
 </defs>
</svg>
