<?xml version="1.0" encoding="utf-8" standalone="no"?>
<!DOCTYPE svg PUBLIC "-//W3C//DTD SVG 1.1//EN"
  "http://www.w3.org/Graphics/SVG/1.1/DTD/svg11.dtd">
<svg xmlns:xlink="http://www.w3.org/1999/xlink" width="563.234062pt" height="338.489531pt" viewBox="0 0 563.234062 338.489531" xmlns="http://www.w3.org/2000/svg" version="1.1">
 <metadata>
  <rdf:RDF xmlns:dc="http://purl.org/dc/elements/1.1/" xmlns:cc="http://creativecommons.org/ns#" xmlns:rdf="http://www.w3.org/1999/02/22-rdf-syntax-ns#">
   <cc:Work>
    <dc:type rdf:resource="http://purl.org/dc/dcmitype/StillImage"/>
    <dc:date>2025-04-29T17:55:24.670847</dc:date>
    <dc:format>image/svg+xml</dc:format>
    <dc:creator>
     <cc:Agent>
      <dc:title>Matplotlib v3.5.0, https://matplotlib.org/</dc:title>
     </cc:Agent>
    </dc:creator>
   </cc:Work>
  </rdf:RDF>
 </metadata>
 <defs>
  <style type="text/css">*{stroke-linejoin: round; stroke-linecap: butt}</style>
 </defs>
 <g id="figure_1">
  <g id="patch_1">
   <path d="M 0 338.489531 
L 563.234062 338.489531 
L 563.234062 0 
L 0 0 
z
" style="fill: #ffffff"/>
  </g>
  <g id="axes_1">
   <g id="patch_2">
    <path d="M 64.360781 284.4 
L 343.360781 284.4 
L 343.360781 7.2 
L 64.360781 7.2 
z
" style="fill: #ffffff"/>
   </g>
   <g id="matplotlib.axis_1">
    <g id="xtick_1">
     <g id="line2d_1">
      <defs>
       <path id="mca467ba4f6" d="M 0 0 
L 0 6 
" style="stroke: #262626; stroke-width: 3"/>
      </defs>
      <g>
       <use xlink:href="#mca467ba4f6" x="64.360781" y="284.4" style="fill: #262626; stroke: #262626; stroke-width: 3"/>
      </g>
     </g>
     <g id="text_1">
      <!-- $\mathdefault{10^{0}}$ -->
      <g style="fill: #262626" transform="translate(49.840781 306.437422)">
       <text>
        <tspan style="font: 16.5px 'DejaVu Sans'" x="0 10.497803" y="-0.10312500000000213">10</tspan>
        <tspan style="font: 11.55px 'DejaVu Sans'" x="21.153652" y="-6.425000000000001">0</tspan>
       </text>
      </g>
     </g>
    </g>
    <g id="xtick_2">
     <g id="line2d_2">
      <g>
       <use xlink:href="#mca467ba4f6" x="148.992581" y="284.4" style="fill: #262626; stroke: #262626; stroke-width: 3"/>
      </g>
     </g>
     <g id="text_2">
      <!-- $\mathdefault{10^{2}}$ -->
      <g style="fill: #262626" transform="translate(134.472581 306.437422)">
       <text>
        <tspan style="font: 16.5px 'DejaVu Sans'" x="0 10.497803" y="-0.10312500000000213">10</tspan>
        <tspan style="font: 11.55px 'DejaVu Sans'" x="21.153652" y="-6.425000000000001">2</tspan>
       </text>
      </g>
     </g>
    </g>
    <g id="xtick_3">
     <g id="line2d_3">
      <g>
       <use xlink:href="#mca467ba4f6" x="233.62438" y="284.4" style="fill: #262626; stroke: #262626; stroke-width: 3"/>
      </g>
     </g>
     <g id="text_3">
      <!-- $\mathdefault{10^{4}}$ -->
      <g style="fill: #262626" transform="translate(219.10438 306.437422)">
       <text>
        <tspan style="font: 16.5px 'DejaVu Sans'" x="0 10.497803" y="-0.2562500000000014">10</tspan>
        <tspan style="font: 11.55px 'DejaVu Sans'" x="21.153652" y="-6.578125">4</tspan>
       </text>
      </g>
     </g>
    </g>
    <g id="xtick_4">
     <g id="line2d_4">
      <g>
       <use xlink:href="#mca467ba4f6" x="318.25618" y="284.4" style="fill: #262626; stroke: #262626; stroke-width: 3"/>
      </g>
     </g>
     <g id="text_4">
      <!-- $\mathdefault{10^{6}}$ -->
      <g style="fill: #262626" transform="translate(303.73618 306.437422)">
       <text>
        <tspan style="font: 16.5px 'DejaVu Sans'" x="0 10.497803" y="-0.10312500000000213">10</tspan>
        <tspan style="font: 11.55px 'DejaVu Sans'" x="21.153652" y="-6.425000000000001">6</tspan>
       </text>
      </g>
     </g>
    </g>
    <g id="text_5">
     <text style="fill: #262626; font: 18px 'sans-serif'; text-anchor: middle" x="203.860781" y="327.546094" transform="rotate(-0, 203.860781, 327.546094)">log[RFP]</text>
    </g>
   </g>
   <g id="matplotlib.axis_2">
    <g id="ytick_1">
     <g id="line2d_5">
      <defs>
       <path id="m6a42ff6249" d="M 0 0 
L -6 0 
" style="stroke: #262626; stroke-width: 3"/>
      </defs>
      <g>
       <use xlink:href="#m6a42ff6249" x="64.360781" y="284.4" style="fill: #262626; stroke: #262626; stroke-width: 3"/>
      </g>
     </g>
     <g id="text_6">
      <text style="fill: #262626; font: 16.5px 'sans-serif'; text-anchor: end" x="54.860781" y="290.668711" transform="rotate(-0, 54.860781, 290.668711)">0.0</text>
     </g>
    </g>
    <g id="ytick_2">
     <g id="line2d_6">
      <g>
       <use xlink:href="#m6a42ff6249" x="64.360781" y="239.602632" style="fill: #262626; stroke: #262626; stroke-width: 3"/>
      </g>
     </g>
     <g id="text_7">
      <text style="fill: #262626; font: 16.5px 'sans-serif'; text-anchor: end" x="54.860781" y="245.871343" transform="rotate(-0, 54.860781, 245.871343)">0.2</text>
     </g>
    </g>
    <g id="ytick_3">
     <g id="line2d_7">
      <g>
       <use xlink:href="#m6a42ff6249" x="64.360781" y="194.805263" style="fill: #262626; stroke: #262626; stroke-width: 3"/>
      </g>
     </g>
     <g id="text_8">
      <text style="fill: #262626; font: 16.5px 'sans-serif'; text-anchor: end" x="54.860781" y="201.073974" transform="rotate(-0, 54.860781, 201.073974)">0.4</text>
     </g>
    </g>
    <g id="ytick_4">
     <g id="line2d_8">
      <g>
       <use xlink:href="#m6a42ff6249" x="64.360781" y="150.007895" style="fill: #262626; stroke: #262626; stroke-width: 3"/>
      </g>
     </g>
     <g id="text_9">
      <text style="fill: #262626; font: 16.5px 'sans-serif'; text-anchor: end" x="54.860781" y="156.276606" transform="rotate(-0, 54.860781, 156.276606)">0.6</text>
     </g>
    </g>
    <g id="ytick_5">
     <g id="line2d_9">
      <g>
       <use xlink:href="#m6a42ff6249" x="64.360781" y="105.210527" style="fill: #262626; stroke: #262626; stroke-width: 3"/>
      </g>
     </g>
     <g id="text_10">
      <text style="fill: #262626; font: 16.5px 'sans-serif'; text-anchor: end" x="54.860781" y="111.479237" transform="rotate(-0, 54.860781, 111.479237)">0.8</text>
     </g>
    </g>
    <g id="ytick_6">
     <g id="line2d_10">
      <g>
       <use xlink:href="#m6a42ff6249" x="64.360781" y="60.413158" style="fill: #262626; stroke: #262626; stroke-width: 3"/>
      </g>
     </g>
     <g id="text_11">
      <text style="fill: #262626; font: 16.5px 'sans-serif'; text-anchor: end" x="54.860781" y="66.681869" transform="rotate(-0, 54.860781, 66.681869)">1.0</text>
     </g>
    </g>
    <g id="ytick_7">
     <g id="line2d_11">
      <g>
       <use xlink:href="#m6a42ff6249" x="64.360781" y="15.61579" style="fill: #262626; stroke: #262626; stroke-width: 3"/>
      </g>
     </g>
     <g id="text_12">
      <text style="fill: #262626; font: 16.5px 'sans-serif'; text-anchor: end" x="54.860781" y="21.884501" transform="rotate(-0, 54.860781, 21.884501)">1.2</text>
     </g>
    </g>
    <g id="text_13">
     <text style="fill: #262626; font: 18px 'sans-serif'; text-anchor: middle" x="20.877188" y="145.8" transform="rotate(-90, 20.877188, 145.8)">Density</text>
    </g>
   </g>
   <g id="PolyCollection_1">
    <defs>
     <path id="m5620134040" d="M -62.586918 -54.543375 
L -62.586918 -54.089531 
L -60.952088 -54.089531 
L -59.317258 -54.089531 
L -57.682427 -54.089531 
L -56.047597 -54.089531 
L -54.412767 -54.089531 
L -52.777937 -54.089531 
L -51.143106 -54.089531 
L -49.508276 -54.089531 
L -47.873446 -54.089531 
L -46.238616 -54.089531 
L -44.603786 -54.089531 
L -42.968955 -54.089531 
L -41.334125 -54.089531 
L -39.699295 -54.089531 
L -38.064465 -54.089531 
L -36.429634 -54.089531 
L -34.794804 -54.089531 
L -33.159974 -54.089531 
L -31.525144 -54.089531 
L -29.890313 -54.089531 
L -28.255483 -54.089531 
L -26.620653 -54.089531 
L -24.985823 -54.089531 
L -23.350993 -54.089531 
L -21.716162 -54.089531 
L -20.081332 -54.089531 
L -18.446502 -54.089531 
L -16.811672 -54.089531 
L -15.176841 -54.089531 
L -13.542011 -54.089531 
L -11.907181 -54.089531 
L -10.272351 -54.089531 
L -8.637521 -54.089531 
L -7.00269 -54.089531 
L -5.36786 -54.089531 
L -3.73303 -54.089531 
L -2.0982 -54.089531 
L -0.463369 -54.089531 
L 1.171461 -54.089531 
L 2.806291 -54.089531 
L 4.441121 -54.089531 
L 6.075951 -54.089531 
L 7.710782 -54.089531 
L 9.345612 -54.089531 
L 10.980442 -54.089531 
L 12.615272 -54.089531 
L 14.250103 -54.089531 
L 15.884933 -54.089531 
L 17.519763 -54.089531 
L 19.154593 -54.089531 
L 20.789423 -54.089531 
L 22.424254 -54.089531 
L 24.059084 -54.089531 
L 25.693914 -54.089531 
L 27.328744 -54.089531 
L 28.963575 -54.089531 
L 30.598405 -54.089531 
L 32.233235 -54.089531 
L 33.868065 -54.089531 
L 35.502895 -54.089531 
L 37.137726 -54.089531 
L 38.772556 -54.089531 
L 40.407386 -54.089531 
L 42.042216 -54.089531 
L 43.677047 -54.089531 
L 45.311877 -54.089531 
L 46.946707 -54.089531 
L 48.581537 -54.089531 
L 50.216367 -54.089531 
L 51.851198 -54.089531 
L 53.486028 -54.089531 
L 55.120858 -54.089531 
L 56.755688 -54.089531 
L 58.390519 -54.089531 
L 60.025349 -54.089531 
L 61.660179 -54.089531 
L 63.295009 -54.089531 
L 64.929839 -54.089531 
L 66.56467 -54.089531 
L 68.1995 -54.089531 
L 69.83433 -54.089531 
L 71.46916 -54.089531 
L 73.103991 -54.089531 
L 74.738821 -54.089531 
L 76.373651 -54.089531 
L 78.008481 -54.089531 
L 79.643311 -54.089531 
L 81.278142 -54.089531 
L 82.912972 -54.089531 
L 84.547802 -54.089531 
L 86.182632 -54.089531 
L 87.817463 -54.089531 
L 89.452293 -54.089531 
L 91.087123 -54.089531 
L 92.721953 -54.089531 
L 94.356784 -54.089531 
L 95.991614 -54.089531 
L 97.626444 -54.089531 
L 99.261274 -54.089531 
L 100.896104 -54.089531 
L 102.530935 -54.089531 
L 104.165765 -54.089531 
L 105.800595 -54.089531 
L 107.435425 -54.089531 
L 109.070256 -54.089531 
L 110.705086 -54.089531 
L 112.339916 -54.089531 
L 113.974746 -54.089531 
L 115.609576 -54.089531 
L 117.244407 -54.089531 
L 118.879237 -54.089531 
L 120.514067 -54.089531 
L 122.148897 -54.089531 
L 123.783728 -54.089531 
L 125.418558 -54.089531 
L 127.053388 -54.089531 
L 128.688218 -54.089531 
L 130.323048 -54.089531 
L 131.957879 -54.089531 
L 133.592709 -54.089531 
L 135.227539 -54.089531 
L 136.862369 -54.089531 
L 138.4972 -54.089531 
L 140.13203 -54.089531 
L 141.76686 -54.089531 
L 143.40169 -54.089531 
L 145.03652 -54.089531 
L 146.671351 -54.089531 
L 148.306181 -54.089531 
L 149.941011 -54.089531 
L 151.575841 -54.089531 
L 153.210672 -54.089531 
L 154.845502 -54.089531 
L 156.480332 -54.089531 
L 158.115162 -54.089531 
L 159.749992 -54.089531 
L 161.384823 -54.089531 
L 163.019653 -54.089531 
L 164.654483 -54.089531 
L 166.289313 -54.089531 
L 167.924144 -54.089531 
L 169.558974 -54.089531 
L 171.193804 -54.089531 
L 172.828634 -54.089531 
L 174.463464 -54.089531 
L 176.098295 -54.089531 
L 177.733125 -54.089531 
L 179.367955 -54.089531 
L 181.002785 -54.089531 
L 182.637616 -54.089531 
L 184.272446 -54.089531 
L 185.907276 -54.089531 
L 187.542106 -54.089531 
L 189.176936 -54.089531 
L 190.811767 -54.089531 
L 192.446597 -54.089531 
L 194.081427 -54.089531 
L 195.716257 -54.089531 
L 197.351088 -54.089531 
L 198.985918 -54.089531 
L 200.620748 -54.089531 
L 202.255578 -54.089531 
L 203.890409 -54.089531 
L 205.525239 -54.089531 
L 207.160069 -54.089531 
L 208.794899 -54.089531 
L 210.429729 -54.089531 
L 212.06456 -54.089531 
L 213.69939 -54.089531 
L 215.33422 -54.089531 
L 216.96905 -54.089531 
L 218.603881 -54.089531 
L 220.238711 -54.089531 
L 221.873541 -54.089531 
L 223.508371 -54.089531 
L 225.143201 -54.089531 
L 226.778032 -54.089531 
L 228.412862 -54.089531 
L 230.047692 -54.089531 
L 231.682522 -54.089531 
L 233.317353 -54.089531 
L 234.952183 -54.089531 
L 236.587013 -54.089531 
L 238.221843 -54.089531 
L 239.856673 -54.089531 
L 241.491504 -54.089531 
L 243.126334 -54.089531 
L 244.761164 -54.089531 
L 246.395994 -54.089531 
L 248.030825 -54.089531 
L 249.665655 -54.089531 
L 251.300485 -54.089531 
L 252.935315 -54.089531 
L 254.570145 -54.089531 
L 256.204976 -54.089531 
L 257.839806 -54.089531 
L 259.474636 -54.089531 
L 261.109466 -54.089531 
L 262.744297 -54.089531 
L 262.744297 -54.202992 
L 262.744297 -54.202992 
L 261.109466 -54.188599 
L 259.474636 -54.155479 
L 257.839806 -54.123 
L 256.204976 -54.102482 
L 254.570145 -54.093368 
L 252.935315 -54.090521 
L 251.300485 -54.090452 
L 249.665655 -54.093051 
L 248.030825 -54.101609 
L 246.395994 -54.121287 
L 244.761164 -54.153197 
L 243.126334 -54.186844 
L 241.491504 -54.20293 
L 239.856673 -54.190275 
L 238.221843 -54.157767 
L 236.587013 -54.124766 
L 234.952183 -54.103402 
L 233.317353 -54.093694 
L 231.682522 -54.090484 
L 230.047692 -54.089697 
L 228.412862 -54.089553 
L 226.778032 -54.089534 
L 225.143201 -54.089542 
L 223.508371 -54.089616 
L 221.873541 -54.090067 
L 220.238711 -54.092106 
L 218.603881 -54.098955 
L 216.96905 -54.11583 
L 215.33422 -54.145485 
L 213.69939 -54.180291 
L 212.06456 -54.201768 
L 210.429729 -54.195355 
L 208.794899 -54.165661 
L 207.160069 -54.131684 
L 205.525239 -54.109344 
L 203.890409 -54.104508 
L 202.255578 -54.120102 
L 200.620748 -54.162839 
L 198.985918 -54.241622 
L 197.351088 -54.36247 
L 195.716257 -54.524046 
L 194.081427 -54.710792 
L 192.446597 -54.88997 
L 190.811767 -55.032743 
L 189.176936 -55.162808 
L 187.542106 -55.398486 
L 185.907276 -55.946595 
L 184.272446 -57.061854 
L 182.637616 -59.045361 
L 181.002785 -62.31221 
L 179.367955 -67.450557 
L 177.733125 -75.176675 
L 176.098295 -86.178418 
L 174.463464 -100.895865 
L 172.828634 -119.285112 
L 171.193804 -140.700493 
L 169.558974 -164.12812 
L 167.924144 -188.74649 
L 166.289313 -214.263552 
L 164.654483 -240.430618 
L 163.019653 -266.03413 
L 161.384823 -288.60275 
L 159.749992 -305.4827 
L 158.115162 -315.250348 
L 156.480332 -318.089531 
L 154.845502 -315.225341 
L 153.210672 -308.219259 
L 151.575841 -298.302882 
L 149.941011 -286.075402 
L 148.306181 -272.08267 
L 146.671351 -257.433671 
L 145.03652 -243.289499 
L 143.40169 -229.980803 
L 141.76686 -217.149444 
L 140.13203 -204.591836 
L 138.4972 -192.521727 
L 136.862369 -181.120458 
L 135.227539 -170.315843 
L 133.592709 -160.062074 
L 131.957879 -150.502414 
L 130.323048 -141.809599 
L 128.688218 -134.042138 
L 127.053388 -127.105658 
L 125.418558 -120.787777 
L 123.783728 -114.935375 
L 122.148897 -109.580486 
L 120.514067 -104.814613 
L 118.879237 -100.628117 
L 117.244407 -96.927126 
L 115.609576 -93.604561 
L 113.974746 -90.521394 
L 112.339916 -87.506458 
L 110.705086 -84.509977 
L 109.070256 -81.698612 
L 107.435425 -79.241784 
L 105.800595 -77.074483 
L 104.165765 -75.022519 
L 102.530935 -73.066412 
L 100.896104 -71.320424 
L 99.261274 -69.826184 
L 97.626444 -68.520398 
L 95.991614 -67.351684 
L 94.356784 -66.296785 
L 92.721953 -65.299964 
L 91.087123 -64.282171 
L 89.452293 -63.187901 
L 87.817463 -62.011112 
L 86.182632 -60.817607 
L 84.547802 -59.736083 
L 82.912972 -58.88883 
L 81.278142 -58.328306 
L 79.643311 -58.042287 
L 78.008481 -57.994543 
L 76.373651 -58.135743 
L 74.738821 -58.377379 
L 73.103991 -58.582822 
L 71.46916 -58.606546 
L 69.83433 -58.356446 
L 68.1995 -57.848989 
L 66.56467 -57.212399 
L 64.929839 -56.603446 
L 63.295009 -56.11384 
L 61.660179 -55.762288 
L 60.025349 -55.533892 
L 58.390519 -55.393734 
L 56.755688 -55.291385 
L 55.120858 -55.186594 
L 53.486028 -55.073156 
L 51.851198 -54.97313 
L 50.216367 -54.908759 
L 48.581537 -54.882764 
L 46.946707 -54.887635 
L 45.311877 -54.917672 
L 43.677047 -54.949388 
L 42.042216 -54.941628 
L 40.407386 -54.904585 
L 38.772556 -54.924727 
L 37.137726 -55.044284 
L 35.502895 -55.152792 
L 33.868065 -55.088187 
L 32.233235 -54.830808 
L 30.598405 -54.523896 
L 28.963575 -54.322626 
L 27.328744 -54.287915 
L 25.693914 -54.39356 
L 24.059084 -54.554242 
L 22.424254 -54.653146 
L 20.789423 -54.61327 
L 19.154593 -54.460796 
L 17.519763 -54.290191 
L 15.884933 -54.172214 
L 14.250103 -54.115506 
L 12.615272 -54.095752 
L 10.980442 -54.090667 
L 9.345612 -54.089689 
L 7.710782 -54.089548 
L 6.075951 -54.089533 
L 4.441121 -54.089531 
L 2.806291 -54.089531 
L 1.171461 -54.089531 
L -0.463369 -54.089531 
L -2.0982 -54.089531 
L -3.73303 -54.089531 
L -5.36786 -54.089531 
L -7.00269 -54.089531 
L -8.637521 -54.089531 
L -10.272351 -54.089531 
L -11.907181 -54.089531 
L -13.542011 -54.089531 
L -15.176841 -54.089531 
L -16.811672 -54.089531 
L -18.446502 -54.089531 
L -20.081332 -54.089531 
L -21.716162 -54.089531 
L -23.350993 -54.089531 
L -24.985823 -54.089531 
L -26.620653 -54.089531 
L -28.255483 -54.089531 
L -29.890313 -54.089531 
L -31.525144 -54.089531 
L -33.159974 -54.089531 
L -34.794804 -54.089531 
L -36.429634 -54.089531 
L -38.064465 -54.089531 
L -39.699295 -54.089531 
L -41.334125 -54.089531 
L -42.968955 -54.089531 
L -44.603786 -54.089531 
L -46.238616 -54.089532 
L -47.873446 -54.089539 
L -49.508276 -54.089608 
L -51.143106 -54.09012 
L -52.777937 -54.092967 
L -54.412767 -54.10481 
L -56.047597 -54.141329 
L -57.682427 -54.223405 
L -59.317258 -54.353321 
L -60.952088 -54.485804 
L -62.586918 -54.543375 
z
" style="stroke: #8c2981; stroke-width: 3"/>
    </defs>
    <g clip-path="url(#p1940f407b7)">
     <use xlink:href="#m5620134040" x="0" y="338.489531" style="fill: #8c2981; fill-opacity: 0.2; stroke: #8c2981; stroke-width: 3"/>
    </g>
   </g>
   <g id="PolyCollection_2">
    <defs>
     <path id="mb153c9b05f" d="M -62.586918 -54.888324 
L -62.586918 -54.089531 
L -60.688949 -54.089531 
L -58.790981 -54.089531 
L -56.893012 -54.089531 
L -54.995044 -54.089531 
L -53.097075 -54.089531 
L -51.199107 -54.089531 
L -49.301138 -54.089531 
L -47.40317 -54.089531 
L -45.505201 -54.089531 
L -43.607232 -54.089531 
L -41.709264 -54.089531 
L -39.811295 -54.089531 
L -37.913327 -54.089531 
L -36.015358 -54.089531 
L -34.11739 -54.089531 
L -32.219421 -54.089531 
L -30.321453 -54.089531 
L -28.423484 -54.089531 
L -26.525515 -54.089531 
L -24.627547 -54.089531 
L -22.729578 -54.089531 
L -20.83161 -54.089531 
L -18.933641 -54.089531 
L -17.035673 -54.089531 
L -15.137704 -54.089531 
L -13.239736 -54.089531 
L -11.341767 -54.089531 
L -9.443798 -54.089531 
L -7.54583 -54.089531 
L -5.647861 -54.089531 
L -3.749893 -54.089531 
L -1.851924 -54.089531 
L 0.046044 -54.089531 
L 1.944013 -54.089531 
L 3.841981 -54.089531 
L 5.73995 -54.089531 
L 7.637919 -54.089531 
L 9.535887 -54.089531 
L 11.433856 -54.089531 
L 13.331824 -54.089531 
L 15.229793 -54.089531 
L 17.127761 -54.089531 
L 19.02573 -54.089531 
L 20.923698 -54.089531 
L 22.821667 -54.089531 
L 24.719635 -54.089531 
L 26.617604 -54.089531 
L 28.515573 -54.089531 
L 30.413541 -54.089531 
L 32.31151 -54.089531 
L 34.209478 -54.089531 
L 36.107447 -54.089531 
L 38.005415 -54.089531 
L 39.903384 -54.089531 
L 41.801352 -54.089531 
L 43.699321 -54.089531 
L 45.59729 -54.089531 
L 47.495258 -54.089531 
L 49.393227 -54.089531 
L 51.291195 -54.089531 
L 53.189164 -54.089531 
L 55.087132 -54.089531 
L 56.985101 -54.089531 
L 58.883069 -54.089531 
L 60.781038 -54.089531 
L 62.679007 -54.089531 
L 64.576975 -54.089531 
L 66.474944 -54.089531 
L 68.372912 -54.089531 
L 70.270881 -54.089531 
L 72.168849 -54.089531 
L 74.066818 -54.089531 
L 75.964786 -54.089531 
L 77.862755 -54.089531 
L 79.760724 -54.089531 
L 81.658692 -54.089531 
L 83.556661 -54.089531 
L 85.454629 -54.089531 
L 87.352598 -54.089531 
L 89.250566 -54.089531 
L 91.148535 -54.089531 
L 93.046503 -54.089531 
L 94.944472 -54.089531 
L 96.842441 -54.089531 
L 98.740409 -54.089531 
L 100.638378 -54.089531 
L 102.536346 -54.089531 
L 104.434315 -54.089531 
L 106.332283 -54.089531 
L 108.230252 -54.089531 
L 110.12822 -54.089531 
L 112.026189 -54.089531 
L 113.924157 -54.089531 
L 115.822126 -54.089531 
L 117.720095 -54.089531 
L 119.618063 -54.089531 
L 121.516032 -54.089531 
L 123.414 -54.089531 
L 125.311969 -54.089531 
L 127.209937 -54.089531 
L 129.107906 -54.089531 
L 131.005874 -54.089531 
L 132.903843 -54.089531 
L 134.801812 -54.089531 
L 136.69978 -54.089531 
L 138.597749 -54.089531 
L 140.495717 -54.089531 
L 142.393686 -54.089531 
L 144.291654 -54.089531 
L 146.189623 -54.089531 
L 148.087591 -54.089531 
L 149.98556 -54.089531 
L 151.883529 -54.089531 
L 153.781497 -54.089531 
L 155.679466 -54.089531 
L 157.577434 -54.089531 
L 159.475403 -54.089531 
L 161.373371 -54.089531 
L 163.27134 -54.089531 
L 165.169308 -54.089531 
L 167.067277 -54.089531 
L 168.965246 -54.089531 
L 170.863214 -54.089531 
L 172.761183 -54.089531 
L 174.659151 -54.089531 
L 176.55712 -54.089531 
L 178.455088 -54.089531 
L 180.353057 -54.089531 
L 182.251025 -54.089531 
L 184.148994 -54.089531 
L 186.046963 -54.089531 
L 187.944931 -54.089531 
L 189.8429 -54.089531 
L 191.740868 -54.089531 
L 193.638837 -54.089531 
L 195.536805 -54.089531 
L 197.434774 -54.089531 
L 199.332742 -54.089531 
L 201.230711 -54.089531 
L 203.12868 -54.089531 
L 205.026648 -54.089531 
L 206.924617 -54.089531 
L 208.822585 -54.089531 
L 210.720554 -54.089531 
L 212.618522 -54.089531 
L 214.516491 -54.089531 
L 216.414459 -54.089531 
L 218.312428 -54.089531 
L 220.210396 -54.089531 
L 222.108365 -54.089531 
L 224.006334 -54.089531 
L 225.904302 -54.089531 
L 227.802271 -54.089531 
L 229.700239 -54.089531 
L 231.598208 -54.089531 
L 233.496176 -54.089531 
L 235.394145 -54.089531 
L 237.292113 -54.089531 
L 239.190082 -54.089531 
L 241.088051 -54.089531 
L 242.986019 -54.089531 
L 244.883988 -54.089531 
L 246.781956 -54.089531 
L 248.679925 -54.089531 
L 250.577893 -54.089531 
L 252.475862 -54.089531 
L 254.37383 -54.089531 
L 256.271799 -54.089531 
L 258.169768 -54.089531 
L 260.067736 -54.089531 
L 261.965705 -54.089531 
L 263.863673 -54.089531 
L 265.761642 -54.089531 
L 267.65961 -54.089531 
L 269.557579 -54.089531 
L 271.455547 -54.089531 
L 273.353516 -54.089531 
L 275.251485 -54.089531 
L 277.149453 -54.089531 
L 279.047422 -54.089531 
L 280.94539 -54.089531 
L 282.843359 -54.089531 
L 284.741327 -54.089531 
L 286.639296 -54.089531 
L 288.537264 -54.089531 
L 290.435233 -54.089531 
L 292.333202 -54.089531 
L 294.23117 -54.089531 
L 296.129139 -54.089531 
L 298.027107 -54.089531 
L 299.925076 -54.089531 
L 301.823044 -54.089531 
L 303.721013 -54.089531 
L 305.618981 -54.089531 
L 307.51695 -54.089531 
L 309.414918 -54.089531 
L 311.312887 -54.089531 
L 313.210856 -54.089531 
L 315.108824 -54.089531 
L 315.108824 -54.333952 
L 315.108824 -54.333952 
L 313.210856 -54.379947 
L 311.312887 -54.38463 
L 309.414918 -54.350778 
L 307.51695 -54.289219 
L 305.618981 -54.217129 
L 303.721013 -54.155169 
L 301.823044 -54.115953 
L 299.925076 -54.098045 
L 298.027107 -54.093627 
L 296.129139 -54.098867 
L 294.23117 -54.11694 
L 292.333202 -54.151514 
L 290.435233 -54.194145 
L 288.537264 -54.221131 
L 286.639296 -54.212911 
L 284.741327 -54.17574 
L 282.843359 -54.134424 
L 280.94539 -54.106954 
L 279.047422 -54.094571 
L 277.149453 -54.090618 
L 275.251485 -54.089706 
L 273.353516 -54.089552 
L 271.455547 -54.089533 
L 269.557579 -54.089531 
L 267.65961 -54.089531 
L 265.761642 -54.089531 
L 263.863673 -54.089531 
L 261.965705 -54.089531 
L 260.067736 -54.089531 
L 258.169768 -54.089531 
L 256.271799 -54.089531 
L 254.37383 -54.089531 
L 252.475862 -54.089531 
L 250.577893 -54.089531 
L 248.679925 -54.089531 
L 246.781956 -54.089531 
L 244.883988 -54.089531 
L 242.986019 -54.089531 
L 241.088051 -54.089531 
L 239.190082 -54.089531 
L 237.292113 -54.089531 
L 235.394145 -54.089531 
L 233.496176 -54.089531 
L 231.598208 -54.089531 
L 229.700239 -54.089531 
L 227.802271 -54.089531 
L 225.904302 -54.089531 
L 224.006334 -54.089531 
L 222.108365 -54.089531 
L 220.210396 -54.089531 
L 218.312428 -54.089531 
L 216.414459 -54.089531 
L 214.516491 -54.089531 
L 212.618522 -54.089531 
L 210.720554 -54.089531 
L 208.822585 -54.089531 
L 206.924617 -54.089531 
L 205.026648 -54.089531 
L 203.12868 -54.089531 
L 201.230711 -54.089531 
L 199.332742 -54.089531 
L 197.434774 -54.089531 
L 195.536805 -54.089531 
L 193.638837 -54.089534 
L 191.740868 -54.089571 
L 189.8429 -54.089901 
L 187.944931 -54.092184 
L 186.046963 -54.104373 
L 184.148994 -54.155401 
L 182.251025 -54.327607 
L 180.353057 -54.813225 
L 178.455088 -55.99872 
L 176.55712 -58.556736 
L 174.659151 -63.453189 
L 172.761183 -71.767205 
L 170.863214 -84.404394 
L 168.965246 -101.892686 
L 167.067277 -124.235106 
L 165.169308 -150.705851 
L 163.27134 -179.768562 
L 161.373371 -209.322495 
L 159.475403 -237.062881 
L 157.577434 -260.790352 
L 155.679466 -278.937799 
L 153.781497 -291.017123 
L 151.883529 -297.202496 
L 149.98556 -297.621963 
L 148.087591 -292.485389 
L 146.189623 -282.669784 
L 144.291654 -269.899341 
L 142.393686 -256.265071 
L 140.495717 -243.224071 
L 138.597749 -231.076589 
L 136.69978 -219.685891 
L 134.801812 -209.1676 
L 132.903843 -199.338999 
L 131.005874 -189.306847 
L 129.107906 -178.442908 
L 127.209937 -167.226525 
L 125.311969 -156.505468 
L 123.414 -146.40303 
L 121.516032 -136.518368 
L 119.618063 -126.869269 
L 117.720095 -118.125148 
L 115.822126 -111.040146 
L 113.924157 -105.802671 
L 112.026189 -101.724871 
L 110.12822 -97.660427 
L 108.230252 -92.984741 
L 106.332283 -88.041073 
L 104.434315 -83.56728 
L 102.536346 -79.979511 
L 100.638378 -77.27161 
L 98.740409 -75.240305 
L 96.842441 -73.603858 
L 94.944472 -72.082965 
L 93.046503 -70.523333 
L 91.148535 -68.944577 
L 89.250566 -67.466693 
L 87.352598 -66.165454 
L 85.454629 -64.984871 
L 83.556661 -63.830277 
L 81.658692 -62.739455 
L 79.760724 -61.886828 
L 77.862755 -61.417228 
L 75.964786 -61.318652 
L 74.066818 -61.391624 
L 72.168849 -61.303 
L 70.270881 -60.792798 
L 68.372912 -59.895196 
L 66.474944 -58.897351 
L 64.576975 -58.085515 
L 62.679007 -57.556358 
L 60.781038 -57.218319 
L 58.883069 -56.928054 
L 56.985101 -56.617206 
L 55.087132 -56.295334 
L 53.189164 -55.985068 
L 51.291195 -55.700558 
L 49.393227 -55.464031 
L 47.495258 -55.305258 
L 45.59729 -55.232813 
L 43.699321 -55.201962 
L 41.801352 -55.143062 
L 39.903384 -55.055878 
L 38.005415 -55.01103 
L 36.107447 -55.00864 
L 34.209478 -54.937324 
L 32.31151 -54.735493 
L 30.413541 -54.496877 
L 28.515573 -54.371251 
L 26.617604 -54.425729 
L 24.719635 -54.599467 
L 22.821667 -54.741328 
L 20.923698 -54.722222 
L 19.02573 -54.548454 
L 17.127761 -54.337712 
L 15.229793 -54.189563 
L 13.331824 -54.11958 
L 11.433856 -54.096259 
L 9.535887 -54.090654 
L 7.637919 -54.089671 
L 5.73995 -54.089544 
L 3.841981 -54.089532 
L 1.944013 -54.089531 
L 0.046044 -54.089531 
L -1.851924 -54.089531 
L -3.749893 -54.089531 
L -5.647861 -54.089531 
L -7.54583 -54.089531 
L -9.443798 -54.089531 
L -11.341767 -54.089531 
L -13.239736 -54.089531 
L -15.137704 -54.089531 
L -17.035673 -54.089531 
L -18.933641 -54.089531 
L -20.83161 -54.089531 
L -22.729578 -54.089531 
L -24.627547 -54.089531 
L -26.525515 -54.089531 
L -28.423484 -54.089531 
L -30.321453 -54.089531 
L -32.219421 -54.089531 
L -34.11739 -54.089531 
L -36.015358 -54.089531 
L -37.913327 -54.089531 
L -39.811295 -54.089531 
L -41.709264 -54.089531 
L -43.607232 -54.089532 
L -45.505201 -54.089537 
L -47.40317 -54.089597 
L -49.301138 -54.090126 
L -51.199107 -54.093551 
L -53.097075 -54.109781 
L -54.995044 -54.165562 
L -56.893012 -54.302282 
L -58.790981 -54.533214 
L -60.688949 -54.779125 
L -62.586918 -54.888324 
z
" style="stroke: #de4968; stroke-width: 3"/>
    </defs>
    <g clip-path="url(#p1940f407b7)">
     <use xlink:href="#mb153c9b05f" x="0" y="338.489531" style="fill: #de4968; fill-opacity: 0.2; stroke: #de4968; stroke-width: 3"/>
    </g>
   </g>
   <g id="PolyCollection_3">
    <defs>
     <path id="ma2366a9b63" d="M -62.586918 -54.608978 
L -62.586918 -54.089531 
L -60.711235 -54.089531 
L -58.835552 -54.089531 
L -56.959868 -54.089531 
L -55.084185 -54.089531 
L -53.208502 -54.089531 
L -51.332819 -54.089531 
L -49.457135 -54.089531 
L -47.581452 -54.089531 
L -45.705769 -54.089531 
L -43.830086 -54.089531 
L -41.954402 -54.089531 
L -40.078719 -54.089531 
L -38.203036 -54.089531 
L -36.327353 -54.089531 
L -34.451669 -54.089531 
L -32.575986 -54.089531 
L -30.700303 -54.089531 
L -28.82462 -54.089531 
L -26.948937 -54.089531 
L -25.073253 -54.089531 
L -23.19757 -54.089531 
L -21.321887 -54.089531 
L -19.446204 -54.089531 
L -17.57052 -54.089531 
L -15.694837 -54.089531 
L -13.819154 -54.089531 
L -11.943471 -54.089531 
L -10.067787 -54.089531 
L -8.192104 -54.089531 
L -6.316421 -54.089531 
L -4.440738 -54.089531 
L -2.565055 -54.089531 
L -0.689371 -54.089531 
L 1.186312 -54.089531 
L 3.061995 -54.089531 
L 4.937678 -54.089531 
L 6.813362 -54.089531 
L 8.689045 -54.089531 
L 10.564728 -54.089531 
L 12.440411 -54.089531 
L 14.316095 -54.089531 
L 16.191778 -54.089531 
L 18.067461 -54.089531 
L 19.943144 -54.089531 
L 21.818828 -54.089531 
L 23.694511 -54.089531 
L 25.570194 -54.089531 
L 27.445877 -54.089531 
L 29.32156 -54.089531 
L 31.197244 -54.089531 
L 33.072927 -54.089531 
L 34.94861 -54.089531 
L 36.824293 -54.089531 
L 38.699977 -54.089531 
L 40.57566 -54.089531 
L 42.451343 -54.089531 
L 44.327026 -54.089531 
L 46.20271 -54.089531 
L 48.078393 -54.089531 
L 49.954076 -54.089531 
L 51.829759 -54.089531 
L 53.705442 -54.089531 
L 55.581126 -54.089531 
L 57.456809 -54.089531 
L 59.332492 -54.089531 
L 61.208175 -54.089531 
L 63.083859 -54.089531 
L 64.959542 -54.089531 
L 66.835225 -54.089531 
L 68.710908 -54.089531 
L 70.586592 -54.089531 
L 72.462275 -54.089531 
L 74.337958 -54.089531 
L 76.213641 -54.089531 
L 78.089324 -54.089531 
L 79.965008 -54.089531 
L 81.840691 -54.089531 
L 83.716374 -54.089531 
L 85.592057 -54.089531 
L 87.467741 -54.089531 
L 89.343424 -54.089531 
L 91.219107 -54.089531 
L 93.09479 -54.089531 
L 94.970474 -54.089531 
L 96.846157 -54.089531 
L 98.72184 -54.089531 
L 100.597523 -54.089531 
L 102.473207 -54.089531 
L 104.34889 -54.089531 
L 106.224573 -54.089531 
L 108.100256 -54.089531 
L 109.975939 -54.089531 
L 111.851623 -54.089531 
L 113.727306 -54.089531 
L 115.602989 -54.089531 
L 117.478672 -54.089531 
L 119.354356 -54.089531 
L 121.230039 -54.089531 
L 123.105722 -54.089531 
L 124.981405 -54.089531 
L 126.857089 -54.089531 
L 128.732772 -54.089531 
L 130.608455 -54.089531 
L 132.484138 -54.089531 
L 134.359821 -54.089531 
L 136.235505 -54.089531 
L 138.111188 -54.089531 
L 139.986871 -54.089531 
L 141.862554 -54.089531 
L 143.738238 -54.089531 
L 145.613921 -54.089531 
L 147.489604 -54.089531 
L 149.365287 -54.089531 
L 151.240971 -54.089531 
L 153.116654 -54.089531 
L 154.992337 -54.089531 
L 156.86802 -54.089531 
L 158.743704 -54.089531 
L 160.619387 -54.089531 
L 162.49507 -54.089531 
L 164.370753 -54.089531 
L 166.246436 -54.089531 
L 168.12212 -54.089531 
L 169.997803 -54.089531 
L 171.873486 -54.089531 
L 173.749169 -54.089531 
L 175.624853 -54.089531 
L 177.500536 -54.089531 
L 179.376219 -54.089531 
L 181.251902 -54.089531 
L 183.127586 -54.089531 
L 185.003269 -54.089531 
L 186.878952 -54.089531 
L 188.754635 -54.089531 
L 190.630318 -54.089531 
L 192.506002 -54.089531 
L 194.381685 -54.089531 
L 196.257368 -54.089531 
L 198.133051 -54.089531 
L 200.008735 -54.089531 
L 201.884418 -54.089531 
L 203.760101 -54.089531 
L 205.635784 -54.089531 
L 207.511468 -54.089531 
L 209.387151 -54.089531 
L 211.262834 -54.089531 
L 213.138517 -54.089531 
L 215.0142 -54.089531 
L 216.889884 -54.089531 
L 218.765567 -54.089531 
L 220.64125 -54.089531 
L 222.516933 -54.089531 
L 224.392617 -54.089531 
L 226.2683 -54.089531 
L 228.143983 -54.089531 
L 230.019666 -54.089531 
L 231.89535 -54.089531 
L 233.771033 -54.089531 
L 235.646716 -54.089531 
L 237.522399 -54.089531 
L 239.398083 -54.089531 
L 241.273766 -54.089531 
L 243.149449 -54.089531 
L 245.025132 -54.089531 
L 246.900815 -54.089531 
L 248.776499 -54.089531 
L 250.652182 -54.089531 
L 252.527865 -54.089531 
L 254.403548 -54.089531 
L 256.279232 -54.089531 
L 258.154915 -54.089531 
L 260.030598 -54.089531 
L 261.906281 -54.089531 
L 263.781965 -54.089531 
L 265.657648 -54.089531 
L 267.533331 -54.089531 
L 269.409014 -54.089531 
L 271.284697 -54.089531 
L 273.160381 -54.089531 
L 275.036064 -54.089531 
L 276.911747 -54.089531 
L 278.78743 -54.089531 
L 280.663114 -54.089531 
L 282.538797 -54.089531 
L 284.41448 -54.089531 
L 286.290163 -54.089531 
L 288.165847 -54.089531 
L 290.04153 -54.089531 
L 291.917213 -54.089531 
L 293.792896 -54.089531 
L 295.66858 -54.089531 
L 297.544263 -54.089531 
L 299.419946 -54.089531 
L 301.295629 -54.089531 
L 303.171312 -54.089531 
L 305.046996 -54.089531 
L 306.922679 -54.089531 
L 308.798362 -54.089531 
L 310.674045 -54.089531 
L 310.674045 -54.219393 
L 310.674045 -54.219393 
L 308.798362 -54.201018 
L 306.922679 -54.160074 
L 305.046996 -54.122429 
L 303.171312 -54.100839 
L 301.295629 -54.092396 
L 299.419946 -54.090066 
L 297.544263 -54.089605 
L 295.66858 -54.089539 
L 293.792896 -54.089532 
L 291.917213 -54.089531 
L 290.04153 -54.089531 
L 288.165847 -54.089531 
L 286.290163 -54.089531 
L 284.41448 -54.089531 
L 282.538797 -54.089531 
L 280.663114 -54.089531 
L 278.78743 -54.089531 
L 276.911747 -54.089531 
L 275.036064 -54.089531 
L 273.160381 -54.089531 
L 271.284697 -54.089531 
L 269.409014 -54.089531 
L 267.533331 -54.089531 
L 265.657648 -54.089531 
L 263.781965 -54.089531 
L 261.906281 -54.089531 
L 260.030598 -54.089531 
L 258.154915 -54.089531 
L 256.279232 -54.089531 
L 254.403548 -54.089531 
L 252.527865 -54.089531 
L 250.652182 -54.089531 
L 248.776499 -54.089531 
L 246.900815 -54.089531 
L 245.025132 -54.089531 
L 243.149449 -54.089531 
L 241.273766 -54.089531 
L 239.398083 -54.089531 
L 237.522399 -54.089531 
L 235.646716 -54.089531 
L 233.771033 -54.089531 
L 231.89535 -54.089531 
L 230.019666 -54.089531 
L 228.143983 -54.089531 
L 226.2683 -54.089531 
L 224.392617 -54.089531 
L 222.516933 -54.089531 
L 220.64125 -54.089531 
L 218.765567 -54.089531 
L 216.889884 -54.089531 
L 215.0142 -54.089531 
L 213.138517 -54.089531 
L 211.262834 -54.089531 
L 209.387151 -54.089531 
L 207.511468 -54.089531 
L 205.635784 -54.089534 
L 203.760101 -54.089562 
L 201.884418 -54.089782 
L 200.008735 -54.091048 
L 198.133051 -54.096312 
L 196.257368 -54.111945 
L 194.381685 -54.144704 
L 192.506002 -54.192709 
L 190.630318 -54.24451 
L 188.754635 -54.301156 
L 186.878952 -54.396311 
L 185.003269 -54.580054 
L 183.127586 -54.912335 
L 181.251902 -55.551363 
L 179.376219 -56.901003 
L 177.500536 -59.637828 
L 175.624853 -64.512104 
L 173.749169 -72.150832 
L 171.873486 -83.201585 
L 169.997803 -98.499812 
L 168.12212 -118.503105 
L 166.246436 -142.40693 
L 164.370753 -168.385664 
L 162.49507 -194.892065 
L 160.619387 -221.250975 
L 158.743704 -246.851666 
L 156.86802 -270.041934 
L 154.992337 -288.037999 
L 153.116654 -298.351205 
L 151.240971 -300.695851 
L 149.365287 -297.125925 
L 147.489604 -289.917113 
L 145.613921 -279.950237 
L 143.738238 -267.576197 
L 141.862554 -253.930882 
L 139.986871 -240.353573 
L 138.111188 -227.265076 
L 136.235505 -214.552579 
L 134.359821 -202.342931 
L 132.484138 -190.65771 
L 130.608455 -179.103387 
L 128.732772 -167.524744 
L 126.857089 -156.428962 
L 124.981405 -146.527794 
L 123.105722 -138.121338 
L 121.230039 -130.853184 
L 119.354356 -124.021465 
L 117.478672 -117.243067 
L 115.602989 -110.720983 
L 113.727306 -104.876546 
L 111.851623 -99.818471 
L 109.975939 -95.156815 
L 108.100256 -90.49697 
L 106.224573 -86.090358 
L 104.34889 -82.597263 
L 102.473207 -80.250522 
L 100.597523 -78.633223 
L 98.72184 -77.134058 
L 96.846157 -75.325384 
L 94.970474 -73.131021 
L 93.09479 -70.876031 
L 91.219107 -68.982988 
L 89.343424 -67.54921 
L 87.467741 -66.396821 
L 85.592057 -65.400978 
L 83.716374 -64.540635 
L 81.840691 -63.765895 
L 79.965008 -62.973879 
L 78.089324 -62.081189 
L 76.213641 -61.122288 
L 74.337958 -60.259223 
L 72.462275 -59.616593 
L 70.586592 -59.122339 
L 68.710908 -58.587492 
L 66.835225 -57.942729 
L 64.959542 -57.312724 
L 63.083859 -56.844066 
L 61.208175 -56.548419 
L 59.332492 -56.333533 
L 57.456809 -56.12861 
L 55.581126 -55.948832 
L 53.705442 -55.833517 
L 51.829759 -55.75558 
L 49.954076 -55.64808 
L 48.078393 -55.498911 
L 46.20271 -55.360913 
L 44.327026 -55.272187 
L 42.451343 -55.215799 
L 40.57566 -55.199229 
L 38.699977 -55.300113 
L 36.824293 -55.505527 
L 34.94861 -55.595344 
L 33.072927 -55.371029 
L 31.197244 -54.92513 
L 29.32156 -54.534206 
L 27.445877 -54.374556 
L 25.570194 -54.428574 
L 23.694511 -54.558065 
L 21.818828 -54.608804 
L 19.943144 -54.518528 
L 18.067461 -54.351122 
L 16.191778 -54.207118 
L 14.316095 -54.128488 
L 12.440411 -54.099044 
L 10.564728 -54.091243 
L 8.689045 -54.089758 
L 6.813362 -54.089553 
L 4.937678 -54.089533 
L 3.061995 -54.089531 
L 1.186312 -54.089531 
L -0.689371 -54.089531 
L -2.565055 -54.089531 
L -4.440738 -54.089531 
L -6.316421 -54.089531 
L -8.192104 -54.089531 
L -10.067787 -54.089531 
L -11.943471 -54.089531 
L -13.819154 -54.089531 
L -15.694837 -54.089531 
L -17.57052 -54.089531 
L -19.446204 -54.089531 
L -21.321887 -54.089531 
L -23.19757 -54.089531 
L -25.073253 -54.089531 
L -26.948937 -54.089531 
L -28.82462 -54.089531 
L -30.700303 -54.089531 
L -32.575986 -54.089531 
L -34.451669 -54.089531 
L -36.327353 -54.089531 
L -38.203036 -54.089531 
L -40.078719 -54.089531 
L -41.954402 -54.089531 
L -43.830086 -54.089531 
L -45.705769 -54.089533 
L -47.581452 -54.089561 
L -49.457135 -54.089826 
L -51.332819 -54.091671 
L -53.208502 -54.100989 
L -55.084185 -54.134762 
L -56.959868 -54.221123 
L -58.835552 -54.371703 
L -60.711235 -54.535479 
L -62.586918 -54.608978 
z
" style="stroke: #22587a; stroke-width: 3"/>
    </defs>
    <g clip-path="url(#p1940f407b7)">
     <use xlink:href="#ma2366a9b63" x="0" y="338.489531" style="fill: #22587a; fill-opacity: 0.2; stroke: #22587a; stroke-width: 3"/>
    </g>
   </g>
   <g id="PolyCollection_4">
    <defs>
     <path id="m8baeeb8bf6" d="M -62.586918 -55.191939 
L -62.586918 -54.089531 
L -60.54698 -54.089531 
L -58.507042 -54.089531 
L -56.467103 -54.089531 
L -54.427165 -54.089531 
L -52.387227 -54.089531 
L -50.347289 -54.089531 
L -48.307351 -54.089531 
L -46.267412 -54.089531 
L -44.227474 -54.089531 
L -42.187536 -54.089531 
L -40.147598 -54.089531 
L -38.10766 -54.089531 
L -36.067722 -54.089531 
L -34.027783 -54.089531 
L -31.987845 -54.089531 
L -29.947907 -54.089531 
L -27.907969 -54.089531 
L -25.868031 -54.089531 
L -23.828092 -54.089531 
L -21.788154 -54.089531 
L -19.748216 -54.089531 
L -17.708278 -54.089531 
L -15.66834 -54.089531 
L -13.628401 -54.089531 
L -11.588463 -54.089531 
L -9.548525 -54.089531 
L -7.508587 -54.089531 
L -5.468649 -54.089531 
L -3.428711 -54.089531 
L -1.388772 -54.089531 
L 0.651166 -54.089531 
L 2.691104 -54.089531 
L 4.731042 -54.089531 
L 6.77098 -54.089531 
L 8.810919 -54.089531 
L 10.850857 -54.089531 
L 12.890795 -54.089531 
L 14.930733 -54.089531 
L 16.970671 -54.089531 
L 19.01061 -54.089531 
L 21.050548 -54.089531 
L 23.090486 -54.089531 
L 25.130424 -54.089531 
L 27.170362 -54.089531 
L 29.2103 -54.089531 
L 31.250239 -54.089531 
L 33.290177 -54.089531 
L 35.330115 -54.089531 
L 37.370053 -54.089531 
L 39.409991 -54.089531 
L 41.44993 -54.089531 
L 43.489868 -54.089531 
L 45.529806 -54.089531 
L 47.569744 -54.089531 
L 49.609682 -54.089531 
L 51.649621 -54.089531 
L 53.689559 -54.089531 
L 55.729497 -54.089531 
L 57.769435 -54.089531 
L 59.809373 -54.089531 
L 61.849311 -54.089531 
L 63.88925 -54.089531 
L 65.929188 -54.089531 
L 67.969126 -54.089531 
L 70.009064 -54.089531 
L 72.049002 -54.089531 
L 74.088941 -54.089531 
L 76.128879 -54.089531 
L 78.168817 -54.089531 
L 80.208755 -54.089531 
L 82.248693 -54.089531 
L 84.288631 -54.089531 
L 86.32857 -54.089531 
L 88.368508 -54.089531 
L 90.408446 -54.089531 
L 92.448384 -54.089531 
L 94.488322 -54.089531 
L 96.528261 -54.089531 
L 98.568199 -54.089531 
L 100.608137 -54.089531 
L 102.648075 -54.089531 
L 104.688013 -54.089531 
L 106.727952 -54.089531 
L 108.76789 -54.089531 
L 110.807828 -54.089531 
L 112.847766 -54.089531 
L 114.887704 -54.089531 
L 116.927642 -54.089531 
L 118.967581 -54.089531 
L 121.007519 -54.089531 
L 123.047457 -54.089531 
L 125.087395 -54.089531 
L 127.127333 -54.089531 
L 129.167272 -54.089531 
L 131.20721 -54.089531 
L 133.247148 -54.089531 
L 135.287086 -54.089531 
L 137.327024 -54.089531 
L 139.366963 -54.089531 
L 141.406901 -54.089531 
L 143.446839 -54.089531 
L 145.486777 -54.089531 
L 147.526715 -54.089531 
L 149.566653 -54.089531 
L 151.606592 -54.089531 
L 153.64653 -54.089531 
L 155.686468 -54.089531 
L 157.726406 -54.089531 
L 159.766344 -54.089531 
L 161.806283 -54.089531 
L 163.846221 -54.089531 
L 165.886159 -54.089531 
L 167.926097 -54.089531 
L 169.966035 -54.089531 
L 172.005974 -54.089531 
L 174.045912 -54.089531 
L 176.08585 -54.089531 
L 178.125788 -54.089531 
L 180.165726 -54.089531 
L 182.205664 -54.089531 
L 184.245603 -54.089531 
L 186.285541 -54.089531 
L 188.325479 -54.089531 
L 190.365417 -54.089531 
L 192.405355 -54.089531 
L 194.445294 -54.089531 
L 196.485232 -54.089531 
L 198.52517 -54.089531 
L 200.565108 -54.089531 
L 202.605046 -54.089531 
L 204.644985 -54.089531 
L 206.684923 -54.089531 
L 208.724861 -54.089531 
L 210.764799 -54.089531 
L 212.804737 -54.089531 
L 214.844675 -54.089531 
L 216.884614 -54.089531 
L 218.924552 -54.089531 
L 220.96449 -54.089531 
L 223.004428 -54.089531 
L 225.044366 -54.089531 
L 227.084305 -54.089531 
L 229.124243 -54.089531 
L 231.164181 -54.089531 
L 233.204119 -54.089531 
L 235.244057 -54.089531 
L 237.283996 -54.089531 
L 239.323934 -54.089531 
L 241.363872 -54.089531 
L 243.40381 -54.089531 
L 245.443748 -54.089531 
L 247.483686 -54.089531 
L 249.523625 -54.089531 
L 251.563563 -54.089531 
L 253.603501 -54.089531 
L 255.643439 -54.089531 
L 257.683377 -54.089531 
L 259.723316 -54.089531 
L 261.763254 -54.089531 
L 263.803192 -54.089531 
L 265.84313 -54.089531 
L 267.883068 -54.089531 
L 269.923007 -54.089531 
L 271.962945 -54.089531 
L 274.002883 -54.089531 
L 276.042821 -54.089531 
L 278.082759 -54.089531 
L 280.122697 -54.089531 
L 282.162636 -54.089531 
L 284.202574 -54.089531 
L 286.242512 -54.089531 
L 288.28245 -54.089531 
L 290.322388 -54.089531 
L 292.362327 -54.089531 
L 294.402265 -54.089531 
L 296.442203 -54.089531 
L 298.482141 -54.089531 
L 300.522079 -54.089531 
L 302.562018 -54.089531 
L 304.601956 -54.089531 
L 306.641894 -54.089531 
L 308.681832 -54.089531 
L 310.72177 -54.089531 
L 312.761708 -54.089531 
L 314.801647 -54.089531 
L 316.841585 -54.089531 
L 318.881523 -54.089531 
L 320.921461 -54.089531 
L 322.961399 -54.089531 
L 325.001338 -54.089531 
L 327.041276 -54.089531 
L 329.081214 -54.089531 
L 331.121152 -54.089531 
L 333.16109 -54.089531 
L 335.201029 -54.089531 
L 337.240967 -54.089531 
L 339.280905 -54.089531 
L 341.320843 -54.089531 
L 343.360781 -54.089531 
L 343.360781 -54.212021 
L 343.360781 -54.212021 
L 341.320843 -54.195327 
L 339.280905 -54.157703 
L 337.240967 -54.122356 
L 335.201029 -54.10172 
L 333.16109 -54.09503 
L 331.121152 -54.099592 
L 329.081214 -54.118213 
L 327.041276 -54.156415 
L 325.001338 -54.215404 
L 322.961399 -54.294003 
L 320.921461 -54.398 
L 318.881523 -54.531462 
L 316.841585 -54.676877 
L 314.801647 -54.812906 
L 312.761708 -54.946197 
L 310.72177 -55.078167 
L 308.681832 -55.158068 
L 306.641894 -55.134471 
L 304.601956 -55.032333 
L 302.562018 -54.917086 
L 300.522079 -54.810777 
L 298.482141 -54.69546 
L 296.442203 -54.567202 
L 294.402265 -54.445534 
L 292.362327 -54.351169 
L 290.322388 -54.29271 
L 288.28245 -54.260535 
L 286.242512 -54.233984 
L 284.202574 -54.205984 
L 282.162636 -54.19155 
L 280.122697 -54.203157 
L 278.082759 -54.229887 
L 276.042821 -54.251079 
L 274.002883 -54.259765 
L 271.962945 -54.26014 
L 269.923007 -54.254181 
L 267.883068 -54.245327 
L 265.84313 -54.240359 
L 263.803192 -54.235021 
L 261.763254 -54.214583 
L 259.723316 -54.176353 
L 257.683377 -54.135875 
L 255.643439 -54.108183 
L 253.603501 -54.095152 
L 251.563563 -54.090796 
L 249.523625 -54.089745 
L 247.483686 -54.089573 
L 245.443748 -54.089664 
L 243.40381 -54.090366 
L 241.363872 -54.093517 
L 239.323934 -54.10373 
L 237.283996 -54.127261 
L 235.244057 -54.164322 
L 233.204119 -54.200135 
L 231.164181 -54.211603 
L 229.124243 -54.190421 
L 227.084305 -54.15373 
L 225.044366 -54.127745 
L 223.004428 -54.128183 
L 220.96449 -54.154949 
L 218.924552 -54.192749 
L 216.884614 -54.219125 
L 214.844675 -54.229555 
L 212.804737 -54.257736 
L 210.764799 -54.353316 
L 208.724861 -54.522908 
L 206.684923 -54.695254 
L 204.644985 -54.767157 
L 202.605046 -54.698967 
L 200.565108 -54.551346 
L 198.52517 -54.420938 
L 196.485232 -54.361232 
L 194.445294 -54.374301 
L 192.405355 -54.447417 
L 190.365417 -54.563952 
L 188.325479 -54.690567 
L 186.285541 -54.802519 
L 184.245603 -54.960168 
L 182.205664 -55.362465 
L 180.165726 -56.321529 
L 178.125788 -58.253196 
L 176.08585 -61.827736 
L 174.045912 -68.171953 
L 172.005974 -78.795821 
L 169.966035 -95.136066 
L 167.926097 -117.912212 
L 165.886159 -146.488531 
L 163.846221 -178.537546 
L 161.806283 -210.51049 
L 159.766344 -238.853906 
L 157.726406 -261.114657 
L 155.686468 -276.436504 
L 153.64653 -285.456406 
L 151.606592 -289.465579 
L 149.566653 -289.322679 
L 147.526715 -285.156931 
L 145.486777 -276.910309 
L 143.446839 -265.020016 
L 141.406901 -250.779553 
L 139.366963 -236.024849 
L 137.327024 -222.204865 
L 135.287086 -209.66404 
L 133.247148 -197.84167 
L 131.20721 -186.123627 
L 129.167272 -174.445567 
L 127.127333 -163.097785 
L 125.087395 -152.171083 
L 123.047457 -141.557628 
L 121.007519 -131.483724 
L 118.967581 -122.531583 
L 116.927642 -115.013118 
L 114.887704 -108.697717 
L 112.847766 -103.117257 
L 110.807828 -97.91486 
L 108.76789 -93.066153 
L 106.727952 -88.825559 
L 104.688013 -85.338978 
L 102.648075 -82.431107 
L 100.608137 -79.775242 
L 98.568199 -77.071526 
L 96.528261 -74.193221 
L 94.488322 -71.356463 
L 92.448384 -68.966079 
L 90.408446 -67.187812 
L 88.368508 -65.828064 
L 86.32857 -64.614378 
L 84.288631 -63.430443 
L 82.248693 -62.31185 
L 80.208755 -61.352238 
L 78.168817 -60.608642 
L 76.128879 -60.023635 
L 74.088941 -59.458301 
L 72.049002 -58.830131 
L 70.009064 -58.183068 
L 67.969126 -57.624981 
L 65.929188 -57.239686 
L 63.88925 -57.041301 
L 61.849311 -56.961167 
L 59.809373 -56.891266 
L 57.769435 -56.77776 
L 55.729497 -56.6442 
L 53.689559 -56.505485 
L 51.649621 -56.3251 
L 49.609682 -56.095722 
L 47.569744 -55.895865 
L 45.529806 -55.793646 
L 43.489868 -55.71733 
L 41.44993 -55.511068 
L 39.409991 -55.138371 
L 37.370053 -54.73592 
L 35.330115 -54.443442 
L 33.290177 -54.28078 
L 31.250239 -54.204608 
L 29.2103 -54.19396 
L 27.170362 -54.251575 
L 25.130424 -54.356983 
L 23.090486 -54.444121 
L 21.050548 -54.444588 
L 19.01061 -54.355275 
L 16.970671 -54.237952 
L 14.930733 -54.151373 
L 12.890795 -54.108753 
L 10.850857 -54.093988 
L 8.810919 -54.090302 
L 6.77098 -54.089631 
L 4.731042 -54.089541 
L 2.691104 -54.089532 
L 0.651166 -54.089531 
L -1.388772 -54.089531 
L -3.428711 -54.089531 
L -5.468649 -54.089531 
L -7.508587 -54.089531 
L -9.548525 -54.089531 
L -11.588463 -54.089531 
L -13.628401 -54.089531 
L -15.66834 -54.089531 
L -17.708278 -54.089531 
L -19.748216 -54.089531 
L -21.788154 -54.089531 
L -23.828092 -54.089531 
L -25.868031 -54.089531 
L -27.907969 -54.089531 
L -29.947907 -54.089531 
L -31.987845 -54.089531 
L -34.027783 -54.089531 
L -36.067722 -54.089531 
L -38.10766 -54.089531 
L -40.147598 -54.089531 
L -42.187536 -54.089532 
L -44.227474 -54.089539 
L -46.267412 -54.089625 
L -48.307351 -54.090371 
L -50.347289 -54.095174 
L -52.387227 -54.117811 
L -54.427165 -54.195258 
L -56.467103 -54.384399 
L -58.507042 -54.703014 
L -60.54698 -55.041686 
L -62.586918 -55.191939 
z
" style="stroke: #38a3a6; stroke-width: 3"/>
    </defs>
    <g clip-path="url(#p1940f407b7)">
     <use xlink:href="#m8baeeb8bf6" x="0" y="338.489531" style="fill: #38a3a6; fill-opacity: 0.2; stroke: #38a3a6; stroke-width: 3"/>
    </g>
   </g>
   <g id="patch_3">
    <path d="M 64.360781 284.4 
L 64.360781 7.2 
" style="fill: none; stroke: #262626; stroke-width: 3; stroke-linejoin: miter; stroke-linecap: square"/>
   </g>
   <g id="patch_4">
    <path d="M 64.360781 284.4 
L 343.360781 284.4 
" style="fill: none; stroke: #262626; stroke-width: 3; stroke-linejoin: miter; stroke-linecap: square"/>
   </g>
   <g id="legend_1">
    <g id="patch_5">
     <path d="M 304.6875 114.024609 
L 337.6875 114.024609 
L 337.6875 102.474609 
L 304.6875 102.474609 
z
" style="fill: #38a3a6; stroke: #ffffff; stroke-linejoin: miter"/>
    </g>
    <g id="text_14">
     <text style="fill: #262626; font: 16.5px 'sans-serif'; text-anchor: start" x="350.8875" y="114.024609" transform="rotate(-0, 350.8875, 114.024609)">AraC S170 WT LOV light</text>
    </g>
    <g id="patch_6">
     <path d="M 304.6875 138.243516 
L 337.6875 138.243516 
L 337.6875 126.693516 
L 304.6875 126.693516 
z
" style="fill: #22587a; stroke: #ffffff; stroke-linejoin: miter"/>
    </g>
    <g id="text_15">
     <text style="fill: #262626; font: 16.5px 'sans-serif'; text-anchor: start" x="350.8875" y="138.243516" transform="rotate(-0, 350.8875, 138.243516)">AraC S170 WT LOV dark</text>
    </g>
    <g id="patch_7">
     <path d="M 304.6875 162.462422 
L 337.6875 162.462422 
L 337.6875 150.912422 
L 304.6875 150.912422 
z
" style="fill: #de4968; stroke: #ffffff; stroke-linejoin: miter"/>
    </g>
    <g id="text_16">
     <text style="fill: #262626; font: 16.5px 'sans-serif'; text-anchor: start" x="350.8875" y="162.462422" transform="rotate(-0, 350.8875, 162.462422)">AraC S170 R2 LOV light</text>
    </g>
    <g id="patch_8">
     <path d="M 304.6875 186.681328 
L 337.6875 186.681328 
L 337.6875 175.131328 
L 304.6875 175.131328 
z
" style="fill: #8c2981; stroke: #ffffff; stroke-linejoin: miter"/>
    </g>
    <g id="text_17">
     <text style="fill: #262626; font: 16.5px 'sans-serif'; text-anchor: start" x="350.8875" y="186.681328" transform="rotate(-0, 350.8875, 186.681328)">AraC S170 R2 LOV dark</text>
    </g>
   </g>
  </g>
 </g>
 <defs>
  <clipPath id="p1940f407b7">
   <rect x="64.360781" y="7.2" width="279" height="277.2"/>
  </clipPath>
 </defs>
</svg>
