<?xml version="1.0" encoding="utf-8" standalone="no"?>
<!DOCTYPE svg PUBLIC "-//W3C//DTD SVG 1.1//EN"
  "http://www.w3.org/Graphics/SVG/1.1/DTD/svg11.dtd">
<svg xmlns:xlink="http://www.w3.org/1999/xlink" width="600.105117pt" height="344.758242pt" viewBox="0 0 600.105117 344.758242" xmlns="http://www.w3.org/2000/svg" version="1.1">
 <metadata>
  <rdf:RDF xmlns:dc="http://purl.org/dc/elements/1.1/" xmlns:cc="http://creativecommons.org/ns#" xmlns:rdf="http://www.w3.org/1999/02/22-rdf-syntax-ns#">
   <cc:Work>
    <dc:type rdf:resource="http://purl.org/dc/dcmitype/StillImage"/>
    <dc:date>2025-05-08T15:37:26.270819</dc:date>
    <dc:format>image/svg+xml</dc:format>
    <dc:creator>
     <cc:Agent>
      <dc:title>Matplotlib v3.5.0, https://matplotlib.org/</dc:title>
     </cc:Agent>
    </dc:creator>
   </cc:Work>
  </rdf:RDF>
 </metadata>
 <defs>
  <style type="text/css">*{stroke-linejoin: round; stroke-linecap: butt}</style>
 </defs>
 <g id="figure_1">
  <g id="patch_1">
   <path d="M 0 344.758242 
L 600.105117 344.758242 
L 600.105117 0 
L 0 0 
z
" style="fill: #ffffff"/>
  </g>
  <g id="axes_1">
   <g id="patch_2">
    <path d="M 74.858906 290.668711 
L 353.858906 290.668711 
L 353.858906 13.468711 
L 74.858906 13.468711 
z
" style="fill: #ffffff"/>
   </g>
   <g id="matplotlib.axis_1">
    <g id="xtick_1">
     <g id="line2d_1">
      <defs>
       <path id="md8bc68ef57" d="M 0 0 
L 0 6 
" style="stroke: #262626; stroke-width: 3"/>
      </defs>
      <g>
       <use xlink:href="#md8bc68ef57" x="74.858906" y="290.668711" style="fill: #262626; stroke: #262626; stroke-width: 3"/>
      </g>
     </g>
     <g id="text_1">
      <!-- $\mathdefault{10^{0}}$ -->
      <g style="fill: #262626" transform="translate(60.338906 312.706133)">
       <text>
        <tspan style="font: 16.5px 'DejaVu Sans'" x="0 10.497803" y="-0.10312500000000213">10</tspan>
        <tspan style="font: 11.55px 'DejaVu Sans'" x="21.153652" y="-6.425000000000001">0</tspan>
       </text>
      </g>
     </g>
    </g>
    <g id="xtick_2">
     <g id="line2d_2">
      <g>
       <use xlink:href="#md8bc68ef57" x="154.573192" y="290.668711" style="fill: #262626; stroke: #262626; stroke-width: 3"/>
      </g>
     </g>
     <g id="text_2">
      <!-- $\mathdefault{10^{2}}$ -->
      <g style="fill: #262626" transform="translate(140.053192 312.706133)">
       <text>
        <tspan style="font: 16.5px 'DejaVu Sans'" x="0 10.497803" y="-0.10312500000000213">10</tspan>
        <tspan style="font: 11.55px 'DejaVu Sans'" x="21.153652" y="-6.425000000000001">2</tspan>
       </text>
      </g>
     </g>
    </g>
    <g id="xtick_3">
     <g id="line2d_3">
      <g>
       <use xlink:href="#md8bc68ef57" x="234.287478" y="290.668711" style="fill: #262626; stroke: #262626; stroke-width: 3"/>
      </g>
     </g>
     <g id="text_3">
      <!-- $\mathdefault{10^{4}}$ -->
      <g style="fill: #262626" transform="translate(219.767478 312.706133)">
       <text>
        <tspan style="font: 16.5px 'DejaVu Sans'" x="0 10.497803" y="-0.2562500000000014">10</tspan>
        <tspan style="font: 11.55px 'DejaVu Sans'" x="21.153652" y="-6.578125">4</tspan>
       </text>
      </g>
     </g>
    </g>
    <g id="xtick_4">
     <g id="line2d_4">
      <g>
       <use xlink:href="#md8bc68ef57" x="314.001763" y="290.668711" style="fill: #262626; stroke: #262626; stroke-width: 3"/>
      </g>
     </g>
     <g id="text_4">
      <!-- $\mathdefault{10^{6}}$ -->
      <g style="fill: #262626" transform="translate(299.481763 312.706133)">
       <text>
        <tspan style="font: 16.5px 'DejaVu Sans'" x="0 10.497803" y="-0.10312500000000213">10</tspan>
        <tspan style="font: 11.55px 'DejaVu Sans'" x="21.153652" y="-6.425000000000001">6</tspan>
       </text>
      </g>
     </g>
    </g>
    <g id="text_5">
     <text style="fill: #262626; font: 18px 'sans-serif'; text-anchor: middle" x="214.358906" y="333.814805" transform="rotate(-0, 214.358906, 333.814805)">log[RFP]</text>
    </g>
   </g>
   <g id="matplotlib.axis_2">
    <g id="ytick_1">
     <g id="line2d_5">
      <defs>
       <path id="m8dd0823a32" d="M 0 0 
L -6 0 
" style="stroke: #262626; stroke-width: 3"/>
      </defs>
      <g>
       <use xlink:href="#m8dd0823a32" x="74.858906" y="290.668711" style="fill: #262626; stroke: #262626; stroke-width: 3"/>
      </g>
     </g>
     <g id="text_6">
      <text style="fill: #262626; font: 16.5px 'sans-serif'; text-anchor: end" x="65.358906" y="296.937422" transform="rotate(-0, 65.358906, 296.937422)">0.00</text>
     </g>
    </g>
    <g id="ytick_2">
     <g id="line2d_6">
      <g>
       <use xlink:href="#m8dd0823a32" x="74.858906" y="251.068711" style="fill: #262626; stroke: #262626; stroke-width: 3"/>
      </g>
     </g>
     <g id="text_7">
      <text style="fill: #262626; font: 16.5px 'sans-serif'; text-anchor: end" x="65.358906" y="257.337422" transform="rotate(-0, 65.358906, 257.337422)">0.25</text>
     </g>
    </g>
    <g id="ytick_3">
     <g id="line2d_7">
      <g>
       <use xlink:href="#m8dd0823a32" x="74.858906" y="211.468711" style="fill: #262626; stroke: #262626; stroke-width: 3"/>
      </g>
     </g>
     <g id="text_8">
      <text style="fill: #262626; font: 16.5px 'sans-serif'; text-anchor: end" x="65.358906" y="217.737422" transform="rotate(-0, 65.358906, 217.737422)">0.50</text>
     </g>
    </g>
    <g id="ytick_4">
     <g id="line2d_8">
      <g>
       <use xlink:href="#m8dd0823a32" x="74.858906" y="171.868711" style="fill: #262626; stroke: #262626; stroke-width: 3"/>
      </g>
     </g>
     <g id="text_9">
      <text style="fill: #262626; font: 16.5px 'sans-serif'; text-anchor: end" x="65.358906" y="178.137422" transform="rotate(-0, 65.358906, 178.137422)">0.75</text>
     </g>
    </g>
    <g id="ytick_5">
     <g id="line2d_9">
      <g>
       <use xlink:href="#m8dd0823a32" x="74.858906" y="132.268711" style="fill: #262626; stroke: #262626; stroke-width: 3"/>
      </g>
     </g>
     <g id="text_10">
      <text style="fill: #262626; font: 16.5px 'sans-serif'; text-anchor: end" x="65.358906" y="138.537422" transform="rotate(-0, 65.358906, 138.537422)">1.00</text>
     </g>
    </g>
    <g id="ytick_6">
     <g id="line2d_10">
      <g>
       <use xlink:href="#m8dd0823a32" x="74.858906" y="92.668711" style="fill: #262626; stroke: #262626; stroke-width: 3"/>
      </g>
     </g>
     <g id="text_11">
      <text style="fill: #262626; font: 16.5px 'sans-serif'; text-anchor: end" x="65.358906" y="98.937422" transform="rotate(-0, 65.358906, 98.937422)">1.25</text>
     </g>
    </g>
    <g id="ytick_7">
     <g id="line2d_11">
      <g>
       <use xlink:href="#m8dd0823a32" x="74.858906" y="53.068711" style="fill: #262626; stroke: #262626; stroke-width: 3"/>
      </g>
     </g>
     <g id="text_12">
      <text style="fill: #262626; font: 16.5px 'sans-serif'; text-anchor: end" x="65.358906" y="59.337422" transform="rotate(-0, 65.358906, 59.337422)">1.50</text>
     </g>
    </g>
    <g id="ytick_8">
     <g id="line2d_12">
      <g>
       <use xlink:href="#m8dd0823a32" x="74.858906" y="13.468711" style="fill: #262626; stroke: #262626; stroke-width: 3"/>
      </g>
     </g>
     <g id="text_13">
      <text style="fill: #262626; font: 16.5px 'sans-serif'; text-anchor: end" x="65.358906" y="19.737422" transform="rotate(-0, 65.358906, 19.737422)">1.75</text>
     </g>
    </g>
    <g id="text_14">
     <text style="fill: #262626; font: 18px 'sans-serif'; text-anchor: middle" x="20.877187" y="152.068711" transform="rotate(-90, 20.877187, 152.068711)">Density</text>
    </g>
   </g>
   <g id="PolyCollection_1">
    <defs>
     <path id="mb35c029b47" d="M 46.999959 -54.143902 
L 46.999959 -54.089531 
L 48.431754 -54.089531 
L 49.863549 -54.089531 
L 51.295344 -54.089531 
L 52.727139 -54.089531 
L 54.158934 -54.089531 
L 55.590729 -54.089531 
L 57.022524 -54.089531 
L 58.454319 -54.089531 
L 59.886113 -54.089531 
L 61.317908 -54.089531 
L 62.749703 -54.089531 
L 64.181498 -54.089531 
L 65.613293 -54.089531 
L 67.045088 -54.089531 
L 68.476883 -54.089531 
L 69.908678 -54.089531 
L 71.340473 -54.089531 
L 72.772268 -54.089531 
L 74.204063 -54.089531 
L 75.635858 -54.089531 
L 77.067652 -54.089531 
L 78.499447 -54.089531 
L 79.931242 -54.089531 
L 81.363037 -54.089531 
L 82.794832 -54.089531 
L 84.226627 -54.089531 
L 85.658422 -54.089531 
L 87.090217 -54.089531 
L 88.522012 -54.089531 
L 89.953807 -54.089531 
L 91.385602 -54.089531 
L 92.817397 -54.089531 
L 94.249191 -54.089531 
L 95.680986 -54.089531 
L 97.112781 -54.089531 
L 98.544576 -54.089531 
L 99.976371 -54.089531 
L 101.408166 -54.089531 
L 102.839961 -54.089531 
L 104.271756 -54.089531 
L 105.703551 -54.089531 
L 107.135346 -54.089531 
L 108.567141 -54.089531 
L 109.998936 -54.089531 
L 111.43073 -54.089531 
L 112.862525 -54.089531 
L 114.29432 -54.089531 
L 115.726115 -54.089531 
L 117.15791 -54.089531 
L 118.589705 -54.089531 
L 120.0215 -54.089531 
L 121.453295 -54.089531 
L 122.88509 -54.089531 
L 124.316885 -54.089531 
L 125.74868 -54.089531 
L 127.180475 -54.089531 
L 128.612269 -54.089531 
L 130.044064 -54.089531 
L 131.475859 -54.089531 
L 132.907654 -54.089531 
L 134.339449 -54.089531 
L 135.771244 -54.089531 
L 137.203039 -54.089531 
L 138.634834 -54.089531 
L 140.066629 -54.089531 
L 141.498424 -54.089531 
L 142.930219 -54.089531 
L 144.362014 -54.089531 
L 145.793808 -54.089531 
L 147.225603 -54.089531 
L 148.657398 -54.089531 
L 150.089193 -54.089531 
L 151.520988 -54.089531 
L 152.952783 -54.089531 
L 154.384578 -54.089531 
L 155.816373 -54.089531 
L 157.248168 -54.089531 
L 158.679963 -54.089531 
L 160.111758 -54.089531 
L 161.543553 -54.089531 
L 162.975347 -54.089531 
L 164.407142 -54.089531 
L 165.838937 -54.089531 
L 167.270732 -54.089531 
L 168.702527 -54.089531 
L 170.134322 -54.089531 
L 171.566117 -54.089531 
L 172.997912 -54.089531 
L 174.429707 -54.089531 
L 175.861502 -54.089531 
L 177.293297 -54.089531 
L 178.725092 -54.089531 
L 180.156886 -54.089531 
L 181.588681 -54.089531 
L 183.020476 -54.089531 
L 184.452271 -54.089531 
L 185.884066 -54.089531 
L 187.315861 -54.089531 
L 188.747656 -54.089531 
L 190.179451 -54.089531 
L 191.611246 -54.089531 
L 193.043041 -54.089531 
L 194.474836 -54.089531 
L 195.906631 -54.089531 
L 197.338425 -54.089531 
L 198.77022 -54.089531 
L 200.202015 -54.089531 
L 201.63381 -54.089531 
L 203.065605 -54.089531 
L 204.4974 -54.089531 
L 205.929195 -54.089531 
L 207.36099 -54.089531 
L 208.792785 -54.089531 
L 210.22458 -54.089531 
L 211.656375 -54.089531 
L 213.08817 -54.089531 
L 214.519964 -54.089531 
L 215.951759 -54.089531 
L 217.383554 -54.089531 
L 218.815349 -54.089531 
L 220.247144 -54.089531 
L 221.678939 -54.089531 
L 223.110734 -54.089531 
L 224.542529 -54.089531 
L 225.974324 -54.089531 
L 227.406119 -54.089531 
L 228.837914 -54.089531 
L 230.269709 -54.089531 
L 231.701504 -54.089531 
L 233.133298 -54.089531 
L 234.565093 -54.089531 
L 235.996888 -54.089531 
L 237.428683 -54.089531 
L 238.860478 -54.089531 
L 240.292273 -54.089531 
L 241.724068 -54.089531 
L 243.155863 -54.089531 
L 244.587658 -54.089531 
L 246.019453 -54.089531 
L 247.451248 -54.089531 
L 248.883043 -54.089531 
L 250.314837 -54.089531 
L 251.746632 -54.089531 
L 253.178427 -54.089531 
L 254.610222 -54.089531 
L 256.042017 -54.089531 
L 257.473812 -54.089531 
L 258.905607 -54.089531 
L 260.337402 -54.089531 
L 261.769197 -54.089531 
L 263.200992 -54.089531 
L 264.632787 -54.089531 
L 266.064582 -54.089531 
L 267.496376 -54.089531 
L 268.928171 -54.089531 
L 270.359966 -54.089531 
L 271.791761 -54.089531 
L 273.223556 -54.089531 
L 274.655351 -54.089531 
L 276.087146 -54.089531 
L 277.518941 -54.089531 
L 278.950736 -54.089531 
L 280.382531 -54.089531 
L 281.814326 -54.089531 
L 283.246121 -54.089531 
L 284.677915 -54.089531 
L 286.10971 -54.089531 
L 287.541505 -54.089531 
L 288.9733 -54.089531 
L 290.405095 -54.089531 
L 291.83689 -54.089531 
L 293.268685 -54.089531 
L 294.70048 -54.089531 
L 296.132275 -54.089531 
L 297.56407 -54.089531 
L 298.995865 -54.089531 
L 300.42766 -54.089531 
L 301.859454 -54.089531 
L 303.291249 -54.089531 
L 304.723044 -54.089531 
L 306.154839 -54.089531 
L 307.586634 -54.089531 
L 309.018429 -54.089531 
L 310.450224 -54.089531 
L 311.882019 -54.089531 
L 313.313814 -54.089531 
L 314.745609 -54.089531 
L 316.177404 -54.089531 
L 317.609199 -54.089531 
L 319.040993 -54.089531 
L 320.472788 -54.089531 
L 321.904583 -54.089531 
L 323.336378 -54.089531 
L 324.768173 -54.089531 
L 326.199968 -54.089531 
L 327.631763 -54.089531 
L 329.063558 -54.089531 
L 330.495353 -54.089531 
L 331.927148 -54.089531 
L 331.927148 -54.958365 
L 331.927148 -54.958365 
L 330.495353 -55.322255 
L 329.063558 -55.832737 
L 327.631763 -56.544922 
L 326.199968 -57.53015 
L 324.768173 -58.877631 
L 323.336378 -60.694481 
L 321.904583 -63.103253 
L 320.472788 -66.236064 
L 319.040993 -70.224684 
L 317.609199 -75.186484 
L 316.177404 -81.206923 
L 314.745609 -88.320185 
L 313.313814 -96.490519 
L 311.882019 -105.597451 
L 310.450224 -115.42821 
L 309.018429 -125.680187 
L 307.586634 -135.975045 
L 306.154839 -145.884321 
L 304.723044 -154.964344 
L 303.291249 -162.796372 
L 301.859454 -169.026562 
L 300.42766 -173.399999 
L 298.995865 -175.783706 
L 297.56407 -176.175331 
L 296.132275 -174.69657 
L 294.70048 -171.573033 
L 293.268685 -167.104374 
L 291.83689 -161.629845 
L 290.405095 -155.494563 
L 288.9733 -149.020933 
L 287.541505 -142.487994 
L 286.10971 -136.119658 
L 284.677915 -130.081129 
L 283.246121 -124.481741 
L 281.814326 -119.382006 
L 280.382531 -114.802807 
L 278.950736 -110.735114 
L 277.518941 -107.149148 
L 276.087146 -104.002358 
L 274.655351 -101.245911 
L 273.223556 -98.829545 
L 271.791761 -96.704818 
L 270.359966 -94.826873 
L 268.928171 -93.15506 
L 267.496376 -91.652808 
L 266.064582 -90.287233 
L 264.632787 -89.028837 
L 263.200992 -87.851523 
L 261.769197 -86.732878 
L 260.337402 -85.654574 
L 258.905607 -84.60263 
L 257.473812 -83.567343 
L 256.042017 -82.542821 
L 254.610222 -81.526204 
L 253.178427 -80.516753 
L 251.746632 -79.515045 
L 250.314837 -78.522461 
L 248.883043 -77.541054 
L 247.451248 -76.573757 
L 246.019453 -75.624773 
L 244.587658 -74.699921 
L 243.155863 -73.806707 
L 241.724068 -72.953975 
L 240.292273 -72.151132 
L 238.860478 -71.407076 
L 237.428683 -70.729088 
L 235.996888 -70.121964 
L 234.565093 -69.587621 
L 233.133298 -69.125271 
L 231.701504 -68.732109 
L 230.269709 -68.404306 
L 228.837914 -68.138059 
L 227.406119 -67.930463 
L 225.974324 -67.780056 
L 224.542529 -67.687011 
L 223.110734 -67.652995 
L 221.678939 -67.680789 
L 220.247144 -67.773699 
L 218.815349 -67.934786 
L 217.383554 -68.165962 
L 215.951759 -68.467006 
L 214.519964 -68.834707 
L 213.08817 -69.262343 
L 211.656375 -69.73974 
L 210.22458 -70.254045 
L 208.792785 -70.791164 
L 207.36099 -71.337597 
L 205.929195 -71.882293 
L 204.4974 -72.418075 
L 203.065605 -72.942304 
L 201.63381 -73.456621 
L 200.202015 -73.965817 
L 198.77022 -74.476066 
L 197.338425 -74.992837 
L 195.906631 -75.518833 
L 194.474836 -76.052305 
L 193.043041 -76.585984 
L 191.611246 -77.106857 
L 190.179451 -77.596863 
L 188.747656 -78.034455 
L 187.315861 -78.396819 
L 185.884066 -78.662346 
L 184.452271 -78.812903 
L 183.020476 -78.835441 
L 181.588681 -78.722661 
L 180.156886 -78.472726 
L 178.725092 -78.088258 
L 177.293297 -77.575069 
L 175.861502 -76.941088 
L 174.429707 -76.195827 
L 172.997912 -75.350453 
L 171.566117 -74.418285 
L 170.134322 -73.415335 
L 168.702527 -72.360477 
L 167.270732 -71.274954 
L 165.838937 -70.181165 
L 164.407142 -69.10092 
L 162.975347 -68.053542 
L 161.543553 -67.054234 
L 160.111758 -66.113067 
L 158.679963 -65.234755 
L 157.248168 -64.419189 
L 155.816373 -63.662532 
L 154.384578 -62.958617 
L 152.952783 -62.300364 
L 151.520988 -61.681011 
L 150.089193 -61.095043 
L 148.657398 -60.538769 
L 147.225603 -60.01055 
L 145.793808 -59.510707 
L 144.362014 -59.041148 
L 142.930219 -58.604749 
L 141.498424 -58.204581 
L 140.066629 -57.843064 
L 138.634834 -57.521189 
L 137.203039 -57.237973 
L 135.771244 -56.990249 
L 134.339449 -56.772902 
L 132.907654 -56.579501 
L 131.475859 -56.403229 
L 130.044064 -56.237906 
L 128.612269 -56.078868 
L 127.180475 -55.923514 
L 125.74868 -55.771405 
L 124.316885 -55.623914 
L 122.88509 -55.483547 
L 121.453295 -55.353118 
L 120.0215 -55.234971 
L 118.589705 -55.130417 
L 117.15791 -55.039488 
L 115.726115 -54.961001 
L 114.29432 -54.892892 
L 112.862525 -54.832685 
L 111.43073 -54.778 
L 109.998936 -54.726961 
L 108.567141 -54.678437 
L 107.135346 -54.632085 
L 105.703551 -54.588211 
L 104.271756 -54.547509 
L 102.839961 -54.51075 
L 101.408166 -54.478514 
L 99.976371 -54.450996 
L 98.544576 -54.427948 
L 97.112781 -54.408721 
L 95.680986 -54.392396 
L 94.249191 -54.377944 
L 92.817397 -54.364389 
L 91.385602 -54.35092 
L 89.953807 -54.336963 
L 88.522012 -54.322194 
L 87.090217 -54.306509 
L 85.658422 -54.289979 
L 84.226627 -54.2728 
L 82.794832 -54.255239 
L 81.363037 -54.237601 
L 79.931242 -54.220201 
L 78.499447 -54.203345 
L 77.067652 -54.187321 
L 75.635858 -54.172396 
L 74.204063 -54.158816 
L 72.772268 -54.146811 
L 71.340473 -54.136598 
L 69.908678 -54.128377 
L 68.476883 -54.122325 
L 67.045088 -54.11857 
L 65.613293 -54.117164 
L 64.181498 -54.118047 
L 62.749703 -54.121015 
L 61.317908 -54.125702 
L 59.886113 -54.131586 
L 58.454319 -54.138019 
L 57.022524 -54.144287 
L 55.590729 -54.14969 
L 54.158934 -54.153629 
L 52.727139 -54.155672 
L 51.295344 -54.155606 
L 49.863549 -54.153448 
L 48.431754 -54.149419 
L 46.999959 -54.143902 
z
" style="stroke: #de4968; stroke-width: 3"/>
    </defs>
    <g clip-path="url(#p5e43cfc1a6)">
     <use xlink:href="#mb35c029b47" x="0" y="344.758242" style="fill: #de4968; fill-opacity: 0.2; stroke: #de4968; stroke-width: 3"/>
    </g>
   </g>
   <g id="PolyCollection_2">
    <defs>
     <path id="m5a510516df" d="M -44.712522 -54.209109 
L -44.712522 -54.089531 
L -42.829326 -54.089531 
L -40.946129 -54.089531 
L -39.062932 -54.089531 
L -37.179736 -54.089531 
L -35.296539 -54.089531 
L -33.413342 -54.089531 
L -31.530146 -54.089531 
L -29.646949 -54.089531 
L -27.763752 -54.089531 
L -25.880556 -54.089531 
L -23.997359 -54.089531 
L -22.114162 -54.089531 
L -20.230966 -54.089531 
L -18.347769 -54.089531 
L -16.464572 -54.089531 
L -14.581376 -54.089531 
L -12.698179 -54.089531 
L -10.814982 -54.089531 
L -8.931786 -54.089531 
L -7.048589 -54.089531 
L -5.165392 -54.089531 
L -3.282196 -54.089531 
L -1.398999 -54.089531 
L 0.484197 -54.089531 
L 2.367394 -54.089531 
L 4.250591 -54.089531 
L 6.133787 -54.089531 
L 8.016984 -54.089531 
L 9.900181 -54.089531 
L 11.783377 -54.089531 
L 13.666574 -54.089531 
L 15.549771 -54.089531 
L 17.432967 -54.089531 
L 19.316164 -54.089531 
L 21.199361 -54.089531 
L 23.082557 -54.089531 
L 24.965754 -54.089531 
L 26.848951 -54.089531 
L 28.732147 -54.089531 
L 30.615344 -54.089531 
L 32.498541 -54.089531 
L 34.381737 -54.089531 
L 36.264934 -54.089531 
L 38.148131 -54.089531 
L 40.031327 -54.089531 
L 41.914524 -54.089531 
L 43.797721 -54.089531 
L 45.680917 -54.089531 
L 47.564114 -54.089531 
L 49.447311 -54.089531 
L 51.330507 -54.089531 
L 53.213704 -54.089531 
L 55.096901 -54.089531 
L 56.980097 -54.089531 
L 58.863294 -54.089531 
L 60.746491 -54.089531 
L 62.629687 -54.089531 
L 64.512884 -54.089531 
L 66.396081 -54.089531 
L 68.279277 -54.089531 
L 70.162474 -54.089531 
L 72.045671 -54.089531 
L 73.928867 -54.089531 
L 75.812064 -54.089531 
L 77.69526 -54.089531 
L 79.578457 -54.089531 
L 81.461654 -54.089531 
L 83.34485 -54.089531 
L 85.228047 -54.089531 
L 87.111244 -54.089531 
L 88.99444 -54.089531 
L 90.877637 -54.089531 
L 92.760834 -54.089531 
L 94.64403 -54.089531 
L 96.527227 -54.089531 
L 98.410424 -54.089531 
L 100.29362 -54.089531 
L 102.176817 -54.089531 
L 104.060014 -54.089531 
L 105.94321 -54.089531 
L 107.826407 -54.089531 
L 109.709604 -54.089531 
L 111.5928 -54.089531 
L 113.475997 -54.089531 
L 115.359194 -54.089531 
L 117.24239 -54.089531 
L 119.125587 -54.089531 
L 121.008784 -54.089531 
L 122.89198 -54.089531 
L 124.775177 -54.089531 
L 126.658374 -54.089531 
L 128.54157 -54.089531 
L 130.424767 -54.089531 
L 132.307964 -54.089531 
L 134.19116 -54.089531 
L 136.074357 -54.089531 
L 137.957554 -54.089531 
L 139.84075 -54.089531 
L 141.723947 -54.089531 
L 143.607144 -54.089531 
L 145.49034 -54.089531 
L 147.373537 -54.089531 
L 149.256734 -54.089531 
L 151.13993 -54.089531 
L 153.023127 -54.089531 
L 154.906323 -54.089531 
L 156.78952 -54.089531 
L 158.672717 -54.089531 
L 160.555913 -54.089531 
L 162.43911 -54.089531 
L 164.322307 -54.089531 
L 166.205503 -54.089531 
L 168.0887 -54.089531 
L 169.971897 -54.089531 
L 171.855093 -54.089531 
L 173.73829 -54.089531 
L 175.621487 -54.089531 
L 177.504683 -54.089531 
L 179.38788 -54.089531 
L 181.271077 -54.089531 
L 183.154273 -54.089531 
L 185.03747 -54.089531 
L 186.920667 -54.089531 
L 188.803863 -54.089531 
L 190.68706 -54.089531 
L 192.570257 -54.089531 
L 194.453453 -54.089531 
L 196.33665 -54.089531 
L 198.219847 -54.089531 
L 200.103043 -54.089531 
L 201.98624 -54.089531 
L 203.869437 -54.089531 
L 205.752633 -54.089531 
L 207.63583 -54.089531 
L 209.519027 -54.089531 
L 211.402223 -54.089531 
L 213.28542 -54.089531 
L 215.168617 -54.089531 
L 217.051813 -54.089531 
L 218.93501 -54.089531 
L 220.818207 -54.089531 
L 222.701403 -54.089531 
L 224.5846 -54.089531 
L 226.467797 -54.089531 
L 228.350993 -54.089531 
L 230.23419 -54.089531 
L 232.117387 -54.089531 
L 234.000583 -54.089531 
L 235.88378 -54.089531 
L 237.766976 -54.089531 
L 239.650173 -54.089531 
L 241.53337 -54.089531 
L 243.416566 -54.089531 
L 245.299763 -54.089531 
L 247.18296 -54.089531 
L 249.066156 -54.089531 
L 250.949353 -54.089531 
L 252.83255 -54.089531 
L 254.715746 -54.089531 
L 256.598943 -54.089531 
L 258.48214 -54.089531 
L 260.365336 -54.089531 
L 262.248533 -54.089531 
L 264.13173 -54.089531 
L 266.014926 -54.089531 
L 267.898123 -54.089531 
L 269.78132 -54.089531 
L 271.664516 -54.089531 
L 273.547713 -54.089531 
L 275.43091 -54.089531 
L 277.314106 -54.089531 
L 279.197303 -54.089531 
L 281.0805 -54.089531 
L 282.963696 -54.089531 
L 284.846893 -54.089531 
L 286.73009 -54.089531 
L 288.613286 -54.089531 
L 290.496483 -54.089531 
L 292.37968 -54.089531 
L 294.262876 -54.089531 
L 296.146073 -54.089531 
L 298.02927 -54.089531 
L 299.912466 -54.089531 
L 301.795663 -54.089531 
L 303.67886 -54.089531 
L 305.562056 -54.089531 
L 307.445253 -54.089531 
L 309.32845 -54.089531 
L 311.211646 -54.089531 
L 313.094843 -54.089531 
L 314.978039 -54.089531 
L 316.861236 -54.089531 
L 318.744433 -54.089531 
L 320.627629 -54.089531 
L 322.510826 -54.089531 
L 324.394023 -54.089531 
L 326.277219 -54.089531 
L 328.160416 -54.089531 
L 330.043613 -54.089531 
L 330.043613 -54.14932 
L 330.043613 -54.14932 
L 328.160416 -54.138728 
L 326.277219 -54.116941 
L 324.394023 -54.099871 
L 322.510826 -54.092172 
L 320.627629 -54.089991 
L 318.744433 -54.089625 
L 316.861236 -54.089896 
L 314.978039 -54.09175 
L 313.094843 -54.098941 
L 311.211646 -54.117683 
L 309.32845 -54.151719 
L 307.445253 -54.198541 
L 305.562056 -54.252305 
L 303.67886 -54.302362 
L 301.795663 -54.333864 
L 299.912466 -54.344057 
L 298.02927 -54.343952 
L 296.146073 -54.34243 
L 294.262876 -54.349911 
L 292.37968 -54.388563 
L 290.496483 -54.472283 
L 288.613286 -54.569021 
L 286.73009 -54.619287 
L 284.846893 -54.612403 
L 282.963696 -54.592855 
L 281.0805 -54.600412 
L 279.197303 -54.648385 
L 277.314106 -54.717224 
L 275.43091 -54.769008 
L 273.547713 -54.804889 
L 271.664516 -54.866403 
L 269.78132 -54.956923 
L 267.898123 -55.032129 
L 266.014926 -55.096571 
L 264.13173 -55.201964 
L 262.248533 -55.331516 
L 260.365336 -55.404789 
L 258.48214 -55.374859 
L 256.598943 -55.26279 
L 254.715746 -55.16078 
L 252.83255 -55.176162 
L 250.949353 -55.312525 
L 249.066156 -55.463155 
L 247.18296 -55.532994 
L 245.299763 -55.534294 
L 243.416566 -55.558757 
L 241.53337 -55.647613 
L 239.650173 -55.740479 
L 237.766976 -55.792903 
L 235.88378 -55.855551 
L 234.000583 -55.979036 
L 232.117387 -56.1403 
L 230.23419 -56.328902 
L 228.350993 -56.594341 
L 226.467797 -56.955471 
L 224.5846 -57.37905 
L 222.701403 -57.846031 
L 220.818207 -58.34257 
L 218.93501 -58.867126 
L 217.051813 -59.489034 
L 215.168617 -60.264333 
L 213.28542 -61.118274 
L 211.402223 -61.962971 
L 209.519027 -62.919944 
L 207.63583 -64.288242 
L 205.752633 -66.235814 
L 203.869437 -68.699118 
L 201.98624 -71.626468 
L 200.103043 -74.976345 
L 198.219847 -78.620439 
L 196.33665 -82.835655 
L 194.453453 -88.624178 
L 192.570257 -97.023042 
L 190.68706 -108.362036 
L 188.803863 -122.279223 
L 186.920667 -138.082205 
L 185.03747 -155.140777 
L 183.154273 -173.114334 
L 181.271077 -191.581904 
L 179.38788 -209.292739 
L 177.504683 -224.1768 
L 175.621487 -234.455239 
L 173.73829 -239.363691 
L 171.855093 -238.717632 
L 169.971897 -232.781071 
L 168.0887 -222.876569 
L 166.205503 -210.804746 
L 164.322307 -197.228251 
L 162.43911 -182.047983 
L 160.555913 -166.144895 
L 158.672717 -150.993502 
L 156.78952 -137.122741 
L 154.906323 -124.290914 
L 153.023127 -112.617758 
L 151.13993 -102.832543 
L 149.256734 -95.531959 
L 147.373537 -90.459227 
L 145.49034 -86.70974 
L 143.607144 -83.443597 
L 141.723947 -80.251556 
L 139.84075 -77.135969 
L 137.957554 -74.321996 
L 136.074357 -72.042956 
L 134.19116 -70.368791 
L 132.307964 -69.043616 
L 130.424767 -67.599947 
L 128.54157 -65.861944 
L 126.658374 -64.111209 
L 124.775177 -62.617601 
L 122.89198 -61.371141 
L 121.008784 -60.340374 
L 119.125587 -59.580258 
L 117.24239 -59.008198 
L 115.359194 -58.411849 
L 113.475997 -57.74285 
L 111.5928 -57.178767 
L 109.709604 -56.886284 
L 107.826407 -56.837031 
L 105.94321 -56.832244 
L 104.060014 -56.692885 
L 102.176817 -56.430577 
L 100.29362 -56.180765 
L 98.410424 -56.001313 
L 96.527227 -55.809408 
L 94.64403 -55.503937 
L 92.760834 -55.110182 
L 90.877637 -54.765045 
L 88.99444 -54.563638 
L 87.111244 -54.473229 
L 85.228047 -54.404342 
L 83.34485 -54.320696 
L 81.461654 -54.258475 
L 79.578457 -54.258594 
L 77.69526 -54.309573 
L 75.812064 -54.367337 
L 73.928867 -54.409355 
L 72.045671 -54.437178 
L 70.162474 -54.439016 
L 68.279277 -54.399517 
L 66.396081 -54.339017 
L 64.512884 -54.303063 
L 62.629687 -54.318599 
L 60.746491 -54.365666 
L 58.863294 -54.390446 
L 56.980097 -54.364457 
L 55.096901 -54.309173 
L 53.213704 -54.250446 
L 51.330507 -54.20071 
L 49.447311 -54.172043 
L 47.564114 -54.160569 
L 45.680917 -54.146497 
L 43.797721 -54.123938 
L 41.914524 -54.103994 
L 40.031327 -54.093675 
L 38.148131 -54.090336 
L 36.264934 -54.089637 
L 34.381737 -54.089541 
L 32.498541 -54.089532 
L 30.615344 -54.089531 
L 28.732147 -54.089531 
L 26.848951 -54.089531 
L 24.965754 -54.089531 
L 23.082557 -54.089531 
L 21.199361 -54.089531 
L 19.316164 -54.089531 
L 17.432967 -54.089531 
L 15.549771 -54.089531 
L 13.666574 -54.089531 
L 11.783377 -54.089531 
L 9.900181 -54.089531 
L 8.016984 -54.089531 
L 6.133787 -54.089531 
L 4.250591 -54.089531 
L 2.367394 -54.089531 
L 0.484197 -54.089531 
L -1.398999 -54.089531 
L -3.282196 -54.089531 
L -5.165392 -54.089531 
L -7.048589 -54.089531 
L -8.931786 -54.089531 
L -10.814982 -54.089531 
L -12.698179 -54.089531 
L -14.581376 -54.089531 
L -16.464572 -54.089531 
L -18.347769 -54.089531 
L -20.230966 -54.089531 
L -22.114162 -54.089531 
L -23.997359 -54.089531 
L -25.880556 -54.089531 
L -27.763752 -54.089531 
L -29.646949 -54.089532 
L -31.530146 -54.08954 
L -33.413342 -54.089638 
L -35.296539 -54.090445 
L -37.179736 -54.094813 
L -39.062932 -54.110211 
L -40.946129 -54.144351 
L -42.829326 -54.187926 
L -44.712522 -54.209109 
z
" style="stroke: #38a3a6; stroke-width: 3"/>
    </defs>
    <g clip-path="url(#p5e43cfc1a6)">
     <use xlink:href="#m5a510516df" x="0" y="344.758242" style="fill: #38a3a6; fill-opacity: 0.2; stroke: #38a3a6; stroke-width: 3"/>
    </g>
   </g>
   <g id="line2d_13">
    <path d="M 282.616816 290.668711 
L 282.616816 13.468711 
" clip-path="url(#p5e43cfc1a6)" style="fill: none; stroke: #000000; stroke-width: 2; stroke-linecap: round"/>
   </g>
   <g id="line2d_14">
    <path d="M 170.39235 290.668711 
L 170.39235 13.468711 
" clip-path="url(#p5e43cfc1a6)" style="fill: none; stroke: #000000; stroke-width: 2; stroke-linecap: round"/>
   </g>
   <g id="patch_3">
    <path d="M 74.858906 290.668711 
L 74.858906 13.468711 
" style="fill: none; stroke: #262626; stroke-width: 3; stroke-linejoin: miter; stroke-linecap: square"/>
   </g>
   <g id="patch_4">
    <path d="M 74.858906 290.668711 
L 353.858906 290.668711 
" style="fill: none; stroke: #262626; stroke-width: 3; stroke-linejoin: miter; stroke-linecap: square"/>
   </g>
   <g id="legend_1">
    <g id="patch_5">
     <path d="M 288.812695 144.512227 
L 321.812695 144.512227 
L 321.812695 132.962227 
L 288.812695 132.962227 
z
" style="fill: #38a3a6; stroke: #ffffff; stroke-linejoin: miter"/>
    </g>
    <g id="text_15">
     <text style="fill: #262626; font: 16.5px 'sans-serif'; text-anchor: start" x="335.012695" y="144.512227" transform="rotate(-0, 335.012695, 144.512227)">AraC S170 R2 P1.1.3 LOV dark</text>
    </g>
    <g id="patch_6">
     <path d="M 288.812695 168.731133 
L 321.812695 168.731133 
L 321.812695 157.181133 
L 288.812695 157.181133 
z
" style="fill: #de4968; stroke: #ffffff; stroke-linejoin: miter"/>
    </g>
    <g id="text_16">
     <text style="fill: #262626; font: 16.5px 'sans-serif'; text-anchor: start" x="335.012695" y="168.731133" transform="rotate(-0, 335.012695, 168.731133)">AraC S170 R2 P1.1.3 LOV light</text>
    </g>
   </g>
  </g>
 </g>
 <defs>
  <clipPath id="p5e43cfc1a6">
   <rect x="74.858906" y="13.468711" width="279" height="277.2"/>
  </clipPath>
 </defs>
</svg>
