<?xml version="1.0" encoding="utf-8" standalone="no"?>
<!DOCTYPE svg PUBLIC "-//W3C//DTD SVG 1.1//EN"
  "http://www.w3.org/Graphics/SVG/1.1/DTD/svg11.dtd">
<svg xmlns:xlink="http://www.w3.org/1999/xlink" width="600.105117pt" height="344.758242pt" viewBox="0 0 600.105117 344.758242" xmlns="http://www.w3.org/2000/svg" version="1.1">
 <metadata>
  <rdf:RDF xmlns:dc="http://purl.org/dc/elements/1.1/" xmlns:cc="http://creativecommons.org/ns#" xmlns:rdf="http://www.w3.org/1999/02/22-rdf-syntax-ns#">
   <cc:Work>
    <dc:type rdf:resource="http://purl.org/dc/dcmitype/StillImage"/>
    <dc:date>2025-05-08T15:37:26.689761</dc:date>
    <dc:format>image/svg+xml</dc:format>
    <dc:creator>
     <cc:Agent>
      <dc:title>Matplotlib v3.5.0, https://matplotlib.org/</dc:title>
     </cc:Agent>
    </dc:creator>
   </cc:Work>
  </rdf:RDF>
 </metadata>
 <defs>
  <style type="text/css">*{stroke-linejoin: round; stroke-linecap: butt}</style>
 </defs>
 <g id="figure_1">
  <g id="patch_1">
   <path d="M 0 344.758242 
L 600.105117 344.758242 
L 600.105117 0 
L 0 0 
z
" style="fill: #ffffff"/>
  </g>
  <g id="axes_1">
   <g id="patch_2">
    <path d="M 74.858906 290.668711 
L 353.858906 290.668711 
L 353.858906 13.468711 
L 74.858906 13.468711 
z
" style="fill: #ffffff"/>
   </g>
   <g id="matplotlib.axis_1">
    <g id="xtick_1">
     <g id="line2d_1">
      <defs>
       <path id="mac55039592" d="M 0 0 
L 0 6 
" style="stroke: #262626; stroke-width: 3"/>
      </defs>
      <g>
       <use xlink:href="#mac55039592" x="74.858906" y="290.668711" style="fill: #262626; stroke: #262626; stroke-width: 3"/>
      </g>
     </g>
     <g id="text_1">
      <!-- $\mathdefault{10^{0}}$ -->
      <g style="fill: #262626" transform="translate(60.338906 312.706133)">
       <text>
        <tspan style="font: 16.5px 'DejaVu Sans'" x="0 10.497803" y="-0.10312500000000213">10</tspan>
        <tspan style="font: 11.55px 'DejaVu Sans'" x="21.153652" y="-6.425000000000001">0</tspan>
       </text>
      </g>
     </g>
    </g>
    <g id="xtick_2">
     <g id="line2d_2">
      <g>
       <use xlink:href="#mac55039592" x="154.573192" y="290.668711" style="fill: #262626; stroke: #262626; stroke-width: 3"/>
      </g>
     </g>
     <g id="text_2">
      <!-- $\mathdefault{10^{2}}$ -->
      <g style="fill: #262626" transform="translate(140.053192 312.706133)">
       <text>
        <tspan style="font: 16.5px 'DejaVu Sans'" x="0 10.497803" y="-0.10312500000000213">10</tspan>
        <tspan style="font: 11.55px 'DejaVu Sans'" x="21.153652" y="-6.425000000000001">2</tspan>
       </text>
      </g>
     </g>
    </g>
    <g id="xtick_3">
     <g id="line2d_3">
      <g>
       <use xlink:href="#mac55039592" x="234.287478" y="290.668711" style="fill: #262626; stroke: #262626; stroke-width: 3"/>
      </g>
     </g>
     <g id="text_3">
      <!-- $\mathdefault{10^{4}}$ -->
      <g style="fill: #262626" transform="translate(219.767478 312.706133)">
       <text>
        <tspan style="font: 16.5px 'DejaVu Sans'" x="0 10.497803" y="-0.2562500000000014">10</tspan>
        <tspan style="font: 11.55px 'DejaVu Sans'" x="21.153652" y="-6.578125">4</tspan>
       </text>
      </g>
     </g>
    </g>
    <g id="xtick_4">
     <g id="line2d_4">
      <g>
       <use xlink:href="#mac55039592" x="314.001763" y="290.668711" style="fill: #262626; stroke: #262626; stroke-width: 3"/>
      </g>
     </g>
     <g id="text_4">
      <!-- $\mathdefault{10^{6}}$ -->
      <g style="fill: #262626" transform="translate(299.481763 312.706133)">
       <text>
        <tspan style="font: 16.5px 'DejaVu Sans'" x="0 10.497803" y="-0.10312500000000213">10</tspan>
        <tspan style="font: 11.55px 'DejaVu Sans'" x="21.153652" y="-6.425000000000001">6</tspan>
       </text>
      </g>
     </g>
    </g>
    <g id="text_5">
     <text style="fill: #262626; font: 18px 'sans-serif'; text-anchor: middle" x="214.358906" y="333.814805" transform="rotate(-0, 214.358906, 333.814805)">log[RFP]</text>
    </g>
   </g>
   <g id="matplotlib.axis_2">
    <g id="ytick_1">
     <g id="line2d_5">
      <defs>
       <path id="m293a859632" d="M 0 0 
L -6 0 
" style="stroke: #262626; stroke-width: 3"/>
      </defs>
      <g>
       <use xlink:href="#m293a859632" x="74.858906" y="290.668711" style="fill: #262626; stroke: #262626; stroke-width: 3"/>
      </g>
     </g>
     <g id="text_6">
      <text style="fill: #262626; font: 16.5px 'sans-serif'; text-anchor: end" x="65.358906" y="296.937422" transform="rotate(-0, 65.358906, 296.937422)">0.00</text>
     </g>
    </g>
    <g id="ytick_2">
     <g id="line2d_6">
      <g>
       <use xlink:href="#m293a859632" x="74.858906" y="251.068711" style="fill: #262626; stroke: #262626; stroke-width: 3"/>
      </g>
     </g>
     <g id="text_7">
      <text style="fill: #262626; font: 16.5px 'sans-serif'; text-anchor: end" x="65.358906" y="257.337422" transform="rotate(-0, 65.358906, 257.337422)">0.25</text>
     </g>
    </g>
    <g id="ytick_3">
     <g id="line2d_7">
      <g>
       <use xlink:href="#m293a859632" x="74.858906" y="211.468711" style="fill: #262626; stroke: #262626; stroke-width: 3"/>
      </g>
     </g>
     <g id="text_8">
      <text style="fill: #262626; font: 16.5px 'sans-serif'; text-anchor: end" x="65.358906" y="217.737422" transform="rotate(-0, 65.358906, 217.737422)">0.50</text>
     </g>
    </g>
    <g id="ytick_4">
     <g id="line2d_8">
      <g>
       <use xlink:href="#m293a859632" x="74.858906" y="171.868711" style="fill: #262626; stroke: #262626; stroke-width: 3"/>
      </g>
     </g>
     <g id="text_9">
      <text style="fill: #262626; font: 16.5px 'sans-serif'; text-anchor: end" x="65.358906" y="178.137422" transform="rotate(-0, 65.358906, 178.137422)">0.75</text>
     </g>
    </g>
    <g id="ytick_5">
     <g id="line2d_9">
      <g>
       <use xlink:href="#m293a859632" x="74.858906" y="132.268711" style="fill: #262626; stroke: #262626; stroke-width: 3"/>
      </g>
     </g>
     <g id="text_10">
      <text style="fill: #262626; font: 16.5px 'sans-serif'; text-anchor: end" x="65.358906" y="138.537422" transform="rotate(-0, 65.358906, 138.537422)">1.00</text>
     </g>
    </g>
    <g id="ytick_6">
     <g id="line2d_10">
      <g>
       <use xlink:href="#m293a859632" x="74.858906" y="92.668711" style="fill: #262626; stroke: #262626; stroke-width: 3"/>
      </g>
     </g>
     <g id="text_11">
      <text style="fill: #262626; font: 16.5px 'sans-serif'; text-anchor: end" x="65.358906" y="98.937422" transform="rotate(-0, 65.358906, 98.937422)">1.25</text>
     </g>
    </g>
    <g id="ytick_7">
     <g id="line2d_11">
      <g>
       <use xlink:href="#m293a859632" x="74.858906" y="53.068711" style="fill: #262626; stroke: #262626; stroke-width: 3"/>
      </g>
     </g>
     <g id="text_12">
      <text style="fill: #262626; font: 16.5px 'sans-serif'; text-anchor: end" x="65.358906" y="59.337422" transform="rotate(-0, 65.358906, 59.337422)">1.50</text>
     </g>
    </g>
    <g id="ytick_8">
     <g id="line2d_12">
      <g>
       <use xlink:href="#m293a859632" x="74.858906" y="13.468711" style="fill: #262626; stroke: #262626; stroke-width: 3"/>
      </g>
     </g>
     <g id="text_13">
      <text style="fill: #262626; font: 16.5px 'sans-serif'; text-anchor: end" x="65.358906" y="19.737422" transform="rotate(-0, 65.358906, 19.737422)">1.75</text>
     </g>
    </g>
    <g id="text_14">
     <text style="fill: #262626; font: 18px 'sans-serif'; text-anchor: middle" x="20.877187" y="152.068711" transform="rotate(-90, 20.877187, 152.068711)">Density</text>
    </g>
   </g>
   <g id="PolyCollection_1">
    <defs>
     <path id="m061dece636" d="M 66.01665 -54.14856 
L 66.01665 -54.089531 
L 67.391957 -54.089531 
L 68.767265 -54.089531 
L 70.142573 -54.089531 
L 71.517881 -54.089531 
L 72.893188 -54.089531 
L 74.268496 -54.089531 
L 75.643804 -54.089531 
L 77.019112 -54.089531 
L 78.39442 -54.089531 
L 79.769727 -54.089531 
L 81.145035 -54.089531 
L 82.520343 -54.089531 
L 83.895651 -54.089531 
L 85.270958 -54.089531 
L 86.646266 -54.089531 
L 88.021574 -54.089531 
L 89.396882 -54.089531 
L 90.772189 -54.089531 
L 92.147497 -54.089531 
L 93.522805 -54.089531 
L 94.898113 -54.089531 
L 96.27342 -54.089531 
L 97.648728 -54.089531 
L 99.024036 -54.089531 
L 100.399344 -54.089531 
L 101.774651 -54.089531 
L 103.149959 -54.089531 
L 104.525267 -54.089531 
L 105.900575 -54.089531 
L 107.275883 -54.089531 
L 108.65119 -54.089531 
L 110.026498 -54.089531 
L 111.401806 -54.089531 
L 112.777114 -54.089531 
L 114.152421 -54.089531 
L 115.527729 -54.089531 
L 116.903037 -54.089531 
L 118.278345 -54.089531 
L 119.653652 -54.089531 
L 121.02896 -54.089531 
L 122.404268 -54.089531 
L 123.779576 -54.089531 
L 125.154883 -54.089531 
L 126.530191 -54.089531 
L 127.905499 -54.089531 
L 129.280807 -54.089531 
L 130.656115 -54.089531 
L 132.031422 -54.089531 
L 133.40673 -54.089531 
L 134.782038 -54.089531 
L 136.157346 -54.089531 
L 137.532653 -54.089531 
L 138.907961 -54.089531 
L 140.283269 -54.089531 
L 141.658577 -54.089531 
L 143.033884 -54.089531 
L 144.409192 -54.089531 
L 145.7845 -54.089531 
L 147.159808 -54.089531 
L 148.535115 -54.089531 
L 149.910423 -54.089531 
L 151.285731 -54.089531 
L 152.661039 -54.089531 
L 154.036346 -54.089531 
L 155.411654 -54.089531 
L 156.786962 -54.089531 
L 158.16227 -54.089531 
L 159.537578 -54.089531 
L 160.912885 -54.089531 
L 162.288193 -54.089531 
L 163.663501 -54.089531 
L 165.038809 -54.089531 
L 166.414116 -54.089531 
L 167.789424 -54.089531 
L 169.164732 -54.089531 
L 170.54004 -54.089531 
L 171.915347 -54.089531 
L 173.290655 -54.089531 
L 174.665963 -54.089531 
L 176.041271 -54.089531 
L 177.416578 -54.089531 
L 178.791886 -54.089531 
L 180.167194 -54.089531 
L 181.542502 -54.089531 
L 182.91781 -54.089531 
L 184.293117 -54.089531 
L 185.668425 -54.089531 
L 187.043733 -54.089531 
L 188.419041 -54.089531 
L 189.794348 -54.089531 
L 191.169656 -54.089531 
L 192.544964 -54.089531 
L 193.920272 -54.089531 
L 195.295579 -54.089531 
L 196.670887 -54.089531 
L 198.046195 -54.089531 
L 199.421503 -54.089531 
L 200.79681 -54.089531 
L 202.172118 -54.089531 
L 203.547426 -54.089531 
L 204.922734 -54.089531 
L 206.298041 -54.089531 
L 207.673349 -54.089531 
L 209.048657 -54.089531 
L 210.423965 -54.089531 
L 211.799273 -54.089531 
L 213.17458 -54.089531 
L 214.549888 -54.089531 
L 215.925196 -54.089531 
L 217.300504 -54.089531 
L 218.675811 -54.089531 
L 220.051119 -54.089531 
L 221.426427 -54.089531 
L 222.801735 -54.089531 
L 224.177042 -54.089531 
L 225.55235 -54.089531 
L 226.927658 -54.089531 
L 228.302966 -54.089531 
L 229.678273 -54.089531 
L 231.053581 -54.089531 
L 232.428889 -54.089531 
L 233.804197 -54.089531 
L 235.179505 -54.089531 
L 236.554812 -54.089531 
L 237.93012 -54.089531 
L 239.305428 -54.089531 
L 240.680736 -54.089531 
L 242.056043 -54.089531 
L 243.431351 -54.089531 
L 244.806659 -54.089531 
L 246.181967 -54.089531 
L 247.557274 -54.089531 
L 248.932582 -54.089531 
L 250.30789 -54.089531 
L 251.683198 -54.089531 
L 253.058505 -54.089531 
L 254.433813 -54.089531 
L 255.809121 -54.089531 
L 257.184429 -54.089531 
L 258.559736 -54.089531 
L 259.935044 -54.089531 
L 261.310352 -54.089531 
L 262.68566 -54.089531 
L 264.060968 -54.089531 
L 265.436275 -54.089531 
L 266.811583 -54.089531 
L 268.186891 -54.089531 
L 269.562199 -54.089531 
L 270.937506 -54.089531 
L 272.312814 -54.089531 
L 273.688122 -54.089531 
L 275.06343 -54.089531 
L 276.438737 -54.089531 
L 277.814045 -54.089531 
L 279.189353 -54.089531 
L 280.564661 -54.089531 
L 281.939968 -54.089531 
L 283.315276 -54.089531 
L 284.690584 -54.089531 
L 286.065892 -54.089531 
L 287.4412 -54.089531 
L 288.816507 -54.089531 
L 290.191815 -54.089531 
L 291.567123 -54.089531 
L 292.942431 -54.089531 
L 294.317738 -54.089531 
L 295.693046 -54.089531 
L 297.068354 -54.089531 
L 298.443662 -54.089531 
L 299.818969 -54.089531 
L 301.194277 -54.089531 
L 302.569585 -54.089531 
L 303.944893 -54.089531 
L 305.3202 -54.089531 
L 306.695508 -54.089531 
L 308.070816 -54.089531 
L 309.446124 -54.089531 
L 310.821431 -54.089531 
L 312.196739 -54.089531 
L 313.572047 -54.089531 
L 314.947355 -54.089531 
L 316.322663 -54.089531 
L 317.69797 -54.089531 
L 319.073278 -54.089531 
L 320.448586 -54.089531 
L 321.823894 -54.089531 
L 323.199201 -54.089531 
L 324.574509 -54.089531 
L 325.949817 -54.089531 
L 327.325125 -54.089531 
L 328.700432 -54.089531 
L 330.07574 -54.089531 
L 331.451048 -54.089531 
L 332.826356 -54.089531 
L 334.201663 -54.089531 
L 335.576971 -54.089531 
L 336.952279 -54.089531 
L 338.327587 -54.089531 
L 339.702895 -54.089531 
L 339.702895 -54.854593 
L 339.702895 -54.854593 
L 338.327587 -55.217724 
L 336.952279 -55.690264 
L 335.576971 -56.290212 
L 334.201663 -57.043464 
L 332.826356 -57.991304 
L 331.451048 -59.199983 
L 330.07574 -60.77238 
L 328.700432 -62.862015 
L 327.325125 -65.689087 
L 325.949817 -69.555929 
L 324.574509 -74.855348 
L 323.199201 -82.061767 
L 321.823894 -91.694942 
L 320.448586 -104.251481 
L 319.073278 -120.109314 
L 317.69797 -139.419926 
L 316.322663 -162.00814 
L 314.947355 -187.29816 
L 313.572047 -214.28102 
L 312.196739 -241.536147 
L 310.821431 -267.31827 
L 309.446124 -289.71532 
L 308.070816 -306.868715 
L 306.695508 -317.226748 
L 305.3202 -319.783892 
L 303.944893 -314.253408 
L 302.569585 -301.131335 
L 301.194277 -281.632803 
L 299.818969 -257.509883 
L 298.443662 -230.787408 
L 297.068354 -203.473102 
L 295.693046 -177.30406 
L 294.317738 -153.578473 
L 292.942431 -133.092812 
L 291.567123 -116.172566 
L 290.191815 -102.763564 
L 288.816507 -92.547455 
L 287.4412 -85.054423 
L 286.065892 -79.758213 
L 284.690584 -76.146434 
L 283.315276 -73.763286 
L 281.939968 -72.226552 
L 280.564661 -71.226784 
L 279.189353 -70.520531 
L 277.814045 -69.926951 
L 276.438737 -69.329118 
L 275.06343 -68.673783 
L 273.688122 -67.962239 
L 272.312814 -67.230642 
L 270.937506 -66.525305 
L 269.562199 -65.881614 
L 268.186891 -65.312817 
L 266.811583 -64.809896 
L 265.436275 -64.349387 
L 264.060968 -63.904042 
L 262.68566 -63.451685 
L 261.310352 -62.979921 
L 259.935044 -62.487129 
L 258.559736 -61.98163 
L 257.184429 -61.480164 
L 255.809121 -61.005044 
L 254.433813 -60.578836 
L 253.058505 -60.217181 
L 251.683198 -59.922797 
L 250.30789 -59.684375 
L 248.932582 -59.481861 
L 247.557274 -59.295989 
L 246.181967 -59.11731 
L 244.806659 -58.949973 
L 243.431351 -58.808248 
L 242.056043 -58.707569 
L 240.680736 -58.654886 
L 239.305428 -58.643613 
L 237.93012 -58.656226 
L 236.554812 -58.673513 
L 235.179505 -58.685888 
L 233.804197 -58.700823 
L 232.428889 -58.742135 
L 231.053581 -58.840659 
L 229.678273 -59.020078 
L 228.302966 -59.284355 
L 226.927658 -59.612787 
L 225.55235 -59.965238 
L 224.177042 -60.295089 
L 222.801735 -60.56391 
L 221.426427 -60.751603 
L 220.051119 -60.858723 
L 218.675811 -60.90151 
L 217.300504 -60.90281 
L 215.925196 -60.882817 
L 214.549888 -60.852836 
L 213.17458 -60.813723 
L 211.799273 -60.758728 
L 210.423965 -60.678629 
L 209.048657 -60.566391 
L 207.673349 -60.41941 
L 206.298041 -60.239319 
L 204.922734 -60.030643 
L 203.547426 -59.799639 
L 202.172118 -59.553527 
L 200.79681 -59.299534 
L 199.421503 -59.043465 
L 198.046195 -58.788524 
L 196.670887 -58.535588 
L 195.295579 -58.285322 
L 193.920272 -58.040858 
L 192.544964 -57.808975 
L 191.169656 -57.598565 
L 189.794348 -57.417303 
L 188.419041 -57.268864 
L 187.043733 -57.152622 
L 185.668425 -57.065738 
L 184.293117 -57.005704 
L 182.91781 -56.971308 
L 181.542502 -56.96154 
L 180.167194 -56.973751 
L 178.791886 -57.002808 
L 177.416578 -57.041928 
L 176.041271 -57.084389 
L 174.665963 -57.124789 
L 173.290655 -57.159191 
L 171.915347 -57.184503 
L 170.54004 -57.197911 
L 169.164732 -57.196846 
L 167.789424 -57.179502 
L 166.414116 -57.145599 
L 165.038809 -57.096969 
L 163.663501 -57.037495 
L 162.288193 -56.972036 
L 160.912885 -56.904521 
L 159.537578 -56.836211 
L 158.16227 -56.765305 
L 156.786962 -56.688323 
L 155.411654 -56.602417 
L 154.036346 -56.507127 
L 152.661039 -56.404616 
L 151.285731 -56.298595 
L 149.910423 -56.192923 
L 148.535115 -56.090679 
L 147.159808 -55.993714 
L 145.7845 -55.902164 
L 144.409192 -55.813746 
L 143.033884 -55.72352 
L 141.658577 -55.625155 
L 140.283269 -55.5138 
L 138.907961 -55.389075 
L 137.532653 -55.256059 
L 136.157346 -55.123312 
L 134.782038 -54.999149 
L 133.40673 -54.888637 
L 132.031422 -54.793087 
L 130.656115 -54.711828 
L 129.280807 -54.644535 
L 127.905499 -54.59233 
L 126.530191 -54.557054 
L 125.154883 -54.539418 
L 123.779576 -54.537335 
L 122.404268 -54.545404 
L 121.02896 -54.555765 
L 119.653652 -54.559968 
L 118.278345 -54.55117 
L 116.903037 -54.525925 
L 115.527729 -54.484967 
L 114.152421 -54.43271 
L 112.777114 -54.375677 
L 111.401806 -54.320529 
L 110.026498 -54.272479 
L 108.65119 -54.234557 
L 107.275883 -54.207687 
L 105.900575 -54.191135 
L 104.525267 -54.182922 
L 103.149959 -54.180137 
L 101.774651 -54.179371 
L 100.399344 -54.177468 
L 99.024036 -54.172461 
L 97.648728 -54.164194 
L 96.27342 -54.154216 
L 94.898113 -54.144897 
L 93.522805 -54.138227 
L 92.147497 -54.134938 
L 90.772189 -54.134371 
L 89.396882 -54.135083 
L 88.021574 -54.135751 
L 86.646266 -54.135825 
L 85.270958 -54.135583 
L 83.895651 -54.135655 
L 82.520343 -54.136415 
L 81.145035 -54.137705 
L 79.769727 -54.139051 
L 78.39442 -54.140157 
L 77.019112 -54.14123 
L 75.643804 -54.142867 
L 74.268496 -54.145586 
L 72.893188 -54.149336 
L 71.517881 -54.153336 
L 70.142573 -54.156314 
L 68.767265 -54.156971 
L 67.391957 -54.154441 
L 66.01665 -54.14856 
z
" style="stroke: #de4968; stroke-width: 3"/>
    </defs>
    <g clip-path="url(#p21f2688469)">
     <use xlink:href="#m061dece636" x="0" y="344.758242" style="fill: #de4968; fill-opacity: 0.2; stroke: #de4968; stroke-width: 3"/>
    </g>
   </g>
   <g id="PolyCollection_2">
    <defs>
     <path id="m3044a59a4f" d="M 35.001768 -54.197895 
L 35.001768 -54.089531 
L 36.446251 -54.089531 
L 37.890735 -54.089531 
L 39.335218 -54.089531 
L 40.779702 -54.089531 
L 42.224185 -54.089531 
L 43.668669 -54.089531 
L 45.113152 -54.089531 
L 46.557636 -54.089531 
L 48.00212 -54.089531 
L 49.446603 -54.089531 
L 50.891087 -54.089531 
L 52.33557 -54.089531 
L 53.780054 -54.089531 
L 55.224537 -54.089531 
L 56.669021 -54.089531 
L 58.113505 -54.089531 
L 59.557988 -54.089531 
L 61.002472 -54.089531 
L 62.446955 -54.089531 
L 63.891439 -54.089531 
L 65.335922 -54.089531 
L 66.780406 -54.089531 
L 68.224889 -54.089531 
L 69.669373 -54.089531 
L 71.113857 -54.089531 
L 72.55834 -54.089531 
L 74.002824 -54.089531 
L 75.447307 -54.089531 
L 76.891791 -54.089531 
L 78.336274 -54.089531 
L 79.780758 -54.089531 
L 81.225242 -54.089531 
L 82.669725 -54.089531 
L 84.114209 -54.089531 
L 85.558692 -54.089531 
L 87.003176 -54.089531 
L 88.447659 -54.089531 
L 89.892143 -54.089531 
L 91.336626 -54.089531 
L 92.78111 -54.089531 
L 94.225594 -54.089531 
L 95.670077 -54.089531 
L 97.114561 -54.089531 
L 98.559044 -54.089531 
L 100.003528 -54.089531 
L 101.448011 -54.089531 
L 102.892495 -54.089531 
L 104.336979 -54.089531 
L 105.781462 -54.089531 
L 107.225946 -54.089531 
L 108.670429 -54.089531 
L 110.114913 -54.089531 
L 111.559396 -54.089531 
L 113.00388 -54.089531 
L 114.448363 -54.089531 
L 115.892847 -54.089531 
L 117.337331 -54.089531 
L 118.781814 -54.089531 
L 120.226298 -54.089531 
L 121.670781 -54.089531 
L 123.115265 -54.089531 
L 124.559748 -54.089531 
L 126.004232 -54.089531 
L 127.448715 -54.089531 
L 128.893199 -54.089531 
L 130.337683 -54.089531 
L 131.782166 -54.089531 
L 133.22665 -54.089531 
L 134.671133 -54.089531 
L 136.115617 -54.089531 
L 137.5601 -54.089531 
L 139.004584 -54.089531 
L 140.449068 -54.089531 
L 141.893551 -54.089531 
L 143.338035 -54.089531 
L 144.782518 -54.089531 
L 146.227002 -54.089531 
L 147.671485 -54.089531 
L 149.115969 -54.089531 
L 150.560452 -54.089531 
L 152.004936 -54.089531 
L 153.44942 -54.089531 
L 154.893903 -54.089531 
L 156.338387 -54.089531 
L 157.78287 -54.089531 
L 159.227354 -54.089531 
L 160.671837 -54.089531 
L 162.116321 -54.089531 
L 163.560805 -54.089531 
L 165.005288 -54.089531 
L 166.449772 -54.089531 
L 167.894255 -54.089531 
L 169.338739 -54.089531 
L 170.783222 -54.089531 
L 172.227706 -54.089531 
L 173.672189 -54.089531 
L 175.116673 -54.089531 
L 176.561157 -54.089531 
L 178.00564 -54.089531 
L 179.450124 -54.089531 
L 180.894607 -54.089531 
L 182.339091 -54.089531 
L 183.783574 -54.089531 
L 185.228058 -54.089531 
L 186.672542 -54.089531 
L 188.117025 -54.089531 
L 189.561509 -54.089531 
L 191.005992 -54.089531 
L 192.450476 -54.089531 
L 193.894959 -54.089531 
L 195.339443 -54.089531 
L 196.783926 -54.089531 
L 198.22841 -54.089531 
L 199.672894 -54.089531 
L 201.117377 -54.089531 
L 202.561861 -54.089531 
L 204.006344 -54.089531 
L 205.450828 -54.089531 
L 206.895311 -54.089531 
L 208.339795 -54.089531 
L 209.784279 -54.089531 
L 211.228762 -54.089531 
L 212.673246 -54.089531 
L 214.117729 -54.089531 
L 215.562213 -54.089531 
L 217.006696 -54.089531 
L 218.45118 -54.089531 
L 219.895663 -54.089531 
L 221.340147 -54.089531 
L 222.784631 -54.089531 
L 224.229114 -54.089531 
L 225.673598 -54.089531 
L 227.118081 -54.089531 
L 228.562565 -54.089531 
L 230.007048 -54.089531 
L 231.451532 -54.089531 
L 232.896016 -54.089531 
L 234.340499 -54.089531 
L 235.784983 -54.089531 
L 237.229466 -54.089531 
L 238.67395 -54.089531 
L 240.118433 -54.089531 
L 241.562917 -54.089531 
L 243.0074 -54.089531 
L 244.451884 -54.089531 
L 245.896368 -54.089531 
L 247.340851 -54.089531 
L 248.785335 -54.089531 
L 250.229818 -54.089531 
L 251.674302 -54.089531 
L 253.118785 -54.089531 
L 254.563269 -54.089531 
L 256.007753 -54.089531 
L 257.452236 -54.089531 
L 258.89672 -54.089531 
L 260.341203 -54.089531 
L 261.785687 -54.089531 
L 263.23017 -54.089531 
L 264.674654 -54.089531 
L 266.119137 -54.089531 
L 267.563621 -54.089531 
L 269.008105 -54.089531 
L 270.452588 -54.089531 
L 271.897072 -54.089531 
L 273.341555 -54.089531 
L 274.786039 -54.089531 
L 276.230522 -54.089531 
L 277.675006 -54.089531 
L 279.11949 -54.089531 
L 280.563973 -54.089531 
L 282.008457 -54.089531 
L 283.45294 -54.089531 
L 284.897424 -54.089531 
L 286.341907 -54.089531 
L 287.786391 -54.089531 
L 289.230874 -54.089531 
L 290.675358 -54.089531 
L 292.119842 -54.089531 
L 293.564325 -54.089531 
L 295.008809 -54.089531 
L 296.453292 -54.089531 
L 297.897776 -54.089531 
L 299.342259 -54.089531 
L 300.786743 -54.089531 
L 302.231227 -54.089531 
L 303.67571 -54.089531 
L 305.120194 -54.089531 
L 306.564677 -54.089531 
L 308.009161 -54.089531 
L 309.453644 -54.089531 
L 310.898128 -54.089531 
L 312.342611 -54.089531 
L 313.787095 -54.089531 
L 315.231579 -54.089531 
L 316.676062 -54.089531 
L 318.120546 -54.089531 
L 319.565029 -54.089531 
L 321.009513 -54.089531 
L 322.453996 -54.089531 
L 322.453996 -54.153789 
L 322.453996 -54.153789 
L 321.009513 -54.162257 
L 319.565029 -54.172827 
L 318.120546 -54.191336 
L 316.676062 -54.219199 
L 315.231579 -54.254119 
L 313.787095 -54.294317 
L 312.342611 -54.339097 
L 310.898128 -54.384118 
L 309.453644 -54.418442 
L 308.009161 -54.42988 
L 306.564677 -54.415459 
L 305.120194 -54.386736 
L 303.67571 -54.36421 
L 302.231227 -54.366235 
L 300.786743 -54.40219 
L 299.342259 -54.472854 
L 297.897776 -54.57316 
L 296.453292 -54.693583 
L 295.008809 -54.822282 
L 293.564325 -54.94959 
L 292.119842 -55.069844 
L 290.675358 -55.176373 
L 289.230874 -55.256712 
L 287.786391 -55.298692 
L 286.341907 -55.303898 
L 284.897424 -55.292256 
L 283.45294 -55.29037 
L 282.008457 -55.314837 
L 280.563973 -55.365814 
L 279.11949 -55.433679 
L 277.675006 -55.509803 
L 276.230522 -55.592491 
L 274.786039 -55.686136 
L 273.341555 -55.79766 
L 271.897072 -55.935307 
L 270.452588 -56.108058 
L 269.008105 -56.316996 
L 267.563621 -56.540582 
L 266.119137 -56.735025 
L 264.674654 -56.862468 
L 263.23017 -56.925218 
L 261.785687 -56.973536 
L 260.341203 -57.08145 
L 258.89672 -57.30815 
L 257.452236 -57.662499 
L 256.007753 -58.086034 
L 254.563269 -58.470577 
L 253.118785 -58.711637 
L 251.674302 -58.768623 
L 250.229818 -58.688486 
L 248.785335 -58.574757 
L 247.340851 -58.526902 
L 245.896368 -58.592863 
L 244.451884 -58.761136 
L 243.0074 -58.987881 
L 241.562917 -59.230612 
L 240.118433 -59.461674 
L 238.67395 -59.662674 
L 237.229466 -59.822325 
L 235.784983 -59.947992 
L 234.340499 -60.075176 
L 232.896016 -60.256773 
L 231.451532 -60.535497 
L 230.007048 -60.917196 
L 228.562565 -61.36106 
L 227.118081 -61.799626 
L 225.673598 -62.188875 
L 224.229114 -62.553934 
L 222.784631 -62.978468 
L 221.340147 -63.535331 
L 219.895663 -64.23024 
L 218.45118 -65.022884 
L 217.006696 -65.895359 
L 215.562213 -66.885837 
L 214.117729 -68.065909 
L 212.673246 -69.513408 
L 211.228762 -71.315236 
L 209.784279 -73.572396 
L 208.339795 -76.371348 
L 206.895311 -79.74124 
L 205.450828 -83.660534 
L 204.006344 -88.139656 
L 202.561861 -93.311367 
L 201.117377 -99.420698 
L 199.672894 -106.688672 
L 198.22841 -115.161691 
L 196.783926 -124.707369 
L 195.339443 -135.175179 
L 193.894959 -146.518026 
L 192.450476 -158.681715 
L 191.005992 -171.381165 
L 189.561509 -184.075123 
L 188.117025 -196.205319 
L 186.672542 -207.415175 
L 185.228058 -217.493919 
L 183.783574 -226.120341 
L 182.339091 -232.682714 
L 180.894607 -236.367499 
L 179.450124 -236.487505 
L 178.00564 -232.843011 
L 176.561157 -225.868536 
L 175.116673 -216.447666 
L 173.672189 -205.533073 
L 172.227706 -193.862752 
L 170.783222 -181.924502 
L 169.338739 -170.071466 
L 167.894255 -158.623217 
L 166.449772 -147.867818 
L 165.005288 -137.973702 
L 163.560805 -128.920686 
L 162.116321 -120.57383 
L 160.671837 -112.854651 
L 159.227354 -105.821846 
L 157.78287 -99.584053 
L 156.338387 -94.163457 
L 154.893903 -89.447959 
L 153.44942 -85.250426 
L 152.004936 -81.413367 
L 150.560452 -77.89091 
L 149.115969 -74.753368 
L 147.671485 -72.099009 
L 146.227002 -69.939512 
L 144.782518 -68.167946 
L 143.338035 -66.63905 
L 141.893551 -65.269318 
L 140.449068 -64.051007 
L 139.004584 -62.982974 
L 137.5601 -62.016604 
L 136.115617 -61.086866 
L 134.671133 -60.186091 
L 133.22665 -59.383619 
L 131.782166 -58.763458 
L 130.337683 -58.346822 
L 128.893199 -58.072017 
L 127.448715 -57.837735 
L 126.004232 -57.564256 
L 124.559748 -57.228057 
L 123.115265 -56.857253 
L 121.670781 -56.50297 
L 120.226298 -56.207963 
L 118.781814 -55.986441 
L 117.337331 -55.82284 
L 115.892847 -55.689909 
L 114.448363 -55.570892 
L 113.00388 -55.463183 
L 111.559396 -55.361872 
L 110.114913 -55.24949 
L 108.670429 -55.111046 
L 107.225946 -54.957184 
L 105.781462 -54.824166 
L 104.336979 -54.747158 
L 102.892495 -54.733568 
L 101.448011 -54.759521 
L 100.003528 -54.787062 
L 98.559044 -54.784489 
L 97.114561 -54.737602 
L 95.670077 -54.651858 
L 94.225594 -54.549201 
L 92.78111 -54.459379 
L 91.336626 -54.406019 
L 89.892143 -54.394618 
L 88.447659 -54.411252 
L 87.003176 -54.432226 
L 85.558692 -54.436482 
L 84.114209 -54.413572 
L 82.669725 -54.3657 
L 81.225242 -54.304338 
L 79.780758 -54.242972 
L 78.336274 -54.190848 
L 76.891791 -54.152006 
L 75.447307 -54.12782 
L 74.002824 -54.118489 
L 72.55834 -54.122222 
L 71.113857 -54.134168 
L 69.669373 -54.147448 
L 68.224889 -54.156645 
L 66.780406 -54.160659 
L 65.335922 -54.161349 
L 63.891439 -54.159635 
L 62.446955 -54.154832 
L 61.002472 -54.148487 
L 59.557988 -54.146673 
L 58.113505 -54.155771 
L 56.669021 -54.174947 
L 55.224537 -54.193669 
L 53.780054 -54.198576 
L 52.33557 -54.184189 
L 50.891087 -54.156905 
L 49.446603 -54.128726 
L 48.00212 -54.108175 
L 46.557636 -54.096911 
L 45.113152 -54.092563 
L 43.668669 -54.092921 
L 42.224185 -54.098213 
L 40.779702 -54.110895 
L 39.335218 -54.132982 
L 37.890735 -54.161721 
L 36.446251 -54.187431 
L 35.001768 -54.197895 
z
" style="stroke: #38a3a6; stroke-width: 3"/>
    </defs>
    <g clip-path="url(#p21f2688469)">
     <use xlink:href="#m3044a59a4f" x="0" y="344.758242" style="fill: #38a3a6; fill-opacity: 0.2; stroke: #38a3a6; stroke-width: 3"/>
    </g>
   </g>
   <g id="line2d_13">
    <path d="M 304.113551 290.668711 
L 304.113551 13.468711 
" clip-path="url(#p21f2688469)" style="fill: none; stroke: #000000; stroke-width: 2; stroke-linecap: round"/>
   </g>
   <g id="line2d_14">
    <path d="M 179.819422 290.668711 
L 179.819422 13.468711 
" clip-path="url(#p21f2688469)" style="fill: none; stroke: #000000; stroke-width: 2; stroke-linecap: round"/>
   </g>
   <g id="patch_3">
    <path d="M 74.858906 290.668711 
L 74.858906 13.468711 
" style="fill: none; stroke: #262626; stroke-width: 3; stroke-linejoin: miter; stroke-linecap: square"/>
   </g>
   <g id="patch_4">
    <path d="M 74.858906 290.668711 
L 353.858906 290.668711 
" style="fill: none; stroke: #262626; stroke-width: 3; stroke-linejoin: miter; stroke-linecap: square"/>
   </g>
   <g id="legend_1">
    <g id="patch_5">
     <path d="M 288.812695 144.512227 
L 321.812695 144.512227 
L 321.812695 132.962227 
L 288.812695 132.962227 
z
" style="fill: #38a3a6; stroke: #ffffff; stroke-linejoin: miter"/>
    </g>
    <g id="text_15">
     <text style="fill: #262626; font: 16.5px 'sans-serif'; text-anchor: start" x="335.012695" y="144.512227" transform="rotate(-0, 335.012695, 144.512227)">AraC S170 R2 P2.1.3 LOV dark</text>
    </g>
    <g id="patch_6">
     <path d="M 288.812695 168.731133 
L 321.812695 168.731133 
L 321.812695 157.181133 
L 288.812695 157.181133 
z
" style="fill: #de4968; stroke: #ffffff; stroke-linejoin: miter"/>
    </g>
    <g id="text_16">
     <text style="fill: #262626; font: 16.5px 'sans-serif'; text-anchor: start" x="335.012695" y="168.731133" transform="rotate(-0, 335.012695, 168.731133)">AraC S170 R2 P2.1.3 LOV light</text>
    </g>
   </g>
  </g>
 </g>
 <defs>
  <clipPath id="p21f2688469">
   <rect x="74.858906" y="13.468711" width="279" height="277.2"/>
  </clipPath>
 </defs>
</svg>
