<?xml version="1.0" encoding="utf-8" standalone="no"?>
<!DOCTYPE svg PUBLIC "-//W3C//DTD SVG 1.1//EN"
  "http://www.w3.org/Graphics/SVG/1.1/DTD/svg11.dtd">
<svg xmlns:xlink="http://www.w3.org/1999/xlink" width="554.021133pt" height="344.758242pt" viewBox="0 0 554.021133 344.758242" xmlns="http://www.w3.org/2000/svg" version="1.1">
 <metadata>
  <rdf:RDF xmlns:dc="http://purl.org/dc/elements/1.1/" xmlns:cc="http://creativecommons.org/ns#" xmlns:rdf="http://www.w3.org/1999/02/22-rdf-syntax-ns#">
   <cc:Work>
    <dc:type rdf:resource="http://purl.org/dc/dcmitype/StillImage"/>
    <dc:date>2025-05-08T15:37:24.778591</dc:date>
    <dc:format>image/svg+xml</dc:format>
    <dc:creator>
     <cc:Agent>
      <dc:title>Matplotlib v3.5.0, https://matplotlib.org/</dc:title>
     </cc:Agent>
    </dc:creator>
   </cc:Work>
  </rdf:RDF>
 </metadata>
 <defs>
  <style type="text/css">*{stroke-linejoin: round; stroke-linecap: butt}</style>
 </defs>
 <g id="figure_1">
  <g id="patch_1">
   <path d="M 0 344.758242 
L 554.021133 344.758242 
L 554.021133 0 
L 0 0 
z
" style="fill: #ffffff"/>
  </g>
  <g id="axes_1">
   <g id="patch_2">
    <path d="M 74.858906 290.668711 
L 353.858906 290.668711 
L 353.858906 13.468711 
L 74.858906 13.468711 
z
" style="fill: #ffffff"/>
   </g>
   <g id="matplotlib.axis_1">
    <g id="xtick_1">
     <g id="line2d_1">
      <defs>
       <path id="m34868b3292" d="M 0 0 
L 0 6 
" style="stroke: #262626; stroke-width: 3"/>
      </defs>
      <g>
       <use xlink:href="#m34868b3292" x="74.858906" y="290.668711" style="fill: #262626; stroke: #262626; stroke-width: 3"/>
      </g>
     </g>
     <g id="text_1">
      <!-- $\mathdefault{10^{0}}$ -->
      <g style="fill: #262626" transform="translate(60.338906 312.706133)">
       <text>
        <tspan style="font: 16.5px 'DejaVu Sans'" x="0 10.497803" y="-0.10312500000000213">10</tspan>
        <tspan style="font: 11.55px 'DejaVu Sans'" x="21.153652" y="-6.425000000000001">0</tspan>
       </text>
      </g>
     </g>
    </g>
    <g id="xtick_2">
     <g id="line2d_2">
      <g>
       <use xlink:href="#m34868b3292" x="154.573192" y="290.668711" style="fill: #262626; stroke: #262626; stroke-width: 3"/>
      </g>
     </g>
     <g id="text_2">
      <!-- $\mathdefault{10^{2}}$ -->
      <g style="fill: #262626" transform="translate(140.053192 312.706133)">
       <text>
        <tspan style="font: 16.5px 'DejaVu Sans'" x="0 10.497803" y="-0.10312500000000213">10</tspan>
        <tspan style="font: 11.55px 'DejaVu Sans'" x="21.153652" y="-6.425000000000001">2</tspan>
       </text>
      </g>
     </g>
    </g>
    <g id="xtick_3">
     <g id="line2d_3">
      <g>
       <use xlink:href="#m34868b3292" x="234.287478" y="290.668711" style="fill: #262626; stroke: #262626; stroke-width: 3"/>
      </g>
     </g>
     <g id="text_3">
      <!-- $\mathdefault{10^{4}}$ -->
      <g style="fill: #262626" transform="translate(219.767478 312.706133)">
       <text>
        <tspan style="font: 16.5px 'DejaVu Sans'" x="0 10.497803" y="-0.2562500000000014">10</tspan>
        <tspan style="font: 11.55px 'DejaVu Sans'" x="21.153652" y="-6.578125">4</tspan>
       </text>
      </g>
     </g>
    </g>
    <g id="xtick_4">
     <g id="line2d_4">
      <g>
       <use xlink:href="#m34868b3292" x="314.001763" y="290.668711" style="fill: #262626; stroke: #262626; stroke-width: 3"/>
      </g>
     </g>
     <g id="text_4">
      <!-- $\mathdefault{10^{6}}$ -->
      <g style="fill: #262626" transform="translate(299.481763 312.706133)">
       <text>
        <tspan style="font: 16.5px 'DejaVu Sans'" x="0 10.497803" y="-0.10312500000000213">10</tspan>
        <tspan style="font: 11.55px 'DejaVu Sans'" x="21.153652" y="-6.425000000000001">6</tspan>
       </text>
      </g>
     </g>
    </g>
    <g id="text_5">
     <text style="fill: #262626; font: 18px 'sans-serif'; text-anchor: middle" x="214.358906" y="333.814805" transform="rotate(-0, 214.358906, 333.814805)">log[RFP]</text>
    </g>
   </g>
   <g id="matplotlib.axis_2">
    <g id="ytick_1">
     <g id="line2d_5">
      <defs>
       <path id="m9d4090bafd" d="M 0 0 
L -6 0 
" style="stroke: #262626; stroke-width: 3"/>
      </defs>
      <g>
       <use xlink:href="#m9d4090bafd" x="74.858906" y="290.668711" style="fill: #262626; stroke: #262626; stroke-width: 3"/>
      </g>
     </g>
     <g id="text_6">
      <text style="fill: #262626; font: 16.5px 'sans-serif'; text-anchor: end" x="65.358906" y="296.937422" transform="rotate(-0, 65.358906, 296.937422)">0.00</text>
     </g>
    </g>
    <g id="ytick_2">
     <g id="line2d_6">
      <g>
       <use xlink:href="#m9d4090bafd" x="74.858906" y="251.068711" style="fill: #262626; stroke: #262626; stroke-width: 3"/>
      </g>
     </g>
     <g id="text_7">
      <text style="fill: #262626; font: 16.5px 'sans-serif'; text-anchor: end" x="65.358906" y="257.337422" transform="rotate(-0, 65.358906, 257.337422)">0.25</text>
     </g>
    </g>
    <g id="ytick_3">
     <g id="line2d_7">
      <g>
       <use xlink:href="#m9d4090bafd" x="74.858906" y="211.468711" style="fill: #262626; stroke: #262626; stroke-width: 3"/>
      </g>
     </g>
     <g id="text_8">
      <text style="fill: #262626; font: 16.5px 'sans-serif'; text-anchor: end" x="65.358906" y="217.737422" transform="rotate(-0, 65.358906, 217.737422)">0.50</text>
     </g>
    </g>
    <g id="ytick_4">
     <g id="line2d_8">
      <g>
       <use xlink:href="#m9d4090bafd" x="74.858906" y="171.868711" style="fill: #262626; stroke: #262626; stroke-width: 3"/>
      </g>
     </g>
     <g id="text_9">
      <text style="fill: #262626; font: 16.5px 'sans-serif'; text-anchor: end" x="65.358906" y="178.137422" transform="rotate(-0, 65.358906, 178.137422)">0.75</text>
     </g>
    </g>
    <g id="ytick_5">
     <g id="line2d_9">
      <g>
       <use xlink:href="#m9d4090bafd" x="74.858906" y="132.268711" style="fill: #262626; stroke: #262626; stroke-width: 3"/>
      </g>
     </g>
     <g id="text_10">
      <text style="fill: #262626; font: 16.5px 'sans-serif'; text-anchor: end" x="65.358906" y="138.537422" transform="rotate(-0, 65.358906, 138.537422)">1.00</text>
     </g>
    </g>
    <g id="ytick_6">
     <g id="line2d_10">
      <g>
       <use xlink:href="#m9d4090bafd" x="74.858906" y="92.668711" style="fill: #262626; stroke: #262626; stroke-width: 3"/>
      </g>
     </g>
     <g id="text_11">
      <text style="fill: #262626; font: 16.5px 'sans-serif'; text-anchor: end" x="65.358906" y="98.937422" transform="rotate(-0, 65.358906, 98.937422)">1.25</text>
     </g>
    </g>
    <g id="ytick_7">
     <g id="line2d_11">
      <g>
       <use xlink:href="#m9d4090bafd" x="74.858906" y="53.068711" style="fill: #262626; stroke: #262626; stroke-width: 3"/>
      </g>
     </g>
     <g id="text_12">
      <text style="fill: #262626; font: 16.5px 'sans-serif'; text-anchor: end" x="65.358906" y="59.337422" transform="rotate(-0, 65.358906, 59.337422)">1.50</text>
     </g>
    </g>
    <g id="ytick_8">
     <g id="line2d_12">
      <g>
       <use xlink:href="#m9d4090bafd" x="74.858906" y="13.468711" style="fill: #262626; stroke: #262626; stroke-width: 3"/>
      </g>
     </g>
     <g id="text_13">
      <text style="fill: #262626; font: 16.5px 'sans-serif'; text-anchor: end" x="65.358906" y="19.737422" transform="rotate(-0, 65.358906, 19.737422)">1.75</text>
     </g>
    </g>
    <g id="text_14">
     <text style="fill: #262626; font: 18px 'sans-serif'; text-anchor: middle" x="20.877187" y="152.068711" transform="rotate(-90, 20.877187, 152.068711)">Density</text>
    </g>
   </g>
   <g id="PolyCollection_1">
    <defs>
     <path id="m0ee3a53cb9" d="M -44.712522 -54.139629 
L -44.712522 -54.089531 
L -42.744149 -54.089531 
L -40.775775 -54.089531 
L -38.807401 -54.089531 
L -36.839027 -54.089531 
L -34.870654 -54.089531 
L -32.90228 -54.089531 
L -30.933906 -54.089531 
L -28.965532 -54.089531 
L -26.997159 -54.089531 
L -25.028785 -54.089531 
L -23.060411 -54.089531 
L -21.092037 -54.089531 
L -19.123664 -54.089531 
L -17.15529 -54.089531 
L -15.186916 -54.089531 
L -13.218542 -54.089531 
L -11.250169 -54.089531 
L -9.281795 -54.089531 
L -7.313421 -54.089531 
L -5.345047 -54.089531 
L -3.376674 -54.089531 
L -1.4083 -54.089531 
L 0.560074 -54.089531 
L 2.528448 -54.089531 
L 4.496821 -54.089531 
L 6.465195 -54.089531 
L 8.433569 -54.089531 
L 10.401942 -54.089531 
L 12.370316 -54.089531 
L 14.33869 -54.089531 
L 16.307064 -54.089531 
L 18.275437 -54.089531 
L 20.243811 -54.089531 
L 22.212185 -54.089531 
L 24.180559 -54.089531 
L 26.148932 -54.089531 
L 28.117306 -54.089531 
L 30.08568 -54.089531 
L 32.054054 -54.089531 
L 34.022427 -54.089531 
L 35.990801 -54.089531 
L 37.959175 -54.089531 
L 39.927549 -54.089531 
L 41.895922 -54.089531 
L 43.864296 -54.089531 
L 45.83267 -54.089531 
L 47.801044 -54.089531 
L 49.769417 -54.089531 
L 51.737791 -54.089531 
L 53.706165 -54.089531 
L 55.674539 -54.089531 
L 57.642912 -54.089531 
L 59.611286 -54.089531 
L 61.57966 -54.089531 
L 63.548034 -54.089531 
L 65.516407 -54.089531 
L 67.484781 -54.089531 
L 69.453155 -54.089531 
L 71.421529 -54.089531 
L 73.389902 -54.089531 
L 75.358276 -54.089531 
L 77.32665 -54.089531 
L 79.295023 -54.089531 
L 81.263397 -54.089531 
L 83.231771 -54.089531 
L 85.200145 -54.089531 
L 87.168518 -54.089531 
L 89.136892 -54.089531 
L 91.105266 -54.089531 
L 93.07364 -54.089531 
L 95.042013 -54.089531 
L 97.010387 -54.089531 
L 98.978761 -54.089531 
L 100.947135 -54.089531 
L 102.915508 -54.089531 
L 104.883882 -54.089531 
L 106.852256 -54.089531 
L 108.82063 -54.089531 
L 110.789003 -54.089531 
L 112.757377 -54.089531 
L 114.725751 -54.089531 
L 116.694125 -54.089531 
L 118.662498 -54.089531 
L 120.630872 -54.089531 
L 122.599246 -54.089531 
L 124.56762 -54.089531 
L 126.535993 -54.089531 
L 128.504367 -54.089531 
L 130.472741 -54.089531 
L 132.441115 -54.089531 
L 134.409488 -54.089531 
L 136.377862 -54.089531 
L 138.346236 -54.089531 
L 140.31461 -54.089531 
L 142.282983 -54.089531 
L 144.251357 -54.089531 
L 146.219731 -54.089531 
L 148.188105 -54.089531 
L 150.156478 -54.089531 
L 152.124852 -54.089531 
L 154.093226 -54.089531 
L 156.061599 -54.089531 
L 158.029973 -54.089531 
L 159.998347 -54.089531 
L 161.966721 -54.089531 
L 163.935094 -54.089531 
L 165.903468 -54.089531 
L 167.871842 -54.089531 
L 169.840216 -54.089531 
L 171.808589 -54.089531 
L 173.776963 -54.089531 
L 175.745337 -54.089531 
L 177.713711 -54.089531 
L 179.682084 -54.089531 
L 181.650458 -54.089531 
L 183.618832 -54.089531 
L 185.587206 -54.089531 
L 187.555579 -54.089531 
L 189.523953 -54.089531 
L 191.492327 -54.089531 
L 193.460701 -54.089531 
L 195.429074 -54.089531 
L 197.397448 -54.089531 
L 199.365822 -54.089531 
L 201.334196 -54.089531 
L 203.302569 -54.089531 
L 205.270943 -54.089531 
L 207.239317 -54.089531 
L 209.207691 -54.089531 
L 211.176064 -54.089531 
L 213.144438 -54.089531 
L 215.112812 -54.089531 
L 217.081186 -54.089531 
L 219.049559 -54.089531 
L 221.017933 -54.089531 
L 222.986307 -54.089531 
L 224.95468 -54.089531 
L 226.923054 -54.089531 
L 228.891428 -54.089531 
L 230.859802 -54.089531 
L 232.828175 -54.089531 
L 234.796549 -54.089531 
L 236.764923 -54.089531 
L 238.733297 -54.089531 
L 240.70167 -54.089531 
L 242.670044 -54.089531 
L 244.638418 -54.089531 
L 246.606792 -54.089531 
L 248.575165 -54.089531 
L 250.543539 -54.089531 
L 252.511913 -54.089531 
L 254.480287 -54.089531 
L 256.44866 -54.089531 
L 258.417034 -54.089531 
L 260.385408 -54.089531 
L 262.353782 -54.089531 
L 264.322155 -54.089531 
L 266.290529 -54.089531 
L 268.258903 -54.089531 
L 270.227277 -54.089531 
L 272.19565 -54.089531 
L 274.164024 -54.089531 
L 276.132398 -54.089531 
L 278.100772 -54.089531 
L 280.069145 -54.089531 
L 282.037519 -54.089531 
L 284.005893 -54.089531 
L 285.974267 -54.089531 
L 287.94264 -54.089531 
L 289.911014 -54.089531 
L 291.879388 -54.089531 
L 293.847761 -54.089531 
L 295.816135 -54.089531 
L 297.784509 -54.089531 
L 299.752883 -54.089531 
L 301.721256 -54.089531 
L 303.68963 -54.089531 
L 305.658004 -54.089531 
L 307.626378 -54.089531 
L 309.594751 -54.089531 
L 311.563125 -54.089531 
L 313.531499 -54.089531 
L 315.499873 -54.089531 
L 317.468246 -54.089531 
L 319.43662 -54.089531 
L 321.404994 -54.089531 
L 323.373368 -54.089531 
L 325.341741 -54.089531 
L 327.310115 -54.089531 
L 329.278489 -54.089531 
L 331.246863 -54.089531 
L 333.215236 -54.089531 
L 335.18361 -54.089531 
L 337.151984 -54.089531 
L 339.120358 -54.089531 
L 341.088731 -54.089531 
L 343.057105 -54.089531 
L 345.025479 -54.089531 
L 346.993853 -54.089531 
L 346.993853 -54.589628 
L 346.993853 -54.589628 
L 345.025479 -54.948014 
L 343.057105 -55.380187 
L 341.088731 -55.838071 
L 339.120358 -56.325132 
L 337.151984 -56.936076 
L 335.18361 -57.85087 
L 333.215236 -59.340352 
L 331.246863 -61.839246 
L 329.278489 -66.105798 
L 327.310115 -73.294596 
L 325.341741 -84.732567 
L 323.373368 -101.659733 
L 321.404994 -125.320661 
L 319.43662 -157.152024 
L 317.468246 -198.231614 
L 315.499873 -247.414653 
L 313.531499 -299.340447 
L 311.563125 -344.861307 
L 309.594751 -374.205657 
L 307.626378 -380.449088 
L 305.658004 -361.760946 
L 303.68963 -322.036925 
L 301.721256 -269.459524 
L 299.752883 -213.683875 
L 297.784509 -163.138009 
L 295.816135 -123.221734 
L 293.847761 -95.663578 
L 291.879388 -79.050433 
L 289.911014 -70.17564 
L 287.94264 -65.660075 
L 285.974267 -63.164662 
L 284.005893 -61.614894 
L 282.037519 -60.625991 
L 280.069145 -59.967983 
L 278.100772 -59.45701 
L 276.132398 -58.967617 
L 274.164024 -58.40273 
L 272.19565 -57.755786 
L 270.227277 -57.163408 
L 268.258903 -56.745061 
L 266.290529 -56.446205 
L 264.322155 -56.16178 
L 262.353782 -55.904865 
L 260.385408 -55.738403 
L 258.417034 -55.648357 
L 256.44866 -55.563985 
L 254.480287 -55.437405 
L 252.511913 -55.273445 
L 250.543539 -55.110999 
L 248.575165 -54.984598 
L 246.606792 -54.897231 
L 244.638418 -54.830634 
L 242.670044 -54.786592 
L 240.70167 -54.797428 
L 238.733297 -54.871155 
L 236.764923 -54.950016 
L 234.796549 -54.959207 
L 232.828175 -54.899456 
L 230.859802 -54.864701 
L 228.891428 -54.945481 
L 226.923054 -55.139845 
L 224.95468 -55.374748 
L 222.986307 -55.569779 
L 221.017933 -55.670859 
L 219.049559 -55.674631 
L 217.081186 -55.634193 
L 215.112812 -55.608657 
L 213.144438 -55.596214 
L 211.176064 -55.541966 
L 209.207691 -55.429455 
L 207.239317 -55.338642 
L 205.270943 -55.371143 
L 203.302569 -55.526756 
L 201.334196 -55.697022 
L 199.365822 -55.763191 
L 197.397448 -55.679049 
L 195.429074 -55.507095 
L 193.460701 -55.371642 
L 191.492327 -55.329171 
L 189.523953 -55.321674 
L 187.555579 -55.285037 
L 185.587206 -55.23503 
L 183.618832 -55.214596 
L 181.650458 -55.223932 
L 179.682084 -55.251926 
L 177.713711 -55.328353 
L 175.745337 -55.474552 
L 173.776963 -55.632573 
L 171.808589 -55.724149 
L 169.840216 -55.756838 
L 167.871842 -55.804927 
L 165.903468 -55.908621 
L 163.935094 -56.026562 
L 161.966721 -56.086759 
L 159.998347 -56.095734 
L 158.029973 -56.149779 
L 156.061599 -56.285409 
L 154.093226 -56.39995 
L 152.124852 -56.379435 
L 150.156478 -56.217289 
L 148.188105 -55.977021 
L 146.219731 -55.725323 
L 144.251357 -55.511301 
L 142.282983 -55.352223 
L 140.31461 -55.229198 
L 138.346236 -55.109837 
L 136.377862 -54.986405 
L 134.409488 -54.886315 
L 132.441115 -54.82569 
L 130.472741 -54.772715 
L 128.504367 -54.688734 
L 126.535993 -54.582766 
L 124.56762 -54.488559 
L 122.599246 -54.412444 
L 120.630872 -54.341319 
L 118.662498 -54.2773 
L 116.694125 -54.234336 
L 114.725751 -54.217807 
L 112.757377 -54.221861 
L 110.789003 -54.235445 
L 108.82063 -54.247062 
L 106.852256 -54.250215 
L 104.883882 -54.243724 
L 102.915508 -54.2293 
L 100.947135 -54.21272 
L 98.978761 -54.199043 
L 97.010387 -54.185109 
L 95.042013 -54.164388 
L 93.07364 -54.137701 
L 91.105266 -54.113522 
L 89.136892 -54.09845 
L 87.168518 -54.091954 
L 85.200145 -54.090014 
L 83.231771 -54.089669 
L 81.263397 -54.09003 
L 79.295023 -54.091976 
L 77.32665 -54.098172 
L 75.358276 -54.111279 
L 73.389902 -54.128498 
L 71.421529 -54.139233 
L 69.453155 -54.13466 
L 67.484781 -54.118702 
L 65.516407 -54.102954 
L 63.548034 -54.093928 
L 61.57966 -54.090556 
L 59.611286 -54.089701 
L 57.642912 -54.089551 
L 55.674539 -54.089533 
L 53.706165 -54.089531 
L 51.737791 -54.089531 
L 49.769417 -54.089531 
L 47.801044 -54.089531 
L 45.83267 -54.089531 
L 43.864296 -54.089531 
L 41.895922 -54.089531 
L 39.927549 -54.089531 
L 37.959175 -54.089531 
L 35.990801 -54.089531 
L 34.022427 -54.089531 
L 32.054054 -54.089531 
L 30.08568 -54.089531 
L 28.117306 -54.089531 
L 26.148932 -54.089531 
L 24.180559 -54.089531 
L 22.212185 -54.089531 
L 20.243811 -54.089531 
L 18.275437 -54.089531 
L 16.307064 -54.089531 
L 14.33869 -54.089531 
L 12.370316 -54.089531 
L 10.401942 -54.089531 
L 8.433569 -54.089531 
L 6.465195 -54.089531 
L 4.496821 -54.089531 
L 2.528448 -54.089531 
L 0.560074 -54.089531 
L -1.4083 -54.089531 
L -3.376674 -54.089531 
L -5.345047 -54.089531 
L -7.313421 -54.089531 
L -9.281795 -54.089531 
L -11.250169 -54.089531 
L -13.218542 -54.089531 
L -15.186916 -54.089531 
L -17.15529 -54.089531 
L -19.123664 -54.089531 
L -21.092037 -54.089531 
L -23.060411 -54.089531 
L -25.028785 -54.089531 
L -26.997159 -54.089531 
L -28.965532 -54.089532 
L -30.933906 -54.089543 
L -32.90228 -54.089642 
L -34.870654 -54.090247 
L -36.839027 -54.092835 
L -38.807401 -54.100386 
L -40.775775 -54.114919 
L -42.744149 -54.1318 
L -44.712522 -54.139629 
z
" style="stroke: #8c2981; stroke-width: 3"/>
    </defs>
    <g clip-path="url(#p101eae980a)">
     <use xlink:href="#m0ee3a53cb9" x="0" y="344.758242" style="fill: #8c2981; fill-opacity: 0.2; stroke: #8c2981; stroke-width: 3"/>
    </g>
   </g>
   <g id="PolyCollection_2">
    <defs>
     <path id="ma3318a4b37" d="M 98.855297 -54.149116 
L 98.855297 -54.089531 
L 100.048395 -54.089531 
L 101.241493 -54.089531 
L 102.434591 -54.089531 
L 103.627689 -54.089531 
L 104.820787 -54.089531 
L 106.013885 -54.089531 
L 107.206983 -54.089531 
L 108.400081 -54.089531 
L 109.593179 -54.089531 
L 110.786277 -54.089531 
L 111.979376 -54.089531 
L 113.172474 -54.089531 
L 114.365572 -54.089531 
L 115.55867 -54.089531 
L 116.751768 -54.089531 
L 117.944866 -54.089531 
L 119.137964 -54.089531 
L 120.331062 -54.089531 
L 121.52416 -54.089531 
L 122.717258 -54.089531 
L 123.910356 -54.089531 
L 125.103454 -54.089531 
L 126.296552 -54.089531 
L 127.48965 -54.089531 
L 128.682748 -54.089531 
L 129.875846 -54.089531 
L 131.068944 -54.089531 
L 132.262042 -54.089531 
L 133.45514 -54.089531 
L 134.648238 -54.089531 
L 135.841336 -54.089531 
L 137.034434 -54.089531 
L 138.227532 -54.089531 
L 139.42063 -54.089531 
L 140.613728 -54.089531 
L 141.806826 -54.089531 
L 142.999924 -54.089531 
L 144.193022 -54.089531 
L 145.38612 -54.089531 
L 146.579218 -54.089531 
L 147.772316 -54.089531 
L 148.965414 -54.089531 
L 150.158512 -54.089531 
L 151.35161 -54.089531 
L 152.544708 -54.089531 
L 153.737806 -54.089531 
L 154.930904 -54.089531 
L 156.124002 -54.089531 
L 157.3171 -54.089531 
L 158.510198 -54.089531 
L 159.703296 -54.089531 
L 160.896394 -54.089531 
L 162.089492 -54.089531 
L 163.28259 -54.089531 
L 164.475688 -54.089531 
L 165.668786 -54.089531 
L 166.861884 -54.089531 
L 168.054982 -54.089531 
L 169.24808 -54.089531 
L 170.441178 -54.089531 
L 171.634276 -54.089531 
L 172.827374 -54.089531 
L 174.020472 -54.089531 
L 175.21357 -54.089531 
L 176.406668 -54.089531 
L 177.599766 -54.089531 
L 178.792864 -54.089531 
L 179.985962 -54.089531 
L 181.17906 -54.089531 
L 182.372158 -54.089531 
L 183.565256 -54.089531 
L 184.758354 -54.089531 
L 185.951452 -54.089531 
L 187.14455 -54.089531 
L 188.337648 -54.089531 
L 189.530747 -54.089531 
L 190.723845 -54.089531 
L 191.916943 -54.089531 
L 193.110041 -54.089531 
L 194.303139 -54.089531 
L 195.496237 -54.089531 
L 196.689335 -54.089531 
L 197.882433 -54.089531 
L 199.075531 -54.089531 
L 200.268629 -54.089531 
L 201.461727 -54.089531 
L 202.654825 -54.089531 
L 203.847923 -54.089531 
L 205.041021 -54.089531 
L 206.234119 -54.089531 
L 207.427217 -54.089531 
L 208.620315 -54.089531 
L 209.813413 -54.089531 
L 211.006511 -54.089531 
L 212.199609 -54.089531 
L 213.392707 -54.089531 
L 214.585805 -54.089531 
L 215.778903 -54.089531 
L 216.972001 -54.089531 
L 218.165099 -54.089531 
L 219.358197 -54.089531 
L 220.551295 -54.089531 
L 221.744393 -54.089531 
L 222.937491 -54.089531 
L 224.130589 -54.089531 
L 225.323687 -54.089531 
L 226.516785 -54.089531 
L 227.709883 -54.089531 
L 228.902981 -54.089531 
L 230.096079 -54.089531 
L 231.289177 -54.089531 
L 232.482275 -54.089531 
L 233.675373 -54.089531 
L 234.868471 -54.089531 
L 236.061569 -54.089531 
L 237.254667 -54.089531 
L 238.447765 -54.089531 
L 239.640863 -54.089531 
L 240.833961 -54.089531 
L 242.027059 -54.089531 
L 243.220157 -54.089531 
L 244.413255 -54.089531 
L 245.606353 -54.089531 
L 246.799451 -54.089531 
L 247.992549 -54.089531 
L 249.185647 -54.089531 
L 250.378745 -54.089531 
L 251.571843 -54.089531 
L 252.764941 -54.089531 
L 253.958039 -54.089531 
L 255.151137 -54.089531 
L 256.344235 -54.089531 
L 257.537333 -54.089531 
L 258.730431 -54.089531 
L 259.923529 -54.089531 
L 261.116627 -54.089531 
L 262.309725 -54.089531 
L 263.502823 -54.089531 
L 264.695921 -54.089531 
L 265.889019 -54.089531 
L 267.082118 -54.089531 
L 268.275216 -54.089531 
L 269.468314 -54.089531 
L 270.661412 -54.089531 
L 271.85451 -54.089531 
L 273.047608 -54.089531 
L 274.240706 -54.089531 
L 275.433804 -54.089531 
L 276.626902 -54.089531 
L 277.82 -54.089531 
L 279.013098 -54.089531 
L 280.206196 -54.089531 
L 281.399294 -54.089531 
L 282.592392 -54.089531 
L 283.78549 -54.089531 
L 284.978588 -54.089531 
L 286.171686 -54.089531 
L 287.364784 -54.089531 
L 288.557882 -54.089531 
L 289.75098 -54.089531 
L 290.944078 -54.089531 
L 292.137176 -54.089531 
L 293.330274 -54.089531 
L 294.523372 -54.089531 
L 295.71647 -54.089531 
L 296.909568 -54.089531 
L 298.102666 -54.089531 
L 299.295764 -54.089531 
L 300.488862 -54.089531 
L 301.68196 -54.089531 
L 302.875058 -54.089531 
L 304.068156 -54.089531 
L 305.261254 -54.089531 
L 306.454352 -54.089531 
L 307.64745 -54.089531 
L 308.840548 -54.089531 
L 310.033646 -54.089531 
L 311.226744 -54.089531 
L 312.419842 -54.089531 
L 313.61294 -54.089531 
L 314.806038 -54.089531 
L 315.999136 -54.089531 
L 317.192234 -54.089531 
L 318.385332 -54.089531 
L 319.57843 -54.089531 
L 320.771528 -54.089531 
L 321.964626 -54.089531 
L 323.157724 -54.089531 
L 324.350822 -54.089531 
L 325.54392 -54.089531 
L 326.737018 -54.089531 
L 327.930116 -54.089531 
L 329.123214 -54.089531 
L 330.316312 -54.089531 
L 331.50941 -54.089531 
L 332.702508 -54.089531 
L 333.895606 -54.089531 
L 335.088704 -54.089531 
L 336.281802 -54.089531 
L 336.281802 -54.444897 
L 336.281802 -54.444897 
L 335.088704 -54.536537 
L 333.895606 -54.615484 
L 332.702508 -54.679662 
L 331.50941 -54.737293 
L 330.316312 -54.807079 
L 329.123214 -54.914314 
L 327.930116 -55.082797 
L 326.737018 -55.325987 
L 325.54392 -55.643725 
L 324.350822 -56.028139 
L 323.157724 -56.475132 
L 321.964626 -56.993929 
L 320.771528 -57.611108 
L 319.57843 -58.372082 
L 318.385332 -59.344341 
L 317.192234 -60.623815 
L 315.999136 -62.345456 
L 314.806038 -64.701721 
L 313.61294 -67.969781 
L 312.419842 -72.53729 
L 311.226744 -78.908451 
L 310.033646 -87.678118 
L 308.840548 -99.474921 
L 307.64745 -114.877264 
L 306.454352 -134.297455 
L 305.261254 -157.831539 
L 304.068156 -185.103099 
L 302.875058 -215.169599 
L 301.68196 -246.563126 
L 300.488862 -277.476167 
L 299.295764 -306.012111 
L 298.102666 -330.381614 
L 296.909568 -348.989577 
L 295.71647 -360.472351 
L 294.523372 -363.799519 
L 293.330274 -358.491327 
L 292.137176 -344.873683 
L 290.944078 -324.203543 
L 289.75098 -298.523929 
L 288.557882 -270.247921 
L 287.364784 -241.637375 
L 286.171686 -214.407956 
L 284.978588 -189.599726 
L 283.78549 -167.68137 
L 282.592392 -148.747416 
L 281.399294 -132.683798 
L 280.206196 -119.261359 
L 279.013098 -108.181077 
L 277.82 -99.106465 
L 276.626902 -91.69967 
L 275.433804 -85.656838 
L 274.240706 -80.728269 
L 273.047608 -76.713914 
L 271.85451 -73.441314 
L 270.661412 -70.746738 
L 269.468314 -68.476494 
L 268.275216 -66.506403 
L 267.082118 -64.761107 
L 265.889019 -63.215926 
L 264.695921 -61.879164 
L 263.502823 -60.766302 
L 262.309725 -59.878903 
L 261.116627 -59.194016 
L 259.923529 -58.66447 
L 258.730431 -58.229362 
L 257.537333 -57.832204 
L 256.344235 -57.43907 
L 255.151137 -57.046602 
L 253.958039 -56.675421 
L 252.764941 -56.354324 
L 251.571843 -56.10487 
L 250.378745 -55.932484 
L 249.185647 -55.825206 
L 247.992549 -55.759259 
L 246.799451 -55.709065 
L 245.606353 -55.656509 
L 244.413255 -55.593999 
L 243.220157 -55.520959 
L 242.027059 -55.439028 
L 240.833961 -55.350514 
L 239.640863 -55.259326 
L 238.447765 -55.17104 
L 237.254667 -55.091501 
L 236.061569 -55.02596 
L 234.868471 -54.97961 
L 233.675373 -54.958057 
L 232.482275 -54.966523 
L 231.289177 -55.008253 
L 230.096079 -55.082743 
L 228.902981 -55.183903 
L 227.709883 -55.299227 
L 226.516785 -55.412255 
L 225.323687 -55.509072 
L 224.130589 -55.585707 
L 222.937491 -55.651228 
L 221.744393 -55.723524 
L 220.551295 -55.819749 
L 219.358197 -55.947543 
L 218.165099 -56.102803 
L 216.972001 -56.274269 
L 215.778903 -56.449533 
L 214.585805 -56.61773 
L 213.392707 -56.770181 
L 212.199609 -56.903123 
L 211.006511 -57.022124 
L 209.813413 -57.142194 
L 208.620315 -57.279501 
L 207.427217 -57.438796 
L 206.234119 -57.606133 
L 205.041021 -57.753231 
L 203.847923 -57.850695 
L 202.654825 -57.880862 
L 201.461727 -57.842155 
L 200.268629 -57.743849 
L 199.075531 -57.597378 
L 197.882433 -57.412741 
L 196.689335 -57.203244 
L 195.496237 -56.992152 
L 194.303139 -56.810547 
L 193.110041 -56.683675 
L 191.916943 -56.615788 
L 190.723845 -56.586633 
L 189.530747 -56.562638 
L 188.337648 -56.514206 
L 187.14455 -56.428219 
L 185.951452 -56.310837 
L 184.758354 -56.181971 
L 183.565256 -56.065428 
L 182.372158 -55.97917 
L 181.17906 -55.929857 
L 179.985962 -55.913925 
L 178.792864 -55.92353 
L 177.599766 -55.952424 
L 176.406668 -55.997679 
L 175.21357 -56.057585 
L 174.020472 -56.129496 
L 172.827374 -56.210121 
L 171.634276 -56.296462 
L 170.441178 -56.384037 
L 169.24808 -56.462798 
L 168.054982 -56.515595 
L 166.861884 -56.522877 
L 165.668786 -56.471393 
L 164.475688 -56.360869 
L 163.28259 -56.2049 
L 162.089492 -56.027016 
L 160.896394 -55.854733 
L 159.703296 -55.713251 
L 158.510198 -55.619524 
L 157.3171 -55.577916 
L 156.124002 -55.578923 
L 154.930904 -55.601732 
L 153.737806 -55.620272 
L 152.544708 -55.611527 
L 151.35161 -55.563663 
L 150.158512 -55.480426 
L 148.965414 -55.379151 
L 147.772316 -55.282805 
L 146.579218 -55.210095 
L 145.38612 -55.168859 
L 144.193022 -55.15579 
L 142.999924 -55.161047 
L 141.806826 -55.173061 
L 140.613728 -55.180217 
L 139.42063 -55.170969 
L 138.227532 -55.136389 
L 137.034434 -55.075261 
L 135.841336 -54.996313 
L 134.648238 -54.913106 
L 133.45514 -54.83467 
L 132.262042 -54.760327 
L 131.068944 -54.683534 
L 129.875846 -54.600779 
L 128.682748 -54.517195 
L 127.48965 -54.444484 
L 126.296552 -54.393992 
L 125.103454 -54.370894 
L 123.910356 -54.372611 
L 122.717258 -54.390468 
L 121.52416 -54.412561 
L 120.331062 -54.427199 
L 119.137964 -54.426642 
L 117.944866 -54.409628 
L 116.751768 -54.380852 
L 115.55867 -54.347456 
L 114.365572 -54.314935 
L 113.172474 -54.285199 
L 111.979376 -54.257636 
L 110.786277 -54.231662 
L 109.593179 -54.208287 
L 108.400081 -54.189462 
L 107.206983 -54.176206 
L 106.013885 -54.167638 
L 104.820787 -54.161889 
L 103.627689 -54.157745 
L 102.434591 -54.155107 
L 101.241493 -54.153857 
L 100.048395 -54.152636 
L 98.855297 -54.149116 
z
" style="stroke: #22587a; stroke-width: 3"/>
    </defs>
    <g clip-path="url(#p101eae980a)">
     <use xlink:href="#ma3318a4b37" x="0" y="344.758242" style="fill: #22587a; fill-opacity: 0.2; stroke: #22587a; stroke-width: 3"/>
    </g>
   </g>
   <g id="PolyCollection_3">
    <defs>
     <path id="mad60a8e8f3" d="M 105.873792 -54.146428 
L 105.873792 -54.089531 
L 107.056849 -54.089531 
L 108.239907 -54.089531 
L 109.422964 -54.089531 
L 110.606021 -54.089531 
L 111.789079 -54.089531 
L 112.972136 -54.089531 
L 114.155194 -54.089531 
L 115.338251 -54.089531 
L 116.521308 -54.089531 
L 117.704366 -54.089531 
L 118.887423 -54.089531 
L 120.070481 -54.089531 
L 121.253538 -54.089531 
L 122.436595 -54.089531 
L 123.619653 -54.089531 
L 124.80271 -54.089531 
L 125.985768 -54.089531 
L 127.168825 -54.089531 
L 128.351882 -54.089531 
L 129.53494 -54.089531 
L 130.717997 -54.089531 
L 131.901055 -54.089531 
L 133.084112 -54.089531 
L 134.267169 -54.089531 
L 135.450227 -54.089531 
L 136.633284 -54.089531 
L 137.816342 -54.089531 
L 138.999399 -54.089531 
L 140.182456 -54.089531 
L 141.365514 -54.089531 
L 142.548571 -54.089531 
L 143.731629 -54.089531 
L 144.914686 -54.089531 
L 146.097743 -54.089531 
L 147.280801 -54.089531 
L 148.463858 -54.089531 
L 149.646916 -54.089531 
L 150.829973 -54.089531 
L 152.01303 -54.089531 
L 153.196088 -54.089531 
L 154.379145 -54.089531 
L 155.562203 -54.089531 
L 156.74526 -54.089531 
L 157.928317 -54.089531 
L 159.111375 -54.089531 
L 160.294432 -54.089531 
L 161.47749 -54.089531 
L 162.660547 -54.089531 
L 163.843604 -54.089531 
L 165.026662 -54.089531 
L 166.209719 -54.089531 
L 167.392777 -54.089531 
L 168.575834 -54.089531 
L 169.758891 -54.089531 
L 170.941949 -54.089531 
L 172.125006 -54.089531 
L 173.308064 -54.089531 
L 174.491121 -54.089531 
L 175.674178 -54.089531 
L 176.857236 -54.089531 
L 178.040293 -54.089531 
L 179.223351 -54.089531 
L 180.406408 -54.089531 
L 181.589465 -54.089531 
L 182.772523 -54.089531 
L 183.95558 -54.089531 
L 185.138638 -54.089531 
L 186.321695 -54.089531 
L 187.504752 -54.089531 
L 188.68781 -54.089531 
L 189.870867 -54.089531 
L 191.053925 -54.089531 
L 192.236982 -54.089531 
L 193.420039 -54.089531 
L 194.603097 -54.089531 
L 195.786154 -54.089531 
L 196.969212 -54.089531 
L 198.152269 -54.089531 
L 199.335326 -54.089531 
L 200.518384 -54.089531 
L 201.701441 -54.089531 
L 202.884499 -54.089531 
L 204.067556 -54.089531 
L 205.250613 -54.089531 
L 206.433671 -54.089531 
L 207.616728 -54.089531 
L 208.799786 -54.089531 
L 209.982843 -54.089531 
L 211.1659 -54.089531 
L 212.348958 -54.089531 
L 213.532015 -54.089531 
L 214.715073 -54.089531 
L 215.89813 -54.089531 
L 217.081187 -54.089531 
L 218.264245 -54.089531 
L 219.447302 -54.089531 
L 220.63036 -54.089531 
L 221.813417 -54.089531 
L 222.996474 -54.089531 
L 224.179532 -54.089531 
L 225.362589 -54.089531 
L 226.545647 -54.089531 
L 227.728704 -54.089531 
L 228.911761 -54.089531 
L 230.094819 -54.089531 
L 231.277876 -54.089531 
L 232.460934 -54.089531 
L 233.643991 -54.089531 
L 234.827048 -54.089531 
L 236.010106 -54.089531 
L 237.193163 -54.089531 
L 238.376221 -54.089531 
L 239.559278 -54.089531 
L 240.742335 -54.089531 
L 241.925393 -54.089531 
L 243.10845 -54.089531 
L 244.291508 -54.089531 
L 245.474565 -54.089531 
L 246.657622 -54.089531 
L 247.84068 -54.089531 
L 249.023737 -54.089531 
L 250.206795 -54.089531 
L 251.389852 -54.089531 
L 252.572909 -54.089531 
L 253.755967 -54.089531 
L 254.939024 -54.089531 
L 256.122082 -54.089531 
L 257.305139 -54.089531 
L 258.488196 -54.089531 
L 259.671254 -54.089531 
L 260.854311 -54.089531 
L 262.037369 -54.089531 
L 263.220426 -54.089531 
L 264.403483 -54.089531 
L 265.586541 -54.089531 
L 266.769598 -54.089531 
L 267.952656 -54.089531 
L 269.135713 -54.089531 
L 270.31877 -54.089531 
L 271.501828 -54.089531 
L 272.684885 -54.089531 
L 273.867943 -54.089531 
L 275.051 -54.089531 
L 276.234057 -54.089531 
L 277.417115 -54.089531 
L 278.600172 -54.089531 
L 279.78323 -54.089531 
L 280.966287 -54.089531 
L 282.149344 -54.089531 
L 283.332402 -54.089531 
L 284.515459 -54.089531 
L 285.698517 -54.089531 
L 286.881574 -54.089531 
L 288.064631 -54.089531 
L 289.247689 -54.089531 
L 290.430746 -54.089531 
L 291.613804 -54.089531 
L 292.796861 -54.089531 
L 293.979918 -54.089531 
L 295.162976 -54.089531 
L 296.346033 -54.089531 
L 297.529091 -54.089531 
L 298.712148 -54.089531 
L 299.895205 -54.089531 
L 301.078263 -54.089531 
L 302.26132 -54.089531 
L 303.444378 -54.089531 
L 304.627435 -54.089531 
L 305.810492 -54.089531 
L 306.99355 -54.089531 
L 308.176607 -54.089531 
L 309.359665 -54.089531 
L 310.542722 -54.089531 
L 311.725779 -54.089531 
L 312.908837 -54.089531 
L 314.091894 -54.089531 
L 315.274952 -54.089531 
L 316.458009 -54.089531 
L 317.641066 -54.089531 
L 318.824124 -54.089531 
L 320.007181 -54.089531 
L 321.190239 -54.089531 
L 322.373296 -54.089531 
L 323.556353 -54.089531 
L 324.739411 -54.089531 
L 325.922468 -54.089531 
L 327.105526 -54.089531 
L 328.288583 -54.089531 
L 329.471641 -54.089531 
L 330.654698 -54.089531 
L 331.837755 -54.089531 
L 333.020813 -54.089531 
L 334.20387 -54.089531 
L 335.386928 -54.089531 
L 336.569985 -54.089531 
L 337.753042 -54.089531 
L 338.9361 -54.089531 
L 340.119157 -54.089531 
L 341.302215 -54.089531 
L 341.302215 -54.658604 
L 341.302215 -54.658604 
L 340.119157 -54.933496 
L 338.9361 -55.264436 
L 337.753042 -55.644471 
L 336.569985 -56.071725 
L 335.386928 -56.551425 
L 334.20387 -57.093611 
L 333.020813 -57.712352 
L 331.837755 -58.433413 
L 330.654698 -59.310053 
L 329.471641 -60.438181 
L 328.288583 -61.963641 
L 327.105526 -64.085635 
L 325.922468 -67.066302 
L 324.739411 -71.247058 
L 323.556353 -77.05859 
L 322.373296 -85.010837 
L 321.190239 -95.659902 
L 320.007181 -109.552687 
L 318.824124 -127.144697 
L 317.641066 -148.692123 
L 316.458009 -174.142988 
L 315.274952 -203.065559 
L 314.091894 -234.626372 
L 312.908837 -267.586446 
L 311.725779 -300.282511 
L 310.542722 -330.624895 
L 309.359665 -356.212506 
L 308.176607 -374.640339 
L 306.99355 -383.943454 
L 305.810492 -383.00214 
L 304.627435 -371.750901 
L 303.444378 -351.162009 
L 302.26132 -323.069634 
L 301.078263 -289.897697 
L 299.895205 -254.32643 
L 298.712148 -218.943758 
L 297.529091 -185.943292 
L 296.346033 -156.911671 
L 295.162976 -132.724275 
L 293.979918 -113.565489 
L 292.796861 -99.073752 
L 291.613804 -88.562205 
L 290.430746 -81.229977 
L 289.247689 -76.303331 
L 288.064631 -73.104157 
L 286.881574 -71.077411 
L 285.698517 -69.802654 
L 284.515459 -68.994346 
L 283.332402 -68.48448 
L 282.149344 -68.183623 
L 280.966287 -68.029249 
L 279.78323 -67.944732 
L 278.600172 -67.831889 
L 277.417115 -67.597384 
L 276.234057 -67.187125 
L 275.051 -66.599342 
L 273.867943 -65.869254 
L 272.684885 -65.042599 
L 271.501828 -64.160112 
L 270.31877 -63.260325 
L 269.135713 -62.389716 
L 267.952656 -61.602846 
L 266.769598 -60.945534 
L 265.586541 -60.432032 
L 264.403483 -60.035333 
L 263.220426 -59.699948 
L 262.037369 -59.368853 
L 260.854311 -59.00776 
L 259.671254 -58.614806 
L 258.488196 -58.213857 
L 257.305139 -57.837166 
L 256.122082 -57.507114 
L 254.939024 -57.226868 
L 253.755967 -56.984578 
L 252.572909 -56.767071 
L 251.389852 -56.573314 
L 250.206795 -56.418905 
L 249.023737 -56.328698 
L 247.84068 -56.321658 
L 246.657622 -56.397012 
L 245.474565 -56.53083 
L 244.291508 -56.685773 
L 243.10845 -56.827814 
L 241.925393 -56.939207 
L 240.742335 -57.020409 
L 239.559278 -57.081686 
L 238.376221 -57.131823 
L 237.193163 -57.1725 
L 236.010106 -57.202058 
L 234.827048 -57.224795 
L 233.643991 -57.256453 
L 232.460934 -57.31803 
L 231.277876 -57.419153 
L 230.094819 -57.543143 
L 228.911761 -57.648091 
L 227.728704 -57.687318 
L 226.545647 -57.636915 
L 225.362589 -57.511539 
L 224.179532 -57.357763 
L 222.996474 -57.229511 
L 221.813417 -57.160954 
L 220.63036 -57.152405 
L 219.447302 -57.17556 
L 218.264245 -57.192238 
L 217.081187 -57.173816 
L 215.89813 -57.111058 
L 214.715073 -57.012554 
L 213.532015 -56.896627 
L 212.348958 -56.782636 
L 211.1659 -56.684939 
L 209.982843 -56.609712 
L 208.799786 -56.553424 
L 207.616728 -56.50315 
L 206.433671 -56.440993 
L 205.250613 -56.353324 
L 204.067556 -56.240127 
L 202.884499 -56.116515 
L 201.701441 -56.003048 
L 200.518384 -55.911114 
L 199.335326 -55.835238 
L 198.152269 -55.759334 
L 196.969212 -55.672054 
L 195.786154 -55.578499 
L 194.603097 -55.498899 
L 193.420039 -55.455764 
L 192.236982 -55.459599 
L 191.053925 -55.503452 
L 189.870867 -55.569363 
L 188.68781 -55.640848 
L 187.504752 -55.711302 
L 186.321695 -55.781814 
L 185.138638 -55.850898 
L 183.95558 -55.906018 
L 182.772523 -55.926196 
L 181.589465 -55.895826 
L 180.406408 -55.818757 
L 179.223351 -55.719239 
L 178.040293 -55.626867 
L 176.857236 -55.557586 
L 175.674178 -55.507149 
L 174.491121 -55.462002 
L 173.308064 -55.416491 
L 172.125006 -55.380166 
L 170.941949 -55.368881 
L 169.758891 -55.388135 
L 168.575834 -55.423597 
L 167.392777 -55.447273 
L 166.209719 -55.434852 
L 165.026662 -55.381028 
L 163.843604 -55.301646 
L 162.660547 -55.222136 
L 161.47749 -55.161656 
L 160.294432 -55.124008 
L 159.111375 -55.099782 
L 157.928317 -55.075915 
L 156.74526 -55.044879 
L 155.562203 -55.007594 
L 154.379145 -54.969529 
L 153.196088 -54.93456 
L 152.01303 -54.902272 
L 150.829973 -54.870454 
L 149.646916 -54.839262 
L 148.463858 -54.812087 
L 147.280801 -54.791997 
L 146.097743 -54.777234 
L 144.914686 -54.760195 
L 143.731629 -54.731226 
L 142.548571 -54.684717 
L 141.365514 -54.623138 
L 140.182456 -54.555945 
L 138.999399 -54.494074 
L 137.816342 -54.444313 
L 136.633284 -54.407678 
L 135.450227 -54.381771 
L 134.267169 -54.363637 
L 133.084112 -54.350557 
L 131.901055 -54.339675 
L 130.717997 -54.328498 
L 129.53494 -54.316123 
L 128.351882 -54.30326 
L 127.168825 -54.290507 
L 125.985768 -54.276805 
L 124.80271 -54.26014 
L 123.619653 -54.240044 
L 122.436595 -54.219388 
L 121.253538 -54.203558 
L 120.070481 -54.19744 
L 118.887423 -54.202349 
L 117.704366 -54.214848 
L 116.521308 -54.227969 
L 115.338251 -54.234138 
L 114.155194 -54.228566 
L 112.972136 -54.211631 
L 111.789079 -54.188795 
L 110.606021 -54.167718 
L 109.422964 -54.154077 
L 108.239907 -54.148727 
L 107.056849 -54.147959 
L 105.873792 -54.146428 
z
" style="stroke: #de4968; stroke-width: 3"/>
    </defs>
    <g clip-path="url(#p101eae980a)">
     <use xlink:href="#mad60a8e8f3" x="0" y="344.758242" style="fill: #de4968; fill-opacity: 0.2; stroke: #de4968; stroke-width: 3"/>
    </g>
   </g>
   <g id="PolyCollection_4">
    <defs>
     <path id="mb0b281118b" d="M -44.712522 -54.744163 
L -44.712522 -54.089531 
L -42.878883 -54.089531 
L -41.045244 -54.089531 
L -39.211605 -54.089531 
L -37.377965 -54.089531 
L -35.544326 -54.089531 
L -33.710687 -54.089531 
L -31.877048 -54.089531 
L -30.043409 -54.089531 
L -28.209769 -54.089531 
L -26.37613 -54.089531 
L -24.542491 -54.089531 
L -22.708852 -54.089531 
L -20.875213 -54.089531 
L -19.041573 -54.089531 
L -17.207934 -54.089531 
L -15.374295 -54.089531 
L -13.540656 -54.089531 
L -11.707017 -54.089531 
L -9.873377 -54.089531 
L -8.039738 -54.089531 
L -6.206099 -54.089531 
L -4.37246 -54.089531 
L -2.538821 -54.089531 
L -0.705181 -54.089531 
L 1.128458 -54.089531 
L 2.962097 -54.089531 
L 4.795736 -54.089531 
L 6.629376 -54.089531 
L 8.463015 -54.089531 
L 10.296654 -54.089531 
L 12.130293 -54.089531 
L 13.963932 -54.089531 
L 15.797572 -54.089531 
L 17.631211 -54.089531 
L 19.46485 -54.089531 
L 21.298489 -54.089531 
L 23.132128 -54.089531 
L 24.965768 -54.089531 
L 26.799407 -54.089531 
L 28.633046 -54.089531 
L 30.466685 -54.089531 
L 32.300324 -54.089531 
L 34.133964 -54.089531 
L 35.967603 -54.089531 
L 37.801242 -54.089531 
L 39.634881 -54.089531 
L 41.468521 -54.089531 
L 43.30216 -54.089531 
L 45.135799 -54.089531 
L 46.969438 -54.089531 
L 48.803077 -54.089531 
L 50.636717 -54.089531 
L 52.470356 -54.089531 
L 54.303995 -54.089531 
L 56.137634 -54.089531 
L 57.971273 -54.089531 
L 59.804913 -54.089531 
L 61.638552 -54.089531 
L 63.472191 -54.089531 
L 65.30583 -54.089531 
L 67.139469 -54.089531 
L 68.973109 -54.089531 
L 70.806748 -54.089531 
L 72.640387 -54.089531 
L 74.474026 -54.089531 
L 76.307665 -54.089531 
L 78.141305 -54.089531 
L 79.974944 -54.089531 
L 81.808583 -54.089531 
L 83.642222 -54.089531 
L 85.475862 -54.089531 
L 87.309501 -54.089531 
L 89.14314 -54.089531 
L 90.976779 -54.089531 
L 92.810418 -54.089531 
L 94.644058 -54.089531 
L 96.477697 -54.089531 
L 98.311336 -54.089531 
L 100.144975 -54.089531 
L 101.978614 -54.089531 
L 103.812254 -54.089531 
L 105.645893 -54.089531 
L 107.479532 -54.089531 
L 109.313171 -54.089531 
L 111.14681 -54.089531 
L 112.98045 -54.089531 
L 114.814089 -54.089531 
L 116.647728 -54.089531 
L 118.481367 -54.089531 
L 120.315007 -54.089531 
L 122.148646 -54.089531 
L 123.982285 -54.089531 
L 125.815924 -54.089531 
L 127.649563 -54.089531 
L 129.483203 -54.089531 
L 131.316842 -54.089531 
L 133.150481 -54.089531 
L 134.98412 -54.089531 
L 136.817759 -54.089531 
L 138.651399 -54.089531 
L 140.485038 -54.089531 
L 142.318677 -54.089531 
L 144.152316 -54.089531 
L 145.985955 -54.089531 
L 147.819595 -54.089531 
L 149.653234 -54.089531 
L 151.486873 -54.089531 
L 153.320512 -54.089531 
L 155.154151 -54.089531 
L 156.987791 -54.089531 
L 158.82143 -54.089531 
L 160.655069 -54.089531 
L 162.488708 -54.089531 
L 164.322348 -54.089531 
L 166.155987 -54.089531 
L 167.989626 -54.089531 
L 169.823265 -54.089531 
L 171.656904 -54.089531 
L 173.490544 -54.089531 
L 175.324183 -54.089531 
L 177.157822 -54.089531 
L 178.991461 -54.089531 
L 180.8251 -54.089531 
L 182.65874 -54.089531 
L 184.492379 -54.089531 
L 186.326018 -54.089531 
L 188.159657 -54.089531 
L 189.993296 -54.089531 
L 191.826936 -54.089531 
L 193.660575 -54.089531 
L 195.494214 -54.089531 
L 197.327853 -54.089531 
L 199.161493 -54.089531 
L 200.995132 -54.089531 
L 202.828771 -54.089531 
L 204.66241 -54.089531 
L 206.496049 -54.089531 
L 208.329689 -54.089531 
L 210.163328 -54.089531 
L 211.996967 -54.089531 
L 213.830606 -54.089531 
L 215.664245 -54.089531 
L 217.497885 -54.089531 
L 219.331524 -54.089531 
L 221.165163 -54.089531 
L 222.998802 -54.089531 
L 224.832441 -54.089531 
L 226.666081 -54.089531 
L 228.49972 -54.089531 
L 230.333359 -54.089531 
L 232.166998 -54.089531 
L 234.000637 -54.089531 
L 235.834277 -54.089531 
L 237.667916 -54.089531 
L 239.501555 -54.089531 
L 241.335194 -54.089531 
L 243.168834 -54.089531 
L 245.002473 -54.089531 
L 246.836112 -54.089531 
L 248.669751 -54.089531 
L 250.50339 -54.089531 
L 252.33703 -54.089531 
L 254.170669 -54.089531 
L 256.004308 -54.089531 
L 257.837947 -54.089531 
L 259.671586 -54.089531 
L 261.505226 -54.089531 
L 263.338865 -54.089531 
L 265.172504 -54.089531 
L 267.006143 -54.089531 
L 268.839782 -54.089531 
L 270.673422 -54.089531 
L 272.507061 -54.089531 
L 274.3407 -54.089531 
L 276.174339 -54.089531 
L 278.007978 -54.089531 
L 279.841618 -54.089531 
L 281.675257 -54.089531 
L 283.508896 -54.089531 
L 285.342535 -54.089531 
L 287.176175 -54.089531 
L 289.009814 -54.089531 
L 290.843453 -54.089531 
L 292.677092 -54.089531 
L 294.510731 -54.089531 
L 296.344371 -54.089531 
L 298.17801 -54.089531 
L 300.011649 -54.089531 
L 301.845288 -54.089531 
L 303.678927 -54.089531 
L 305.512567 -54.089531 
L 307.346206 -54.089531 
L 309.179845 -54.089531 
L 311.013484 -54.089531 
L 312.847123 -54.089531 
L 314.680763 -54.089531 
L 316.514402 -54.089531 
L 318.348041 -54.089531 
L 320.18168 -54.089531 
L 320.18168 -54.183491 
L 320.18168 -54.183491 
L 318.348041 -54.172587 
L 316.514402 -54.15033 
L 314.680763 -54.139941 
L 312.847123 -54.155043 
L 311.013484 -54.190414 
L 309.179845 -54.228371 
L 307.346206 -54.253394 
L 305.512567 -54.262043 
L 303.678927 -54.261099 
L 301.845288 -54.258886 
L 300.011649 -54.257701 
L 298.17801 -54.252631 
L 296.344371 -54.2361 
L 294.510731 -54.204539 
L 292.677092 -54.164082 
L 290.843453 -54.127797 
L 289.009814 -54.104667 
L 287.176175 -54.094074 
L 285.342535 -54.090557 
L 283.508896 -54.089705 
L 281.675257 -54.08956 
L 279.841618 -54.089592 
L 278.007978 -54.089942 
L 276.174339 -54.091695 
L 274.3407 -54.098144 
L 272.507061 -54.115633 
L 270.673422 -54.150433 
L 268.839782 -54.200787 
L 267.006143 -54.252557 
L 265.172504 -54.287379 
L 263.338865 -54.295338 
L 261.505226 -54.277124 
L 259.671586 -54.238532 
L 257.837947 -54.189519 
L 256.004308 -54.144321 
L 254.170669 -54.114746 
L 252.33703 -54.104699 
L 250.50339 -54.113286 
L 248.669751 -54.13735 
L 246.836112 -54.166559 
L 245.002473 -54.182733 
L 243.168834 -54.173754 
L 241.335194 -54.146347 
L 239.501555 -54.118169 
L 237.667916 -54.100522 
L 235.834277 -54.093891 
L 234.000637 -54.095771 
L 232.166998 -54.107108 
L 230.333359 -54.130199 
L 228.49972 -54.160127 
L 226.666081 -54.181027 
L 224.832441 -54.178047 
L 222.998802 -54.15345 
L 221.165163 -54.123984 
L 219.331524 -54.103393 
L 217.497885 -54.093694 
L 215.664245 -54.090464 
L 213.830606 -54.089687 
L 211.996967 -54.089551 
L 210.163328 -54.089533 
L 208.329689 -54.089531 
L 206.496049 -54.089531 
L 204.66241 -54.089531 
L 202.828771 -54.089531 
L 200.995132 -54.089531 
L 199.161493 -54.089532 
L 197.327853 -54.089535 
L 195.494214 -54.089569 
L 193.660575 -54.089841 
L 191.826936 -54.091526 
L 189.993296 -54.099945 
L 188.159657 -54.134848 
L 186.326018 -54.257127 
L 184.492379 -54.6201 
L 182.65874 -55.528414 
L 180.8251 -57.450462 
L 178.991461 -60.963994 
L 177.157822 -66.716635 
L 175.324183 -75.429148 
L 173.490544 -87.740156 
L 171.656904 -103.751912 
L 169.823265 -122.645284 
L 167.989626 -142.918889 
L 166.155987 -163.046332 
L 164.322348 -181.720331 
L 162.488708 -197.65116 
L 160.655069 -209.708392 
L 158.82143 -217.436239 
L 156.987791 -221.136765 
L 155.154151 -221.311499 
L 153.320512 -218.26917 
L 151.486873 -212.497174 
L 149.653234 -205.032063 
L 147.819595 -196.927513 
L 145.985955 -188.564738 
L 144.152316 -179.842506 
L 142.318677 -170.732144 
L 140.485038 -161.412779 
L 138.651399 -152.23249 
L 136.817759 -143.69602 
L 134.98412 -136.151515 
L 133.150481 -129.407093 
L 131.316842 -122.927173 
L 129.483203 -116.436386 
L 127.649563 -110.163147 
L 125.815924 -104.509415 
L 123.982285 -99.628922 
L 122.148646 -95.38122 
L 120.315007 -91.555458 
L 118.481367 -87.948326 
L 116.647728 -84.315893 
L 114.814089 -80.515635 
L 112.98045 -76.713804 
L 111.14681 -73.297843 
L 109.313171 -70.570279 
L 107.479532 -68.566434 
L 105.645893 -67.09217 
L 103.812254 -65.895145 
L 101.978614 -64.859481 
L 100.144975 -64.028468 
L 98.311336 -63.416153 
L 96.477697 -62.898047 
L 94.644058 -62.330875 
L 92.810418 -61.660398 
L 90.976779 -60.883244 
L 89.14314 -60.031407 
L 87.309501 -59.21837 
L 85.475862 -58.583208 
L 83.642222 -58.144761 
L 81.808583 -57.778917 
L 79.974944 -57.365684 
L 78.141305 -56.894975 
L 76.307665 -56.427357 
L 74.474026 -56.039332 
L 72.640387 -55.804516 
L 70.806748 -55.749807 
L 68.973109 -55.816505 
L 67.139469 -55.888087 
L 65.30583 -55.870144 
L 63.472191 -55.757467 
L 61.638552 -55.625163 
L 59.804913 -55.557446 
L 57.971273 -55.584749 
L 56.137634 -55.646798 
L 54.303995 -55.605067 
L 52.470356 -55.369311 
L 50.636717 -55.018886 
L 48.803077 -54.712941 
L 46.969438 -54.512472 
L 45.135799 -54.376652 
L 43.30216 -54.280617 
L 41.468521 -54.256003 
L 39.634881 -54.336799 
L 37.801242 -54.49567 
L 35.967603 -54.629746 
L 34.133964 -54.632774 
L 32.300324 -54.498073 
L 30.466685 -54.318931 
L 28.633046 -54.185683 
L 26.799407 -54.119614 
L 24.965768 -54.096556 
L 23.132128 -54.090756 
L 21.298489 -54.089691 
L 19.46485 -54.089547 
L 17.631211 -54.089532 
L 15.797572 -54.089531 
L 13.963932 -54.089531 
L 12.130293 -54.089531 
L 10.296654 -54.089531 
L 8.463015 -54.089531 
L 6.629376 -54.089531 
L 4.795736 -54.089531 
L 2.962097 -54.089531 
L 1.128458 -54.089531 
L -0.705181 -54.089531 
L -2.538821 -54.089531 
L -4.37246 -54.089531 
L -6.206099 -54.089531 
L -8.039738 -54.089531 
L -9.873377 -54.089531 
L -11.707017 -54.089531 
L -13.540656 -54.089531 
L -15.374295 -54.089531 
L -17.207934 -54.089531 
L -19.041573 -54.089531 
L -20.875213 -54.089531 
L -22.708852 -54.089531 
L -24.542491 -54.089531 
L -26.37613 -54.089532 
L -28.209769 -54.089536 
L -30.043409 -54.089588 
L -31.877048 -54.090037 
L -33.710687 -54.092918 
L -35.544326 -54.10645 
L -37.377965 -54.152616 
L -39.211605 -54.265103 
L -41.045244 -54.454267 
L -42.878883 -54.655109 
L -44.712522 -54.744163 
z
" style="stroke: #38a3a6; stroke-width: 3"/>
    </defs>
    <g clip-path="url(#p101eae980a)">
     <use xlink:href="#mb0b281118b" x="0" y="344.758242" style="fill: #38a3a6; fill-opacity: 0.2; stroke: #38a3a6; stroke-width: 3"/>
    </g>
   </g>
   <g id="line2d_13">
    <path d="M 111.902889 290.668711 
L 111.902889 13.468711 
" clip-path="url(#p101eae980a)" style="fill: none; stroke: #000000; stroke-width: 2; stroke-linecap: round"/>
   </g>
   <g id="line2d_14">
    <path d="M 305.984348 290.668711 
L 305.984348 13.468711 
" clip-path="url(#p101eae980a)" style="fill: none; stroke: #000000; stroke-width: 2; stroke-linecap: round"/>
   </g>
   <g id="line2d_15">
    <path d="M 293.695241 290.668711 
L 293.695241 13.468711 
" clip-path="url(#p101eae980a)" style="fill: none; stroke: #000000; stroke-width: 2; stroke-linecap: round"/>
   </g>
   <g id="line2d_16">
    <path d="M 307.955501 290.668711 
L 307.955501 13.468711 
" clip-path="url(#p101eae980a)" style="fill: none; stroke: #000000; stroke-width: 2; stroke-linecap: round"/>
   </g>
   <g id="patch_3">
    <path d="M 74.858906 290.668711 
L 74.858906 13.468711 
" style="fill: none; stroke: #262626; stroke-width: 3; stroke-linejoin: miter; stroke-linecap: square"/>
   </g>
   <g id="patch_4">
    <path d="M 74.858906 290.668711 
L 353.858906 290.668711 
" style="fill: none; stroke: #262626; stroke-width: 3; stroke-linejoin: miter; stroke-linecap: square"/>
   </g>
   <g id="legend_1">
    <g id="patch_5">
     <path d="M 334.89668 120.29332 
L 367.89668 120.29332 
L 367.89668 108.74332 
L 334.89668 108.74332 
z
" style="fill: #38a3a6; stroke: #ffffff; stroke-linejoin: miter"/>
    </g>
    <g id="text_15">
     <text style="fill: #262626; font: 16.5px 'sans-serif'; text-anchor: start" x="381.09668" y="120.29332" transform="rotate(-0, 381.09668, 120.29332)">AraC WT</text>
    </g>
    <g id="patch_6">
     <path d="M 334.89668 144.512227 
L 367.89668 144.512227 
L 367.89668 132.962227 
L 334.89668 132.962227 
z
" style="fill: #de4968; stroke: #ffffff; stroke-linejoin: miter"/>
    </g>
    <g id="text_16">
     <text style="fill: #262626; font: 16.5px 'sans-serif'; text-anchor: start" x="381.09668" y="144.512227" transform="rotate(-0, 381.09668, 144.512227)">AraC R2</text>
    </g>
    <g id="patch_7">
     <path d="M 334.89668 168.731133 
L 367.89668 168.731133 
L 367.89668 157.181133 
L 334.89668 157.181133 
z
" style="fill: #22587a; stroke: #ffffff; stroke-linejoin: miter"/>
    </g>
    <g id="text_17">
     <text style="fill: #262626; font: 16.5px 'sans-serif'; text-anchor: start" x="381.09668" y="168.731133" transform="rotate(-0, 381.09668, 168.731133)">AraC WT Arabinose</text>
    </g>
    <g id="patch_8">
     <path d="M 334.89668 192.950039 
L 367.89668 192.950039 
L 367.89668 181.400039 
L 334.89668 181.400039 
z
" style="fill: #8c2981; stroke: #ffffff; stroke-linejoin: miter"/>
    </g>
    <g id="text_18">
     <text style="fill: #262626; font: 16.5px 'sans-serif'; text-anchor: start" x="381.09668" y="192.950039" transform="rotate(-0, 381.09668, 192.950039)">AraC R2 Arabinose</text>
    </g>
   </g>
  </g>
 </g>
 <defs>
  <clipPath id="p101eae980a">
   <rect x="74.858906" y="13.468711" width="279" height="277.2"/>
  </clipPath>
 </defs>
</svg>
