<?xml version="1.0" encoding="utf-8" standalone="no"?>
<!DOCTYPE svg PUBLIC "-//W3C//DTD SVG 1.1//EN"
  "http://www.w3.org/Graphics/SVG/1.1/DTD/svg11.dtd">
<svg xmlns:xlink="http://www.w3.org/1999/xlink" width="563.234062pt" height="338.489531pt" viewBox="0 0 563.234062 338.489531" xmlns="http://www.w3.org/2000/svg" version="1.1">
 <metadata>
  <rdf:RDF xmlns:dc="http://purl.org/dc/elements/1.1/" xmlns:cc="http://creativecommons.org/ns#" xmlns:rdf="http://www.w3.org/1999/02/22-rdf-syntax-ns#">
   <cc:Work>
    <dc:type rdf:resource="http://purl.org/dc/dcmitype/StillImage"/>
    <dc:date>2025-04-29T13:51:06.443146</dc:date>
    <dc:format>image/svg+xml</dc:format>
    <dc:creator>
     <cc:Agent>
      <dc:title>Matplotlib v3.5.0, https://matplotlib.org/</dc:title>
     </cc:Agent>
    </dc:creator>
   </cc:Work>
  </rdf:RDF>
 </metadata>
 <defs>
  <style type="text/css">*{stroke-linejoin: round; stroke-linecap: butt}</style>
 </defs>
 <g id="figure_1">
  <g id="patch_1">
   <path d="M 0 338.489531 
L 563.234062 338.489531 
L 563.234062 0 
L 0 0 
z
" style="fill: #ffffff"/>
  </g>
  <g id="axes_1">
   <g id="patch_2">
    <path d="M 64.360781 284.4 
L 343.360781 284.4 
L 343.360781 7.2 
L 64.360781 7.2 
z
" style="fill: #ffffff"/>
   </g>
   <g id="matplotlib.axis_1">
    <g id="xtick_1">
     <g id="line2d_1">
      <defs>
       <path id="me14455c066" d="M 0 0 
L 0 6 
" style="stroke: #262626; stroke-width: 3"/>
      </defs>
      <g>
       <use xlink:href="#me14455c066" x="64.360781" y="284.4" style="fill: #262626; stroke: #262626; stroke-width: 3"/>
      </g>
     </g>
     <g id="text_1">
      <!-- $\mathdefault{10^{0}}$ -->
      <g style="fill: #262626" transform="translate(49.840781 306.437422)">
       <text>
        <tspan style="font: 16.5px 'DejaVu Sans'" x="0 10.497803" y="-0.10312500000000213">10</tspan>
        <tspan style="font: 11.55px 'DejaVu Sans'" x="21.153652" y="-6.425000000000001">0</tspan>
       </text>
      </g>
     </g>
    </g>
    <g id="xtick_2">
     <g id="line2d_2">
      <g>
       <use xlink:href="#me14455c066" x="148.10853" y="284.4" style="fill: #262626; stroke: #262626; stroke-width: 3"/>
      </g>
     </g>
     <g id="text_2">
      <!-- $\mathdefault{10^{2}}$ -->
      <g style="fill: #262626" transform="translate(133.58853 306.437422)">
       <text>
        <tspan style="font: 16.5px 'DejaVu Sans'" x="0 10.497803" y="-0.10312500000000213">10</tspan>
        <tspan style="font: 11.55px 'DejaVu Sans'" x="21.153652" y="-6.425000000000001">2</tspan>
       </text>
      </g>
     </g>
    </g>
    <g id="xtick_3">
     <g id="line2d_3">
      <g>
       <use xlink:href="#me14455c066" x="231.85628" y="284.4" style="fill: #262626; stroke: #262626; stroke-width: 3"/>
      </g>
     </g>
     <g id="text_3">
      <!-- $\mathdefault{10^{4}}$ -->
      <g style="fill: #262626" transform="translate(217.33628 306.437422)">
       <text>
        <tspan style="font: 16.5px 'DejaVu Sans'" x="0 10.497803" y="-0.2562500000000014">10</tspan>
        <tspan style="font: 11.55px 'DejaVu Sans'" x="21.153652" y="-6.578125">4</tspan>
       </text>
      </g>
     </g>
    </g>
    <g id="xtick_4">
     <g id="line2d_4">
      <g>
       <use xlink:href="#me14455c066" x="315.604029" y="284.4" style="fill: #262626; stroke: #262626; stroke-width: 3"/>
      </g>
     </g>
     <g id="text_4">
      <!-- $\mathdefault{10^{6}}$ -->
      <g style="fill: #262626" transform="translate(301.084029 306.437422)">
       <text>
        <tspan style="font: 16.5px 'DejaVu Sans'" x="0 10.497803" y="-0.10312500000000213">10</tspan>
        <tspan style="font: 11.55px 'DejaVu Sans'" x="21.153652" y="-6.425000000000001">6</tspan>
       </text>
      </g>
     </g>
    </g>
    <g id="text_5">
     <text style="fill: #262626; font: 18px 'sans-serif'; text-anchor: middle" x="203.860781" y="327.546094" transform="rotate(-0, 203.860781, 327.546094)">log[RFP]</text>
    </g>
   </g>
   <g id="matplotlib.axis_2">
    <g id="ytick_1">
     <g id="line2d_5">
      <defs>
       <path id="ma4407ef51c" d="M 0 0 
L -6 0 
" style="stroke: #262626; stroke-width: 3"/>
      </defs>
      <g>
       <use xlink:href="#ma4407ef51c" x="64.360781" y="284.4" style="fill: #262626; stroke: #262626; stroke-width: 3"/>
      </g>
     </g>
     <g id="text_6">
      <text style="fill: #262626; font: 16.5px 'sans-serif'; text-anchor: end" x="54.860781" y="290.668711" transform="rotate(-0, 54.860781, 290.668711)">0.0</text>
     </g>
    </g>
    <g id="ytick_2">
     <g id="line2d_6">
      <g>
       <use xlink:href="#ma4407ef51c" x="64.360781" y="218.379557" style="fill: #262626; stroke: #262626; stroke-width: 3"/>
      </g>
     </g>
     <g id="text_7">
      <text style="fill: #262626; font: 16.5px 'sans-serif'; text-anchor: end" x="54.860781" y="224.648268" transform="rotate(-0, 54.860781, 224.648268)">0.5</text>
     </g>
    </g>
    <g id="ytick_3">
     <g id="line2d_7">
      <g>
       <use xlink:href="#ma4407ef51c" x="64.360781" y="152.359114" style="fill: #262626; stroke: #262626; stroke-width: 3"/>
      </g>
     </g>
     <g id="text_8">
      <text style="fill: #262626; font: 16.5px 'sans-serif'; text-anchor: end" x="54.860781" y="158.627824" transform="rotate(-0, 54.860781, 158.627824)">1.0</text>
     </g>
    </g>
    <g id="ytick_4">
     <g id="line2d_8">
      <g>
       <use xlink:href="#ma4407ef51c" x="64.360781" y="86.33867" style="fill: #262626; stroke: #262626; stroke-width: 3"/>
      </g>
     </g>
     <g id="text_9">
      <text style="fill: #262626; font: 16.5px 'sans-serif'; text-anchor: end" x="54.860781" y="92.607381" transform="rotate(-0, 54.860781, 92.607381)">1.5</text>
     </g>
    </g>
    <g id="ytick_5">
     <g id="line2d_9">
      <g>
       <use xlink:href="#ma4407ef51c" x="64.360781" y="20.318227" style="fill: #262626; stroke: #262626; stroke-width: 3"/>
      </g>
     </g>
     <g id="text_10">
      <text style="fill: #262626; font: 16.5px 'sans-serif'; text-anchor: end" x="54.860781" y="26.586938" transform="rotate(-0, 54.860781, 26.586938)">2.0</text>
     </g>
    </g>
    <g id="text_11">
     <text style="fill: #262626; font: 18px 'sans-serif'; text-anchor: middle" x="20.877188" y="145.8" transform="rotate(-90, 20.877188, 145.8)">Density</text>
    </g>
   </g>
   <g id="PolyCollection_1">
    <defs>
     <path id="ma1ec910025" d="M -61.260842 -54.129084 
L -61.260842 -54.089531 
L -59.227568 -54.089531 
L -57.194294 -54.089531 
L -55.161019 -54.089531 
L -53.127745 -54.089531 
L -51.09447 -54.089531 
L -49.061196 -54.089531 
L -47.027921 -54.089531 
L -44.994647 -54.089531 
L -42.961372 -54.089531 
L -40.928098 -54.089531 
L -38.894823 -54.089531 
L -36.861549 -54.089531 
L -34.828274 -54.089531 
L -32.795 -54.089531 
L -30.761725 -54.089531 
L -28.728451 -54.089531 
L -26.695176 -54.089531 
L -24.661902 -54.089531 
L -22.628627 -54.089531 
L -20.595353 -54.089531 
L -18.562078 -54.089531 
L -16.528804 -54.089531 
L -14.495529 -54.089531 
L -12.462255 -54.089531 
L -10.42898 -54.089531 
L -8.395706 -54.089531 
L -6.362431 -54.089531 
L -4.329157 -54.089531 
L -2.295882 -54.089531 
L -0.262608 -54.089531 
L 1.770667 -54.089531 
L 3.803941 -54.089531 
L 5.837216 -54.089531 
L 7.87049 -54.089531 
L 9.903765 -54.089531 
L 11.937039 -54.089531 
L 13.970314 -54.089531 
L 16.003588 -54.089531 
L 18.036863 -54.089531 
L 20.070137 -54.089531 
L 22.103412 -54.089531 
L 24.136686 -54.089531 
L 26.169961 -54.089531 
L 28.203235 -54.089531 
L 30.23651 -54.089531 
L 32.269784 -54.089531 
L 34.303059 -54.089531 
L 36.336333 -54.089531 
L 38.369608 -54.089531 
L 40.402882 -54.089531 
L 42.436157 -54.089531 
L 44.469431 -54.089531 
L 46.502706 -54.089531 
L 48.53598 -54.089531 
L 50.569255 -54.089531 
L 52.602529 -54.089531 
L 54.635804 -54.089531 
L 56.669078 -54.089531 
L 58.702352 -54.089531 
L 60.735627 -54.089531 
L 62.768901 -54.089531 
L 64.802176 -54.089531 
L 66.83545 -54.089531 
L 68.868725 -54.089531 
L 70.901999 -54.089531 
L 72.935274 -54.089531 
L 74.968548 -54.089531 
L 77.001823 -54.089531 
L 79.035097 -54.089531 
L 81.068372 -54.089531 
L 83.101646 -54.089531 
L 85.134921 -54.089531 
L 87.168195 -54.089531 
L 89.20147 -54.089531 
L 91.234744 -54.089531 
L 93.268019 -54.089531 
L 95.301293 -54.089531 
L 97.334568 -54.089531 
L 99.367842 -54.089531 
L 101.401117 -54.089531 
L 103.434391 -54.089531 
L 105.467666 -54.089531 
L 107.50094 -54.089531 
L 109.534215 -54.089531 
L 111.567489 -54.089531 
L 113.600764 -54.089531 
L 115.634038 -54.089531 
L 117.667313 -54.089531 
L 119.700587 -54.089531 
L 121.733862 -54.089531 
L 123.767136 -54.089531 
L 125.800411 -54.089531 
L 127.833685 -54.089531 
L 129.86696 -54.089531 
L 131.900234 -54.089531 
L 133.933509 -54.089531 
L 135.966783 -54.089531 
L 138.000058 -54.089531 
L 140.033332 -54.089531 
L 142.066607 -54.089531 
L 144.099881 -54.089531 
L 146.133156 -54.089531 
L 148.16643 -54.089531 
L 150.199705 -54.089531 
L 152.232979 -54.089531 
L 154.266254 -54.089531 
L 156.299528 -54.089531 
L 158.332803 -54.089531 
L 160.366077 -54.089531 
L 162.399352 -54.089531 
L 164.432626 -54.089531 
L 166.465901 -54.089531 
L 168.499175 -54.089531 
L 170.53245 -54.089531 
L 172.565724 -54.089531 
L 174.598998 -54.089531 
L 176.632273 -54.089531 
L 178.665547 -54.089531 
L 180.698822 -54.089531 
L 182.732096 -54.089531 
L 184.765371 -54.089531 
L 186.798645 -54.089531 
L 188.83192 -54.089531 
L 190.865194 -54.089531 
L 192.898469 -54.089531 
L 194.931743 -54.089531 
L 196.965018 -54.089531 
L 198.998292 -54.089531 
L 201.031567 -54.089531 
L 203.064841 -54.089531 
L 205.098116 -54.089531 
L 207.13139 -54.089531 
L 209.164665 -54.089531 
L 211.197939 -54.089531 
L 213.231214 -54.089531 
L 215.264488 -54.089531 
L 217.297763 -54.089531 
L 219.331037 -54.089531 
L 221.364312 -54.089531 
L 223.397586 -54.089531 
L 225.430861 -54.089531 
L 227.464135 -54.089531 
L 229.49741 -54.089531 
L 231.530684 -54.089531 
L 233.563959 -54.089531 
L 235.597233 -54.089531 
L 237.630508 -54.089531 
L 239.663782 -54.089531 
L 241.697057 -54.089531 
L 243.730331 -54.089531 
L 245.763606 -54.089531 
L 247.79688 -54.089531 
L 249.830155 -54.089531 
L 251.863429 -54.089531 
L 253.896704 -54.089531 
L 255.929978 -54.089531 
L 257.963253 -54.089531 
L 259.996527 -54.089531 
L 262.029802 -54.089531 
L 264.063076 -54.089531 
L 266.096351 -54.089531 
L 268.129625 -54.089531 
L 270.1629 -54.089531 
L 272.196174 -54.089531 
L 274.229449 -54.089531 
L 276.262723 -54.089531 
L 278.295998 -54.089531 
L 280.329272 -54.089531 
L 282.362547 -54.089531 
L 284.395821 -54.089531 
L 286.429095 -54.089531 
L 288.46237 -54.089531 
L 290.495644 -54.089531 
L 292.528919 -54.089531 
L 294.562193 -54.089531 
L 296.595468 -54.089531 
L 298.628742 -54.089531 
L 300.662017 -54.089531 
L 302.695291 -54.089531 
L 304.728566 -54.089531 
L 306.76184 -54.089531 
L 308.795115 -54.089531 
L 310.828389 -54.089531 
L 312.861664 -54.089531 
L 314.894938 -54.089531 
L 316.928213 -54.089531 
L 318.961487 -54.089531 
L 320.994762 -54.089531 
L 323.028036 -54.089531 
L 325.061311 -54.089531 
L 327.094585 -54.089531 
L 329.12786 -54.089531 
L 331.161134 -54.089531 
L 333.194409 -54.089531 
L 335.227683 -54.089531 
L 337.260958 -54.089531 
L 339.294232 -54.089531 
L 341.327507 -54.089531 
L 343.360781 -54.089531 
L 343.360781 -54.340598 
L 343.360781 -54.340598 
L 341.327507 -54.463871 
L 339.294232 -54.599208 
L 337.260958 -54.807729 
L 335.227683 -55.207471 
L 333.194409 -55.907644 
L 331.161134 -56.963009 
L 329.12786 -58.435541 
L 327.094585 -60.55014 
L 325.061311 -63.863173 
L 323.028036 -69.421463 
L 320.994762 -78.868966 
L 318.961487 -94.29022 
L 316.928213 -117.622711 
L 314.894938 -149.730259 
L 312.861664 -189.38343 
L 310.828389 -232.59687 
L 308.795115 -273.002319 
L 306.76184 -303.465749 
L 304.728566 -318.089531 
L 302.695291 -313.627145 
L 300.662017 -290.384657 
L 298.628742 -252.719336 
L 296.595468 -208.208665 
L 294.562193 -165.090769 
L 292.528919 -129.422987 
L 290.495644 -103.718954 
L 288.46237 -87.357741 
L 286.429095 -77.942333 
L 284.395821 -72.750755 
L 282.362547 -69.707602 
L 280.329272 -67.66283 
L 278.295998 -66.178222 
L 276.262723 -65.151128 
L 274.229449 -64.487528 
L 272.196174 -63.959851 
L 270.1629 -63.305554 
L 268.129625 -62.418048 
L 266.096351 -61.379365 
L 264.063076 -60.322738 
L 262.029802 -59.351159 
L 259.996527 -58.560497 
L 257.963253 -58.006901 
L 255.929978 -57.638278 
L 253.896704 -57.341198 
L 251.863429 -57.047195 
L 249.830155 -56.750381 
L 247.79688 -56.460017 
L 245.763606 -56.182493 
L 243.730331 -55.935452 
L 241.697057 -55.749169 
L 239.663782 -55.639134 
L 237.630508 -55.576993 
L 235.597233 -55.50939 
L 233.563959 -55.424432 
L 231.530684 -55.380508 
L 229.49741 -55.441979 
L 227.464135 -55.599398 
L 225.430861 -55.779228 
L 223.397586 -55.924169 
L 221.364312 -56.041068 
L 219.331037 -56.171857 
L 217.297763 -56.341755 
L 215.264488 -56.544775 
L 213.231214 -56.753331 
L 211.197939 -56.927946 
L 209.164665 -57.046678 
L 207.13139 -57.13319 
L 205.098116 -57.225829 
L 203.064841 -57.323451 
L 201.031567 -57.389777 
L 198.998292 -57.391962 
L 196.965018 -57.3048 
L 194.931743 -57.107143 
L 192.898469 -56.815209 
L 190.865194 -56.500872 
L 188.83192 -56.249685 
L 186.798645 -56.113806 
L 184.765371 -56.099331 
L 182.732096 -56.151444 
L 180.698822 -56.154848 
L 178.665547 -56.016207 
L 176.632273 -55.760936 
L 174.598998 -55.509263 
L 172.565724 -55.36533 
L 170.53245 -55.356148 
L 168.499175 -55.450431 
L 166.465901 -55.596446 
L 164.432626 -55.746289 
L 162.399352 -55.86726 
L 160.366077 -55.933929 
L 158.332803 -55.921135 
L 156.299528 -55.835008 
L 154.266254 -55.741426 
L 152.232979 -55.717785 
L 150.199705 -55.76493 
L 148.16643 -55.794227 
L 146.133156 -55.715464 
L 144.099881 -55.522452 
L 142.066607 -55.284855 
L 140.033332 -55.076983 
L 138.000058 -54.92909 
L 135.966783 -54.829713 
L 133.933509 -54.752877 
L 131.900234 -54.682461 
L 129.86696 -54.617574 
L 127.833685 -54.559698 
L 125.800411 -54.505177 
L 123.767136 -54.454168 
L 121.733862 -54.413168 
L 119.700587 -54.382655 
L 117.667313 -54.353594 
L 115.634038 -54.318929 
L 113.600764 -54.281754 
L 111.567489 -54.251195 
L 109.534215 -54.231269 
L 107.50094 -54.215864 
L 105.467666 -54.197528 
L 103.434391 -54.176689 
L 101.401117 -54.157552 
L 99.367842 -54.141532 
L 97.334568 -54.130435 
L 95.301293 -54.129645 
L 93.268019 -54.142524 
L 91.234744 -54.164601 
L 89.20147 -54.184789 
L 87.168195 -54.190802 
L 85.134921 -54.176636 
L 83.101646 -54.148471 
L 81.068372 -54.12025 
L 79.035097 -54.101695 
L 77.001823 -54.093179 
L 74.968548 -54.090491 
L 72.935274 -54.090453 
L 70.901999 -54.092648 
L 68.868725 -54.098635 
L 66.83545 -54.109443 
L 64.802176 -54.121984 
L 62.768901 -54.128936 
L 60.735627 -54.125177 
L 58.702352 -54.113555 
L 56.669078 -54.101593 
L 54.635804 -54.094043 
L 52.602529 -54.090789 
L 50.569255 -54.089792 
L 48.53598 -54.089572 
L 46.502706 -54.089536 
L 44.469431 -54.089532 
L 42.436157 -54.089531 
L 40.402882 -54.089531 
L 38.369608 -54.089531 
L 36.336333 -54.089531 
L 34.303059 -54.089531 
L 32.269784 -54.089531 
L 30.23651 -54.089531 
L 28.203235 -54.089531 
L 26.169961 -54.089531 
L 24.136686 -54.089531 
L 22.103412 -54.089531 
L 20.070137 -54.089531 
L 18.036863 -54.089531 
L 16.003588 -54.089531 
L 13.970314 -54.089531 
L 11.937039 -54.089531 
L 9.903765 -54.089531 
L 7.87049 -54.089531 
L 5.837216 -54.089531 
L 3.803941 -54.089531 
L 1.770667 -54.089531 
L -0.262608 -54.089531 
L -2.295882 -54.089531 
L -4.329157 -54.089531 
L -6.362431 -54.089531 
L -8.395706 -54.089531 
L -10.42898 -54.089531 
L -12.462255 -54.089531 
L -14.495529 -54.089531 
L -16.528804 -54.089531 
L -18.562078 -54.089531 
L -20.595353 -54.089531 
L -22.628627 -54.089531 
L -24.661902 -54.089531 
L -26.695176 -54.089531 
L -28.728451 -54.089531 
L -30.761725 -54.089531 
L -32.795 -54.089531 
L -34.828274 -54.089531 
L -36.861549 -54.089531 
L -38.894823 -54.089531 
L -40.928098 -54.089531 
L -42.961372 -54.089532 
L -44.994647 -54.089534 
L -47.027921 -54.08956 
L -49.061196 -54.089729 
L -51.09447 -54.090529 
L -53.127745 -54.093285 
L -55.161019 -54.100048 
L -57.194294 -54.111484 
L -59.227568 -54.12367 
L -61.260842 -54.129084 
z
" style="stroke: #8c2981; stroke-width: 3"/>
    </defs>
    <g clip-path="url(#pceb10cdd67)">
     <use xlink:href="#ma1ec910025" x="0" y="338.489531" style="fill: #8c2981; fill-opacity: 0.2; stroke: #8c2981; stroke-width: 3"/>
    </g>
   </g>
   <g id="PolyCollection_2">
    <defs>
     <path id="mf21324d73d" d="M 47.69749 -54.132377 
L 47.69749 -54.089531 
L 49.0247 -54.089531 
L 50.351909 -54.089531 
L 51.679119 -54.089531 
L 53.006328 -54.089531 
L 54.333538 -54.089531 
L 55.660747 -54.089531 
L 56.987956 -54.089531 
L 58.315166 -54.089531 
L 59.642375 -54.089531 
L 60.969585 -54.089531 
L 62.296794 -54.089531 
L 63.624004 -54.089531 
L 64.951213 -54.089531 
L 66.278423 -54.089531 
L 67.605632 -54.089531 
L 68.932842 -54.089531 
L 70.260051 -54.089531 
L 71.587261 -54.089531 
L 72.91447 -54.089531 
L 74.24168 -54.089531 
L 75.568889 -54.089531 
L 76.896099 -54.089531 
L 78.223308 -54.089531 
L 79.550517 -54.089531 
L 80.877727 -54.089531 
L 82.204936 -54.089531 
L 83.532146 -54.089531 
L 84.859355 -54.089531 
L 86.186565 -54.089531 
L 87.513774 -54.089531 
L 88.840984 -54.089531 
L 90.168193 -54.089531 
L 91.495403 -54.089531 
L 92.822612 -54.089531 
L 94.149822 -54.089531 
L 95.477031 -54.089531 
L 96.804241 -54.089531 
L 98.13145 -54.089531 
L 99.45866 -54.089531 
L 100.785869 -54.089531 
L 102.113079 -54.089531 
L 103.440288 -54.089531 
L 104.767497 -54.089531 
L 106.094707 -54.089531 
L 107.421916 -54.089531 
L 108.749126 -54.089531 
L 110.076335 -54.089531 
L 111.403545 -54.089531 
L 112.730754 -54.089531 
L 114.057964 -54.089531 
L 115.385173 -54.089531 
L 116.712383 -54.089531 
L 118.039592 -54.089531 
L 119.366802 -54.089531 
L 120.694011 -54.089531 
L 122.021221 -54.089531 
L 123.34843 -54.089531 
L 124.67564 -54.089531 
L 126.002849 -54.089531 
L 127.330058 -54.089531 
L 128.657268 -54.089531 
L 129.984477 -54.089531 
L 131.311687 -54.089531 
L 132.638896 -54.089531 
L 133.966106 -54.089531 
L 135.293315 -54.089531 
L 136.620525 -54.089531 
L 137.947734 -54.089531 
L 139.274944 -54.089531 
L 140.602153 -54.089531 
L 141.929363 -54.089531 
L 143.256572 -54.089531 
L 144.583782 -54.089531 
L 145.910991 -54.089531 
L 147.238201 -54.089531 
L 148.56541 -54.089531 
L 149.892619 -54.089531 
L 151.219829 -54.089531 
L 152.547038 -54.089531 
L 153.874248 -54.089531 
L 155.201457 -54.089531 
L 156.528667 -54.089531 
L 157.855876 -54.089531 
L 159.183086 -54.089531 
L 160.510295 -54.089531 
L 161.837505 -54.089531 
L 163.164714 -54.089531 
L 164.491924 -54.089531 
L 165.819133 -54.089531 
L 167.146343 -54.089531 
L 168.473552 -54.089531 
L 169.800762 -54.089531 
L 171.127971 -54.089531 
L 172.455181 -54.089531 
L 173.78239 -54.089531 
L 175.109599 -54.089531 
L 176.436809 -54.089531 
L 177.764018 -54.089531 
L 179.091228 -54.089531 
L 180.418437 -54.089531 
L 181.745647 -54.089531 
L 183.072856 -54.089531 
L 184.400066 -54.089531 
L 185.727275 -54.089531 
L 187.054485 -54.089531 
L 188.381694 -54.089531 
L 189.708904 -54.089531 
L 191.036113 -54.089531 
L 192.363323 -54.089531 
L 193.690532 -54.089531 
L 195.017742 -54.089531 
L 196.344951 -54.089531 
L 197.67216 -54.089531 
L 198.99937 -54.089531 
L 200.326579 -54.089531 
L 201.653789 -54.089531 
L 202.980998 -54.089531 
L 204.308208 -54.089531 
L 205.635417 -54.089531 
L 206.962627 -54.089531 
L 208.289836 -54.089531 
L 209.617046 -54.089531 
L 210.944255 -54.089531 
L 212.271465 -54.089531 
L 213.598674 -54.089531 
L 214.925884 -54.089531 
L 216.253093 -54.089531 
L 217.580303 -54.089531 
L 218.907512 -54.089531 
L 220.234721 -54.089531 
L 221.561931 -54.089531 
L 222.88914 -54.089531 
L 224.21635 -54.089531 
L 225.543559 -54.089531 
L 226.870769 -54.089531 
L 228.197978 -54.089531 
L 229.525188 -54.089531 
L 230.852397 -54.089531 
L 232.179607 -54.089531 
L 233.506816 -54.089531 
L 234.834026 -54.089531 
L 236.161235 -54.089531 
L 237.488445 -54.089531 
L 238.815654 -54.089531 
L 240.142864 -54.089531 
L 241.470073 -54.089531 
L 242.797283 -54.089531 
L 244.124492 -54.089531 
L 245.451701 -54.089531 
L 246.778911 -54.089531 
L 248.10612 -54.089531 
L 249.43333 -54.089531 
L 250.760539 -54.089531 
L 252.087749 -54.089531 
L 253.414958 -54.089531 
L 254.742168 -54.089531 
L 256.069377 -54.089531 
L 257.396587 -54.089531 
L 258.723796 -54.089531 
L 260.051006 -54.089531 
L 261.378215 -54.089531 
L 262.705425 -54.089531 
L 264.032634 -54.089531 
L 265.359844 -54.089531 
L 266.687053 -54.089531 
L 268.014262 -54.089531 
L 269.341472 -54.089531 
L 270.668681 -54.089531 
L 271.995891 -54.089531 
L 273.3231 -54.089531 
L 274.65031 -54.089531 
L 275.977519 -54.089531 
L 277.304729 -54.089531 
L 278.631938 -54.089531 
L 279.959148 -54.089531 
L 281.286357 -54.089531 
L 282.613567 -54.089531 
L 283.940776 -54.089531 
L 285.267986 -54.089531 
L 286.595195 -54.089531 
L 287.922405 -54.089531 
L 289.249614 -54.089531 
L 290.576824 -54.089531 
L 291.904033 -54.089531 
L 293.231242 -54.089531 
L 294.558452 -54.089531 
L 295.885661 -54.089531 
L 297.212871 -54.089531 
L 298.54008 -54.089531 
L 299.86729 -54.089531 
L 301.194499 -54.089531 
L 302.521709 -54.089531 
L 303.848918 -54.089531 
L 305.176128 -54.089531 
L 306.503337 -54.089531 
L 307.830547 -54.089531 
L 309.157756 -54.089531 
L 310.484966 -54.089531 
L 311.812175 -54.089531 
L 311.812175 -54.156489 
L 311.812175 -54.156489 
L 310.484966 -54.174975 
L 309.157756 -54.197241 
L 307.830547 -54.2223 
L 306.503337 -54.245642 
L 305.176128 -54.261052 
L 303.848918 -54.264848 
L 302.521709 -54.259105 
L 301.194499 -54.250835 
L 299.86729 -54.247577 
L 298.54008 -54.253021 
L 297.212871 -54.266162 
L 295.885661 -54.284089 
L 294.558452 -54.30531 
L 293.231242 -54.33071 
L 291.904033 -54.362359 
L 290.576824 -54.4026 
L 289.249614 -54.454619 
L 287.922405 -54.522702 
L 286.595195 -54.609664 
L 285.267986 -54.712186 
L 283.940776 -54.818824 
L 282.613567 -54.915233 
L 281.286357 -54.995297 
L 279.959148 -55.070323 
L 278.631938 -55.168426 
L 277.304729 -55.323398 
L 275.977519 -55.559469 
L 274.65031 -55.879593 
L 273.3231 -56.261902 
L 271.995891 -56.666232 
L 270.668681 -57.049895 
L 269.341472 -57.386944 
L 268.014262 -57.680951 
L 266.687053 -57.962955 
L 265.359844 -58.274208 
L 264.032634 -58.642627 
L 262.705425 -59.066738 
L 261.378215 -59.517511 
L 260.051006 -59.957286 
L 258.723796 -60.362628 
L 257.396587 -60.734653 
L 256.069377 -61.090227 
L 254.742168 -61.442733 
L 253.414958 -61.788473 
L 252.087749 -62.108305 
L 250.760539 -62.380985 
L 249.43333 -62.59718 
L 248.10612 -62.766029 
L 246.778911 -62.913507 
L 245.451701 -63.074713 
L 244.124492 -63.280263 
L 242.797283 -63.538351 
L 241.470073 -63.822257 
L 240.142864 -64.077745 
L 238.815654 -64.253519 
L 237.488445 -64.336232 
L 236.161235 -64.361997 
L 234.834026 -64.393429 
L 233.506816 -64.479908 
L 232.179607 -64.63054 
L 230.852397 -64.815428 
L 229.525188 -64.989179 
L 228.197978 -65.118861 
L 226.870769 -65.199193 
L 225.543559 -65.247472 
L 224.21635 -65.286427 
L 222.88914 -65.333926 
L 221.561931 -65.41112 
L 220.234721 -65.55973 
L 218.907512 -65.848144 
L 217.580303 -66.358394 
L 216.253093 -67.16675 
L 214.925884 -68.333768 
L 213.598674 -69.904382 
L 212.271465 -71.909732 
L 210.944255 -74.371395 
L 209.617046 -77.314976 
L 208.289836 -80.786512 
L 206.962627 -84.850138 
L 205.635417 -89.556527 
L 204.308208 -94.901772 
L 202.980998 -100.811805 
L 201.653789 -107.16946 
L 200.326579 -113.864639 
L 198.99937 -120.825029 
L 197.67216 -127.99924 
L 196.344951 -135.308502 
L 195.017742 -142.61599 
L 193.690532 -149.74847 
L 192.363323 -156.557672 
L 191.036113 -162.977927 
L 189.708904 -169.043504 
L 188.381694 -174.850485 
L 187.054485 -180.464974 
L 185.727275 -185.804395 
L 184.400066 -190.554289 
L 183.072856 -194.192209 
L 181.745647 -196.139202 
L 180.418437 -195.97594 
L 179.091228 -193.613997 
L 177.764018 -189.335939 
L 176.436809 -183.681797 
L 175.109599 -177.228421 
L 173.78239 -170.368442 
L 172.455181 -163.215503 
L 171.127971 -155.693464 
L 169.800762 -147.733267 
L 168.473552 -139.421113 
L 167.146343 -131.000889 
L 165.819133 -122.768466 
L 164.491924 -114.9655 
L 163.164714 -107.737598 
L 161.837505 -101.146563 
L 160.510295 -95.202692 
L 159.183086 -89.899998 
L 157.855876 -85.242925 
L 156.528667 -81.246683 
L 155.201457 -77.908802 
L 153.874248 -75.179929 
L 152.547038 -72.964914 
L 151.219829 -71.152223 
L 149.892619 -69.641537 
L 148.56541 -68.347491 
L 147.238201 -67.187389 
L 145.910991 -66.077671 
L 144.583782 -64.952865 
L 143.256572 -63.794665 
L 141.929363 -62.643138 
L 140.602153 -61.573258 
L 139.274944 -60.650108 
L 137.947734 -59.89632 
L 136.620525 -59.294078 
L 135.293315 -58.812379 
L 133.966106 -58.43052 
L 132.638896 -58.139061 
L 131.311687 -57.92523 
L 129.984477 -57.762755 
L 128.657268 -57.616383 
L 127.330058 -57.454237 
L 126.002849 -57.256258 
L 124.67564 -57.015172 
L 123.34843 -56.734274 
L 122.021221 -56.425867 
L 120.694011 -56.109928 
L 119.366802 -55.811032 
L 118.039592 -55.553048 
L 116.712383 -55.352898 
L 115.385173 -55.215593 
L 114.057964 -55.132738 
L 112.730754 -55.085497 
L 111.403545 -55.051097 
L 110.076335 -55.010467 
L 108.749126 -54.954088 
L 107.421916 -54.883527 
L 106.094707 -54.808001 
L 104.767497 -54.738383 
L 103.440288 -54.682649 
L 102.113079 -54.644779 
L 100.785869 -54.625437 
L 99.45866 -54.621819 
L 98.13145 -54.626586 
L 96.804241 -54.628465 
L 95.477031 -54.616066 
L 94.149822 -54.583019 
L 92.822612 -54.530782 
L 91.495403 -54.467446 
L 90.168193 -54.403897 
L 88.840984 -54.349784 
L 87.513774 -54.310889 
L 86.186565 -54.288543 
L 84.859355 -54.281007 
L 83.532146 -54.28565 
L 82.204936 -54.299909 
L 80.877727 -54.320129 
L 79.550517 -54.339869 
L 78.223308 -54.350509 
L 76.896099 -54.344919 
L 75.568889 -54.321629 
L 74.24168 -54.285874 
L 72.91447 -54.246545 
L 71.587261 -54.211564 
L 70.260051 -54.185077 
L 68.932842 -54.167514 
L 67.605632 -54.157034 
L 66.278423 -54.150695 
L 64.951213 -54.145228 
L 63.624004 -54.138069 
L 62.296794 -54.128421 
L 60.969585 -54.117451 
L 59.642375 -54.107291 
L 58.315166 -54.099708 
L 56.987956 -54.095485 
L 55.660747 -54.094712 
L 54.333538 -54.097345 
L 53.006328 -54.10332 
L 51.679119 -54.112029 
L 50.351909 -54.121685 
L 49.0247 -54.129408 
L 47.69749 -54.132377 
z
" style="stroke: #22587a; stroke-width: 3"/>
    </defs>
    <g clip-path="url(#pceb10cdd67)">
     <use xlink:href="#mf21324d73d" x="0" y="338.489531" style="fill: #22587a; fill-opacity: 0.2; stroke: #22587a; stroke-width: 3"/>
    </g>
   </g>
   <g id="PolyCollection_3">
    <defs>
     <path id="mcdef725638" d="M 35.092198 -54.121364 
L 35.092198 -54.089531 
L 36.58021 -54.089531 
L 38.068223 -54.089531 
L 39.556235 -54.089531 
L 41.044247 -54.089531 
L 42.53226 -54.089531 
L 44.020272 -54.089531 
L 45.508285 -54.089531 
L 46.996297 -54.089531 
L 48.484309 -54.089531 
L 49.972322 -54.089531 
L 51.460334 -54.089531 
L 52.948346 -54.089531 
L 54.436359 -54.089531 
L 55.924371 -54.089531 
L 57.412384 -54.089531 
L 58.900396 -54.089531 
L 60.388408 -54.089531 
L 61.876421 -54.089531 
L 63.364433 -54.089531 
L 64.852445 -54.089531 
L 66.340458 -54.089531 
L 67.82847 -54.089531 
L 69.316483 -54.089531 
L 70.804495 -54.089531 
L 72.292507 -54.089531 
L 73.78052 -54.089531 
L 75.268532 -54.089531 
L 76.756544 -54.089531 
L 78.244557 -54.089531 
L 79.732569 -54.089531 
L 81.220582 -54.089531 
L 82.708594 -54.089531 
L 84.196606 -54.089531 
L 85.684619 -54.089531 
L 87.172631 -54.089531 
L 88.660643 -54.089531 
L 90.148656 -54.089531 
L 91.636668 -54.089531 
L 93.124681 -54.089531 
L 94.612693 -54.089531 
L 96.100705 -54.089531 
L 97.588718 -54.089531 
L 99.07673 -54.089531 
L 100.564743 -54.089531 
L 102.052755 -54.089531 
L 103.540767 -54.089531 
L 105.02878 -54.089531 
L 106.516792 -54.089531 
L 108.004804 -54.089531 
L 109.492817 -54.089531 
L 110.980829 -54.089531 
L 112.468842 -54.089531 
L 113.956854 -54.089531 
L 115.444866 -54.089531 
L 116.932879 -54.089531 
L 118.420891 -54.089531 
L 119.908903 -54.089531 
L 121.396916 -54.089531 
L 122.884928 -54.089531 
L 124.372941 -54.089531 
L 125.860953 -54.089531 
L 127.348965 -54.089531 
L 128.836978 -54.089531 
L 130.32499 -54.089531 
L 131.813002 -54.089531 
L 133.301015 -54.089531 
L 134.789027 -54.089531 
L 136.27704 -54.089531 
L 137.765052 -54.089531 
L 139.253064 -54.089531 
L 140.741077 -54.089531 
L 142.229089 -54.089531 
L 143.717101 -54.089531 
L 145.205114 -54.089531 
L 146.693126 -54.089531 
L 148.181139 -54.089531 
L 149.669151 -54.089531 
L 151.157163 -54.089531 
L 152.645176 -54.089531 
L 154.133188 -54.089531 
L 155.621201 -54.089531 
L 157.109213 -54.089531 
L 158.597225 -54.089531 
L 160.085238 -54.089531 
L 161.57325 -54.089531 
L 163.061262 -54.089531 
L 164.549275 -54.089531 
L 166.037287 -54.089531 
L 167.5253 -54.089531 
L 169.013312 -54.089531 
L 170.501324 -54.089531 
L 171.989337 -54.089531 
L 173.477349 -54.089531 
L 174.965361 -54.089531 
L 176.453374 -54.089531 
L 177.941386 -54.089531 
L 179.429399 -54.089531 
L 180.917411 -54.089531 
L 182.405423 -54.089531 
L 183.893436 -54.089531 
L 185.381448 -54.089531 
L 186.86946 -54.089531 
L 188.357473 -54.089531 
L 189.845485 -54.089531 
L 191.333498 -54.089531 
L 192.82151 -54.089531 
L 194.309522 -54.089531 
L 195.797535 -54.089531 
L 197.285547 -54.089531 
L 198.773559 -54.089531 
L 200.261572 -54.089531 
L 201.749584 -54.089531 
L 203.237597 -54.089531 
L 204.725609 -54.089531 
L 206.213621 -54.089531 
L 207.701634 -54.089531 
L 209.189646 -54.089531 
L 210.677659 -54.089531 
L 212.165671 -54.089531 
L 213.653683 -54.089531 
L 215.141696 -54.089531 
L 216.629708 -54.089531 
L 218.11772 -54.089531 
L 219.605733 -54.089531 
L 221.093745 -54.089531 
L 222.581758 -54.089531 
L 224.06977 -54.089531 
L 225.557782 -54.089531 
L 227.045795 -54.089531 
L 228.533807 -54.089531 
L 230.021819 -54.089531 
L 231.509832 -54.089531 
L 232.997844 -54.089531 
L 234.485857 -54.089531 
L 235.973869 -54.089531 
L 237.461881 -54.089531 
L 238.949894 -54.089531 
L 240.437906 -54.089531 
L 241.925918 -54.089531 
L 243.413931 -54.089531 
L 244.901943 -54.089531 
L 246.389956 -54.089531 
L 247.877968 -54.089531 
L 249.36598 -54.089531 
L 250.853993 -54.089531 
L 252.342005 -54.089531 
L 253.830017 -54.089531 
L 255.31803 -54.089531 
L 256.806042 -54.089531 
L 258.294055 -54.089531 
L 259.782067 -54.089531 
L 261.270079 -54.089531 
L 262.758092 -54.089531 
L 264.246104 -54.089531 
L 265.734117 -54.089531 
L 267.222129 -54.089531 
L 268.710141 -54.089531 
L 270.198154 -54.089531 
L 271.686166 -54.089531 
L 273.174178 -54.089531 
L 274.662191 -54.089531 
L 276.150203 -54.089531 
L 277.638216 -54.089531 
L 279.126228 -54.089531 
L 280.61424 -54.089531 
L 282.102253 -54.089531 
L 283.590265 -54.089531 
L 285.078277 -54.089531 
L 286.56629 -54.089531 
L 288.054302 -54.089531 
L 289.542315 -54.089531 
L 291.030327 -54.089531 
L 292.518339 -54.089531 
L 294.006352 -54.089531 
L 295.494364 -54.089531 
L 296.982376 -54.089531 
L 298.470389 -54.089531 
L 299.958401 -54.089531 
L 301.446414 -54.089531 
L 302.934426 -54.089531 
L 304.422438 -54.089531 
L 305.910451 -54.089531 
L 307.398463 -54.089531 
L 308.886476 -54.089531 
L 310.374488 -54.089531 
L 311.8625 -54.089531 
L 313.350513 -54.089531 
L 314.838525 -54.089531 
L 316.326537 -54.089531 
L 317.81455 -54.089531 
L 319.302562 -54.089531 
L 320.790575 -54.089531 
L 322.278587 -54.089531 
L 323.766599 -54.089531 
L 325.254612 -54.089531 
L 326.742624 -54.089531 
L 328.230636 -54.089531 
L 329.718649 -54.089531 
L 331.206661 -54.089531 
L 331.206661 -54.222303 
L 331.206661 -54.222303 
L 329.718649 -54.258984 
L 328.230636 -54.30015 
L 326.742624 -54.347362 
L 325.254612 -54.402669 
L 323.766599 -54.467876 
L 322.278587 -54.544094 
L 320.790575 -54.631743 
L 319.302562 -54.730777 
L 317.81455 -54.840759 
L 316.326537 -54.960777 
L 314.838525 -55.089531 
L 313.350513 -55.225825 
L 311.8625 -55.36922 
L 310.374488 -55.52025 
L 308.886476 -55.679888 
L 307.398463 -55.84866 
L 305.910451 -56.026398 
L 304.422438 -56.213478 
L 302.934426 -56.413565 
L 301.446414 -56.636779 
L 299.958401 -56.901623 
L 298.470389 -57.234386 
L 296.982376 -57.666113 
L 295.494364 -58.228659 
L 294.006352 -58.951747 
L 292.518339 -59.862008 
L 291.030327 -60.983621 
L 289.542315 -62.339576 
L 288.054302 -63.953121 
L 286.56629 -65.849596 
L 285.078277 -68.058575 
L 283.590265 -70.615106 
L 282.102253 -73.557887 
L 280.61424 -76.922489 
L 279.126228 -80.729396 
L 277.638216 -84.969408 
L 276.150203 -89.591664 
L 274.662191 -94.500292 
L 273.174178 -99.562588 
L 271.686166 -104.625779 
L 270.198154 -109.53501 
L 268.710141 -114.145913 
L 267.222129 -118.330163 
L 265.734117 -121.976977 
L 264.246104 -124.993979 
L 262.758092 -127.308501 
L 261.270079 -128.868872 
L 259.782067 -129.645733 
L 258.294055 -129.634202 
L 256.806042 -128.857053 
L 255.31803 -127.368001 
L 253.830017 -125.25385 
L 252.342005 -122.634105 
L 250.853993 -119.655539 
L 249.36598 -116.478355 
L 247.877968 -113.253202 
L 246.389956 -110.094836 
L 244.901943 -107.063942 
L 243.413931 -104.167426 
L 241.925918 -101.378353 
L 240.437906 -98.665977 
L 238.949894 -96.021804 
L 237.461881 -93.471832 
L 235.973869 -91.073734 
L 234.485857 -88.904226 
L 232.997844 -87.043489 
L 231.509832 -85.561675 
L 230.021819 -84.510233 
L 228.533807 -83.919313 
L 227.045795 -83.801192 
L 225.557782 -84.157742 
L 224.06977 -84.988078 
L 222.581758 -86.292102 
L 221.093745 -88.067768 
L 219.605733 -90.303571 
L 218.11772 -92.970776 
L 216.629708 -96.019968 
L 215.141696 -99.383609 
L 213.653683 -102.98262 
L 212.165671 -106.732608 
L 210.677659 -110.544998 
L 209.189646 -114.31975 
L 207.701634 -117.930243 
L 206.213621 -121.207431 
L 204.725609 -123.936457 
L 203.237597 -125.877957 
L 201.749584 -126.814669 
L 200.261572 -126.607029 
L 198.773559 -125.231552 
L 197.285547 -122.782209 
L 195.797535 -119.434825 
L 194.309522 -115.394422 
L 192.82151 -110.852194 
L 191.333498 -105.969094 
L 189.845485 -100.88461 
L 188.357473 -95.734916 
L 186.86946 -90.662617 
L 185.381448 -85.810106 
L 183.893436 -81.301594 
L 182.405423 -77.225928 
L 180.917411 -73.629752 
L 179.429399 -70.522587 
L 177.941386 -67.888568 
L 176.453374 -65.698143 
L 174.965361 -63.915732 
L 173.477349 -62.502798 
L 171.989337 -61.417485 
L 170.501324 -60.612343 
L 169.013312 -60.03204 
L 167.5253 -59.613571 
L 166.037287 -59.291076 
L 164.549275 -59.004992 
L 163.061262 -58.71213 
L 161.57325 -58.391828 
L 160.085238 -58.045034 
L 158.597225 -57.686994 
L 157.109213 -57.337318 
L 155.621201 -57.01183 
L 154.133188 -56.718792 
L 152.645176 -56.459453 
L 151.157163 -56.231074 
L 149.669151 -56.030239 
L 148.181139 -55.854864 
L 146.693126 -55.704424 
L 145.205114 -55.578772 
L 143.717101 -55.476518 
L 142.229089 -55.394048 
L 140.741077 -55.32586 
L 139.253064 -55.265998 
L 137.765052 -55.209638 
L 136.27704 -55.153848 
L 134.789027 -55.097312 
L 133.301015 -55.039621 
L 131.813002 -54.980886 
L 130.32499 -54.921789 
L 128.836978 -54.863551 
L 127.348965 -54.80739 
L 125.860953 -54.753694 
L 124.372941 -54.701598 
L 122.884928 -54.649456 
L 121.396916 -54.595981 
L 119.908903 -54.541361 
L 118.420891 -54.487606 
L 116.932879 -54.437929 
L 115.444866 -54.395422 
L 113.956854 -54.361721 
L 112.468842 -54.336334 
L 110.980829 -54.317007 
L 109.492817 -54.300916 
L 108.004804 -54.285953 
L 106.516792 -54.271369 
L 105.02878 -54.257489 
L 103.540767 -54.244897 
L 102.052755 -54.233739 
L 100.564743 -54.223586 
L 99.07673 -54.213724 
L 97.588718 -54.203521 
L 96.100705 -54.192571 
L 94.612693 -54.180681 
L 93.124681 -54.167869 
L 91.636668 -54.154469 
L 90.148656 -54.141249 
L 88.660643 -54.129353 
L 87.172631 -54.120032 
L 85.684619 -54.114229 
L 84.196606 -54.112205 
L 82.708594 -54.113356 
L 81.220582 -54.116319 
L 79.732569 -54.119341 
L 78.244557 -54.120829 
L 76.756544 -54.119875 
L 75.268532 -54.116518 
L 73.78052 -54.111651 
L 72.292507 -54.106629 
L 70.804495 -54.102792 
L 69.316483 -54.10111 
L 67.82847 -54.10199 
L 66.340458 -54.105226 
L 64.852445 -54.110026 
L 63.364433 -54.115163 
L 61.876421 -54.11928 
L 60.388408 -54.121355 
L 58.900396 -54.12112 
L 57.412384 -54.119219 
L 55.924371 -54.116937 
L 54.436359 -54.115612 
L 52.948346 -54.116 
L 51.460334 -54.117922 
L 49.972322 -54.120376 
L 48.484309 -54.122077 
L 46.996297 -54.122129 
L 45.508285 -54.120506 
L 44.020272 -54.118061 
L 42.53226 -54.116076 
L 41.044247 -54.115585 
L 39.556235 -54.116823 
L 38.068223 -54.119081 
L 36.58021 -54.121034 
L 35.092198 -54.121364 
z
" style="stroke: #de4968; stroke-width: 3"/>
    </defs>
    <g clip-path="url(#pceb10cdd67)">
     <use xlink:href="#mcdef725638" x="0" y="338.489531" style="fill: #de4968; fill-opacity: 0.2; stroke: #de4968; stroke-width: 3"/>
    </g>
   </g>
   <g id="PolyCollection_4">
    <defs>
     <path id="mfafe13de1d" d="M -61.260842 -54.292245 
L -61.260842 -54.089531 
L -59.352863 -54.089531 
L -57.444883 -54.089531 
L -55.536904 -54.089531 
L -53.628924 -54.089531 
L -51.720944 -54.089531 
L -49.812965 -54.089531 
L -47.904985 -54.089531 
L -45.997006 -54.089531 
L -44.089026 -54.089531 
L -42.181046 -54.089531 
L -40.273067 -54.089531 
L -38.365087 -54.089531 
L -36.457107 -54.089531 
L -34.549128 -54.089531 
L -32.641148 -54.089531 
L -30.733169 -54.089531 
L -28.825189 -54.089531 
L -26.917209 -54.089531 
L -25.00923 -54.089531 
L -23.10125 -54.089531 
L -21.19327 -54.089531 
L -19.285291 -54.089531 
L -17.377311 -54.089531 
L -15.469332 -54.089531 
L -13.561352 -54.089531 
L -11.653372 -54.089531 
L -9.745393 -54.089531 
L -7.837413 -54.089531 
L -5.929433 -54.089531 
L -4.021454 -54.089531 
L -2.113474 -54.089531 
L -0.205495 -54.089531 
L 1.702485 -54.089531 
L 3.610465 -54.089531 
L 5.518444 -54.089531 
L 7.426424 -54.089531 
L 9.334403 -54.089531 
L 11.242383 -54.089531 
L 13.150363 -54.089531 
L 15.058342 -54.089531 
L 16.966322 -54.089531 
L 18.874302 -54.089531 
L 20.782281 -54.089531 
L 22.690261 -54.089531 
L 24.59824 -54.089531 
L 26.50622 -54.089531 
L 28.4142 -54.089531 
L 30.322179 -54.089531 
L 32.230159 -54.089531 
L 34.138139 -54.089531 
L 36.046118 -54.089531 
L 37.954098 -54.089531 
L 39.862077 -54.089531 
L 41.770057 -54.089531 
L 43.678037 -54.089531 
L 45.586016 -54.089531 
L 47.493996 -54.089531 
L 49.401976 -54.089531 
L 51.309955 -54.089531 
L 53.217935 -54.089531 
L 55.125914 -54.089531 
L 57.033894 -54.089531 
L 58.941874 -54.089531 
L 60.849853 -54.089531 
L 62.757833 -54.089531 
L 64.665812 -54.089531 
L 66.573792 -54.089531 
L 68.481772 -54.089531 
L 70.389751 -54.089531 
L 72.297731 -54.089531 
L 74.205711 -54.089531 
L 76.11369 -54.089531 
L 78.02167 -54.089531 
L 79.929649 -54.089531 
L 81.837629 -54.089531 
L 83.745609 -54.089531 
L 85.653588 -54.089531 
L 87.561568 -54.089531 
L 89.469548 -54.089531 
L 91.377527 -54.089531 
L 93.285507 -54.089531 
L 95.193486 -54.089531 
L 97.101466 -54.089531 
L 99.009446 -54.089531 
L 100.917425 -54.089531 
L 102.825405 -54.089531 
L 104.733385 -54.089531 
L 106.641364 -54.089531 
L 108.549344 -54.089531 
L 110.457323 -54.089531 
L 112.365303 -54.089531 
L 114.273283 -54.089531 
L 116.181262 -54.089531 
L 118.089242 -54.089531 
L 119.997221 -54.089531 
L 121.905201 -54.089531 
L 123.813181 -54.089531 
L 125.72116 -54.089531 
L 127.62914 -54.089531 
L 129.53712 -54.089531 
L 131.445099 -54.089531 
L 133.353079 -54.089531 
L 135.261058 -54.089531 
L 137.169038 -54.089531 
L 139.077018 -54.089531 
L 140.984997 -54.089531 
L 142.892977 -54.089531 
L 144.800957 -54.089531 
L 146.708936 -54.089531 
L 148.616916 -54.089531 
L 150.524895 -54.089531 
L 152.432875 -54.089531 
L 154.340855 -54.089531 
L 156.248834 -54.089531 
L 158.156814 -54.089531 
L 160.064793 -54.089531 
L 161.972773 -54.089531 
L 163.880753 -54.089531 
L 165.788732 -54.089531 
L 167.696712 -54.089531 
L 169.604692 -54.089531 
L 171.512671 -54.089531 
L 173.420651 -54.089531 
L 175.32863 -54.089531 
L 177.23661 -54.089531 
L 179.14459 -54.089531 
L 181.052569 -54.089531 
L 182.960549 -54.089531 
L 184.868529 -54.089531 
L 186.776508 -54.089531 
L 188.684488 -54.089531 
L 190.592467 -54.089531 
L 192.500447 -54.089531 
L 194.408427 -54.089531 
L 196.316406 -54.089531 
L 198.224386 -54.089531 
L 200.132366 -54.089531 
L 202.040345 -54.089531 
L 203.948325 -54.089531 
L 205.856304 -54.089531 
L 207.764284 -54.089531 
L 209.672264 -54.089531 
L 211.580243 -54.089531 
L 213.488223 -54.089531 
L 215.396202 -54.089531 
L 217.304182 -54.089531 
L 219.212162 -54.089531 
L 221.120141 -54.089531 
L 223.028121 -54.089531 
L 224.936101 -54.089531 
L 226.84408 -54.089531 
L 228.75206 -54.089531 
L 230.660039 -54.089531 
L 232.568019 -54.089531 
L 234.475999 -54.089531 
L 236.383978 -54.089531 
L 238.291958 -54.089531 
L 240.199938 -54.089531 
L 242.107917 -54.089531 
L 244.015897 -54.089531 
L 245.923876 -54.089531 
L 247.831856 -54.089531 
L 249.739836 -54.089531 
L 251.647815 -54.089531 
L 253.555795 -54.089531 
L 255.463775 -54.089531 
L 257.371754 -54.089531 
L 259.279734 -54.089531 
L 261.187713 -54.089531 
L 263.095693 -54.089531 
L 265.003673 -54.089531 
L 266.911652 -54.089531 
L 268.819632 -54.089531 
L 270.727611 -54.089531 
L 272.635591 -54.089531 
L 274.543571 -54.089531 
L 276.45155 -54.089531 
L 278.35953 -54.089531 
L 280.26751 -54.089531 
L 282.175489 -54.089531 
L 284.083469 -54.089531 
L 285.991448 -54.089531 
L 287.899428 -54.089531 
L 289.807408 -54.089531 
L 291.715387 -54.089531 
L 293.623367 -54.089531 
L 295.531347 -54.089531 
L 297.439326 -54.089531 
L 299.347306 -54.089531 
L 301.255285 -54.089531 
L 303.163265 -54.089531 
L 305.071245 -54.089531 
L 306.979224 -54.089531 
L 308.887204 -54.089531 
L 310.795184 -54.089531 
L 312.703163 -54.089531 
L 314.611143 -54.089531 
L 316.519122 -54.089531 
L 318.427102 -54.089531 
L 318.427102 -54.157215 
L 318.427102 -54.157215 
L 316.519122 -54.146484 
L 314.611143 -54.126787 
L 312.703163 -54.123018 
L 310.795184 -54.14982 
L 308.887204 -54.197459 
L 306.979224 -54.233721 
L 305.071245 -54.238345 
L 303.163265 -54.229479 
L 301.255285 -54.228816 
L 299.347306 -54.224347 
L 297.439326 -54.196398 
L 295.531347 -54.152875 
L 293.623367 -54.116661 
L 291.715387 -54.097798 
L 289.807408 -54.091306 
L 287.899428 -54.089798 
L 285.991448 -54.089559 
L 284.083469 -54.089533 
L 282.175489 -54.089531 
L 280.26751 -54.089531 
L 278.35953 -54.089531 
L 276.45155 -54.089531 
L 274.543571 -54.089531 
L 272.635591 -54.089531 
L 270.727611 -54.089531 
L 268.819632 -54.089531 
L 266.911652 -54.089531 
L 265.003673 -54.089531 
L 263.095693 -54.089531 
L 261.187713 -54.089531 
L 259.279734 -54.089531 
L 257.371754 -54.089531 
L 255.463775 -54.089531 
L 253.555795 -54.089531 
L 251.647815 -54.089531 
L 249.739836 -54.089531 
L 247.831856 -54.089531 
L 245.923876 -54.089531 
L 244.015897 -54.089531 
L 242.107917 -54.089531 
L 240.199938 -54.089531 
L 238.291958 -54.089531 
L 236.383978 -54.089531 
L 234.475999 -54.089531 
L 232.568019 -54.089531 
L 230.660039 -54.089531 
L 228.75206 -54.089531 
L 226.84408 -54.089531 
L 224.936101 -54.089531 
L 223.028121 -54.089531 
L 221.120141 -54.089532 
L 219.212162 -54.089542 
L 217.304182 -54.089646 
L 215.396202 -54.090383 
L 213.488223 -54.093865 
L 211.580243 -54.104768 
L 209.672264 -54.126889 
L 207.764284 -54.154959 
L 205.856304 -54.176002 
L 203.948325 -54.183953 
L 202.040345 -54.180886 
L 200.132366 -54.16575 
L 198.224386 -54.14149 
L 196.316406 -54.124337 
L 194.408427 -54.131586 
L 192.500447 -54.171475 
L 190.592467 -54.255612 
L 188.684488 -54.413607 
L 186.776508 -54.670475 
L 184.868529 -55.018308 
L 182.960549 -55.469563 
L 181.052569 -56.157222 
L 179.14459 -57.397193 
L 177.23661 -59.787899 
L 175.32863 -64.341784 
L 173.420651 -72.250192 
L 171.512671 -84.15645 
L 169.604692 -99.766357 
L 167.696712 -118.204267 
L 165.788732 -138.169452 
L 163.880753 -157.77284 
L 161.972773 -175.181517 
L 160.064793 -189.521057 
L 158.156814 -200.561685 
L 156.248834 -207.856966 
L 154.340855 -210.691699 
L 152.432875 -208.818559 
L 150.524895 -203.002841 
L 148.616916 -194.608286 
L 146.708936 -184.907624 
L 144.800957 -174.850736 
L 142.892977 -164.900028 
L 140.984997 -155.040855 
L 139.077018 -145.265558 
L 137.169038 -135.875856 
L 135.261058 -127.238886 
L 133.353079 -119.574358 
L 131.445099 -113.054501 
L 129.53712 -107.726076 
L 127.62914 -103.259698 
L 125.72116 -99.117081 
L 123.813181 -94.926076 
L 121.905201 -90.602624 
L 119.997221 -86.414539 
L 118.089242 -82.821169 
L 116.181262 -79.861846 
L 114.273283 -77.089835 
L 112.365303 -74.397249 
L 110.457323 -72.174213 
L 108.549344 -70.502345 
L 106.641364 -69.004554 
L 104.733385 -67.481041 
L 102.825405 -66.046057 
L 100.917425 -64.771343 
L 99.009446 -63.594601 
L 97.101466 -62.471916 
L 95.193486 -61.45727 
L 93.285507 -60.643866 
L 91.377527 -60.06022 
L 89.469548 -59.608309 
L 87.561568 -59.116082 
L 85.653588 -58.495462 
L 83.745609 -57.827035 
L 81.837629 -57.272681 
L 79.929649 -56.918968 
L 78.02167 -56.719796 
L 76.11369 -56.57982 
L 74.205711 -56.427796 
L 72.297731 -56.214728 
L 70.389751 -55.948264 
L 68.481772 -55.711528 
L 66.573792 -55.56355 
L 64.665812 -55.481243 
L 62.757833 -55.420563 
L 60.849853 -55.33645 
L 58.941874 -55.172081 
L 57.033894 -54.937838 
L 55.125914 -54.75026 
L 53.217935 -54.696065 
L 51.309955 -54.721218 
L 49.401976 -54.724688 
L 47.493996 -54.679431 
L 45.586016 -54.621302 
L 43.678037 -54.572919 
L 41.770057 -54.517507 
L 39.862077 -54.467944 
L 37.954098 -54.476362 
L 36.046118 -54.517187 
L 34.138139 -54.486522 
L 32.230159 -54.362005 
L 30.322179 -54.243862 
L 28.4142 -54.240902 
L 26.50622 -54.392618 
L 24.59824 -54.627997 
L 22.690261 -54.763953 
L 20.782281 -54.671315 
L 18.874302 -54.434502 
L 16.966322 -54.230111 
L 15.058342 -54.128902 
L 13.150363 -54.097109 
L 11.242383 -54.090534 
L 9.334403 -54.089622 
L 7.426424 -54.089537 
L 5.518444 -54.089531 
L 3.610465 -54.089531 
L 1.702485 -54.089531 
L -0.205495 -54.089531 
L -2.113474 -54.089531 
L -4.021454 -54.089531 
L -5.929433 -54.089531 
L -7.837413 -54.089531 
L -9.745393 -54.089531 
L -11.653372 -54.089531 
L -13.561352 -54.089531 
L -15.469332 -54.089531 
L -17.377311 -54.089531 
L -19.285291 -54.089531 
L -21.19327 -54.089531 
L -23.10125 -54.089531 
L -25.00923 -54.089531 
L -26.917209 -54.089531 
L -28.825189 -54.089531 
L -30.733169 -54.089531 
L -32.641148 -54.089531 
L -34.549128 -54.089531 
L -36.457107 -54.089531 
L -38.365087 -54.089531 
L -40.273067 -54.089531 
L -42.181046 -54.089531 
L -44.089026 -54.089531 
L -45.997006 -54.089532 
L -47.904985 -54.089552 
L -49.812965 -54.089768 
L -51.720944 -54.091397 
L -53.628924 -54.099619 
L -55.536904 -54.127019 
L -57.444883 -54.185274 
L -59.352863 -54.257582 
L -61.260842 -54.292245 
z
" style="stroke: #38a3a6; stroke-width: 3"/>
    </defs>
    <g clip-path="url(#pceb10cdd67)">
     <use xlink:href="#mfafe13de1d" x="0" y="338.489531" style="fill: #38a3a6; fill-opacity: 0.2; stroke: #38a3a6; stroke-width: 3"/>
    </g>
   </g>
   <g id="patch_3">
    <path d="M 64.360781 284.4 
L 64.360781 7.2 
" style="fill: none; stroke: #262626; stroke-width: 3; stroke-linejoin: miter; stroke-linecap: square"/>
   </g>
   <g id="patch_4">
    <path d="M 64.360781 284.4 
L 343.360781 284.4 
" style="fill: none; stroke: #262626; stroke-width: 3; stroke-linejoin: miter; stroke-linecap: square"/>
   </g>
   <g id="legend_1">
    <g id="patch_5">
     <path d="M 304.6875 114.024609 
L 337.6875 114.024609 
L 337.6875 102.474609 
L 304.6875 102.474609 
z
" style="fill: #38a3a6; stroke: #ffffff; stroke-linejoin: miter"/>
    </g>
    <g id="text_12">
     <text style="fill: #262626; font: 16.5px 'sans-serif'; text-anchor: start" x="350.8875" y="114.024609" transform="rotate(-0, 350.8875, 114.024609)">AraC S170 WT LOV light</text>
    </g>
    <g id="patch_6">
     <path d="M 304.6875 138.243516 
L 337.6875 138.243516 
L 337.6875 126.693516 
L 304.6875 126.693516 
z
" style="fill: #de4968; stroke: #ffffff; stroke-linejoin: miter"/>
    </g>
    <g id="text_13">
     <text style="fill: #262626; font: 16.5px 'sans-serif'; text-anchor: start" x="350.8875" y="138.243516" transform="rotate(-0, 350.8875, 138.243516)">AraC S170 WT LOV dark</text>
    </g>
    <g id="patch_7">
     <path d="M 304.6875 162.462422 
L 337.6875 162.462422 
L 337.6875 150.912422 
L 304.6875 150.912422 
z
" style="fill: #22587a; stroke: #ffffff; stroke-linejoin: miter"/>
    </g>
    <g id="text_14">
     <text style="fill: #262626; font: 16.5px 'sans-serif'; text-anchor: start" x="350.8875" y="162.462422" transform="rotate(-0, 350.8875, 162.462422)">AraC S170 R2 LOV light</text>
    </g>
    <g id="patch_8">
     <path d="M 304.6875 186.681328 
L 337.6875 186.681328 
L 337.6875 175.131328 
L 304.6875 175.131328 
z
" style="fill: #8c2981; stroke: #ffffff; stroke-linejoin: miter"/>
    </g>
    <g id="text_15">
     <text style="fill: #262626; font: 16.5px 'sans-serif'; text-anchor: start" x="350.8875" y="186.681328" transform="rotate(-0, 350.8875, 186.681328)">AraC S170 R2 LOV dark</text>
    </g>
   </g>
  </g>
 </g>
 <defs>
  <clipPath id="pceb10cdd67">
   <rect x="64.360781" y="7.2" width="279" height="277.2"/>
  </clipPath>
 </defs>
</svg>
