<?xml version="1.0" encoding="utf-8" standalone="no"?>
<!DOCTYPE svg PUBLIC "-//W3C//DTD SVG 1.1//EN"
  "http://www.w3.org/Graphics/SVG/1.1/DTD/svg11.dtd">
<svg xmlns:xlink="http://www.w3.org/1999/xlink" width="543.523008pt" height="338.489531pt" viewBox="0 0 543.523008 338.489531" xmlns="http://www.w3.org/2000/svg" version="1.1">
 <metadata>
  <rdf:RDF xmlns:dc="http://purl.org/dc/elements/1.1/" xmlns:cc="http://creativecommons.org/ns#" xmlns:rdf="http://www.w3.org/1999/02/22-rdf-syntax-ns#">
   <cc:Work>
    <dc:type rdf:resource="http://purl.org/dc/dcmitype/StillImage"/>
    <dc:date>2025-04-29T13:51:05.339486</dc:date>
    <dc:format>image/svg+xml</dc:format>
    <dc:creator>
     <cc:Agent>
      <dc:title>Matplotlib v3.5.0, https://matplotlib.org/</dc:title>
     </cc:Agent>
    </dc:creator>
   </cc:Work>
  </rdf:RDF>
 </metadata>
 <defs>
  <style type="text/css">*{stroke-linejoin: round; stroke-linecap: butt}</style>
 </defs>
 <g id="figure_1">
  <g id="patch_1">
   <path d="M 0 338.489531 
L 543.523008 338.489531 
L 543.523008 0 
L 0 0 
z
" style="fill: #ffffff"/>
  </g>
  <g id="axes_1">
   <g id="patch_2">
    <path d="M 64.360781 284.4 
L 343.360781 284.4 
L 343.360781 7.2 
L 64.360781 7.2 
z
" style="fill: #ffffff"/>
   </g>
   <g id="matplotlib.axis_1">
    <g id="xtick_1">
     <g id="line2d_1">
      <defs>
       <path id="m775f115f88" d="M 0 0 
L 0 6 
" style="stroke: #262626; stroke-width: 3"/>
      </defs>
      <g>
       <use xlink:href="#m775f115f88" x="64.360781" y="284.4" style="fill: #262626; stroke: #262626; stroke-width: 3"/>
      </g>
     </g>
     <g id="text_1">
      <!-- $\mathdefault{10^{0}}$ -->
      <g style="fill: #262626" transform="translate(49.840781 306.437422)">
       <text>
        <tspan style="font: 16.5px 'DejaVu Sans'" x="0 10.497803" y="-0.10312500000000213">10</tspan>
        <tspan style="font: 11.55px 'DejaVu Sans'" x="21.153652" y="-6.425000000000001">0</tspan>
       </text>
      </g>
     </g>
    </g>
    <g id="xtick_2">
     <g id="line2d_2">
      <g>
       <use xlink:href="#m775f115f88" x="146.085992" y="284.4" style="fill: #262626; stroke: #262626; stroke-width: 3"/>
      </g>
     </g>
     <g id="text_2">
      <!-- $\mathdefault{10^{2}}$ -->
      <g style="fill: #262626" transform="translate(131.565992 306.437422)">
       <text>
        <tspan style="font: 16.5px 'DejaVu Sans'" x="0 10.497803" y="-0.10312500000000213">10</tspan>
        <tspan style="font: 11.55px 'DejaVu Sans'" x="21.153652" y="-6.425000000000001">2</tspan>
       </text>
      </g>
     </g>
    </g>
    <g id="xtick_3">
     <g id="line2d_3">
      <g>
       <use xlink:href="#m775f115f88" x="227.811202" y="284.4" style="fill: #262626; stroke: #262626; stroke-width: 3"/>
      </g>
     </g>
     <g id="text_3">
      <!-- $\mathdefault{10^{4}}$ -->
      <g style="fill: #262626" transform="translate(213.291202 306.437422)">
       <text>
        <tspan style="font: 16.5px 'DejaVu Sans'" x="0 10.497803" y="-0.2562500000000014">10</tspan>
        <tspan style="font: 11.55px 'DejaVu Sans'" x="21.153652" y="-6.578125">4</tspan>
       </text>
      </g>
     </g>
    </g>
    <g id="xtick_4">
     <g id="line2d_4">
      <g>
       <use xlink:href="#m775f115f88" x="309.536412" y="284.4" style="fill: #262626; stroke: #262626; stroke-width: 3"/>
      </g>
     </g>
     <g id="text_4">
      <!-- $\mathdefault{10^{6}}$ -->
      <g style="fill: #262626" transform="translate(295.016412 306.437422)">
       <text>
        <tspan style="font: 16.5px 'DejaVu Sans'" x="0 10.497803" y="-0.10312500000000213">10</tspan>
        <tspan style="font: 11.55px 'DejaVu Sans'" x="21.153652" y="-6.425000000000001">6</tspan>
       </text>
      </g>
     </g>
    </g>
    <g id="text_5">
     <text style="fill: #262626; font: 18px 'sans-serif'; text-anchor: middle" x="203.860781" y="327.546094" transform="rotate(-0, 203.860781, 327.546094)">log[RFP]</text>
    </g>
   </g>
   <g id="matplotlib.axis_2">
    <g id="ytick_1">
     <g id="line2d_5">
      <defs>
       <path id="mb2a1ab62ef" d="M 0 0 
L -6 0 
" style="stroke: #262626; stroke-width: 3"/>
      </defs>
      <g>
       <use xlink:href="#mb2a1ab62ef" x="64.360781" y="284.4" style="fill: #262626; stroke: #262626; stroke-width: 3"/>
      </g>
     </g>
     <g id="text_6">
      <text style="fill: #262626; font: 16.5px 'sans-serif'; text-anchor: end" x="54.860781" y="290.668711" transform="rotate(-0, 54.860781, 290.668711)">0.0</text>
     </g>
    </g>
    <g id="ytick_2">
     <g id="line2d_6">
      <g>
       <use xlink:href="#mb2a1ab62ef" x="64.360781" y="221.561708" style="fill: #262626; stroke: #262626; stroke-width: 3"/>
      </g>
     </g>
     <g id="text_7">
      <text style="fill: #262626; font: 16.5px 'sans-serif'; text-anchor: end" x="54.860781" y="227.830419" transform="rotate(-0, 54.860781, 227.830419)">0.5</text>
     </g>
    </g>
    <g id="ytick_3">
     <g id="line2d_7">
      <g>
       <use xlink:href="#mb2a1ab62ef" x="64.360781" y="158.723416" style="fill: #262626; stroke: #262626; stroke-width: 3"/>
      </g>
     </g>
     <g id="text_8">
      <text style="fill: #262626; font: 16.5px 'sans-serif'; text-anchor: end" x="54.860781" y="164.992126" transform="rotate(-0, 54.860781, 164.992126)">1.0</text>
     </g>
    </g>
    <g id="ytick_4">
     <g id="line2d_8">
      <g>
       <use xlink:href="#mb2a1ab62ef" x="64.360781" y="95.885123" style="fill: #262626; stroke: #262626; stroke-width: 3"/>
      </g>
     </g>
     <g id="text_9">
      <text style="fill: #262626; font: 16.5px 'sans-serif'; text-anchor: end" x="54.860781" y="102.153834" transform="rotate(-0, 54.860781, 102.153834)">1.5</text>
     </g>
    </g>
    <g id="ytick_5">
     <g id="line2d_9">
      <g>
       <use xlink:href="#mb2a1ab62ef" x="64.360781" y="33.046831" style="fill: #262626; stroke: #262626; stroke-width: 3"/>
      </g>
     </g>
     <g id="text_10">
      <text style="fill: #262626; font: 16.5px 'sans-serif'; text-anchor: end" x="54.860781" y="39.315542" transform="rotate(-0, 54.860781, 39.315542)">2.0</text>
     </g>
    </g>
    <g id="text_11">
     <text style="fill: #262626; font: 18px 'sans-serif'; text-anchor: middle" x="20.877188" y="145.8" transform="rotate(-90, 20.877188, 145.8)">Density</text>
    </g>
   </g>
   <g id="PolyCollection_1">
    <defs>
     <path id="meab3bcc2b2" d="M -58.227034 -54.129139 
L -58.227034 -54.089531 
L -56.209005 -54.089531 
L -54.190976 -54.089531 
L -52.172947 -54.089531 
L -50.154917 -54.089531 
L -48.136888 -54.089531 
L -46.118859 -54.089531 
L -44.10083 -54.089531 
L -42.0828 -54.089531 
L -40.064771 -54.089531 
L -38.046742 -54.089531 
L -36.028713 -54.089531 
L -34.010684 -54.089531 
L -31.992654 -54.089531 
L -29.974625 -54.089531 
L -27.956596 -54.089531 
L -25.938567 -54.089531 
L -23.920537 -54.089531 
L -21.902508 -54.089531 
L -19.884479 -54.089531 
L -17.86645 -54.089531 
L -15.84842 -54.089531 
L -13.830391 -54.089531 
L -11.812362 -54.089531 
L -9.794333 -54.089531 
L -7.776304 -54.089531 
L -5.758274 -54.089531 
L -3.740245 -54.089531 
L -1.722216 -54.089531 
L 0.295813 -54.089531 
L 2.313843 -54.089531 
L 4.331872 -54.089531 
L 6.349901 -54.089531 
L 8.36793 -54.089531 
L 10.385959 -54.089531 
L 12.403989 -54.089531 
L 14.422018 -54.089531 
L 16.440047 -54.089531 
L 18.458076 -54.089531 
L 20.476106 -54.089531 
L 22.494135 -54.089531 
L 24.512164 -54.089531 
L 26.530193 -54.089531 
L 28.548222 -54.089531 
L 30.566252 -54.089531 
L 32.584281 -54.089531 
L 34.60231 -54.089531 
L 36.620339 -54.089531 
L 38.638369 -54.089531 
L 40.656398 -54.089531 
L 42.674427 -54.089531 
L 44.692456 -54.089531 
L 46.710485 -54.089531 
L 48.728515 -54.089531 
L 50.746544 -54.089531 
L 52.764573 -54.089531 
L 54.782602 -54.089531 
L 56.800632 -54.089531 
L 58.818661 -54.089531 
L 60.83669 -54.089531 
L 62.854719 -54.089531 
L 64.872748 -54.089531 
L 66.890778 -54.089531 
L 68.908807 -54.089531 
L 70.926836 -54.089531 
L 72.944865 -54.089531 
L 74.962895 -54.089531 
L 76.980924 -54.089531 
L 78.998953 -54.089531 
L 81.016982 -54.089531 
L 83.035011 -54.089531 
L 85.053041 -54.089531 
L 87.07107 -54.089531 
L 89.089099 -54.089531 
L 91.107128 -54.089531 
L 93.125158 -54.089531 
L 95.143187 -54.089531 
L 97.161216 -54.089531 
L 99.179245 -54.089531 
L 101.197274 -54.089531 
L 103.215304 -54.089531 
L 105.233333 -54.089531 
L 107.251362 -54.089531 
L 109.269391 -54.089531 
L 111.287421 -54.089531 
L 113.30545 -54.089531 
L 115.323479 -54.089531 
L 117.341508 -54.089531 
L 119.359537 -54.089531 
L 121.377567 -54.089531 
L 123.395596 -54.089531 
L 125.413625 -54.089531 
L 127.431654 -54.089531 
L 129.449684 -54.089531 
L 131.467713 -54.089531 
L 133.485742 -54.089531 
L 135.503771 -54.089531 
L 137.5218 -54.089531 
L 139.53983 -54.089531 
L 141.557859 -54.089531 
L 143.575888 -54.089531 
L 145.593917 -54.089531 
L 147.611947 -54.089531 
L 149.629976 -54.089531 
L 151.648005 -54.089531 
L 153.666034 -54.089531 
L 155.684063 -54.089531 
L 157.702093 -54.089531 
L 159.720122 -54.089531 
L 161.738151 -54.089531 
L 163.75618 -54.089531 
L 165.77421 -54.089531 
L 167.792239 -54.089531 
L 169.810268 -54.089531 
L 171.828297 -54.089531 
L 173.846326 -54.089531 
L 175.864356 -54.089531 
L 177.882385 -54.089531 
L 179.900414 -54.089531 
L 181.918443 -54.089531 
L 183.936473 -54.089531 
L 185.954502 -54.089531 
L 187.972531 -54.089531 
L 189.99056 -54.089531 
L 192.00859 -54.089531 
L 194.026619 -54.089531 
L 196.044648 -54.089531 
L 198.062677 -54.089531 
L 200.080706 -54.089531 
L 202.098736 -54.089531 
L 204.116765 -54.089531 
L 206.134794 -54.089531 
L 208.152823 -54.089531 
L 210.170853 -54.089531 
L 212.188882 -54.089531 
L 214.206911 -54.089531 
L 216.22494 -54.089531 
L 218.242969 -54.089531 
L 220.260999 -54.089531 
L 222.279028 -54.089531 
L 224.297057 -54.089531 
L 226.315086 -54.089531 
L 228.333116 -54.089531 
L 230.351145 -54.089531 
L 232.369174 -54.089531 
L 234.387203 -54.089531 
L 236.405232 -54.089531 
L 238.423262 -54.089531 
L 240.441291 -54.089531 
L 242.45932 -54.089531 
L 244.477349 -54.089531 
L 246.495379 -54.089531 
L 248.513408 -54.089531 
L 250.531437 -54.089531 
L 252.549466 -54.089531 
L 254.567495 -54.089531 
L 256.585525 -54.089531 
L 258.603554 -54.089531 
L 260.621583 -54.089531 
L 262.639612 -54.089531 
L 264.657642 -54.089531 
L 266.675671 -54.089531 
L 268.6937 -54.089531 
L 270.711729 -54.089531 
L 272.729758 -54.089531 
L 274.747788 -54.089531 
L 276.765817 -54.089531 
L 278.783846 -54.089531 
L 280.801875 -54.089531 
L 282.819905 -54.089531 
L 284.837934 -54.089531 
L 286.855963 -54.089531 
L 288.873992 -54.089531 
L 290.892021 -54.089531 
L 292.910051 -54.089531 
L 294.92808 -54.089531 
L 296.946109 -54.089531 
L 298.964138 -54.089531 
L 300.982168 -54.089531 
L 303.000197 -54.089531 
L 305.018226 -54.089531 
L 307.036255 -54.089531 
L 309.054284 -54.089531 
L 311.072314 -54.089531 
L 313.090343 -54.089531 
L 315.108372 -54.089531 
L 317.126401 -54.089531 
L 319.144431 -54.089531 
L 321.16246 -54.089531 
L 323.180489 -54.089531 
L 325.198518 -54.089531 
L 327.216547 -54.089531 
L 329.234577 -54.089531 
L 331.252606 -54.089531 
L 333.270635 -54.089531 
L 335.288664 -54.089531 
L 337.306694 -54.089531 
L 339.324723 -54.089531 
L 341.342752 -54.089531 
L 343.360781 -54.089531 
L 343.360781 -54.475797 
L 343.360781 -54.475797 
L 341.342752 -54.734787 
L 339.324723 -55.054609 
L 337.306694 -55.404547 
L 335.288664 -55.777018 
L 333.270635 -56.241805 
L 331.252606 -56.96032 
L 329.234577 -58.17381 
L 327.216547 -60.236562 
L 325.198518 -63.726659 
L 323.180489 -69.498523 
L 321.16246 -78.547461 
L 319.144431 -91.888795 
L 317.126401 -110.642705 
L 315.108372 -136.056911 
L 313.090343 -168.936564 
L 311.072314 -208.168561 
L 309.054284 -249.228034 
L 307.036255 -284.640733 
L 305.018226 -306.771966 
L 303.000197 -310.774835 
L 300.982168 -295.890691 
L 298.964138 -265.182879 
L 296.946109 -224.446391 
L 294.92808 -180.792898 
L 292.910051 -140.943822 
L 290.892021 -109.428567 
L 288.873992 -87.661585 
L 286.855963 -74.456571 
L 284.837934 -67.317475 
L 282.819905 -63.670775 
L 280.801875 -61.666549 
L 278.783846 -60.370724 
L 276.765817 -59.443871 
L 274.747788 -58.75374 
L 272.729758 -58.214521 
L 270.711729 -57.748044 
L 268.6937 -57.264503 
L 266.675671 -56.726969 
L 264.657642 -56.226615 
L 262.639612 -55.887935 
L 260.621583 -55.710222 
L 258.603554 -55.600306 
L 256.585525 -55.513787 
L 254.567495 -55.455857 
L 252.549466 -55.400234 
L 250.531437 -55.305647 
L 248.513408 -55.176237 
L 246.495379 -55.053482 
L 244.477349 -54.974301 
L 242.45932 -54.950625 
L 240.441291 -54.958581 
L 238.423262 -54.949984 
L 236.405232 -54.908124 
L 234.387203 -54.874611 
L 232.369174 -54.88591 
L 230.351145 -54.911725 
L 228.333116 -54.896032 
L 226.315086 -54.843846 
L 224.297057 -54.829514 
L 222.279028 -54.912321 
L 220.260999 -55.074127 
L 218.242969 -55.253864 
L 216.22494 -55.409317 
L 214.206911 -55.521889 
L 212.188882 -55.574962 
L 210.170853 -55.566922 
L 208.152823 -55.529828 
L 206.134794 -55.499566 
L 204.116765 -55.475378 
L 202.098736 -55.435004 
L 200.080706 -55.380097 
L 198.062677 -55.340423 
L 196.044648 -55.336617 
L 194.026619 -55.359227 
L 192.00859 -55.377355 
L 189.99056 -55.359116 
L 187.972531 -55.300106 
L 185.954502 -55.222369 
L 183.936473 -55.135522 
L 181.918443 -55.03349 
L 179.900414 -54.933757 
L 177.882385 -54.879279 
L 175.864356 -54.889743 
L 173.846326 -54.937283 
L 171.828297 -54.993389 
L 169.810268 -55.07838 
L 167.792239 -55.21776 
L 165.77421 -55.369049 
L 163.75618 -55.45848 
L 161.738151 -55.475869 
L 159.720122 -55.480959 
L 157.702093 -55.535543 
L 155.684063 -55.645245 
L 153.666034 -55.752419 
L 151.648005 -55.804631 
L 149.629976 -55.815205 
L 147.611947 -55.815509 
L 145.593917 -55.788551 
L 143.575888 -55.699737 
L 141.557859 -55.559252 
L 139.53983 -55.416209 
L 137.5218 -55.309393 
L 135.503771 -55.237478 
L 133.485742 -55.165677 
L 131.467713 -55.057223 
L 129.449684 -54.90415 
L 127.431654 -54.740415 
L 125.413625 -54.624386 
L 123.395596 -54.583325 
L 121.377567 -54.574954 
L 119.359537 -54.534125 
L 117.341508 -54.451914 
L 115.323479 -54.371843 
L 113.30545 -54.319655 
L 111.287421 -54.281554 
L 109.269391 -54.243373 
L 107.251362 -54.211738 
L 105.233333 -54.198291 
L 103.215304 -54.204827 
L 101.197274 -54.221256 
L 99.179245 -54.2304 
L 97.161216 -54.221734 
L 95.143187 -54.201436 
L 93.125158 -54.183238 
L 91.107128 -54.173845 
L 89.089099 -54.16983 
L 87.07107 -54.163135 
L 85.053041 -54.148373 
L 83.035011 -54.127689 
L 81.016982 -54.108632 
L 78.998953 -54.096676 
L 76.980924 -54.091489 
L 74.962895 -54.089925 
L 72.944865 -54.089645 
L 70.926836 -54.089938 
L 68.908807 -54.091504 
L 66.890778 -54.096444 
L 64.872748 -54.106823 
L 62.854719 -54.120391 
L 60.83669 -54.128828 
L 58.818661 -54.125236 
L 56.800632 -54.112678 
L 54.782602 -54.100238 
L 52.764573 -54.093065 
L 50.746544 -54.090363 
L 48.728515 -54.089671 
L 46.710485 -54.089548 
L 44.692456 -54.089533 
L 42.674427 -54.089531 
L 40.656398 -54.089531 
L 38.638369 -54.089531 
L 36.620339 -54.089531 
L 34.60231 -54.089531 
L 32.584281 -54.089531 
L 30.566252 -54.089531 
L 28.548222 -54.089531 
L 26.530193 -54.089531 
L 24.512164 -54.089531 
L 22.494135 -54.089531 
L 20.476106 -54.089531 
L 18.458076 -54.089531 
L 16.440047 -54.089531 
L 14.422018 -54.089531 
L 12.403989 -54.089531 
L 10.385959 -54.089531 
L 8.36793 -54.089531 
L 6.349901 -54.089531 
L 4.331872 -54.089531 
L 2.313843 -54.089531 
L 0.295813 -54.089531 
L -1.722216 -54.089531 
L -3.740245 -54.089531 
L -5.758274 -54.089531 
L -7.776304 -54.089531 
L -9.794333 -54.089531 
L -11.812362 -54.089531 
L -13.830391 -54.089531 
L -15.84842 -54.089531 
L -17.86645 -54.089531 
L -19.884479 -54.089531 
L -21.902508 -54.089531 
L -23.920537 -54.089531 
L -25.938567 -54.089531 
L -27.956596 -54.089531 
L -29.974625 -54.089531 
L -31.992654 -54.089531 
L -34.010684 -54.089531 
L -36.028713 -54.089531 
L -38.046742 -54.089531 
L -40.064771 -54.089531 
L -42.0828 -54.089532 
L -44.10083 -54.089541 
L -46.118859 -54.089622 
L -48.136888 -54.090114 
L -50.154917 -54.092192 
L -52.172947 -54.098203 
L -54.190976 -54.109696 
L -56.209005 -54.122988 
L -58.227034 -54.129139 
z
" style="stroke: #8c2981; stroke-width: 3"/>
    </defs>
    <g clip-path="url(#pb7fbb49681)">
     <use xlink:href="#meab3bcc2b2" x="0" y="338.489531" style="fill: #8c2981; fill-opacity: 0.2; stroke: #8c2981; stroke-width: 3"/>
    </g>
   </g>
   <g id="PolyCollection_2">
    <defs>
     <path id="mf444651da1" d="M 88.962521 -54.136784 
L 88.962521 -54.089531 
L 90.185717 -54.089531 
L 91.408913 -54.089531 
L 92.632109 -54.089531 
L 93.855304 -54.089531 
L 95.0785 -54.089531 
L 96.301696 -54.089531 
L 97.524892 -54.089531 
L 98.748088 -54.089531 
L 99.971284 -54.089531 
L 101.19448 -54.089531 
L 102.417676 -54.089531 
L 103.640872 -54.089531 
L 104.864067 -54.089531 
L 106.087263 -54.089531 
L 107.310459 -54.089531 
L 108.533655 -54.089531 
L 109.756851 -54.089531 
L 110.980047 -54.089531 
L 112.203243 -54.089531 
L 113.426439 -54.089531 
L 114.649635 -54.089531 
L 115.87283 -54.089531 
L 117.096026 -54.089531 
L 118.319222 -54.089531 
L 119.542418 -54.089531 
L 120.765614 -54.089531 
L 121.98881 -54.089531 
L 123.212006 -54.089531 
L 124.435202 -54.089531 
L 125.658397 -54.089531 
L 126.881593 -54.089531 
L 128.104789 -54.089531 
L 129.327985 -54.089531 
L 130.551181 -54.089531 
L 131.774377 -54.089531 
L 132.997573 -54.089531 
L 134.220769 -54.089531 
L 135.443965 -54.089531 
L 136.66716 -54.089531 
L 137.890356 -54.089531 
L 139.113552 -54.089531 
L 140.336748 -54.089531 
L 141.559944 -54.089531 
L 142.78314 -54.089531 
L 144.006336 -54.089531 
L 145.229532 -54.089531 
L 146.452728 -54.089531 
L 147.675923 -54.089531 
L 148.899119 -54.089531 
L 150.122315 -54.089531 
L 151.345511 -54.089531 
L 152.568707 -54.089531 
L 153.791903 -54.089531 
L 155.015099 -54.089531 
L 156.238295 -54.089531 
L 157.46149 -54.089531 
L 158.684686 -54.089531 
L 159.907882 -54.089531 
L 161.131078 -54.089531 
L 162.354274 -54.089531 
L 163.57747 -54.089531 
L 164.800666 -54.089531 
L 166.023862 -54.089531 
L 167.247058 -54.089531 
L 168.470253 -54.089531 
L 169.693449 -54.089531 
L 170.916645 -54.089531 
L 172.139841 -54.089531 
L 173.363037 -54.089531 
L 174.586233 -54.089531 
L 175.809429 -54.089531 
L 177.032625 -54.089531 
L 178.255821 -54.089531 
L 179.479016 -54.089531 
L 180.702212 -54.089531 
L 181.925408 -54.089531 
L 183.148604 -54.089531 
L 184.3718 -54.089531 
L 185.594996 -54.089531 
L 186.818192 -54.089531 
L 188.041388 -54.089531 
L 189.264583 -54.089531 
L 190.487779 -54.089531 
L 191.710975 -54.089531 
L 192.934171 -54.089531 
L 194.157367 -54.089531 
L 195.380563 -54.089531 
L 196.603759 -54.089531 
L 197.826955 -54.089531 
L 199.050151 -54.089531 
L 200.273346 -54.089531 
L 201.496542 -54.089531 
L 202.719738 -54.089531 
L 203.942934 -54.089531 
L 205.16613 -54.089531 
L 206.389326 -54.089531 
L 207.612522 -54.089531 
L 208.835718 -54.089531 
L 210.058913 -54.089531 
L 211.282109 -54.089531 
L 212.505305 -54.089531 
L 213.728501 -54.089531 
L 214.951697 -54.089531 
L 216.174893 -54.089531 
L 217.398089 -54.089531 
L 218.621285 -54.089531 
L 219.844481 -54.089531 
L 221.067676 -54.089531 
L 222.290872 -54.089531 
L 223.514068 -54.089531 
L 224.737264 -54.089531 
L 225.96046 -54.089531 
L 227.183656 -54.089531 
L 228.406852 -54.089531 
L 229.630048 -54.089531 
L 230.853244 -54.089531 
L 232.076439 -54.089531 
L 233.299635 -54.089531 
L 234.522831 -54.089531 
L 235.746027 -54.089531 
L 236.969223 -54.089531 
L 238.192419 -54.089531 
L 239.415615 -54.089531 
L 240.638811 -54.089531 
L 241.862006 -54.089531 
L 243.085202 -54.089531 
L 244.308398 -54.089531 
L 245.531594 -54.089531 
L 246.75479 -54.089531 
L 247.977986 -54.089531 
L 249.201182 -54.089531 
L 250.424378 -54.089531 
L 251.647574 -54.089531 
L 252.870769 -54.089531 
L 254.093965 -54.089531 
L 255.317161 -54.089531 
L 256.540357 -54.089531 
L 257.763553 -54.089531 
L 258.986749 -54.089531 
L 260.209945 -54.089531 
L 261.433141 -54.089531 
L 262.656337 -54.089531 
L 263.879532 -54.089531 
L 265.102728 -54.089531 
L 266.325924 -54.089531 
L 267.54912 -54.089531 
L 268.772316 -54.089531 
L 269.995512 -54.089531 
L 271.218708 -54.089531 
L 272.441904 -54.089531 
L 273.665099 -54.089531 
L 274.888295 -54.089531 
L 276.111491 -54.089531 
L 277.334687 -54.089531 
L 278.557883 -54.089531 
L 279.781079 -54.089531 
L 281.004275 -54.089531 
L 282.227471 -54.089531 
L 283.450667 -54.089531 
L 284.673862 -54.089531 
L 285.897058 -54.089531 
L 287.120254 -54.089531 
L 288.34345 -54.089531 
L 289.566646 -54.089531 
L 290.789842 -54.089531 
L 292.013038 -54.089531 
L 293.236234 -54.089531 
L 294.45943 -54.089531 
L 295.682625 -54.089531 
L 296.905821 -54.089531 
L 298.129017 -54.089531 
L 299.352213 -54.089531 
L 300.575409 -54.089531 
L 301.798605 -54.089531 
L 303.021801 -54.089531 
L 304.244997 -54.089531 
L 305.468192 -54.089531 
L 306.691388 -54.089531 
L 307.914584 -54.089531 
L 309.13778 -54.089531 
L 310.360976 -54.089531 
L 311.584172 -54.089531 
L 312.807368 -54.089531 
L 314.030564 -54.089531 
L 315.25376 -54.089531 
L 316.476955 -54.089531 
L 317.700151 -54.089531 
L 318.923347 -54.089531 
L 320.146543 -54.089531 
L 321.369739 -54.089531 
L 322.592935 -54.089531 
L 323.816131 -54.089531 
L 325.039327 -54.089531 
L 326.262522 -54.089531 
L 327.485718 -54.089531 
L 328.708914 -54.089531 
L 329.93211 -54.089531 
L 331.155306 -54.089531 
L 332.378502 -54.089531 
L 332.378502 -54.319539 
L 332.378502 -54.319539 
L 331.155306 -54.380332 
L 329.93211 -54.433489 
L 328.708914 -54.478947 
L 327.485718 -54.525135 
L 326.262522 -54.588131 
L 325.039327 -54.687105 
L 323.816131 -54.837962 
L 322.592935 -55.048752 
L 321.369739 -55.319647 
L 320.146543 -55.647343 
L 318.923347 -56.031206 
L 317.700151 -56.478227 
L 316.476955 -57.005573 
L 315.25376 -57.641545 
L 314.030564 -58.427853 
L 312.807368 -59.428011 
L 311.584172 -60.745938 
L 310.360976 -62.552198 
L 309.13778 -65.104945 
L 307.914584 -68.748538 
L 306.691388 -73.8844 
L 305.468192 -80.930373 
L 304.244997 -90.293159 
L 303.021801 -102.355524 
L 301.798605 -117.441646 
L 300.575409 -135.716591 
L 299.352213 -157.027335 
L 298.129017 -180.766908 
L 296.905821 -205.860582 
L 295.682625 -230.8963 
L 294.45943 -254.31542 
L 293.236234 -274.557081 
L 292.013038 -290.139742 
L 290.789842 -299.762864 
L 289.566646 -302.499602 
L 288.34345 -298.037993 
L 287.120254 -286.83905 
L 285.897058 -270.101498 
L 284.673862 -249.522978 
L 283.450667 -226.94625 
L 282.227471 -204.025839 
L 281.004275 -182.02774 
L 279.781079 -161.792061 
L 278.557883 -143.799826 
L 277.334687 -128.257905 
L 276.111491 -115.159617 
L 274.888295 -104.333179 
L 273.665099 -95.501331 
L 272.441904 -88.349971 
L 271.218708 -82.583561 
L 269.995512 -77.950816 
L 268.772316 -74.243052 
L 267.54912 -71.28006 
L 266.325924 -68.898314 
L 265.102728 -66.948304 
L 263.879532 -65.299851 
L 262.656337 -63.850953 
L 261.433141 -62.535639 
L 260.209945 -61.32636 
L 258.986749 -60.227243 
L 257.763553 -59.25862 
L 256.540357 -58.438941 
L 255.317161 -57.772122 
L 254.093965 -57.244636 
L 252.870769 -56.830877 
L 251.647574 -56.502274 
L 250.424378 -56.23553 
L 249.201182 -56.01676 
L 247.977986 -55.840474 
L 246.75479 -55.704945 
L 245.531594 -55.607048 
L 244.308398 -55.539203 
L 243.085202 -55.489675 
L 241.862006 -55.446032 
L 240.638811 -55.399869 
L 239.415615 -55.349322 
L 238.192419 -55.296978 
L 236.969223 -55.244762 
L 235.746027 -55.190563 
L 234.522831 -55.129534 
L 233.299635 -55.05829 
L 232.076439 -54.97801 
L 230.853244 -54.894613 
L 229.630048 -54.817158 
L 228.406852 -54.756 
L 227.183656 -54.721005 
L 225.96046 -54.719518 
L 224.737264 -54.75418 
L 223.514068 -54.821087 
L 222.290872 -54.909173 
L 221.067676 -55.002069 
L 219.844481 -55.083049 
L 218.621285 -55.14159 
L 217.398089 -55.178211 
L 216.174893 -55.204613 
L 214.951697 -55.238473 
L 213.728501 -55.295269 
L 212.505305 -55.38172 
L 211.282109 -55.495229 
L 210.058913 -55.629431 
L 208.835718 -55.780569 
L 207.612522 -55.948667 
L 206.389326 -56.133193 
L 205.16613 -56.328701 
L 203.942934 -56.525104 
L 202.719738 -56.711348 
L 201.496542 -56.877994 
L 200.273346 -57.016853 
L 199.050151 -57.120014 
L 197.826955 -57.180808 
L 196.603759 -57.195902 
L 195.380563 -57.165747 
L 194.157367 -57.09252 
L 192.934171 -56.978012 
L 191.710975 -56.824762 
L 190.487779 -56.641144 
L 189.264583 -56.446522 
L 188.041388 -56.269683 
L 186.818192 -56.137195 
L 185.594996 -56.057785 
L 184.3718 -56.015537 
L 183.148604 -55.979435 
L 181.925408 -55.92301 
L 180.702212 -55.839272 
L 179.479016 -55.741472 
L 178.255821 -55.652598 
L 177.032625 -55.593502 
L 175.809429 -55.576327 
L 174.586233 -55.602924 
L 173.363037 -55.664942 
L 172.139841 -55.744858 
L 170.916645 -55.820104 
L 169.693449 -55.871054 
L 168.470253 -55.889082 
L 167.247058 -55.879067 
L 166.023862 -55.854738 
L 164.800666 -55.83093 
L 163.57747 -55.818 
L 162.354274 -55.819975 
L 161.131078 -55.834598 
L 159.907882 -55.853837 
L 158.684686 -55.865397 
L 157.46149 -55.856086 
L 156.238295 -55.816447 
L 155.015099 -55.744888 
L 153.791903 -55.649507 
L 152.568707 -55.546556 
L 151.345511 -55.455632 
L 150.122315 -55.393286 
L 148.899119 -55.367801 
L 147.675923 -55.37716 
L 146.452728 -55.410022 
L 145.229532 -55.448285 
L 144.006336 -55.47079 
L 142.78314 -55.459058 
L 141.559944 -55.40457 
L 140.336748 -55.313815 
L 139.113552 -55.206489 
L 137.890356 -55.106473 
L 136.66716 -55.031089 
L 135.443965 -54.985643 
L 134.220769 -54.965463 
L 132.997573 -54.961252 
L 131.774377 -54.962304 
L 130.551181 -54.956809 
L 129.327985 -54.932914 
L 128.104789 -54.882849 
L 126.881593 -54.807283 
L 125.658397 -54.715418 
L 124.435202 -54.62031 
L 123.212006 -54.533532 
L 121.98881 -54.462824 
L 120.765614 -54.412225 
L 119.542418 -54.381957 
L 118.319222 -54.367422 
L 117.096026 -54.359749 
L 115.87283 -54.349669 
L 114.649635 -54.33258 
L 113.426439 -54.310503 
L 112.203243 -54.289197 
L 110.980047 -54.273295 
L 109.756851 -54.263614 
L 108.533655 -54.257972 
L 107.310459 -54.253519 
L 106.087263 -54.24818 
L 104.864067 -54.240659 
L 103.640872 -54.230033 
L 102.417676 -54.215973 
L 101.19448 -54.199419 
L 99.971284 -54.182702 
L 98.748088 -54.168482 
L 97.524892 -54.158206 
L 96.301696 -54.151475 
L 95.0785 -54.146929 
L 93.855304 -54.143646 
L 92.632109 -54.141554 
L 91.408913 -54.140559 
L 90.185717 -54.139582 
L 88.962521 -54.136784 
z
" style="stroke: #22587a; stroke-width: 3"/>
    </defs>
    <g clip-path="url(#pb7fbb49681)">
     <use xlink:href="#mf444651da1" x="0" y="338.489531" style="fill: #22587a; fill-opacity: 0.2; stroke: #22587a; stroke-width: 3"/>
    </g>
   </g>
   <g id="PolyCollection_3">
    <defs>
     <path id="mbb8da542ac" d="M 35.799045 -54.131668 
L 35.799045 -54.089531 
L 37.318127 -54.089531 
L 38.837209 -54.089531 
L 40.356292 -54.089531 
L 41.875374 -54.089531 
L 43.394456 -54.089531 
L 44.913539 -54.089531 
L 46.432621 -54.089531 
L 47.951703 -54.089531 
L 49.470785 -54.089531 
L 50.989868 -54.089531 
L 52.50895 -54.089531 
L 54.028032 -54.089531 
L 55.547114 -54.089531 
L 57.066197 -54.089531 
L 58.585279 -54.089531 
L 60.104361 -54.089531 
L 61.623444 -54.089531 
L 63.142526 -54.089531 
L 64.661608 -54.089531 
L 66.18069 -54.089531 
L 67.699773 -54.089531 
L 69.218855 -54.089531 
L 70.737937 -54.089531 
L 72.257019 -54.089531 
L 73.776102 -54.089531 
L 75.295184 -54.089531 
L 76.814266 -54.089531 
L 78.333349 -54.089531 
L 79.852431 -54.089531 
L 81.371513 -54.089531 
L 82.890595 -54.089531 
L 84.409678 -54.089531 
L 85.92876 -54.089531 
L 87.447842 -54.089531 
L 88.966924 -54.089531 
L 90.486007 -54.089531 
L 92.005089 -54.089531 
L 93.524171 -54.089531 
L 95.043254 -54.089531 
L 96.562336 -54.089531 
L 98.081418 -54.089531 
L 99.6005 -54.089531 
L 101.119583 -54.089531 
L 102.638665 -54.089531 
L 104.157747 -54.089531 
L 105.676829 -54.089531 
L 107.195912 -54.089531 
L 108.714994 -54.089531 
L 110.234076 -54.089531 
L 111.753159 -54.089531 
L 113.272241 -54.089531 
L 114.791323 -54.089531 
L 116.310405 -54.089531 
L 117.829488 -54.089531 
L 119.34857 -54.089531 
L 120.867652 -54.089531 
L 122.386734 -54.089531 
L 123.905817 -54.089531 
L 125.424899 -54.089531 
L 126.943981 -54.089531 
L 128.463063 -54.089531 
L 129.982146 -54.089531 
L 131.501228 -54.089531 
L 133.02031 -54.089531 
L 134.539393 -54.089531 
L 136.058475 -54.089531 
L 137.577557 -54.089531 
L 139.096639 -54.089531 
L 140.615722 -54.089531 
L 142.134804 -54.089531 
L 143.653886 -54.089531 
L 145.172968 -54.089531 
L 146.692051 -54.089531 
L 148.211133 -54.089531 
L 149.730215 -54.089531 
L 151.249298 -54.089531 
L 152.76838 -54.089531 
L 154.287462 -54.089531 
L 155.806544 -54.089531 
L 157.325627 -54.089531 
L 158.844709 -54.089531 
L 160.363791 -54.089531 
L 161.882873 -54.089531 
L 163.401956 -54.089531 
L 164.921038 -54.089531 
L 166.44012 -54.089531 
L 167.959203 -54.089531 
L 169.478285 -54.089531 
L 170.997367 -54.089531 
L 172.516449 -54.089531 
L 174.035532 -54.089531 
L 175.554614 -54.089531 
L 177.073696 -54.089531 
L 178.592778 -54.089531 
L 180.111861 -54.089531 
L 181.630943 -54.089531 
L 183.150025 -54.089531 
L 184.669108 -54.089531 
L 186.18819 -54.089531 
L 187.707272 -54.089531 
L 189.226354 -54.089531 
L 190.745437 -54.089531 
L 192.264519 -54.089531 
L 193.783601 -54.089531 
L 195.302683 -54.089531 
L 196.821766 -54.089531 
L 198.340848 -54.089531 
L 199.85993 -54.089531 
L 201.379013 -54.089531 
L 202.898095 -54.089531 
L 204.417177 -54.089531 
L 205.936259 -54.089531 
L 207.455342 -54.089531 
L 208.974424 -54.089531 
L 210.493506 -54.089531 
L 212.012588 -54.089531 
L 213.531671 -54.089531 
L 215.050753 -54.089531 
L 216.569835 -54.089531 
L 218.088918 -54.089531 
L 219.608 -54.089531 
L 221.127082 -54.089531 
L 222.646164 -54.089531 
L 224.165247 -54.089531 
L 225.684329 -54.089531 
L 227.203411 -54.089531 
L 228.722493 -54.089531 
L 230.241576 -54.089531 
L 231.760658 -54.089531 
L 233.27974 -54.089531 
L 234.798823 -54.089531 
L 236.317905 -54.089531 
L 237.836987 -54.089531 
L 239.356069 -54.089531 
L 240.875152 -54.089531 
L 242.394234 -54.089531 
L 243.913316 -54.089531 
L 245.432398 -54.089531 
L 246.951481 -54.089531 
L 248.470563 -54.089531 
L 249.989645 -54.089531 
L 251.508728 -54.089531 
L 253.02781 -54.089531 
L 254.546892 -54.089531 
L 256.065974 -54.089531 
L 257.585057 -54.089531 
L 259.104139 -54.089531 
L 260.623221 -54.089531 
L 262.142303 -54.089531 
L 263.661386 -54.089531 
L 265.180468 -54.089531 
L 266.69955 -54.089531 
L 268.218633 -54.089531 
L 269.737715 -54.089531 
L 271.256797 -54.089531 
L 272.775879 -54.089531 
L 274.294962 -54.089531 
L 275.814044 -54.089531 
L 277.333126 -54.089531 
L 278.852208 -54.089531 
L 280.371291 -54.089531 
L 281.890373 -54.089531 
L 283.409455 -54.089531 
L 284.928538 -54.089531 
L 286.44762 -54.089531 
L 287.966702 -54.089531 
L 289.485784 -54.089531 
L 291.004867 -54.089531 
L 292.523949 -54.089531 
L 294.043031 -54.089531 
L 295.562113 -54.089531 
L 297.081196 -54.089531 
L 298.600278 -54.089531 
L 300.11936 -54.089531 
L 301.638443 -54.089531 
L 303.157525 -54.089531 
L 304.676607 -54.089531 
L 306.195689 -54.089531 
L 307.714772 -54.089531 
L 309.233854 -54.089531 
L 310.752936 -54.089531 
L 312.272018 -54.089531 
L 313.791101 -54.089531 
L 315.310183 -54.089531 
L 316.829265 -54.089531 
L 318.348348 -54.089531 
L 319.86743 -54.089531 
L 321.386512 -54.089531 
L 322.905594 -54.089531 
L 324.424677 -54.089531 
L 325.943759 -54.089531 
L 327.462841 -54.089531 
L 328.981923 -54.089531 
L 330.501006 -54.089531 
L 332.020088 -54.089531 
L 333.53917 -54.089531 
L 335.058253 -54.089531 
L 336.577335 -54.089531 
L 338.096417 -54.089531 
L 338.096417 -54.4491 
L 338.096417 -54.4491 
L 336.577335 -54.658017 
L 335.058253 -54.921238 
L 333.53917 -55.244784 
L 332.020088 -55.651024 
L 330.501006 -56.173598 
L 328.981923 -56.842539 
L 327.462841 -57.684531 
L 325.943759 -58.756031 
L 324.424677 -60.19679 
L 322.905594 -62.275516 
L 321.386512 -65.413937 
L 319.86743 -70.191648 
L 318.348348 -77.328055 
L 316.829265 -87.623557 
L 315.310183 -101.842862 
L 313.791101 -120.551582 
L 312.272018 -143.958865 
L 310.752936 -171.798799 
L 309.233854 -203.175733 
L 307.714772 -236.287147 
L 306.195689 -268.182128 
L 304.676607 -294.955318 
L 303.157525 -312.586217 
L 301.638443 -318.089531 
L 300.11936 -310.359331 
L 298.600278 -290.397585 
L 297.081196 -261.040647 
L 295.562113 -226.327446 
L 294.043031 -190.586025 
L 292.523949 -157.50313 
L 291.004867 -129.526674 
L 289.485784 -107.711378 
L 287.966702 -91.916543 
L 286.44762 -81.228019 
L 284.928538 -74.42315 
L 283.409455 -70.303647 
L 281.890373 -67.869983 
L 280.371291 -66.408719 
L 278.852208 -65.514995 
L 277.333126 -65.019364 
L 275.814044 -64.833477 
L 274.294962 -64.813739 
L 272.775879 -64.745616 
L 271.256797 -64.441708 
L 269.737715 -63.841117 
L 268.218633 -63.014714 
L 266.69955 -62.088566 
L 265.180468 -61.171603 
L 263.661386 -60.341648 
L 262.142303 -59.658896 
L 260.623221 -59.153776 
L 259.104139 -58.798468 
L 257.585057 -58.513268 
L 256.065974 -58.217211 
L 254.546892 -57.87732 
L 253.02781 -57.516453 
L 251.508728 -57.180382 
L 249.989645 -56.892153 
L 248.470563 -56.630823 
L 246.951481 -56.356991 
L 245.432398 -56.063987 
L 243.913316 -55.801477 
L 242.394234 -55.64292 
L 240.875152 -55.626654 
L 239.356069 -55.726305 
L 237.836987 -55.87404 
L 236.317905 -56.009198 
L 234.798823 -56.108004 
L 233.27974 -56.176365 
L 231.760658 -56.223645 
L 230.241576 -56.24843 
L 228.722493 -56.250757 
L 227.203411 -56.253639 
L 225.684329 -56.299851 
L 224.165247 -56.413901 
L 222.646164 -56.565508 
L 221.127082 -56.681111 
L 219.608 -56.701129 
L 218.088918 -56.628527 
L 216.569835 -56.522505 
L 215.050753 -56.448242 
L 213.531671 -56.432555 
L 212.012588 -56.458881 
L 210.493506 -56.491393 
L 208.974424 -56.498396 
L 207.455342 -56.461824 
L 205.936259 -56.380195 
L 204.417177 -56.271402 
L 202.898095 -56.168812 
L 201.379013 -56.100573 
L 199.85993 -56.061243 
L 198.340848 -56.009086 
L 196.821766 -55.90377 
L 195.302683 -55.745977 
L 193.783601 -55.573362 
L 192.264519 -55.424195 
L 190.745437 -55.315595 
L 189.226354 -55.251262 
L 187.707272 -55.233518 
L 186.18819 -55.260395 
L 184.669108 -55.316232 
L 183.150025 -55.373084 
L 181.630943 -55.407807 
L 180.111861 -55.421428 
L 178.592778 -55.437798 
L 177.073696 -55.474251 
L 175.554614 -55.513147 
L 174.035532 -55.513925 
L 172.516449 -55.458838 
L 170.997367 -55.375622 
L 169.478285 -55.306115 
L 167.959203 -55.262869 
L 166.44012 -55.229286 
L 164.921038 -55.194763 
L 163.401956 -55.171486 
L 161.882873 -55.172896 
L 160.363791 -55.188583 
L 158.844709 -55.190461 
L 157.325627 -55.161058 
L 155.806544 -55.110316 
L 154.287462 -55.064374 
L 152.76838 -55.038725 
L 151.249298 -55.021897 
L 149.730215 -54.986724 
L 148.211133 -54.918303 
L 146.692051 -54.827774 
L 145.172968 -54.738492 
L 143.653886 -54.665975 
L 142.134804 -54.614958 
L 140.615722 -54.587011 
L 139.096639 -54.580459 
L 137.577557 -54.584444 
L 136.058475 -54.581575 
L 134.539393 -54.559779 
L 133.02031 -54.520101 
L 131.501228 -54.472836 
L 129.982146 -54.427521 
L 128.463063 -54.387424 
L 126.943981 -54.352462 
L 125.424899 -54.323606 
L 123.905817 -54.301543 
L 122.386734 -54.283538 
L 120.867652 -54.265943 
L 119.34857 -54.249265 
L 117.829488 -54.237236 
L 116.310405 -54.230762 
L 114.791323 -54.225876 
L 113.272241 -54.219056 
L 111.753159 -54.213088 
L 110.234076 -54.215929 
L 108.714994 -54.232756 
L 107.195912 -54.257808 
L 105.676829 -54.274372 
L 104.157747 -54.266568 
L 102.638665 -54.23391 
L 101.119583 -54.192585 
L 99.6005 -54.160939 
L 98.081418 -54.145065 
L 96.562336 -54.138264 
L 95.043254 -54.131187 
L 93.524171 -54.120343 
L 92.005089 -54.108297 
L 90.486007 -54.09879 
L 88.966924 -54.093214 
L 87.447842 -54.09071 
L 85.92876 -54.089835 
L 84.409678 -54.089594 
L 82.890595 -54.089542 
L 81.371513 -54.089533 
L 79.852431 -54.089531 
L 78.333349 -54.089531 
L 76.814266 -54.089531 
L 75.295184 -54.089531 
L 73.776102 -54.089531 
L 72.257019 -54.089531 
L 70.737937 -54.089531 
L 69.218855 -54.089531 
L 67.699773 -54.089531 
L 66.18069 -54.089531 
L 64.661608 -54.089531 
L 63.142526 -54.089531 
L 61.623444 -54.089531 
L 60.104361 -54.089531 
L 58.585279 -54.089531 
L 57.066197 -54.089531 
L 55.547114 -54.089531 
L 54.028032 -54.089531 
L 52.50895 -54.089531 
L 50.989868 -54.089532 
L 49.470785 -54.089538 
L 47.951703 -54.089571 
L 46.432621 -54.089735 
L 44.913539 -54.090371 
L 43.394456 -54.092309 
L 41.875374 -54.096924 
L 40.356292 -54.105362 
L 38.837209 -54.116802 
L 37.318127 -54.127325 
L 35.799045 -54.131668 
z
" style="stroke: #de4968; stroke-width: 3"/>
    </defs>
    <g clip-path="url(#pb7fbb49681)">
     <use xlink:href="#mbb8da542ac" x="0" y="338.489531" style="fill: #de4968; fill-opacity: 0.2; stroke: #de4968; stroke-width: 3"/>
    </g>
   </g>
   <g id="PolyCollection_4">
    <defs>
     <path id="mc0556f51b6" d="M -58.227034 -54.599582 
L -58.227034 -54.089531 
L -56.347138 -54.089531 
L -54.467243 -54.089531 
L -52.587347 -54.089531 
L -50.707451 -54.089531 
L -48.827555 -54.089531 
L -46.947659 -54.089531 
L -45.067764 -54.089531 
L -43.187868 -54.089531 
L -41.307972 -54.089531 
L -39.428076 -54.089531 
L -37.548181 -54.089531 
L -35.668285 -54.089531 
L -33.788389 -54.089531 
L -31.908493 -54.089531 
L -30.028597 -54.089531 
L -28.148702 -54.089531 
L -26.268806 -54.089531 
L -24.38891 -54.089531 
L -22.509014 -54.089531 
L -20.629118 -54.089531 
L -18.749223 -54.089531 
L -16.869327 -54.089531 
L -14.989431 -54.089531 
L -13.109535 -54.089531 
L -11.229639 -54.089531 
L -9.349744 -54.089531 
L -7.469848 -54.089531 
L -5.589952 -54.089531 
L -3.710056 -54.089531 
L -1.830161 -54.089531 
L 0.049735 -54.089531 
L 1.929631 -54.089531 
L 3.809527 -54.089531 
L 5.689423 -54.089531 
L 7.569318 -54.089531 
L 9.449214 -54.089531 
L 11.32911 -54.089531 
L 13.209006 -54.089531 
L 15.088902 -54.089531 
L 16.968797 -54.089531 
L 18.848693 -54.089531 
L 20.728589 -54.089531 
L 22.608485 -54.089531 
L 24.48838 -54.089531 
L 26.368276 -54.089531 
L 28.248172 -54.089531 
L 30.128068 -54.089531 
L 32.007964 -54.089531 
L 33.887859 -54.089531 
L 35.767755 -54.089531 
L 37.647651 -54.089531 
L 39.527547 -54.089531 
L 41.407443 -54.089531 
L 43.287338 -54.089531 
L 45.167234 -54.089531 
L 47.04713 -54.089531 
L 48.927026 -54.089531 
L 50.806922 -54.089531 
L 52.686817 -54.089531 
L 54.566713 -54.089531 
L 56.446609 -54.089531 
L 58.326505 -54.089531 
L 60.2064 -54.089531 
L 62.086296 -54.089531 
L 63.966192 -54.089531 
L 65.846088 -54.089531 
L 67.725984 -54.089531 
L 69.605879 -54.089531 
L 71.485775 -54.089531 
L 73.365671 -54.089531 
L 75.245567 -54.089531 
L 77.125463 -54.089531 
L 79.005358 -54.089531 
L 80.885254 -54.089531 
L 82.76515 -54.089531 
L 84.645046 -54.089531 
L 86.524942 -54.089531 
L 88.404837 -54.089531 
L 90.284733 -54.089531 
L 92.164629 -54.089531 
L 94.044525 -54.089531 
L 95.92442 -54.089531 
L 97.804316 -54.089531 
L 99.684212 -54.089531 
L 101.564108 -54.089531 
L 103.444004 -54.089531 
L 105.323899 -54.089531 
L 107.203795 -54.089531 
L 109.083691 -54.089531 
L 110.963587 -54.089531 
L 112.843483 -54.089531 
L 114.723378 -54.089531 
L 116.603274 -54.089531 
L 118.48317 -54.089531 
L 120.363066 -54.089531 
L 122.242961 -54.089531 
L 124.122857 -54.089531 
L 126.002753 -54.089531 
L 127.882649 -54.089531 
L 129.762545 -54.089531 
L 131.64244 -54.089531 
L 133.522336 -54.089531 
L 135.402232 -54.089531 
L 137.282128 -54.089531 
L 139.162024 -54.089531 
L 141.041919 -54.089531 
L 142.921815 -54.089531 
L 144.801711 -54.089531 
L 146.681607 -54.089531 
L 148.561503 -54.089531 
L 150.441398 -54.089531 
L 152.321294 -54.089531 
L 154.20119 -54.089531 
L 156.081086 -54.089531 
L 157.960981 -54.089531 
L 159.840877 -54.089531 
L 161.720773 -54.089531 
L 163.600669 -54.089531 
L 165.480565 -54.089531 
L 167.36046 -54.089531 
L 169.240356 -54.089531 
L 171.120252 -54.089531 
L 173.000148 -54.089531 
L 174.880044 -54.089531 
L 176.759939 -54.089531 
L 178.639835 -54.089531 
L 180.519731 -54.089531 
L 182.399627 -54.089531 
L 184.279522 -54.089531 
L 186.159418 -54.089531 
L 188.039314 -54.089531 
L 189.91921 -54.089531 
L 191.799106 -54.089531 
L 193.679001 -54.089531 
L 195.558897 -54.089531 
L 197.438793 -54.089531 
L 199.318689 -54.089531 
L 201.198585 -54.089531 
L 203.07848 -54.089531 
L 204.958376 -54.089531 
L 206.838272 -54.089531 
L 208.718168 -54.089531 
L 210.598064 -54.089531 
L 212.477959 -54.089531 
L 214.357855 -54.089531 
L 216.237751 -54.089531 
L 218.117647 -54.089531 
L 219.997542 -54.089531 
L 221.877438 -54.089531 
L 223.757334 -54.089531 
L 225.63723 -54.089531 
L 227.517126 -54.089531 
L 229.397021 -54.089531 
L 231.276917 -54.089531 
L 233.156813 -54.089531 
L 235.036709 -54.089531 
L 236.916605 -54.089531 
L 238.7965 -54.089531 
L 240.676396 -54.089531 
L 242.556292 -54.089531 
L 244.436188 -54.089531 
L 246.316083 -54.089531 
L 248.195979 -54.089531 
L 250.075875 -54.089531 
L 251.955771 -54.089531 
L 253.835667 -54.089531 
L 255.715562 -54.089531 
L 257.595458 -54.089531 
L 259.475354 -54.089531 
L 261.35525 -54.089531 
L 263.235146 -54.089531 
L 265.115041 -54.089531 
L 266.994937 -54.089531 
L 268.874833 -54.089531 
L 270.754729 -54.089531 
L 272.634625 -54.089531 
L 274.51452 -54.089531 
L 276.394416 -54.089531 
L 278.274312 -54.089531 
L 280.154208 -54.089531 
L 282.034103 -54.089531 
L 283.913999 -54.089531 
L 285.793895 -54.089531 
L 287.673791 -54.089531 
L 289.553687 -54.089531 
L 291.433582 -54.089531 
L 293.313478 -54.089531 
L 295.193374 -54.089531 
L 297.07327 -54.089531 
L 298.953166 -54.089531 
L 300.833061 -54.089531 
L 302.712957 -54.089531 
L 304.592853 -54.089531 
L 306.472749 -54.089531 
L 308.352645 -54.089531 
L 310.23254 -54.089531 
L 312.112436 -54.089531 
L 313.992332 -54.089531 
L 315.872228 -54.089531 
L 315.872228 -54.16283 
L 315.872228 -54.16283 
L 313.992332 -54.154908 
L 312.112436 -54.139262 
L 310.23254 -54.135085 
L 308.352645 -54.154517 
L 306.472749 -54.191874 
L 304.592853 -54.225457 
L 302.712957 -54.23509 
L 300.833061 -54.223436 
L 298.953166 -54.215987 
L 297.07327 -54.236991 
L 295.193374 -54.288648 
L 293.313478 -54.350507 
L 291.433582 -54.390886 
L 289.553687 -54.384889 
L 287.673791 -54.335022 
L 285.793895 -54.271211 
L 283.913999 -54.221166 
L 282.034103 -54.187228 
L 280.154208 -54.158 
L 278.274312 -54.129927 
L 276.394416 -54.108274 
L 274.51452 -54.096224 
L 272.634625 -54.091672 
L 270.754729 -54.091735 
L 268.874833 -54.096718 
L 266.994937 -54.110669 
L 265.115041 -54.138049 
L 263.235146 -54.177283 
L 261.35525 -54.217558 
L 259.475354 -54.245172 
L 257.595458 -54.253687 
L 255.715562 -54.247033 
L 253.835667 -54.236003 
L 251.955771 -54.23355 
L 250.075875 -54.246743 
L 248.195979 -54.268569 
L 246.316083 -54.282776 
L 244.436188 -54.27941 
L 242.556292 -54.261511 
L 240.676396 -54.236685 
L 238.7965 -54.207658 
L 236.916605 -54.174189 
L 235.036709 -54.140401 
L 233.156813 -54.113971 
L 231.276917 -54.098831 
L 229.397021 -54.093266 
L 227.517126 -54.094745 
L 225.63723 -54.103768 
L 223.757334 -54.121825 
L 221.877438 -54.144888 
L 219.997542 -54.160855 
L 218.117647 -54.158584 
L 216.237751 -54.139766 
L 214.357855 -54.116992 
L 212.477959 -54.100811 
L 210.598064 -54.093013 
L 208.718168 -54.090339 
L 206.838272 -54.089672 
L 204.958376 -54.08955 
L 203.07848 -54.089533 
L 201.198585 -54.089531 
L 199.318689 -54.089531 
L 197.438793 -54.089531 
L 195.558897 -54.089531 
L 193.679001 -54.089531 
L 191.799106 -54.089532 
L 189.91921 -54.089535 
L 188.039314 -54.089567 
L 186.159418 -54.089812 
L 184.279522 -54.091291 
L 182.399627 -54.098545 
L 180.519731 -54.128292 
L 178.639835 -54.231577 
L 176.759939 -54.534863 
L 174.880044 -55.283694 
L 173.000148 -56.846068 
L 171.120252 -59.668429 
L 169.240356 -64.257609 
L 167.36046 -71.198209 
L 165.480565 -81.019775 
L 163.600669 -93.807687 
L 161.720773 -108.885246 
L 159.840877 -125.005659 
L 157.960981 -140.890915 
L 156.081086 -155.516275 
L 154.20119 -168.032578 
L 152.321294 -177.723583 
L 150.441398 -184.117632 
L 148.561503 -187.078028 
L 146.681607 -186.817709 
L 144.801711 -183.91117 
L 142.921815 -179.269027 
L 141.041919 -173.834744 
L 139.162024 -168.08396 
L 137.282128 -161.9598 
L 135.402232 -155.336294 
L 133.522336 -148.23926 
L 131.64244 -140.679054 
L 129.762545 -132.776537 
L 127.882649 -125.067002 
L 126.002753 -118.207706 
L 124.122857 -112.344436 
L 122.242961 -107.06391 
L 120.363066 -101.934875 
L 118.48317 -96.926465 
L 116.603274 -92.371132 
L 114.723378 -88.623912 
L 112.843483 -85.735149 
L 110.963587 -83.395336 
L 109.083691 -81.132668 
L 107.203795 -78.565398 
L 105.323899 -75.58289 
L 103.444004 -72.397779 
L 101.564108 -69.424485 
L 99.684212 -67.037746 
L 97.804316 -65.373734 
L 95.92442 -64.29481 
L 94.044525 -63.529682 
L 92.164629 -62.881828 
L 90.284733 -62.294225 
L 88.404837 -61.731134 
L 86.524942 -61.127243 
L 84.645046 -60.484073 
L 82.76515 -59.870238 
L 80.885254 -59.297272 
L 79.005358 -58.719404 
L 77.125463 -58.149108 
L 75.245567 -57.660411 
L 73.365671 -57.282267 
L 71.485775 -56.967243 
L 69.605879 -56.662247 
L 67.725984 -56.351321 
L 65.846088 -56.03939 
L 63.966192 -55.749228 
L 62.086296 -55.524922 
L 60.2064 -55.399982 
L 58.326505 -55.36034 
L 56.446609 -55.344176 
L 54.566713 -55.283535 
L 52.686817 -55.160247 
L 50.806922 -55.02414 
L 48.927026 -54.953953 
L 47.04713 -54.992051 
L 45.167234 -55.091247 
L 43.287338 -55.130841 
L 41.407443 -55.032944 
L 39.527547 -54.850581 
L 37.647651 -54.685755 
L 35.767755 -54.561274 
L 33.887859 -54.440043 
L 32.007964 -54.323311 
L 30.128068 -54.263783 
L 28.248172 -54.30156 
L 26.368276 -54.412869 
L 24.48838 -54.511789 
L 22.608485 -54.513267 
L 20.728589 -54.410168 
L 18.848693 -54.27194 
L 16.968797 -54.167513 
L 15.088902 -54.114582 
L 13.209006 -54.095578 
L 11.32911 -54.090628 
L 9.449214 -54.089681 
L 7.569318 -54.089547 
L 5.689423 -54.089532 
L 3.809527 -54.089531 
L 1.929631 -54.089531 
L 0.049735 -54.089531 
L -1.830161 -54.089531 
L -3.710056 -54.089531 
L -5.589952 -54.089531 
L -7.469848 -54.089531 
L -9.349744 -54.089531 
L -11.229639 -54.089531 
L -13.109535 -54.089531 
L -14.989431 -54.089531 
L -16.869327 -54.089531 
L -18.749223 -54.089531 
L -20.629118 -54.089531 
L -22.509014 -54.089531 
L -24.38891 -54.089531 
L -26.268806 -54.089531 
L -28.148702 -54.089531 
L -30.028597 -54.089531 
L -31.908493 -54.089531 
L -33.788389 -54.089531 
L -35.668285 -54.089531 
L -37.548181 -54.089531 
L -39.428076 -54.089532 
L -41.307972 -54.089536 
L -43.187868 -54.089586 
L -45.067764 -54.089995 
L -46.947659 -54.092506 
L -48.827555 -54.103856 
L -50.707451 -54.141368 
L -52.587347 -54.230482 
L -54.467243 -54.377517 
L -56.347138 -54.531664 
L -58.227034 -54.599582 
z
" style="stroke: #38a3a6; stroke-width: 3"/>
    </defs>
    <g clip-path="url(#pb7fbb49681)">
     <use xlink:href="#mc0556f51b6" x="0" y="338.489531" style="fill: #38a3a6; fill-opacity: 0.2; stroke: #38a3a6; stroke-width: 3"/>
    </g>
   </g>
   <g id="patch_3">
    <path d="M 64.360781 284.4 
L 64.360781 7.2 
" style="fill: none; stroke: #262626; stroke-width: 3; stroke-linejoin: miter; stroke-linecap: square"/>
   </g>
   <g id="patch_4">
    <path d="M 64.360781 284.4 
L 343.360781 284.4 
" style="fill: none; stroke: #262626; stroke-width: 3; stroke-linejoin: miter; stroke-linecap: square"/>
   </g>
   <g id="legend_1">
    <g id="patch_5">
     <path d="M 324.398555 114.024609 
L 357.398555 114.024609 
L 357.398555 102.474609 
L 324.398555 102.474609 
z
" style="fill: #38a3a6; stroke: #ffffff; stroke-linejoin: miter"/>
    </g>
    <g id="text_12">
     <text style="fill: #262626; font: 16.5px 'sans-serif'; text-anchor: start" x="370.598555" y="114.024609" transform="rotate(-0, 370.598555, 114.024609)">AraC WT</text>
    </g>
    <g id="patch_6">
     <path d="M 324.398555 138.243516 
L 357.398555 138.243516 
L 357.398555 126.693516 
L 324.398555 126.693516 
z
" style="fill: #de4968; stroke: #ffffff; stroke-linejoin: miter"/>
    </g>
    <g id="text_13">
     <text style="fill: #262626; font: 16.5px 'sans-serif'; text-anchor: start" x="370.598555" y="138.243516" transform="rotate(-0, 370.598555, 138.243516)">AraC R2</text>
    </g>
    <g id="patch_7">
     <path d="M 324.398555 162.462422 
L 357.398555 162.462422 
L 357.398555 150.912422 
L 324.398555 150.912422 
z
" style="fill: #22587a; stroke: #ffffff; stroke-linejoin: miter"/>
    </g>
    <g id="text_14">
     <text style="fill: #262626; font: 16.5px 'sans-serif'; text-anchor: start" x="370.598555" y="162.462422" transform="rotate(-0, 370.598555, 162.462422)">AraC WT Arabinose</text>
    </g>
    <g id="patch_8">
     <path d="M 324.398555 186.681328 
L 357.398555 186.681328 
L 357.398555 175.131328 
L 324.398555 175.131328 
z
" style="fill: #8c2981; stroke: #ffffff; stroke-linejoin: miter"/>
    </g>
    <g id="text_15">
     <text style="fill: #262626; font: 16.5px 'sans-serif'; text-anchor: start" x="370.598555" y="186.681328" transform="rotate(-0, 370.598555, 186.681328)">AraC R2 Arabinose</text>
    </g>
   </g>
  </g>
 </g>
 <defs>
  <clipPath id="pb7fbb49681">
   <rect x="64.360781" y="7.2" width="279" height="277.2"/>
  </clipPath>
 </defs>
</svg>
